<svg width="32" height="32" viewBox="0 0 32 32" fill="none" xmlns="http://www.w3.org/2000/svg">
<path d="M10 10L9.09 7.876C7.599 7.475 6.5 6.1175 6.5 4.5C6.5 2.567 8.067 1 10 1C11.933 1 13.5 2.567 13.5 4.5C13.5 6.1175 12.401 7.475 10.91 7.876L10 10Z" fill="#3D98F7"/>
<path d="M24.5 22L23.59 24.124C22.099 24.525 21 25.8825 21 27.5C21 29.433 22.567 31 24.5 31C26.433 31 28 29.433 28 27.5C28 25.8825 26.901 24.525 25.41 24.124L24.5 22Z" fill="#3D98F7"/>
<path d="M9 29H11V30.5H9V29Z" fill="#8892A0"/>
<path d="M16 19H19V29H1V19H4" fill="#A1CDFB"/>
<path d="M16 19H4H1V26.2005C2.461 26.715 4.0655 27 5.75 27C11.591 27 16.4745 23.578 17.7005 19H16Z" fill="#C7E2FC"/>
<path d="M14.5 24H5.5V22C5.5 20.343 6.843 19 8.5 19H11.5C13.157 19 14.5 20.343 14.5 22V24Z" fill="#669E4F"/>
<path d="M12 18.5H12.697C13.8235 18.5 14.875 17.937 15.5 17C14.3955 17 13.5 16.1045 13.5 15V14.5C13.5 12.567 11.933 11 10 11C8.067 11 6.5 12.567 6.5 14.5V15C6.5 16.1045 5.6045 17 4.5 17C5.1245 17.937 6.1765 18.5 7.303 18.5H8" fill="#C18E59"/>
<path d="M10 13C10 14.1045 10.8955 15 12 15H12.5V16.5C12.5 17.8805 11.3805 19 10 19C8.6195 19 7.5 17.8805 7.5 16.5V15H8C9.1045 15 10 14.1045 10 13Z" fill="#EFBE9A"/>
<path d="M11.5 19H8.5C6.843 19 5.5 20.343 5.5 22V22.9C5.9865 22.9635 6.487 23 7 23C9.964 23 12.5455 21.889 13.9275 20.2425C13.3825 19.491 12.4995 19 11.5 19Z" fill="#78B75B"/>
<path d="M9.00004 21L10 20L11 21L12.3975 19.137C12.114 19.048 11.8125 19 11.5 19H8.50004C8.18754 19 7.88604 19.048 7.60254 19.137L9.00004 21Z" fill="#EFBE9A"/>
<path d="M31 20V18C31 15.2385 28.7615 13 26 13H21C18.2385 13 16 15.2385 16 18V20" fill="#C66B60"/>
<path d="M19 19C23.2355 19 26.82 16.665 28.046 13.441C27.421 13.16 26.7295 13 26 13H21C18.2385 13 16 15.2385 16 18V18.5865C16.944 18.851 17.9505 19 19 19Z" fill="#E47C6E"/>
<path d="M26 18L26.9725 13.096C26.6575 13.034 26.333 13 26 13H25.5L23.5 15.5L26 18Z" fill="#C66B60"/>
<path d="M20.9998 18L23.4998 15.5L21.4998 13H20.9998C20.6668 13 20.3423 13.034 20.0273 13.096L20.9998 18Z" fill="#C66B60"/>
<path d="M21.5 13L23.5 15.5L25.5 13" fill="#DB9B7C"/>
<path d="M20 10H19C18.1715 10 17.5 9.3285 17.5 8.5C17.5 7.6715 18.1715 7 19 7H20" fill="#DB9B7C"/>
<path d="M27 7H28C28.8285 7 29.5 7.6715 29.5 8.5C29.5 9.3285 28.8285 10 28 10H27" fill="#DB9B7C"/>
<path d="M27.5 4.5V9C27.5 11.209 25.709 13 23.5 13C21.291 13 19.5 11.209 19.5 9V4.5" fill="#EFBE9A"/>
<path d="M24.5 3.5V4C24.5 5.657 23.157 7 21.5 7H18.5V4.5C18.5 2.567 20.067 1 22 1H25C26.933 1 28.5 2.567 28.5 4.5V7H26C25.1715 7 24.5 6.3285 24.5 5.5V3.5Z" fill="#976947"/>
<path d="M26.9685 1.6065C26.4075 1.224 25.73 1 25 1H22C20.067 1 18.5 2.567 18.5 4.5V7H21.5C23.157 7 24.5 5.657 24.5 4V5.5C24.5 6.0185 24.763 6.4755 25.163 6.745C26.294 5.608 27 4.016 27 2.25C27 2.0325 26.989 1.818 26.9685 1.6065Z" fill="#C18E59"/>
<path d="M6.5 30H13.5V31H6.5V30Z" fill="#4D5D7A"/>
<path d="M4 23.5H16V24.5H4V23.5Z" fill="#4D5D7A"/>
<path d="M7.5 4H8.5V5H7.5V4Z" fill="white"/>
<path d="M9.5 4H10.5V5H9.5V4Z" fill="white"/>
<path d="M11.5 4H12.5V5H11.5V4Z" fill="white"/>
<path d="M22 27H23V28H22V27Z" fill="white"/>
<path d="M24 27H25V28H24V27Z" fill="white"/>
<path d="M26 27H27V28H26V27Z" fill="white"/>
</svg>
