<svg width="32" height="32" viewBox="0 0 32 32" fill="none" xmlns="http://www.w3.org/2000/svg">
<g clip-path="url(#clip0)">
<path d="M27.7748 0.249756H9.9578C7.63386 0.249756 5.73242 2.15119 5.73242 4.47513V5.91288H21.8494C24.1733 5.91288 26.0747 7.81432 26.0747 10.1383V20.6724H27.7748C30.0987 20.6724 32.0002 18.771 32.0002 16.4471V4.47513C32.0002 2.15113 30.0987 0.249756 27.7748 0.249756Z" fill="#6C7ED6"/>
<path d="M24.779 5.71973H6.96198C6.53473 5.71973 6.12192 5.78448 5.73242 5.90385V5.91291H21.8494C24.1733 5.91291 26.0747 7.81435 26.0747 10.1383V20.6725H27.7747C28.202 20.6725 28.6148 20.6077 29.0043 20.4883V9.9451C29.0044 7.62116 27.1029 5.71973 24.779 5.71973Z" fill="#4F67D2"/>
<path d="M22.0424 5.71973H4.22538C1.90144 5.71973 0 7.62116 0 9.9451V21.917C0 24.2409 1.90144 26.1424 4.22538 26.1424H14.9189C15.3773 26.1424 15.7196 26.569 15.6147 27.0152C15.3311 28.2225 14.8972 29.4993 14.2557 30.8081C13.9676 31.3959 14.6229 31.9935 15.1796 31.649C16.789 30.6529 19.0789 28.9859 21.0073 26.6292C21.2608 26.3194 21.6421 26.1423 22.0424 26.1423C24.3663 26.1423 26.2677 24.2409 26.2677 21.9169V9.94504C26.2677 7.62116 24.3663 5.71973 22.0424 5.71973Z" fill="#60B8FE"/>
<path d="M18.3512 27.0151C18.456 26.5688 18.1139 26.1422 17.6554 26.1422H14.919C15.3774 26.1422 15.7196 26.5688 15.6148 27.0151C15.3312 28.2224 14.8973 29.4992 14.2558 30.808C13.9677 31.3958 14.623 31.9933 15.1797 31.6488C15.7972 31.2667 16.515 30.7853 17.274 30.2046C17.7635 29.1069 18.1114 28.0361 18.3512 27.0151Z" fill="#23A8FE"/>
<path d="M2.73644 21.917V9.9451C2.73644 7.62116 4.63788 5.71973 6.96181 5.71973H4.22538C1.90144 5.71973 0 7.62116 0 9.9451V21.917C0 24.2409 1.90144 26.1424 4.22538 26.1424H6.96181C4.63781 26.1424 2.73644 24.241 2.73644 21.917Z" fill="#23A8FE"/>
<path d="M5.8572 17.6771C6.63158 17.6771 7.25933 17.0493 7.25933 16.2749C7.25933 15.5006 6.63158 14.8728 5.8572 14.8728C5.08283 14.8728 4.45508 15.5006 4.45508 16.2749C4.45508 17.0493 5.08283 17.6771 5.8572 17.6771Z" fill="#DFEBFA"/>
<path d="M10.3855 17.6771C11.1599 17.6771 11.7876 17.0493 11.7876 16.2749C11.7876 15.5006 11.1599 14.8728 10.3855 14.8728C9.61115 14.8728 8.9834 15.5006 8.9834 16.2749C8.9834 17.0493 9.61115 17.6771 10.3855 17.6771Z" fill="#DFEBFA"/>
<path d="M14.9148 17.6771C15.6892 17.6771 16.3169 17.0493 16.3169 16.2749C16.3169 15.5006 15.6892 14.8728 14.9148 14.8728C14.1404 14.8728 13.5127 15.5006 13.5127 16.2749C13.5127 17.0493 14.1404 17.6771 14.9148 17.6771Z" fill="#DFEBFA"/>
<path d="M19.4431 17.6771C20.2175 17.6771 20.8453 17.0493 20.8453 16.2749C20.8453 15.5006 20.2175 14.8728 19.4431 14.8728C18.6688 14.8728 18.041 15.5006 18.041 16.2749C18.041 17.0493 18.6688 17.6771 19.4431 17.6771Z" fill="#DFEBFA"/>
<path d="M5.8572 16.2749C5.8572 15.7561 6.13933 15.3033 6.55827 15.0609C6.35195 14.9415 6.1127 14.8728 5.8572 14.8728C5.08283 14.8728 4.45508 15.5006 4.45508 16.2749C4.45508 17.0493 5.08283 17.6771 5.8572 17.6771C6.1127 17.6771 6.35202 17.6084 6.55827 17.489C6.13927 17.2466 5.8572 16.7938 5.8572 16.2749Z" fill="#B1DBFC"/>
<path d="M10.3855 16.2749C10.3855 15.7561 10.6676 15.3033 11.0866 15.0609C10.8803 14.9415 10.641 14.8728 10.3855 14.8728C9.61115 14.8728 8.9834 15.5006 8.9834 16.2749C8.9834 17.0493 9.61115 17.6771 10.3855 17.6771C10.641 17.6771 10.8803 17.6084 11.0866 17.489C10.6676 17.2466 10.3855 16.7938 10.3855 16.2749Z" fill="#B1DBFC"/>
<path d="M14.9148 16.2749C14.9148 15.7561 15.1969 15.3033 15.6159 15.0609C15.4096 14.9415 15.1703 14.8728 14.9148 14.8728C14.1404 14.8728 13.5127 15.5006 13.5127 16.2749C13.5127 17.0493 14.1404 17.6771 14.9148 17.6771C15.1703 17.6771 15.4096 17.6084 15.6159 17.489C15.1969 17.2466 14.9148 16.7938 14.9148 16.2749Z" fill="#B1DBFC"/>
<path d="M19.4431 16.2749C19.4431 15.7561 19.7252 15.3033 20.1442 15.0609C19.9379 14.9415 19.6986 14.8728 19.4431 14.8728C18.6688 14.8728 18.041 15.5006 18.041 16.2749C18.041 17.0493 18.6688 17.6771 19.4431 17.6771C19.6986 17.6771 19.938 17.6084 20.1442 17.489C19.7252 17.2466 19.4431 16.7938 19.4431 16.2749Z" fill="#B1DBFC"/>
</g>
<defs>
<clipPath id="clip0">
<rect width="32" height="32" fill="white"/>
</clipPath>
</defs>
</svg>
