<svg width="32" height="32" viewBox="0 0 32 32" fill="none" xmlns="http://www.w3.org/2000/svg">
<path d="M30.5518 27.171H1.44922V7.05559C1.44922 5.98877 2.31403 5.12402 3.38078 5.12402H28.6202C29.687 5.12402 30.5518 5.98884 30.5518 7.05559V27.171H30.5518Z" fill="#506D90"/>
<path d="M28.62 5.12402H26.6885C27.7553 5.12402 28.62 5.98884 28.62 7.05559V27.171H30.5516V7.05559C30.5517 5.98884 29.6869 5.12402 28.62 5.12402Z" fill="#455F7E"/>
<path d="M0.321938 27.1709H31.6781C31.8559 27.1709 32 27.315 32 27.4928V29.7173C32 30.9779 30.9781 31.9998 29.7174 31.9998H2.28256C1.02194 31.9999 0 30.978 0 29.7173V27.4929C0 27.3151 0.144125 27.1709 0.321938 27.1709Z" fill="#455F7E"/>
<path d="M31.6773 27.1709H29.7458C29.9236 27.1709 30.0677 27.315 30.0677 27.4928V29.7173C30.0677 30.9779 29.0458 31.9999 27.7852 31.9999H29.7167C30.9773 31.9999 31.9993 30.9779 31.9993 29.7173V27.4928C31.9993 27.3151 31.8551 27.1709 31.6773 27.1709Z" fill="#405972"/>
<path d="M3.37988 24.0161V7.31323C3.37988 7.17098 3.4952 7.05566 3.63745 7.05566H28.3618C28.5041 7.05566 28.6194 7.17098 28.6194 7.31323V24.0161C28.6194 24.1584 28.5041 24.2737 28.3618 24.2737H3.63738C3.49513 24.2737 3.37988 24.1584 3.37988 24.0161Z" fill="#ECF5FF"/>
<path d="M28.3622 7.05566H26.4307C26.5729 7.05566 26.6882 7.17098 26.6882 7.31323V24.0162C26.6882 24.1584 26.5729 24.2737 26.4307 24.2737H28.3622C28.5045 24.2737 28.6198 24.1584 28.6198 24.0162V7.31323C28.6197 7.17098 28.5045 7.05566 28.3622 7.05566Z" fill="#DBEAFD"/>
<path d="M18.122 29.1025H13.8783C13.5226 29.1025 13.2344 28.8143 13.2344 28.4586V27.1709H18.7658V28.4586C18.7659 28.8143 18.4776 29.1025 18.122 29.1025Z" fill="#405972"/>
<path d="M23.7397 18.8329H8.26025C8.08212 18.8329 7.9185 18.7349 7.83444 18.5778C7.75044 18.4208 7.75969 18.2303 7.8585 18.082L15.5982 6.4791C15.6878 6.34485 15.8386 6.26416 16 6.26416C16.1614 6.26416 16.3121 6.34485 16.4017 6.4791L24.1415 18.082C24.2403 18.2302 24.2496 18.4208 24.1656 18.5778C24.0815 18.7349 23.9179 18.8329 23.7397 18.8329ZM9.16287 17.8671H22.8372L16 7.61729L9.16287 17.8671Z" fill="#506D90"/>
<path d="M20.5914 4.59206C20.5914 6.13194 19.8334 7.49481 18.6702 8.32794C17.9177 8.86687 17.065 8.92906 16.0688 8.92906C15.7518 8.92906 15.3728 9.152 15.0739 9.09081C12.9813 8.66263 11.4072 6.81112 11.4072 4.59206C11.4072 2.05594 13.4632 0 15.9993 0C18.5354 0 20.5914 2.05594 20.5914 4.59206Z" fill="#BCD7FD"/>
<path d="M16 0C15.6686 0 15.3457 0.035875 15.0342 0.102625C17.1064 0.546313 18.6604 2.38737 18.6604 4.59212C18.6604 6.79688 17.1064 8.63787 15.0342 9.08162C15.3457 9.14831 15.7381 8.92919 16.0695 8.92919C17.0657 8.92919 17.9184 8.867 18.6709 8.32806C19.8341 7.49494 20.5921 6.13212 20.5921 4.59219C20.5921 2.05594 18.5361 0 16 0Z" fill="#9BC6FD"/>
<path d="M16.1827 5.60791H15.8157C14.4424 5.60791 13.3291 6.72122 13.3291 8.09454V8.32678C14.0817 8.86578 15.003 9.18403 15.9992 9.18403C16.9955 9.18403 17.9169 8.86572 18.6694 8.32678V8.09454C18.6694 6.72122 17.556 5.60791 16.1827 5.60791Z" fill="#F7E07F"/>
<path d="M16.2824 9.17463C16.7582 9.14869 17.4742 9.00707 18.0882 8.68119C18.2912 8.57719 18.4855 8.45875 18.6696 8.32688V8.09463C18.6696 7.5435 18.4901 7.03456 18.1866 6.62231C17.5746 7.86107 16.4209 8.78432 15.0342 9.08138C15.0364 9.08188 15.5276 9.20001 16.2824 9.17463Z" fill="#F0D16F"/>
<path d="M16 5.60789C16.939 5.60789 17.7002 4.8467 17.7002 3.90771C17.7002 2.96872 16.939 2.20752 16 2.20752C15.061 2.20752 14.2998 2.96872 14.2998 3.90771C14.2998 4.8467 15.061 5.60789 16 5.60789Z" fill="#F2CCBC"/>
<path d="M14.4956 17.751C14.4956 19.2909 13.7376 20.6537 12.5745 21.4869C11.822 22.0258 10.9758 22.1396 9.97959 22.1396C9.66259 22.1396 9.27702 22.311 8.97809 22.2498C6.88559 21.8215 5.31152 19.9701 5.31152 17.751C5.31152 15.2149 7.36746 13.1589 9.90359 13.1589C12.4397 13.1589 14.4956 15.2148 14.4956 17.751Z" fill="#BCD7FD"/>
<path d="M9.90429 13.158C9.57291 13.158 9.24998 13.1939 8.93848 13.2606C11.0107 13.7043 12.5647 15.5453 12.5647 17.75C12.5647 19.9547 11.0107 21.7958 8.93848 22.2394C9.24998 22.3061 9.64891 22.1386 9.98029 22.1386C10.9765 22.1386 11.8226 22.0248 12.5752 21.4858C13.7384 20.6527 14.4964 19.2899 14.4964 17.75C14.4964 15.2139 12.4404 13.158 9.90429 13.158Z" fill="#9BC6FD"/>
<path d="M10.087 18.7661H9.72002C8.34671 18.7661 7.2334 19.8794 7.2334 21.2527V21.485C7.98596 22.024 8.90727 22.3422 9.90352 22.3422C10.8998 22.3422 11.8211 22.0239 12.5736 21.485V21.2527C12.5736 19.8794 11.4603 18.7661 10.087 18.7661Z" fill="#DD8793"/>
<path d="M8.93848 22.2393C9.85298 22.4352 10.9563 22.3702 11.9922 21.8393C12.1952 21.7353 12.3897 21.6168 12.5739 21.4848V21.2526C12.5739 20.7015 12.3944 20.1925 12.0909 19.7803C11.4789 21.019 10.3252 21.9423 8.93848 22.2393Z" fill="#D5707E"/>
<path d="M9.90429 18.7658C10.8433 18.7658 11.6045 18.0046 11.6045 17.0657C11.6045 16.1267 10.8433 15.3655 9.90429 15.3655C8.9653 15.3655 8.2041 16.1267 8.2041 17.0657C8.2041 18.0046 8.9653 18.7658 9.90429 18.7658Z" fill="#F2CCBC"/>
<path d="M26.6881 17.7498C26.6881 19.2897 25.9301 20.6526 24.7669 21.4857C24.0144 22.0247 23.1905 22.1647 22.1942 22.1647C21.8628 22.1647 21.4415 22.3068 21.13 22.2401C19.0577 21.7964 17.5039 19.9546 17.5039 17.7498C17.5039 15.2137 19.5598 13.1577 22.096 13.1577C24.6321 13.1577 26.6881 15.2137 26.6881 17.7498Z" fill="#BCD7FD"/>
<path d="M22.0967 13.1577C21.7653 13.1577 21.4424 13.1937 21.1309 13.2603C23.2031 13.704 24.7571 15.5451 24.7571 17.7498C24.7571 19.9545 23.203 21.7955 21.1309 22.2392C21.4424 22.3059 21.7652 22.1685 22.0967 22.1685C23.0929 22.1685 24.015 22.0246 24.7675 21.4856C25.9307 20.6525 26.6887 19.2896 26.6887 17.7497C26.6887 15.2136 24.6328 13.1577 22.0967 13.1577Z" fill="#9BC6FD"/>
<path d="M22.2794 18.7659H21.9124C20.5391 18.7659 19.4258 19.8792 19.4258 21.2525V21.4847C20.1783 22.0237 21.0997 22.342 22.0959 22.342C23.0922 22.342 24.0135 22.0237 24.766 21.4847V21.2525C24.766 19.8792 23.6527 18.7659 22.2794 18.7659Z" fill="#BFE69F"/>
<path d="M21.1299 22.2391C22.0444 22.435 23.1477 22.3699 24.1836 21.8391C24.3866 21.735 24.5811 21.6165 24.7653 21.4846V21.2523C24.7653 20.7012 24.5858 20.1922 24.2823 19.78C23.6703 21.0188 22.5166 21.942 21.1299 22.2391Z" fill="#A4D9A6"/>
<path d="M22.0967 18.7656C23.0357 18.7656 23.7969 18.0044 23.7969 17.0654C23.7969 16.1264 23.0357 15.3652 22.0967 15.3652C21.1577 15.3652 20.3965 16.1264 20.3965 17.0654C20.3965 18.0044 21.1577 18.7656 22.0967 18.7656Z" fill="#F2CCBC"/>
<path d="M22.0952 15.3652C21.7854 15.3652 21.4953 15.4485 21.2451 15.5932C21.7532 15.8872 22.0952 16.4362 22.0952 17.0654C22.0952 17.6946 21.7532 18.2436 21.2451 18.5376C21.4952 18.6823 21.7854 18.7656 22.0952 18.7656C23.0342 18.7656 23.7954 18.0044 23.7954 17.0654C23.7954 16.1264 23.0342 15.3652 22.0952 15.3652Z" fill="#ECAD9A"/>
<path d="M9.90384 15.3652C9.59402 15.3652 9.3039 15.4485 9.05371 15.5932C9.56177 15.8872 9.90384 16.4362 9.90384 17.0654C9.90384 17.6946 9.56177 18.2436 9.05371 18.5376C9.30384 18.6823 9.59402 18.7656 9.90384 18.7656C10.8428 18.7656 11.604 18.0044 11.604 17.0654C11.604 16.1264 10.8428 15.3652 9.90384 15.3652Z" fill="#ECAD9A"/>
<path d="M15.9995 2.20752C15.6897 2.20752 15.3996 2.29077 15.1494 2.43552C15.6575 2.72952 15.9995 3.27852 15.9995 3.90771C15.9995 4.5369 15.6575 5.0859 15.1494 5.3799C15.3995 5.52465 15.6897 5.60789 15.9995 5.60789C16.9385 5.60789 17.6997 4.84671 17.6997 3.90771C17.6997 2.96871 16.9385 2.20752 15.9995 2.20752Z" fill="#ECAD9A"/>
</svg>
