<svg width="70" height="70" viewBox="0 0 70 70" fill="none" xmlns="http://www.w3.org/2000/svg">
<g clip-path="url(#clip0)">
<path d="M68.8333 62.1581V35.0004C68.8301 34.8199 68.7841 34.6428 68.6992 34.4836H68.7108L65.8548 28.7727C65.2668 27.5822 64.0525 26.83 62.7247 26.8337H54.8333V25.6671C54.8333 25.3577 54.7103 25.061 54.4915 24.8422L48.1752 18.5259C47.7553 18.1104 47.236 17.8095 46.6667 17.6521V9.78288L49 9.15638V11.9821V11.9902C48.9987 13.1883 49.5974 14.3073 50.5948 14.9711C50.9416 15.2024 51.3855 15.2311 51.7592 15.0465C52.1329 14.8618 52.3798 14.4918 52.4067 14.0758C52.4336 13.6598 52.2366 13.261 51.8898 13.0297C51.5418 12.7985 51.3328 12.4081 51.3333 11.9902V11.9821V8.42722C52.15 7.95553 52.6024 7.03862 52.4799 6.10354C52.3573 5.16845 51.6839 4.39907 50.7733 4.15372L35.5997 0.0797166C35.2068 -0.0252701 34.7932 -0.0252701 34.4003 0.0797166L19.2267 4.15372C18.2062 4.43231 17.4984 5.35927 17.4984 6.41705C17.4984 7.47483 18.2062 8.4018 19.2267 8.68038L23.3333 9.78288V17.5004H23.2598C22.2226 17.5009 21.2393 17.9626 20.5765 18.7604L15.4432 24.9204C15.2663 25.1292 15.1684 25.3934 15.1667 25.6671V26.8337H7.27533C5.94852 26.8291 4.73451 27.5793 4.14517 28.7681L1.28917 34.4789H1.30083C1.21514 34.6395 1.16914 34.8183 1.16667 35.0004V62.1581C0.447124 62.5715 0.0025025 63.3372 0 64.1671V66.5004C0 67.7891 1.04467 68.8337 2.33333 68.8337H17.8243C18.2378 69.5533 19.0035 69.9979 19.8333 70.0004H50.1667C50.9965 69.9979 51.7622 69.5533 52.1757 68.8337H67.6667C68.9553 68.8337 70 67.7891 70 66.5004V64.1671C69.9975 63.3372 69.5529 62.5715 68.8333 62.1581ZM51.3333 61.8337H50.1667V36.1671H66.5V61.8337H51.3333ZM38.5 61.8337H31.5V49.0004H38.5V61.8337ZM39.6667 46.6671H30.3333C29.689 46.6671 29.1667 47.1894 29.1667 47.8337V61.8337H22.1667V36.1671H47.8333V61.8337H40.8333V47.8337C40.8333 47.1894 40.311 46.6671 39.6667 46.6671ZM52.5 26.8337V29.1671H17.5V26.8337H52.5ZM50.1667 31.5004V33.8337H19.8333V31.5004H50.1667ZM62.7247 29.1671C63.1669 29.1656 63.5715 29.4159 63.7677 29.8122L65.779 33.8337H52.5V31.5004C53.7887 31.5004 54.8333 30.4557 54.8333 29.1671H62.7247ZM35 2.33372L50.183 6.41705H50.1678L35.0058 10.5004L19.8333 6.40772L35 2.33372ZM25.6667 10.4094L34.4003 12.7544C34.7931 12.8601 35.2069 12.8601 35.5997 12.7544L44.3333 10.4094V17.5004H25.6667V10.4094ZM22.3638 20.2537C22.5854 19.9877 22.9136 19.8338 23.2598 19.8337H45.6995C46.0093 19.8335 46.3065 19.9565 46.5255 20.1756L50.8503 24.5004H18.8242L22.3638 20.2537ZM6.23233 29.8122C6.42854 29.4159 6.83309 29.1656 7.27533 29.1671H15.1667C15.1667 30.4557 16.2113 31.5004 17.5 31.5004V33.8337H4.221L6.23233 29.8122ZM2.33333 64.1671H17.5V66.5004H2.33333V64.1671ZM18.6667 61.8337H3.5V36.1671H19.8333V61.8337H18.6667ZM19.8333 67.6671V64.1671H50.1667V67.6671H19.8333ZM67.6667 66.5004H52.5V64.1671H67.6667V66.5004Z" fill="black"/>
<path d="M31.4999 38.5C30.8556 38.5 30.3333 39.0223 30.3333 39.6667V42C30.3333 42.6443 30.8556 43.1667 31.4999 43.1667C32.1443 43.1667 32.6666 42.6443 32.6666 42V39.6667C32.6666 39.0223 32.1443 38.5 31.4999 38.5Z" fill="black"/>
<path d="M15.1669 39.6666C14.5226 39.6666 14.0002 40.189 14.0002 40.8333V43.1666C14.0002 43.811 14.5226 44.3333 15.1669 44.3333C15.8112 44.3333 16.3336 43.811 16.3336 43.1666V40.8333C16.3336 40.189 15.8112 39.6666 15.1669 39.6666Z" fill="black"/>
<path d="M8.16667 39.6666C7.52233 39.6666 7 40.189 7 40.8333V43.1666C7 43.811 7.52233 44.3333 8.16667 44.3333C8.811 44.3333 9.33333 43.811 9.33333 43.1666V40.8333C9.33333 40.189 8.811 39.6666 8.16667 39.6666Z" fill="black"/>
<path d="M15.1669 46.6667C14.5226 46.6667 14.0002 47.1891 14.0002 47.8334V50.1668C14.0002 50.8111 14.5226 51.3334 15.1669 51.3334C15.8112 51.3334 16.3336 50.8111 16.3336 50.1668V47.8334C16.3336 47.1891 15.8112 46.6667 15.1669 46.6667Z" fill="black"/>
<path d="M8.16667 46.6667C7.52233 46.6667 7 47.1891 7 47.8334V50.1668C7 50.8111 7.52233 51.3334 8.16667 51.3334C8.811 51.3334 9.33333 50.8111 9.33333 50.1668V47.8334C9.33333 47.1891 8.811 46.6667 8.16667 46.6667Z" fill="black"/>
<path d="M15.1669 53.6667C14.5226 53.6667 14.0002 54.1891 14.0002 54.8334V57.1668C14.0002 57.8111 14.5226 58.3334 15.1669 58.3334C15.8112 58.3334 16.3336 57.8111 16.3336 57.1668V54.8334C16.3336 54.1891 15.8112 53.6667 15.1669 53.6667Z" fill="black"/>
<path d="M8.16667 53.6667C7.52233 53.6667 7 54.1891 7 54.8334V57.1668C7 57.8111 7.52233 58.3334 8.16667 58.3334C8.811 58.3334 9.33333 57.8111 9.33333 57.1668V54.8334C9.33333 54.1891 8.811 53.6667 8.16667 53.6667Z" fill="black"/>
<path d="M61.8332 39.6666C61.1888 39.6666 60.6665 40.189 60.6665 40.8333V43.1666C60.6665 43.811 61.1888 44.3333 61.8332 44.3333C62.4775 44.3333 62.9998 43.811 62.9998 43.1666V40.8333C62.9998 40.189 62.4775 39.6666 61.8332 39.6666Z" fill="black"/>
<path d="M54.8334 39.6666C54.1891 39.6666 53.6667 40.189 53.6667 40.8333V43.1666C53.6667 43.811 54.1891 44.3333 54.8334 44.3333C55.4777 44.3333 56.0001 43.811 56.0001 43.1666V40.8333C56.0001 40.189 55.4777 39.6666 54.8334 39.6666Z" fill="black"/>
<path d="M61.8332 46.6667C61.1888 46.6667 60.6665 47.1891 60.6665 47.8334V50.1668C60.6665 50.8111 61.1888 51.3334 61.8332 51.3334C62.4775 51.3334 62.9998 50.8111 62.9998 50.1668V47.8334C62.9998 47.1891 62.4775 46.6667 61.8332 46.6667Z" fill="black"/>
<path d="M54.8334 46.6667C54.1891 46.6667 53.6667 47.1891 53.6667 47.8334V50.1668C53.6667 50.8111 54.1891 51.3334 54.8334 51.3334C55.4777 51.3334 56.0001 50.8111 56.0001 50.1668V47.8334C56.0001 47.1891 55.4777 46.6667 54.8334 46.6667Z" fill="black"/>
<path d="M61.8332 53.6667C61.1888 53.6667 60.6665 54.1891 60.6665 54.8334V57.1668C60.6665 57.8111 61.1888 58.3334 61.8332 58.3334C62.4775 58.3334 62.9998 57.8111 62.9998 57.1668V54.8334C62.9998 54.1891 62.4775 53.6667 61.8332 53.6667Z" fill="black"/>
<path d="M54.8334 53.6667C54.1891 53.6667 53.6667 54.1891 53.6667 54.8334V57.1668C53.6667 57.8111 54.1891 58.3334 54.8334 58.3334C55.4777 58.3334 56.0001 57.8111 56.0001 57.1668V54.8334C56.0001 54.1891 55.4777 53.6667 54.8334 53.6667Z" fill="black"/>
<path d="M38.5002 38.5C37.8558 38.5 37.3335 39.0223 37.3335 39.6667V42C37.3335 42.6443 37.8558 43.1667 38.5002 43.1667C39.1445 43.1667 39.6668 42.6443 39.6668 42V39.6667C39.6668 39.0223 39.1445 38.5 38.5002 38.5Z" fill="black"/>
</g>
<defs>
<clipPath id="clip0">
<rect width="70" height="70" fill="white"/>
</clipPath>
</defs>
</svg>
