<svg width="73" height="73" viewBox="0 0 73 73" fill="none" xmlns="http://www.w3.org/2000/svg">
<g clip-path="url(#clip0)">
<path d="M57.5733 47.6923L53.289 46.4343L43.9678 40.3461V38.9511C46.6665 36.9155 48.5198 33.804 48.8642 30.2374C50.2177 30.0196 51.2547 28.8434 51.2547 27.4296V23.5936C51.2547 23.5787 51.2531 23.5642 51.2524 23.5494V18.69C51.7916 18.3039 52.1338 17.675 52.1338 16.9695V12.5225L58.5665 11.4268C59.6237 11.2467 60.384 10.4071 60.4587 9.33733C60.5331 8.26757 59.8968 7.33055 58.8749 7.00561L37.1892 0.107967C36.7367 -0.0360366 36.2588 -0.0358941 35.8065 0.107825L14.1205 7.00561C13.0986 7.33055 12.4622 8.26757 12.5367 9.33719C12.5841 10.0169 12.9089 10.6029 13.4102 10.9867V16.802H13.3571C12.136 16.802 11.1425 17.7955 11.1425 19.0167V21.9033L9.71285 30.2943C9.46576 31.7456 10.5836 33.074 12.0593 33.074H16.8996C18.372 33.074 19.4937 31.7488 19.246 30.2942L17.8164 21.9033V19.0167C17.8164 17.7955 16.8229 16.802 15.6018 16.802H15.5489V11.6174L20.8662 12.5231V16.9695C20.8662 17.672 21.2068 18.2999 21.7434 18.6866L21.7454 23.594V27.4296C21.7454 28.8436 22.7824 30.0196 24.1359 30.2374C24.4802 33.802 26.3315 36.9121 29.0276 38.9478V40.3494L19.7084 46.4364L15.4275 47.693C10.8466 49.0375 7.6121 53.2431 7.6121 58.1318V61.3188C7.6121 61.9093 8.09074 62.3881 8.68144 62.3881C9.27214 62.3881 9.75077 61.9095 9.75077 61.3188V58.1318C9.75077 54.2788 12.3327 50.83 16.0299 49.745L20.0187 48.5741L35.9541 58.0432C36.2776 58.2354 36.7056 58.2456 37.0465 58.0432L52.9829 48.5736L56.9712 49.7444C60.6678 50.8297 63.2498 54.2784 63.2498 58.1311V68.4592C63.2498 69.7839 62.172 70.8616 60.8473 70.8616H56.1341V66.2524C56.1341 65.6618 55.6555 65.183 55.0648 65.183C54.4743 65.183 53.9955 65.6617 53.9955 66.2524V70.8616H19V66.2524C19 65.6618 18.5213 65.183 17.9306 65.183C17.3399 65.183 16.8613 65.6617 16.8613 66.2524V70.8616H12.1529C10.8282 70.8616 9.75049 69.7839 9.75049 68.4592V66.3174C9.75049 65.7268 9.27185 65.2481 8.68115 65.2481C8.09045 65.2481 7.61182 65.7267 7.61182 66.3174V68.4591C7.61182 70.963 9.64883 73 12.1528 73H60.8471C63.351 73 65.388 70.963 65.388 68.4591V58.131C65.388 53.3575 62.2639 49.0694 57.5733 47.6923ZM16.8995 30.9354H12.0593C11.9097 30.9354 11.7956 30.8018 11.821 30.6533L13.1142 23.063H15.8446L17.1377 30.6532C17.163 30.8013 17.0498 30.9354 16.8995 30.9354ZM15.6777 19.0167V20.9245H13.2809V19.0167C13.2809 18.9746 13.3149 18.9405 13.357 18.9405H15.6015C15.6437 18.9404 15.6777 18.9746 15.6777 19.0167ZM32.6756 53.2061L33.1012 53.8602L22.1842 47.3733L29.1136 42.8472C29.4278 46.5343 30.6432 50.0823 32.6756 53.2061ZM32.6682 48.5901C35.1851 48.9477 37.8134 48.948 40.3318 48.5901C39.8452 49.7875 39.2455 50.9429 38.5319 52.0399L36.5 55.1629L34.4681 52.0399C33.7545 50.9429 33.1548 49.7875 32.6682 48.5901ZM40.3244 53.2061C42.3568 50.0823 43.5722 46.5343 43.8863 42.8472L50.8157 47.3732L39.8988 53.8602L40.3244 53.2061ZM46.5794 19.0883H49.1139V22.5241H47.8559C47.152 22.5241 46.5793 21.9515 46.5793 21.2476V19.0883H46.5794ZM14.7687 9.04362L36.4549 2.14569C36.4827 2.13685 36.5127 2.13671 36.5409 2.14584L58.227 9.04362C58.2718 9.05788 58.3333 9.07727 58.3254 9.18863C58.3176 9.29984 58.2541 9.31053 58.2077 9.31851L51.0377 10.5397L48.3458 10.2068C47.7601 10.1342 47.226 10.5508 47.1534 11.1368C47.081 11.723 47.4975 12.2568 48.0835 12.3292L49.9954 12.5657V16.9497L23.0047 16.9487V12.5656L34.0697 11.1964C35.6815 10.9972 37.3154 10.9972 38.926 11.1964L43.1139 11.7144C43.6999 11.787 44.2339 11.3705 44.3064 10.7845C44.379 10.1984 43.9625 9.66455 43.3765 9.59198L39.1886 9.07399C37.4039 8.85314 35.5932 8.85314 33.8073 9.07399L21.9599 10.54L14.7878 9.31851C14.7413 9.31053 14.6778 9.29984 14.67 9.18863C14.6623 9.07727 14.7238 9.05774 14.7687 9.04362ZM23.8834 22.5241L23.882 19.0883H26.4206V21.2477C26.4206 21.9515 25.848 22.5242 25.1439 22.5242H23.8834V22.5241ZM26.2369 29.6878C26.1819 28.8171 25.4582 28.135 24.5894 28.135C24.2004 28.135 23.8838 27.8185 23.8838 27.4295V24.6628H25.1439C27.027 24.6628 28.5591 23.1308 28.5591 21.2477V19.0883H44.4407V21.2477C44.4407 23.1308 45.9729 24.6628 47.8559 24.6628H49.116V27.4295C49.116 27.8185 48.7995 28.135 48.4104 28.135C47.5417 28.135 46.8179 28.8171 46.7629 29.6879C46.4223 35.0872 41.9143 39.3168 36.4999 39.3168C31.0854 39.3168 26.5776 35.0872 26.2369 29.6878ZM36.5 41.4553C38.4018 41.4553 40.2094 41.0205 41.8293 40.2473V40.9249C41.8293 42.7532 41.5826 44.5567 41.1077 46.2962C38.2017 46.8502 34.9162 46.8726 31.8923 46.2962C31.4174 44.5568 31.1707 42.7534 31.1707 40.9249C31.1707 40.9023 31.1676 40.8802 31.1661 40.8578C31.1659 40.8534 31.1663 40.849 31.166 40.8445V40.2451C32.787 41.0196 34.5963 41.4553 36.5 41.4553Z" fill="black"/>
</g>
<defs>
<clipPath id="clip0">
<rect width="73" height="73" fill="white"/>
</clipPath>
</defs>
</svg>
