<svg width="80" height="80" viewBox="0 0 80 80" fill="none" xmlns="http://www.w3.org/2000/svg">
<g clip-path="url(#clip0)">
<path d="M78.4563 24.5491L61.5686 18.8418C60.9556 18.6355 60.2904 18.9636 60.083 19.5768C59.8758 20.19 60.2049 20.8552 60.8181 21.0624L77.5445 26.7153L69.6711 30.5538C69.3442 30.3334 68.9773 30.1641 68.5795 30.0602L44.9632 23.8881C44.2126 20.0262 39.4576 18.4053 36.537 21.1538C35.5261 22.1051 34.9464 23.4466 34.9464 24.8343V24.8599C34.9547 26.4939 36.3071 27.8232 37.9614 27.8232H42.0388C43.0917 27.8232 44.1448 27.2738 44.6909 26.2395L66.7145 31.9955C59.7557 35.3882 44.1338 43.0044 42.1424 43.9754C40.7367 44.6606 39.1706 44.6156 37.8575 43.9754L2.45528 26.7153L38.4346 14.5556C39.4439 14.2143 40.556 14.2143 41.5652 14.5556L55.6125 19.3032C56.2258 19.5102 56.8907 19.1816 57.098 18.5681C57.3052 17.955 56.9761 17.2898 56.363 17.0826L42.3157 12.335C40.8222 11.8304 39.1776 11.8304 37.6841 12.335L1.5435 24.5491C-0.376609 25.1985 -0.5499 27.8579 1.27505 28.7475L19.8227 37.7902C18.8023 42.6413 17.2444 47.8639 15.5512 52.4995C14.858 54.3952 15.4553 56.5041 17.0369 57.7473C22.3896 61.9543 28.714 65.2042 35.1961 67.2932C38.2422 68.2747 41.6388 68.3125 44.8031 67.2932C51.2872 65.2032 57.6123 61.9521 62.9621 57.7473C64.5495 56.4993 65.1386 54.3895 64.4478 52.4995C62.7904 47.9667 61.2112 42.71 60.1765 37.7907L68.901 33.5371V51.1757C67.4099 51.2899 66.2307 52.537 66.2307 54.0569V57.4721C66.2307 57.9795 66.4511 58.4353 66.7995 58.7528L66.3642 65.3348C66.2792 66.6207 67.3016 67.7135 68.5907 67.7135H71.5556C72.8441 67.7135 73.867 66.6211 73.782 65.3348L73.3468 58.7528C73.6952 58.4353 73.9156 57.9797 73.9156 57.4721V54.0568C73.9156 52.5369 72.7363 51.2897 71.2451 51.1755V33.5117C71.2451 33.1515 71.1884 32.8026 71.0871 32.4713L78.7247 28.7476C80.5474 27.859 80.3795 25.1995 78.4563 24.5491ZM42.0388 25.4793H37.9614C37.5994 25.4793 37.292 25.1902 37.2903 24.854V24.8343C37.2903 24.0792 37.5931 23.3784 38.1433 22.8606C39.8311 21.2722 42.5968 22.4156 42.7064 24.7001C42.7325 25.2471 42.3803 25.4793 42.0388 25.4793ZM60.927 49.4868C54.5951 54.4424 45.6092 57.9875 42.514 58.5775C41.8782 58.6988 41.4612 59.3126 41.5824 59.9482C41.7037 60.5842 42.3192 61.0013 42.9531 60.8798C46.1907 60.2625 55.061 56.8152 61.72 51.832C61.8838 52.299 62.0735 52.8308 62.2464 53.3041C62.5902 54.2448 62.2957 55.2895 61.5137 55.9044C55.2024 60.8645 48.5519 63.6222 44.0841 65.0618C41.4155 65.922 38.5171 65.9008 35.9151 65.0618C31.4473 63.622 24.7967 60.8645 18.4854 55.9044C17.7037 55.2898 17.4087 54.2452 17.7529 53.3039C17.7598 53.2852 17.7665 53.2661 17.7734 53.2474C17.9437 52.7808 18.1324 52.2512 18.2792 51.8317C24.7808 56.6957 33.6269 60.2282 37.045 60.8803C37.6816 61.0013 38.2946 60.5845 38.4158 59.9488C38.5371 59.313 38.12 58.6992 37.4844 58.578C34.5623 58.0209 25.5457 54.5509 19.0722 49.4867C20.024 46.576 21.1268 42.8355 21.9938 38.8487L36.8303 46.0819C38.8057 47.0451 41.1171 47.0828 43.1697 46.0819L58.0053 38.849C58.8722 42.8357 59.9751 46.5762 60.927 49.4868ZM68.7107 65.3695L69.1184 59.2068H71.0276L71.4351 65.3695H68.7107ZM71.5715 54.0566V56.8627H68.5746V54.0566C68.5746 53.7593 68.8257 53.508 69.1233 53.508H71.0227C71.3201 53.5082 71.5715 53.7593 71.5715 54.0566Z" fill="black"/>
</g>
<defs>
<clipPath id="clip0">
<rect width="80" height="80" fill="white"/>
</clipPath>
</defs>
</svg>
