<svg width="139" height="110" viewBox="0 0 139 110" fill="none" xmlns="http://www.w3.org/2000/svg">
<path d="M41.6514 46.6991C40.69 46.6991 39.738 46.8885 38.8497 47.2565C37.9615 47.6245 37.1545 48.1639 36.4747 48.8438C35.795 49.5237 35.2558 50.3309 34.8881 51.2193C34.5204 52.1076 34.3313 53.0597 34.3315 54.0211V93.6357C34.331 94.5972 34.5199 95.5493 34.8876 96.4376C35.2552 97.326 35.7944 98.1331 36.4742 98.813C37.154 99.4928 37.9612 100.032 38.8496 100.4C39.7379 100.767 40.69 100.956 41.6514 100.956H117.442L125.635 109.15C125.839 109.355 126.1 109.495 126.384 109.552C126.669 109.609 126.963 109.58 127.231 109.469C127.499 109.358 127.728 109.171 127.889 108.93C128.05 108.689 128.136 108.405 128.136 108.116V100.956H131.667C132.63 100.957 133.583 100.769 134.472 100.402C135.362 100.035 136.17 99.4962 136.851 98.8163C137.533 98.1364 138.073 97.3289 138.442 96.4399C138.81 95.551 139 94.5981 139 93.6357V54.0211C139 52.0792 138.229 50.2168 136.855 48.8437C135.482 47.4705 133.62 46.6991 131.678 46.6991H41.6514Z" fill="#008540"/>
<path d="M102.513 2.14263C101.833 1.46156 101.024 0.921648 100.135 0.553944C99.2453 0.186239 98.2917 -0.00201122 97.3291 1.62033e-05H7.31988C6.35846 -0.000551676 5.40636 0.188396 4.51801 0.556053C3.62967 0.92371 2.8225 1.46287 2.14268 2.14269C1.46285 2.82252 0.923695 3.62968 0.556038 4.51803C0.188381 5.40637 -0.000566603 6.35848 1.27627e-06 7.3199V46.7855C0.0017188 48.7257 0.773676 50.5859 2.14623 51.9572C3.51879 53.3286 5.37965 54.0989 7.31988 54.0989H10.7023V61.2568C10.7013 61.5457 10.7859 61.8284 10.9452 62.0693C11.1046 62.3103 11.3317 62.4987 11.5979 62.611C11.8641 62.7232 12.1575 62.7541 12.4413 62.7C12.7251 62.6458 12.9865 62.5089 13.1926 62.3065L21.3851 54.0989H97.3356C99.2775 54.0989 101.14 53.3274 102.513 51.9543C103.886 50.5812 104.658 48.7188 104.658 46.7768V7.3199C104.659 6.3582 104.47 5.40575 104.102 4.51727C103.734 3.6288 103.194 2.82179 102.513 2.14263Z" fill="#E83F3F"/>
<path d="M47.3555 62.9155C47.3555 60.9867 48.8394 59.5007 51.8092 59.5007C54.4011 59.5007 55.8914 60.9867 55.8914 62.0256C55.8914 62.8421 55.3709 63.3626 54.2585 63.3626C53.0706 63.3626 52.9216 62.3237 51.8092 62.3237C51.0662 62.3237 50.7703 62.6196 50.7703 62.9155C50.7703 63.9544 56.2629 63.5095 56.2629 66.9243C56.2629 68.8552 54.63 70.4881 51.3621 70.4881C48.6169 70.4881 47.1331 69.0021 47.1331 67.9632C47.1331 67.1468 47.6514 66.6284 48.7659 66.6284C49.9517 66.6284 50.1008 67.6673 51.3578 67.6673C52.4723 67.6673 52.8438 67.2958 52.8438 66.9243C52.8481 66.0344 47.3555 66.4793 47.3555 62.9155Z" fill="white"/>
<path d="M57.8225 62.7666C56.7815 62.7666 56.1875 62.1748 56.1875 61.2828C56.1875 60.3908 56.7815 59.799 57.8225 59.799H64.3541C65.393 59.799 65.9869 60.3929 65.9869 61.2828C65.9869 62.1727 65.393 62.7666 64.3541 62.7666H62.7212V68.8554C62.7212 69.7453 62.1272 70.3392 61.0883 70.3392C60.0494 70.3392 59.4554 69.7453 59.4554 68.8554V62.7666H57.8225Z" fill="white"/>
<path d="M66.9521 66.1812V61.1357C66.9521 60.2436 67.5461 59.6497 68.585 59.6497C69.6239 59.6497 70.2179 60.2436 70.2179 61.1357V66.1812C70.2179 67.2222 70.8119 67.8141 71.7018 67.8141C72.5916 67.8141 73.1856 67.2222 73.1856 66.1812V61.1357C73.1856 60.2436 73.7796 59.6497 74.8206 59.6497C75.8617 59.6497 76.4535 60.2436 76.4535 61.1357V66.1812C76.4535 68.7061 74.6716 70.488 71.7018 70.488C68.7319 70.488 66.9521 68.7061 66.9521 66.1812Z" fill="white"/>
<path d="M87.735 65.7365C87.735 68.2614 85.8062 70.1902 82.6139 70.1902H80.022C78.9831 70.1902 78.3892 69.5984 78.3892 68.7064V61.2828C78.3892 60.3929 78.9831 59.799 80.022 59.799H82.6139C85.8062 59.799 87.735 61.7277 87.735 64.2527V65.7365ZM81.6484 62.4707V67.5184H82.6139C82.8499 67.5259 83.085 67.4849 83.3046 67.398C83.5242 67.3112 83.7236 67.1802 83.8906 67.0132C84.0576 66.8462 84.1886 66.6468 84.2755 66.4272C84.3624 66.2076 84.4033 65.9725 84.3958 65.7365V64.2505C84.4033 64.0145 84.3624 63.7794 84.2755 63.5598C84.1886 63.3402 84.0576 63.1408 83.8906 62.9738C83.7236 62.8068 83.5242 62.6758 83.3046 62.5889C83.085 62.502 82.8499 62.4611 82.6139 62.4686L81.6484 62.4707Z" fill="white"/>
<path d="M92.5624 68.8551C92.5624 69.745 91.9684 70.339 90.9273 70.339C89.8862 70.339 89.2944 69.745 89.2944 68.8551V61.1357C89.2944 60.2436 89.8884 59.6497 90.9273 59.6497C91.9662 59.6497 92.5624 60.2436 92.5624 61.1357V68.8551Z" fill="white"/>
<path d="M96.9402 68.8552C96.5687 69.7451 95.9747 70.3391 95.1583 70.3391C94.1928 70.3391 93.5254 69.6717 93.5254 68.8552C93.5254 68.4103 93.8969 67.5183 93.8969 67.5183L96.2728 61.2826C96.7177 60.1703 97.3851 59.5007 98.8646 59.5007C100.344 59.5007 101.025 60.1703 101.457 61.2826L103.832 67.5183C103.832 67.5183 104.204 68.4103 104.204 68.8552C104.204 69.6717 103.536 70.3391 102.571 70.3391C101.755 70.3391 101.161 69.7451 100.789 68.8552L100.42 67.9632H97.3138L96.9402 68.8552ZM99.761 65.2914L98.9446 63.0646H98.7955L97.9791 65.2914H99.761Z" fill="white"/>
<path d="M108.446 66.4795V68.8554C108.446 69.7453 107.852 70.3392 106.813 70.3392C105.774 70.3392 105.18 69.7453 105.18 68.8554V61.2828C105.18 60.3929 105.774 59.799 106.813 59.799H109.93C113.049 59.799 114.384 61.1359 114.384 63.1381C114.387 63.6629 114.233 64.1766 113.942 64.6133C113.651 65.0501 113.236 65.39 112.751 65.5896V65.7365L114.235 67.5184C114.235 67.5184 114.831 68.2614 114.831 68.8554C114.831 69.7453 114.235 70.3392 113.049 70.3392C112.306 70.3392 111.712 69.5984 111.712 69.5984L109.336 66.4795H108.446ZM109.93 63.9546C110.6 63.9546 110.969 63.5852 110.969 63.1381C110.969 62.691 110.6 62.3239 109.93 62.3239H108.446V63.9546H109.93Z" fill="white"/>
<path d="M119.284 62.7666V63.6587H122.105C122.995 63.6587 123.589 64.2526 123.589 64.9935C123.589 65.7343 122.995 66.3305 122.105 66.3305H119.284V67.2225H123.449C124.488 67.2225 125.082 67.8143 125.082 68.7064C125.082 69.5984 124.488 70.1902 123.449 70.1902H117.66C116.621 70.1902 116.027 69.5984 116.027 68.7064V61.2828C116.027 60.3929 116.621 59.799 117.66 59.799H123.302C124.341 59.799 124.935 60.3929 124.935 61.2828C124.935 62.1727 124.341 62.7666 123.302 62.7666H119.284Z" fill="white"/>
<path d="M50.3988 86.6701C50.3988 87.56 49.8048 88.1561 48.7659 88.1561C47.727 88.1561 47.1331 87.56 47.1331 86.6701V78.9506C47.1331 78.0586 47.7249 77.4668 48.7659 77.4668C49.807 77.4668 50.3988 78.0586 50.3988 78.9506V86.6701Z" fill="white"/>
<path d="M55.5934 83.2575V86.6701C55.5934 87.56 54.9994 88.1561 53.9605 88.1561C52.9216 88.1561 52.3276 87.56 52.3276 86.6701V78.9506C52.3276 78.0737 52.9216 77.4668 53.9605 77.4668C54.8526 77.4668 55.3709 77.9852 56.0383 78.9506L58.5632 82.3654H58.7123V78.9506C58.7123 78.0586 59.3063 77.4668 60.3452 77.4668C61.3841 77.4668 61.978 78.0586 61.978 78.9506V86.6701C61.978 87.5449 61.3841 88.1561 60.3452 88.1561C59.4531 88.1561 58.9347 87.6356 58.2652 86.6701L55.7424 83.2575H55.5934Z" fill="white"/>
<path d="M71.3305 86.6701C71.3305 87.56 70.7365 88.1561 69.6976 88.1561C68.6587 88.1561 68.0647 87.56 68.0647 86.6701V78.9506C68.0647 78.0586 68.6587 77.4668 69.6976 77.4668C70.7365 77.4668 71.3305 78.0586 71.3305 78.9506V86.6701Z" fill="white"/>
<path d="M73.929 80.5835C72.8901 80.5835 72.2961 79.9895 72.2961 79.0997C72.2961 78.2098 72.8901 77.6136 73.929 77.6136H80.467C81.5081 77.6136 82.0999 78.2076 82.0999 79.0997C82.0999 79.9917 81.5081 80.5835 80.467 80.5835H78.8341V86.6701C78.8341 87.56 78.2423 88.1561 77.2013 88.1561C76.1602 88.1561 75.5684 87.56 75.5684 86.6701V80.5835H73.929Z" fill="white"/>
<path d="M84.6182 86.6701C84.2467 87.56 83.6527 88.1561 82.8362 88.1561C81.8729 88.1561 81.2034 87.4865 81.2034 86.6701C81.2034 86.2251 81.5749 85.3331 81.5749 85.3331L83.9508 79.0997C84.3957 77.9852 85.0631 77.3177 86.5426 77.3177C88.0222 77.3177 88.7025 77.9852 89.1345 79.0997L91.5104 85.3331C91.5104 85.3331 91.8819 86.2251 91.8819 86.6701C91.8819 87.4865 91.2145 88.1561 90.249 88.1561C89.4326 88.1561 88.8386 87.56 88.4671 86.6701L88.0956 85.7802H84.9897L84.6182 86.6701ZM87.439 83.1063L86.6225 80.8816H86.4735L85.6506 83.1063H87.439Z" fill="white"/>
<path d="M99.6901 85.0372C100.729 85.0372 101.323 85.6312 101.323 86.5211C101.323 87.4109 100.727 88.0092 99.6901 88.0092H94.4913C93.4524 88.0092 92.8584 87.4153 92.8584 86.5232V78.9506C92.8584 78.0586 93.4524 77.4668 94.4913 77.4668C95.5302 77.4668 96.1242 78.0586 96.1242 78.9506V85.0372H99.6901Z" fill="white"/>
<path d="M105.552 86.6701C105.552 87.56 104.958 88.1561 103.919 88.1561C102.88 88.1561 102.282 87.56 102.282 86.6701V78.9506C102.282 78.0586 102.874 77.4668 103.915 77.4668C104.956 77.4668 105.547 78.0586 105.547 78.9506L105.552 86.6701Z" fill="white"/>
<path d="M109.93 86.6701C109.561 87.56 108.967 88.1561 108.15 88.1561C107.185 88.1561 106.517 87.4865 106.517 86.6701C106.517 86.2251 106.887 85.3331 106.887 85.3331L109.263 79.0997C109.708 77.9852 110.377 77.3177 111.854 77.3177C113.332 77.3177 114.014 77.9852 114.446 79.0997L116.822 85.3331C116.822 85.3331 117.194 86.2251 117.194 86.6701C117.194 87.4865 116.526 88.1561 115.561 88.1561C114.744 88.1561 114.15 87.56 113.781 86.6701L113.41 85.7802H110.301L109.93 86.6701ZM112.751 83.1063L111.934 80.8816H111.785L110.969 83.1084L112.751 83.1063Z" fill="white"/>
<path d="M13.1711 15.6204C12.9365 15.2139 12.8087 14.7547 12.7996 14.2856C12.7996 13.4691 13.4691 12.7996 14.4346 12.7996C15.251 12.7996 15.7694 13.3935 16.2144 14.2856L17.8472 17.4023H17.9963L19.2576 14.2856C19.6594 13.3935 20.2231 12.7996 21.0396 12.7996C22.005 12.7996 22.6724 13.4691 22.6724 14.2856C22.6632 14.7547 22.5354 15.2139 22.3009 15.6204L19.925 20.5212C19.154 22.1541 17.7004 23.6444 15.6204 23.6444C14.0631 23.6444 13.2445 22.8279 13.2445 21.8625C13.2436 21.6869 13.2776 21.513 13.3444 21.3506C13.4111 21.1883 13.5094 21.0408 13.6335 20.9167C13.7577 20.7926 13.9052 20.6943 14.0675 20.6275C14.2298 20.5607 14.4038 20.5268 14.5793 20.5277C15.1733 20.5277 15.3223 20.8236 15.6182 20.8236C15.7118 20.8164 15.802 20.7855 15.8802 20.7337C15.9585 20.6819 16.0222 20.611 16.0653 20.5277L13.1711 15.6204Z" fill="white"/>
<path d="M32.6945 14.2856V22.0051C32.6945 22.895 32.1005 23.4889 31.0616 23.4889C30.0227 23.4889 29.4288 22.895 29.4288 22.0051V19.9273C28.727 20.1304 27.9994 20.2301 27.2689 20.2232C24.9686 20.2232 23.3357 18.5903 23.3357 16.2144V14.2856C23.3357 13.3936 23.9426 12.7996 24.9686 12.7996C25.9945 12.7996 26.6015 13.3936 26.6015 14.2856V16.2144C26.6015 17.0308 27.1198 17.5514 27.8628 17.5514C28.3979 17.5643 28.9296 17.4627 29.4223 17.2533V14.3007C29.4223 13.3936 30.0162 12.7888 31.0552 12.7888C32.0941 12.7888 32.6945 13.3936 32.6945 14.2856Z" fill="white"/>
<path d="M38.04 17.7004L40.5628 14.2856C41.2302 13.3201 41.7507 12.7996 42.6406 12.7996C43.6795 12.7996 44.2735 13.4087 44.2735 14.2856V22.005C44.2735 22.8949 43.6795 23.4889 42.6406 23.4889C41.6017 23.4889 41.0077 22.8949 41.0077 22.005V18.5902H40.8587L38.3359 22.005C37.6664 22.9705 37.148 23.4889 36.2581 23.4889C35.2171 23.4889 34.6252 22.8819 34.6252 22.005V14.2856C34.6252 13.3935 35.2171 12.7996 36.2581 12.7996C37.2992 12.7996 37.891 13.3935 37.891 14.2856V17.7004H38.04Z" fill="white"/>
<path d="M45.8329 17.1064C45.8329 14.5815 47.7638 12.6527 50.8007 12.6527C53.3925 12.6527 54.8828 14.1366 54.8828 15.1755C54.8828 15.9919 54.3623 16.5124 53.25 16.5124C52.062 16.5124 51.913 15.4735 50.8007 15.4735C50.5834 15.4627 50.3662 15.4975 50.1632 15.5757C49.9602 15.654 49.7758 15.7739 49.622 15.9277C49.4681 16.0816 49.3482 16.2659 49.27 16.4689C49.1918 16.672 49.1569 16.8891 49.1678 17.1064V19.1842C49.1569 19.4015 49.1918 19.6187 49.27 19.8217C49.3482 20.0247 49.4681 20.2091 49.622 20.3629C49.7758 20.5168 49.9602 20.6367 50.1632 20.7149C50.3662 20.7931 50.5834 20.8279 50.8007 20.8171C52.062 20.8171 52.2111 19.7782 53.3925 19.7782C54.5049 19.7782 55.0254 20.2987 55.0254 21.1152C55.0254 22.1541 53.5394 23.6379 50.7942 23.6379C47.7509 23.6379 45.8264 21.707 45.8264 19.1842L45.8329 17.1064Z" fill="white"/>
<path d="M60.8269 16.0675C63.7967 16.0675 65.4296 17.7004 65.4296 19.7047C65.4296 21.7091 63.7967 23.342 60.8269 23.342H57.8592C56.8181 23.342 56.2263 22.748 56.2263 21.856V14.2856C56.2263 13.3935 56.8181 12.7996 57.8592 12.7996C58.9003 12.7996 59.4921 13.3935 59.4921 14.2856V16.0675H60.8269ZM59.4921 18.7393V20.6681H60.8269C61.5699 20.6681 62.0148 20.2231 62.0148 19.7047C62.0148 19.1864 61.5699 18.7393 60.8269 18.7393H59.4921Z" fill="white"/>
<path d="M17.398 30.7719C20.5169 30.7719 21.7026 31.962 21.7026 33.5193C21.7026 35.0766 20.0698 35.5237 20.0698 35.5237V35.6727C20.0698 35.6727 22.3009 36.109 22.3009 38.1156C22.3009 39.8219 20.9661 41.1589 17.8472 41.1589H14.4346C13.3935 41.1589 12.7996 40.5649 12.7996 39.675V32.2493C12.8147 31.3594 13.3935 30.7633 14.4346 30.7633L17.398 30.7719ZM16.0632 34.6338H17.398C17.9919 34.6338 18.29 34.3358 18.29 33.9643C18.29 33.5928 17.9919 33.2969 17.398 33.2969H16.0632V34.6338ZM16.0632 38.6404H17.8429C18.5125 38.6404 18.884 38.2711 18.884 37.8262C18.884 37.3812 18.5125 37.0076 17.8429 37.0076H16.0632V38.6404Z" fill="white"/>
<path d="M31.1349 35.5239L33.6598 32.1091C34.3272 31.1436 34.8477 30.6252 35.7376 30.6252C36.7765 30.6252 37.3705 31.2343 37.3705 32.1091V39.8285C37.3705 40.7206 36.7765 41.3145 35.7376 41.3145C34.6987 41.3145 34.1047 40.7206 34.1047 39.8285V36.4051H33.9557L31.4373 39.8199C30.7677 40.7854 30.2493 41.3059 29.3573 41.3059C28.3184 41.3059 27.7266 40.6968 27.7266 39.8199V32.1004C27.7266 31.2105 28.3184 30.6166 29.3573 30.6166C30.3962 30.6166 30.9923 31.2105 30.9923 32.1004V35.5239H31.1349Z" fill="white"/>
<path d="M39.9688 33.7332C38.9299 33.7332 38.3359 33.1392 38.3359 32.2493C38.3359 31.3594 38.9299 30.7633 39.9688 30.7633H46.5003C47.5392 30.7633 48.1332 31.3594 48.1332 32.2493C48.1332 33.1392 47.5392 33.7332 46.5003 33.7332H44.8675V39.8197C44.8675 40.7118 44.2735 41.3057 43.2346 41.3057C42.1957 41.3057 41.6017 40.7118 41.6017 39.8197V33.7332H39.9688Z" fill="white"/>
<path d="M50.6604 39.82C50.2889 40.712 49.6949 41.306 48.8785 41.306C47.9152 41.306 47.2456 40.6364 47.2456 39.82C47.2456 39.3751 47.6171 38.4852 47.6171 38.4852L49.993 32.2496C50.4379 31.1351 51.1053 30.4677 52.5849 30.4677C54.0644 30.4677 54.7448 31.1351 55.1767 32.2496L57.5526 38.4852C57.5526 38.4852 57.9241 39.3751 57.9241 39.82C57.9241 40.6364 57.2567 41.306 56.2912 41.306C55.4748 41.306 54.8808 40.712 54.5093 39.82L54.1378 38.9301H51.0297L50.6604 39.82ZM53.4812 36.2583L52.6648 34.0315H52.5157L51.6971 36.2583H53.4812Z" fill="white"/>
<path d="M60.0816 41.4526C59.8836 41.4646 59.6854 41.4344 59.4999 41.3641C59.3145 41.2938 59.146 41.1849 59.0058 41.0446C58.8655 40.9044 58.7566 40.7359 58.6863 40.5505C58.616 40.365 58.5858 40.1668 58.5978 39.9688C58.5978 38.4849 60.6756 39.2258 60.6756 35.8131V32.2493C60.6756 31.3594 61.2696 30.7633 62.3085 30.7633H67.5786C68.6175 30.7633 69.2115 31.3594 69.2115 32.2493V39.8197C69.2115 40.7118 68.6175 41.3057 67.5786 41.3057C66.5397 41.3057 65.9457 40.7118 65.9457 39.8197V33.7332H63.9413V35.8131C63.9413 39.5238 62.0126 41.4526 60.0816 41.4526Z" fill="white"/>
<path d="M74.5573 35.5239L77.0801 32.1091C77.7497 31.1436 78.268 30.6252 79.1601 30.6252C80.199 30.6252 80.7929 31.2343 80.7929 32.1091V39.8285C80.7929 40.7206 80.199 41.3145 79.1601 41.3145C78.1212 41.3145 77.525 40.7206 77.525 39.8285V36.4051H77.3782L74.8511 39.8199C74.1837 40.7854 73.6631 41.3059 72.7733 41.3059C71.7344 41.3059 71.1404 40.6968 71.1404 39.8199V32.1004C71.1404 31.2105 71.7344 30.6166 72.7733 30.6166C73.8122 30.6166 74.4191 31.2041 74.4191 32.1004V35.5239H74.5573Z" fill="white"/>
<path d="M86.1367 35.5239L88.6616 32.1091C89.329 31.1436 89.8474 30.6252 90.7394 30.6252C91.7784 30.6252 92.3723 31.2343 92.3723 32.1091V39.8285C92.3723 40.7206 91.7784 41.3145 90.7394 41.3145C89.7005 41.3145 89.1066 40.7076 89.1066 39.8199V36.4051H88.9575L86.4348 39.8199C85.7652 40.7854 85.2468 41.3059 84.357 41.3059C83.3159 41.3059 82.7219 40.6968 82.7219 39.8199V32.1004C82.7219 31.2105 83.3159 30.6166 84.357 30.6166C85.398 30.6166 85.9898 31.2105 85.9898 32.1004V35.5239H86.1367Z" fill="white"/>
<path d="M97.4046 32.1005L97.1087 36.1093C97.0331 37.0748 96.5148 37.5931 95.6227 37.5931C94.7307 37.5931 94.2123 37.0748 94.1389 36.1093L93.8408 32.1005C93.8408 31.2107 94.5838 30.4677 95.6227 30.4677C96.6616 30.4677 97.4046 31.2042 97.4046 32.1005ZM97.3312 39.7466C97.3312 40.6364 96.6616 41.306 95.6227 41.306C94.5838 41.306 93.9164 40.6364 93.9164 39.7466C93.9164 38.8567 94.5838 38.1871 95.6227 38.1871C96.6616 38.1871 97.3312 38.8567 97.3312 39.7466Z" fill="white"/>
</svg>
