<svg width="94" height="93" viewBox="0 0 94 93" fill="none" xmlns="http://www.w3.org/2000/svg">
<path d="M19.671 63.9882L16.728 74.0367H30.3426L28.7929 63.3125L19.671 63.9882Z" fill="#666666"/>
<path d="M12.8555 75.7959H30.2104V73.1182H13.8516L12.8555 75.7959Z" fill="#CCCCCC"/>
<path d="M41.0059 67.2351H5.28029C3.04449 67.2351 1.23389 65.4414 1.23389 63.2294V34.4234C1.23389 32.2114 3.04467 30.42 5.28029 30.42H32.594L39.1043 58.9129L41.0059 67.2351Z" fill="#666666"/>
<path d="M25.8936 30.42L7.50727 67.2351H5.28029C3.04448 67.2351 1.23389 65.4414 1.23389 63.2294V34.4234C1.23389 32.2114 3.04467 30.42 5.28029 30.42H25.8936V30.42Z" fill="#999999"/>
<path d="M41.0059 67.2351H5.28029C3.04449 67.2351 1.23389 65.4414 1.23389 63.2294V58.9127H39.1044L41.0059 67.2351Z" fill="#CCCCCC"/>
<path d="M11.6644 58.9129L7.50727 67.2351H5.28029C3.04449 67.2351 1.23389 65.4414 1.23389 63.2294V58.9127H11.6644V58.9129Z" fill="#E6E6E6"/>
<path d="M26.8374 41.061C24.0925 40.9406 21.9077 38.7001 21.9077 35.956C21.9077 33.1352 24.2188 30.8467 27.072 30.8467C27.3289 30.8467 27.5811 30.8641 27.8291 30.9014" fill="#E0B394"/>
<path d="M73.0626 41.061C75.8075 40.9406 77.9944 38.7001 77.9944 35.956C77.9944 33.1352 75.6812 30.8467 72.8279 30.8467C72.5711 30.8467 72.3166 30.8665 72.0708 30.9014" fill="#E0B394"/>
<path d="M60.3881 59.5736H39.5117C31.9509 59.5736 25.8213 65.6377 25.8213 73.1183V92.9999H74.0781V73.1183C74.0785 65.6377 67.9492 59.5736 60.3881 59.5736Z" fill="#90BC42"/>
<path d="M47.9469 59.5736H39.5117C31.9509 59.5736 25.8213 65.6377 25.8213 73.1183V92.9999H34.2565V73.1183C34.2569 65.6377 40.3861 59.5736 47.9469 59.5736Z" fill="#87AA3C"/>
<path d="M61.1216 48.7487V62.8587C61.1216 68.9621 56.1198 73.9107 49.9507 73.9107C43.7798 73.9107 38.7798 68.9621 38.7798 62.8587V48.7487H61.1216Z" fill="#E0B394"/>
<path d="M49.9502 75.0057C43.1803 75.0057 37.6724 69.5567 37.6724 62.8587V48.7487C37.6724 48.144 38.1681 47.6536 38.7792 47.6536H61.1211C61.7323 47.6536 62.228 48.144 62.228 48.7487V62.8587C62.2276 69.5565 56.72 75.0057 49.9502 75.0057ZM39.8859 49.8438V62.8587C39.8859 68.3489 44.4009 72.8156 49.9502 72.8156C55.4995 72.8156 60.0142 68.3489 60.0142 62.8587V49.8438H39.8859Z" fill="#87AA3C"/>
<path d="M42.4788 63.1468L33.3923 56.6152C28.5906 53.1637 25.9929 47.456 26.5637 41.6108L28.1398 25.4748C29.2254 14.3613 38.6649 5.8811 49.9502 5.8811C61.2355 5.8811 70.6749 14.3613 71.7605 25.4748L73.3367 41.6108C73.9076 47.4558 71.3098 53.1635 66.5081 56.6152L57.4215 63.1468C52.9661 66.3488 46.9337 66.3488 42.4788 63.1468Z" fill="#F7CBA4"/>
<path d="M32.2181 44.7908C32.0653 47.3467 32.9066 49.8607 34.5712 51.8208L44.0683 63.3668C44.5642 63.9515 45.1264 64.4421 45.7352 64.8341C44.593 64.4399 43.4949 63.8748 42.4789 63.1456L33.392 56.6149C28.5907 53.1633 25.9941 47.456 26.5653 41.6106L28.1392 25.4743C29.2151 14.4692 38.4812 6.0462 49.6224 5.88635C42.7602 6.05056 34.9898 12.4499 34.5846 19.2654L32.2181 44.7908Z" fill="#E8BA97"/>
<path d="M47.4048 34.2202V37.9761C47.4048 42.0585 44.0601 45.3676 39.9339 45.3676C38.9223 45.3676 37.9593 45.1683 37.0783 44.8091C34.3688 43.6987 32.4629 41.0575 32.4629 37.9761V33.4733C34.1099 33.9661 35.8276 34.22 37.5653 34.22H47.4048V34.2202Z" fill="#C0E7F9"/>
<path d="M67.438 33.4708V37.9759C67.438 42.0582 64.0933 45.3674 59.9671 45.3674C58.9222 45.3674 57.9283 45.1548 57.0252 44.7716C54.3621 43.6416 52.4961 41.0243 52.4961 37.9759V34.2199H62.3246C62.7054 34.2199 63.0839 34.2068 63.4601 34.1827C64.8128 34.0971 66.1476 33.8584 67.438 33.4708Z" fill="#C0E7F9"/>
<path d="M67.4378 33.4708V37.9759C67.4378 42.0582 64.0931 45.3674 59.9668 45.3674C58.922 45.3674 57.928 45.1548 57.0249 44.7716L63.4599 34.1827C64.8126 34.0971 66.1473 33.8584 67.4378 33.4708Z" fill="#E6F6FC"/>
<path d="M47.4052 34.2197V37.9757C47.4052 42.0581 44.0605 45.3672 39.9342 45.3672C38.9226 45.3672 37.9597 45.1679 37.0786 44.8086L43.5158 34.2197H47.4052V34.2197Z" fill="#E6F6FC"/>
<path d="M52.4967 34.2197V37.9757V42.7828C52.4967 44.1756 51.3567 45.3014 49.951 45.3014C49.2471 45.3014 48.6095 45.0211 48.149 44.5656C47.6886 44.11 47.4053 43.4794 47.4053 42.7828V37.9757V34.2197" fill="#E0B394"/>
<path d="M73.566 29.2131C73.1746 28.7486 72.4769 28.6858 72.0071 29.0728C70.517 30.3014 68.0147 32.1531 67.1173 32.4228C65.5655 32.8884 63.9534 33.1247 62.3253 33.1247H37.5659C35.9451 33.1247 34.3363 32.8893 32.784 32.4248C31.889 32.1567 29.3806 30.3031 27.8854 29.0723C27.4154 28.6856 26.7177 28.749 26.3268 29.2138C25.936 29.6788 25.9997 30.369 26.4697 30.7557C27.0355 31.2218 29.6012 33.3014 31.3569 34.1909V37.9757C31.3569 42.6553 35.2049 46.4622 39.9346 46.4622C44.6643 46.4622 48.5123 42.6552 48.5123 37.9757V35.3149H51.3899V37.9757C51.3899 42.6553 55.2378 46.4622 59.9676 46.4622C64.6973 46.4622 68.5452 42.6552 68.5452 37.9757V34.1885C70.3 33.2987 72.8599 31.2207 73.4242 30.7554C73.8937 30.3681 73.9572 29.6777 73.566 29.2131ZM46.2983 37.9757C46.2983 41.4476 43.4434 44.2721 39.9342 44.2721C36.425 44.2721 33.5702 41.4476 33.5702 37.9757V34.8866C34.8816 35.17 36.2198 35.3147 37.5657 35.3147H46.2983V37.9757V37.9757ZM59.9674 44.2721C56.4582 44.2721 53.6033 41.4476 53.6033 37.9757V35.3149H62.3249C63.6765 35.3149 65.0184 35.1698 66.3315 34.8855V37.9759C66.3317 41.4476 63.4768 44.2721 59.9674 44.2721Z" fill="#F76B4F"/>
<path d="M16.065 23.1179C15.515 23.1179 15.0688 22.6766 15.0688 22.1324V16.299L14.445 16.9162C14.0558 17.3009 13.4253 17.3009 13.0363 16.9162C12.6474 16.5315 12.6474 15.9074 13.0363 15.5225L15.3606 13.2229C15.6455 12.941 16.0738 12.8565 16.4462 13.0091C16.8185 13.1617 17.061 13.521 17.061 13.9195V22.1322C17.0612 22.6769 16.6151 23.1179 16.065 23.1179Z" fill="#71C5F4"/>
<path d="M91.7701 52.6706C91.22 52.6706 90.7739 52.2292 90.7739 51.685V45.8516L90.1501 46.4689C89.7608 46.8536 89.1304 46.8536 88.7413 46.4689C88.3525 46.0841 88.3525 45.46 88.7413 45.0751L91.0656 42.7756C91.3504 42.4937 91.7789 42.4094 92.1512 42.5618C92.5235 42.7143 92.7661 43.0736 92.7661 43.4722V51.6848C92.7661 52.2294 92.3201 52.6706 91.7701 52.6706Z" fill="#71C5F4"/>
<path d="M7.85056 23.1179C5.82938 23.1179 4.18457 21.4909 4.18457 19.4911V16.561C4.18457 14.5613 5.82902 12.9342 7.85056 12.9342C9.87211 12.9342 11.5164 14.5612 11.5164 16.561V19.4911C11.5164 21.4909 9.87193 23.1179 7.85056 23.1179ZM7.85056 14.9052C6.92764 14.9052 6.17693 15.6481 6.17693 16.5608V19.4909C6.17693 20.404 6.92782 21.1465 7.85056 21.1465C8.77312 21.1465 9.52402 20.4036 9.52402 19.4909V16.561C9.5242 15.6479 8.7733 14.9052 7.85056 14.9052Z" fill="#71C5F4"/>
<path d="M9.58134 37.3436C9.35717 37.3436 9.17542 37.1638 9.17542 36.942V34.564L8.92114 34.8156C8.76251 34.9723 8.50548 34.9723 8.34686 34.8156C8.18842 34.6588 8.18842 34.4043 8.34686 34.2474L9.2942 33.3101C9.41042 33.1951 9.58483 33.1608 9.73666 33.2229C9.88849 33.2851 9.98727 33.4316 9.98727 33.5942V36.9422C9.98764 37.164 9.80588 37.3436 9.58134 37.3436Z" fill="#71C5F4"/>
<path d="M6.23273 37.3436C5.40858 37.3436 4.73828 36.6802 4.73828 35.865V34.6706C4.73828 33.8552 5.40877 33.192 6.23273 33.192C7.0567 33.192 7.72718 33.8552 7.72718 34.6706V35.865C7.727 36.6806 7.0567 37.3436 6.23273 37.3436ZM6.23273 33.9958C5.85637 33.9958 5.5505 34.2986 5.5505 34.6707V35.8652C5.5505 36.2374 5.85673 36.5402 6.23273 36.5402C6.60873 36.5402 6.91497 36.2374 6.91497 35.8652V34.6707C6.91497 34.2986 6.60873 33.9958 6.23273 33.9958Z" fill="#71C5F4"/>
<path d="M12.744 37.3436C11.9198 37.3436 11.2495 36.6802 11.2495 35.865V34.6706C11.2495 33.8552 11.92 33.192 12.744 33.192C13.5679 33.192 14.2384 33.8552 14.2384 34.6706V35.865C14.2384 36.6806 13.5681 37.3436 12.744 37.3436ZM12.744 33.9958C12.3676 33.9958 12.0617 34.2986 12.0617 34.6707V35.8652C12.0617 36.2374 12.368 36.5402 12.744 36.5402C13.1201 36.5402 13.4262 36.2374 13.4262 35.8652V34.6707C13.4262 34.2986 13.1201 33.9958 12.744 33.9958Z" fill="#71C5F4"/>
<path d="M6.4818 43.5295C6.25763 43.5295 6.07587 43.3497 6.07587 43.1279V40.7499L5.8216 41.0015C5.66297 41.1582 5.40594 41.1582 5.24732 41.0015C5.08869 40.8447 5.08888 40.5902 5.24732 40.4333L6.19466 39.496C6.31087 39.3811 6.48529 39.3467 6.63712 39.4089C6.78895 39.471 6.88772 39.6176 6.88772 39.7801V43.1281C6.88809 43.3497 6.70633 43.5295 6.4818 43.5295Z" fill="#71C5F4"/>
<path d="M17.6507 43.5295C17.4266 43.5295 17.2448 43.3497 17.2448 43.1279V40.7499L16.9905 41.0015C16.8317 41.1582 16.5749 41.1582 16.4163 41.0015C16.2576 40.8447 16.2578 40.5902 16.4163 40.4333L17.3636 39.496C17.4798 39.3811 17.6542 39.3467 17.8061 39.4089C17.9579 39.471 18.0567 39.6176 18.0567 39.7801V43.1281C18.0567 43.3497 17.8749 43.5295 17.6507 43.5295Z" fill="#71C5F4"/>
<path d="M6.39872 49.4788C6.17456 49.4788 5.9928 49.2989 5.9928 49.0772V46.6991L5.73852 46.9507C5.5799 47.1074 5.32287 47.1074 5.16424 46.9507C5.0058 46.7939 5.0058 46.5395 5.16424 46.3825L6.11158 45.4453C6.2278 45.3303 6.40221 45.296 6.55404 45.3581C6.70588 45.4202 6.80465 45.5668 6.80465 45.7293V49.0773C6.80502 49.2989 6.62326 49.4788 6.39872 49.4788Z" fill="#71C5F4"/>
<path d="M9.05497 49.4788C8.83081 49.4788 8.64905 49.2989 8.64905 49.0772V46.6991L8.39477 46.9507C8.23615 47.1074 7.97912 47.1074 7.82049 46.9507C7.66205 46.7939 7.66205 46.5395 7.82049 46.3825L8.76783 45.4453C8.88405 45.3303 9.05846 45.296 9.21029 45.3581C9.36212 45.4202 9.4609 45.5668 9.4609 45.7293V49.0773C9.46108 49.2989 9.27932 49.4788 9.05497 49.4788Z" fill="#71C5F4"/>
<path d="M12.1541 49.4788C11.9299 49.4788 11.7482 49.2989 11.7482 49.0772V46.6991L11.4939 46.9507C11.3353 47.1074 11.0782 47.1074 10.9196 46.9507C10.7612 46.7939 10.7612 46.5395 10.9196 46.3825L11.867 45.4453C11.9832 45.3303 12.1576 45.296 12.3094 45.3581C12.4612 45.4202 12.56 45.5668 12.56 45.7293V49.0773C12.5602 49.2989 12.3784 49.4788 12.1541 49.4788Z" fill="#71C5F4"/>
<path d="M9.59211 43.5295C8.76796 43.5295 8.09766 42.8662 8.09766 42.051V40.8565C8.09766 40.0411 8.76814 39.3779 9.59211 39.3779C10.4161 39.3779 11.0866 40.0413 11.0866 40.8565V42.051C11.0866 42.8662 10.4163 43.5295 9.59211 43.5295ZM9.59211 40.1815C9.21574 40.1815 8.90987 40.4843 8.90987 40.8565V42.051C8.90987 42.4231 9.21611 42.7259 9.59211 42.7259C9.96811 42.7259 10.2743 42.4231 10.2743 42.051V40.8565C10.2743 40.4841 9.96829 40.1815 9.59211 40.1815Z" fill="#71C5F4"/>
<path d="M13.7401 43.5295C12.9159 43.5295 12.2456 42.8662 12.2456 42.051V40.8565C12.2456 40.0411 12.9161 39.3779 13.7401 39.3779C14.564 39.3779 15.2345 40.0413 15.2345 40.8565V42.051C15.2345 42.8662 14.5642 43.5295 13.7401 43.5295ZM13.7401 40.1815C13.3637 40.1815 13.0578 40.4843 13.0578 40.8565V42.051C13.0578 42.4231 13.3641 42.7259 13.7401 42.7259C14.1162 42.7259 14.4223 42.4231 14.4223 42.051V40.8565C14.4223 40.4841 14.1161 40.1815 13.7401 40.1815Z" fill="#71C5F4"/>
<path d="M16.8211 37.3436C15.997 37.3436 15.3267 36.6802 15.3267 35.865V34.6706C15.3267 33.8552 15.9971 33.192 16.8211 33.192C17.6451 33.192 18.3156 33.8552 18.3156 34.6706V35.865C18.3156 36.6806 17.6453 37.3436 16.8211 37.3436ZM16.8211 33.9958C16.4447 33.9958 16.1389 34.2986 16.1389 34.6707V35.8652C16.1389 36.2374 16.4451 36.5402 16.8211 36.5402C17.1971 36.5402 17.5033 36.2374 17.5033 35.8652V34.6707C17.5033 34.2986 17.1971 33.9958 16.8211 33.9958Z" fill="#71C5F4"/>
<path d="M12.8824 10.4024C12.3323 10.4024 11.8862 9.96098 11.8862 9.41679V3.58341L11.2624 4.20062C10.8731 4.58534 10.2427 4.58534 9.85365 4.20062C9.4648 3.81591 9.4648 3.19179 9.85365 2.8069L12.1779 0.507331C12.4629 0.225425 12.8914 0.140963 13.2635 0.29354C13.6359 0.446118 13.8784 0.805403 13.8784 1.20392V9.41661C13.8786 9.96116 13.4324 10.4024 12.8824 10.4024Z" fill="#71C5F4"/>
<path d="M19.0794 10.4023C17.0582 10.4023 15.4136 8.7754 15.4136 6.77554V3.84532C15.4136 1.84564 17.058 0.218506 19.0794 0.218506C21.1007 0.218506 22.7452 1.84546 22.7452 3.84532V6.77554C22.745 8.7754 21.1006 10.4023 19.0794 10.4023ZM19.0794 2.18967C18.1568 2.18967 17.4059 2.93257 17.4059 3.84532V6.77554C17.4059 7.68864 18.1568 8.43119 19.0794 8.43119C20.0019 8.43119 20.7528 7.68846 20.7528 6.77554V3.84532C20.7528 2.93257 20.0021 2.18967 19.0794 2.18967Z" fill="#71C5F4"/>
<path d="M83.6538 52.6707C81.6326 52.6707 79.9878 51.0437 79.9878 49.0438V46.1136C79.9878 44.1139 81.6322 42.4868 83.6538 42.4868C85.6753 42.4868 87.3196 44.1138 87.3196 46.1136V49.0438C87.3194 51.0437 85.675 52.6707 83.6538 52.6707ZM83.6538 44.458C82.7309 44.458 81.9802 45.2009 81.9802 46.1136V49.0438C81.9802 49.957 82.731 50.6995 83.6538 50.6995C84.5763 50.6995 85.3272 49.9568 85.3272 49.0438V46.1136C85.3272 45.2009 84.5763 44.458 83.6538 44.458Z" fill="#71C5F4"/>
<path d="M79.9276 25.6238C79.9276 25.6238 70.1545 14.0887 57.5701 19.1258C51.2923 21.6379 46.9448 21.4428 43.6974 20.0369C43.6243 20.0019 43.5491 19.969 43.4738 19.9339C43.4029 19.9032 43.3343 19.8704 43.2658 19.8375C42.6061 19.5222 41.9929 19.1541 41.4196 18.7513C41.413 18.7711 41.4042 18.7907 41.3952 18.8105C38.9159 25.1069 28.1046 25.8274 28.1046 25.8274C28.1046 25.8274 23.2591 18.1775 25.9153 12.2644C28.0204 7.57549 33.6055 2.61271 43.1107 0.757803C45.5943 0.271552 48.3458 0 51.3718 0C65.9818 0 79.9276 9.6362 79.9276 25.6238Z" fill="#666666"/>
<path d="M43.1107 0.757812C43.1107 0.757812 29.6402 7.18061 41.3952 18.8105C38.9159 25.1069 28.1046 25.8274 28.1046 25.8274C28.1046 25.8274 23.2591 18.1775 25.9153 12.2644C28.0206 7.5755 33.6055 2.61272 43.1107 0.757812Z" fill="#4D4D4D"/>
<path d="M88.4105 61.3767V81.9787C88.4105 83.7636 86.9495 85.2089 85.1455 85.2089H74.2279C72.4237 85.2089 70.9629 83.7635 70.9629 81.9787V61.3767C70.9629 59.5917 72.4239 58.1464 74.2279 58.1464H85.1455C86.9495 58.1464 88.4105 59.5917 88.4105 61.3767Z" fill="#FCE8CA"/>
<path d="M88.4099 61.3767V81.9787C88.4099 83.7636 86.9489 85.2089 85.1449 85.2089H76.4121L84.5161 58.1464H85.1447C86.9489 58.1464 88.4099 59.5917 88.4099 61.3767Z" fill="#FCF3E6"/>
<path d="M88.4105 80.6141V81.9786C88.4105 83.7636 86.9495 85.2089 85.1455 85.2089H74.2279C72.4237 85.2089 70.9629 83.7634 70.9629 81.9786V80.6141H88.4105Z" fill="#666666"/>
<path d="M88.4107 61.3767V62.7411H70.9629V61.3767C70.9629 59.5917 72.4239 58.1464 74.2279 58.1464H85.1455C86.9497 58.1464 88.4107 59.5917 88.4107 61.3767Z" fill="#666666"/>
<path d="M88.4099 80.6141V81.9786C88.4099 83.7636 86.9489 85.2089 85.1449 85.2089H76.4121L77.7867 80.6141H88.4099Z" fill="#999999"/>
<path d="M82.3618 61.3416H77.0102C76.6434 61.3416 76.3462 61.0475 76.3462 60.6846C76.3462 60.3217 76.6434 60.0276 77.0102 60.0276H82.3618C82.7286 60.0276 83.0259 60.3217 83.0259 60.6846C83.0259 61.0475 82.7286 61.3416 82.3618 61.3416Z" fill="#333333"/>
<path d="M42.781 88.9286L37.3027 83.5086L42.781 78.0886L44.5029 79.7921L40.7466 83.5086L44.5029 87.2251L42.781 88.9286Z" fill="#FCE8CA"/>
<path d="M57.1205 88.9286L55.3984 87.2251L59.1549 83.5086L55.3984 79.7921L57.1205 78.0886L62.5988 83.5086L57.1205 88.9286Z" fill="#FCE8CA"/>
<path d="M46.3222 87.7827L48.5122 88.8359L53.2291 79.2357L51.0391 78.1824L46.3222 87.7827Z" fill="#FCE8CA"/>
<path d="M88.4102 61.3767V62.7411H83.1396L84.5166 58.1464H85.1452C86.9492 58.1464 88.4102 59.5917 88.4102 61.3767Z" fill="#999999"/>
<path d="M79.6856 83.8445C80.3274 83.8445 80.8477 83.3297 80.8477 82.6947C80.8477 82.0597 80.3274 81.5449 79.6856 81.5449C79.0437 81.5449 78.5234 82.0597 78.5234 82.6947C78.5234 83.3297 79.0437 83.8445 79.6856 83.8445Z" fill="#666666"/>
<path d="M58.6156 49.489C58.6156 49.489 58.4895 49.7956 58.2238 50.2797C58.1596 50.4045 58.0843 50.536 58.0002 50.6782C57.9005 50.8184 57.7854 50.9607 57.6615 51.1207C57.5376 51.2805 57.3958 51.4426 57.2453 51.6222C57.1922 51.6901 57.1346 51.747 57.0727 51.8062C57.0505 51.8282 57.0263 51.85 57.0018 51.872C56.9156 51.9508 56.8269 52.034 56.7362 52.1172C56.5546 52.2857 56.3576 52.4523 56.1518 52.6274C55.9348 52.7851 55.7024 52.934 55.4633 53.096C55.3438 53.177 55.2199 53.2559 55.0936 53.3347C54.9674 53.4092 54.8323 53.4706 54.6952 53.5383C54.4251 53.6742 54.144 53.8055 53.854 53.9368C53.2564 54.1383 52.6343 54.3748 51.9701 54.4734C51.3149 54.6245 50.6308 54.6487 49.9491 54.6814C49.2672 54.6485 48.5834 54.6267 47.9281 54.4756C47.2641 54.377 46.642 54.1405 46.0443 53.939C45.7544 53.8099 45.4731 53.6784 45.2008 53.5427C45.0659 53.4747 44.9308 53.4135 44.8024 53.3391C44.6785 53.2581 44.5546 53.1814 44.4351 53.1004C44.196 52.9384 43.9614 52.7872 43.7444 52.6318C43.5386 52.4565 43.3438 52.2879 43.16 52.1215C43.0693 52.0362 42.9828 51.9551 42.8966 51.8741C42.8655 51.8456 42.8345 51.8173 42.8037 51.7888C42.7506 51.7363 42.6996 51.6858 42.6553 51.6267C42.5114 51.4536 42.372 51.2938 42.2503 51.1361C42.1308 50.9763 42.0135 50.8361 41.916 50.696C41.8275 50.5471 41.7456 50.4114 41.6769 50.2864C41.4003 49.7871 41.2852 49.4892 41.2852 49.4892C41.2852 49.4892 41.6127 49.5878 42.1174 49.7893C42.2457 49.8374 42.3786 49.8966 42.527 49.9556C42.6841 50.0016 42.8457 50.0608 43.0185 50.1177C43.1934 50.1745 43.3682 50.2446 43.5542 50.3104C43.738 50.3805 43.946 50.4265 44.1518 50.4879C44.3576 50.5471 44.5636 50.6192 44.7782 50.6828C45.0018 50.7309 45.2254 50.7879 45.4555 50.8426C45.5706 50.8689 45.6835 50.9018 45.7986 50.9323C45.9159 50.9587 46.0377 50.9739 46.1572 50.9981C46.3984 51.0397 46.6397 51.0878 46.8811 51.1427C47.3836 51.1886 47.8795 51.2982 48.3974 51.3179C48.9087 51.3837 49.4312 51.3661 49.9491 51.3968C50.4692 51.3661 50.9917 51.3859 51.503 51.3201C52.021 51.3027 52.5168 51.191 53.0193 51.1448C53.2606 51.0924 53.5018 51.044 53.7432 51.0024C53.8628 50.9783 53.9845 50.963 54.1018 50.9367C54.2169 50.9038 54.332 50.8731 54.4449 50.847C54.6752 50.7923 54.8988 50.7331 55.1222 50.6871C55.3392 50.6235 55.545 50.5512 55.7508 50.4922C55.9544 50.4308 56.167 50.3827 56.344 50.3148C56.5256 50.2534 56.696 50.1856 56.8687 50.1329C57.0391 50.0761 57.1987 50.019 57.3558 49.9731C57.5108 49.9073 57.6481 49.8439 57.7786 49.7934C58.2947 49.5809 58.6156 49.489 58.6156 49.489Z" fill="#F2F2F2"/>
<path d="M57.0728 51.806C57.0506 51.828 57.0263 51.8498 57.0019 51.8718C56.9156 51.9506 56.8269 52.0338 56.7362 52.117C56.5547 52.2855 56.3577 52.4521 56.1519 52.6272C55.9349 52.7849 55.7024 52.9338 55.4634 53.0958C55.3439 53.1768 55.22 53.2557 55.0936 53.3345C54.9675 53.409 54.8324 53.4704 54.6952 53.5381C54.4252 53.674 54.1441 53.8053 53.854 53.9366C53.2564 54.1381 52.6344 54.3746 51.9702 54.4732C51.3149 54.6243 50.6308 54.6485 49.9492 54.6812C49.2673 54.6483 48.5834 54.6265 47.9282 54.4754C47.2641 54.3768 46.6421 54.1403 46.0443 53.9388C45.7544 53.8097 45.4732 53.6782 45.2009 53.5425C45.0659 53.4746 44.9308 53.4133 44.8025 53.3389C44.6786 53.2579 44.5546 53.1812 44.4351 53.1002C44.1961 52.9382 43.9614 52.787 43.7444 52.6316C43.5386 52.4563 43.3438 52.2877 43.1601 52.1213C43.0694 52.036 42.9829 51.955 42.8966 51.8739C42.8656 51.8454 42.8346 51.8171 42.8037 51.7886C42.8746 51.8127 42.9454 51.8367 43.0185 51.8609C43.1935 51.9177 43.3683 51.9857 43.5542 52.0514C43.738 52.1237 43.946 52.1697 44.1518 52.231C44.3576 52.2903 44.5636 52.3602 44.7783 52.4259C45.0019 52.4719 45.2255 52.5311 45.4555 52.5858C45.5706 52.6121 45.6836 52.6426 45.7987 52.6733C45.916 52.6997 46.0377 52.7149 46.1572 52.7391C46.3985 52.7807 46.6397 52.831 46.8811 52.8837C47.3836 52.9318 47.8795 53.0413 48.3974 53.059C48.9087 53.1269 49.4312 53.1071 49.9492 53.14C50.4693 53.1093 50.9918 53.1291 51.5031 53.0611C52.021 53.0437 52.5169 52.9342 53.0194 52.888C53.2606 52.8355 53.5019 52.785 53.7433 52.7435C53.8628 52.7193 53.9846 52.704 54.1019 52.6777C54.217 52.647 54.3321 52.6163 54.445 52.5901C54.6752 52.5355 54.8988 52.4763 55.1223 52.4303C55.3393 52.3646 55.5451 52.2923 55.7509 52.2354C55.9545 52.174 56.1671 52.1237 56.3441 52.0579C56.5257 51.9944 56.696 51.9288 56.8688 51.8739C56.9378 51.852 57.0065 51.828 57.0728 51.806Z" fill="#4D4D4D"/>
<path d="M56.0088 29.9567C56.0088 29.9567 56.0132 29.9131 56.0281 29.8383C56.0451 29.7658 56.0624 29.6512 56.0995 29.5217C56.116 29.4547 56.1375 29.3847 56.1621 29.3079C56.1942 29.23 56.2374 29.1515 56.2833 29.0627C56.3286 28.9733 56.3859 28.885 56.4461 28.7859C56.5067 28.6851 56.5792 28.6088 56.6534 28.5114C56.7287 28.4179 56.8135 28.3274 56.902 28.2302C56.9956 28.1423 57.0971 28.0558 57.2053 27.969C57.4166 27.7848 57.6751 27.6517 57.9442 27.5037C58.2227 27.3872 58.5181 27.2608 58.8348 27.2023C59.1482 27.1217 59.4771 27.1026 59.8048 27.0875C60.1327 27.1024 60.4615 27.1197 60.7752 27.2C61.0919 27.2577 61.3877 27.3849 61.6664 27.5004C61.9357 27.6482 62.1944 27.7812 62.4059 27.9656C62.5137 28.0528 62.6156 28.1394 62.7094 28.2268C62.7979 28.3243 62.8823 28.4155 62.958 28.5085C63.0311 28.6053 63.1069 28.6849 63.1625 28.7817C63.2183 28.8781 63.2723 28.9644 63.3162 29.0518C63.3599 29.1393 63.4021 29.2165 63.4339 29.2943C63.4629 29.3753 63.4886 29.4487 63.5077 29.5181C63.5497 29.6523 63.5671 29.7678 63.5833 29.8399C63.5974 29.9146 63.6006 29.9571 63.6006 29.9571C63.6006 29.9571 63.5547 29.956 63.4772 29.9485C63.4019 29.9389 63.285 29.934 63.1561 29.9155C63.0893 29.9088 63.0211 29.8964 62.946 29.8866C62.8662 29.8828 62.7872 29.8719 62.7017 29.8653C62.5337 29.8479 62.3584 29.8218 62.1656 29.8143C62.0709 29.8081 61.9791 29.7945 61.8829 29.7867C61.7835 29.7854 61.6853 29.7803 61.588 29.7731C61.3973 29.7486 61.1898 29.7631 60.9972 29.7391C60.7947 29.7464 60.6008 29.7219 60.4 29.728C60.2024 29.7133 60.0029 29.7289 59.8048 29.7151C59.6067 29.7286 59.4069 29.7115 59.209 29.7257C59.008 29.7186 58.8141 29.744 58.611 29.736C58.4183 29.7596 58.2104 29.7449 58.0195 29.7698C57.922 29.7771 57.824 29.7823 57.7245 29.7834C57.6284 29.7912 57.537 29.8058 57.4417 29.8114C57.2451 29.8219 57.0817 29.8403 56.9178 29.8543C56.8317 29.8608 56.7511 29.867 56.6765 29.8724C56.597 29.8866 56.5245 29.9024 56.4555 29.9115C56.3216 29.9349 56.2045 29.9404 56.1301 29.9498C56.0534 29.9567 56.0088 29.9567 56.0088 29.9567Z" fill="#666666"/>
<path d="M36.2998 29.9567C36.2998 29.9567 36.3042 29.9131 36.3191 29.8383C36.3362 29.7658 36.3534 29.6512 36.3905 29.5217C36.407 29.4547 36.4285 29.3847 36.4531 29.3079C36.4852 29.23 36.5284 29.1515 36.5743 29.0627C36.6196 28.9733 36.6769 28.885 36.7371 28.7859C36.7977 28.6851 36.8702 28.6088 36.9444 28.5114C37.0197 28.4179 37.1045 28.3274 37.193 28.2302C37.2866 28.1423 37.3881 28.0558 37.4963 27.969C37.7076 27.7848 37.9661 27.6517 38.2352 27.5037C38.5138 27.3872 38.8092 27.2608 39.1259 27.2023C39.4393 27.1217 39.7681 27.1026 40.0958 27.0875C40.4237 27.1024 40.7525 27.1197 41.0663 27.2C41.383 27.2577 41.6787 27.3849 41.9574 27.5004C42.2268 27.6482 42.4854 27.7812 42.6969 27.9656C42.8047 28.0528 42.9066 28.1394 43.0004 28.2268C43.0889 28.3243 43.1734 28.4155 43.249 28.5085C43.3221 28.6053 43.3979 28.6849 43.4535 28.7817C43.5093 28.8781 43.5633 28.9644 43.6072 29.0518C43.6509 29.1393 43.6931 29.2165 43.7249 29.2943C43.7539 29.3753 43.7796 29.4487 43.7985 29.5181C43.8405 29.6523 43.858 29.7678 43.8741 29.8399C43.8883 29.9146 43.8914 29.9571 43.8914 29.9571C43.8914 29.9571 43.8455 29.956 43.768 29.9485C43.6927 29.9389 43.5758 29.934 43.4469 29.9155C43.3801 29.9088 43.312 29.8964 43.2369 29.8866C43.157 29.8828 43.0783 29.8719 42.9925 29.8653C42.8245 29.8479 42.6492 29.8218 42.4564 29.8143C42.3617 29.8081 42.2699 29.7945 42.1737 29.7867C42.0744 29.7854 41.9761 29.7803 41.8788 29.7731C41.6881 29.7486 41.4806 29.7631 41.288 29.7391C41.0855 29.7464 40.8917 29.7219 40.6908 29.728C40.4933 29.7133 40.2937 29.7289 40.0956 29.7151C39.8975 29.7286 39.6978 29.7115 39.4998 29.7257C39.2988 29.7186 39.1049 29.744 38.9019 29.736C38.7091 29.7596 38.5013 29.7449 38.3103 29.7698C38.2128 29.7771 38.1148 29.7823 38.0153 29.7834C37.9193 29.7912 37.8279 29.8058 37.7326 29.8114C37.5359 29.8219 37.3727 29.8403 37.2086 29.8543C37.1225 29.8608 37.0419 29.867 36.9674 29.8724C36.8879 29.8866 36.8153 29.9024 36.7461 29.9115C36.6123 29.9349 36.4951 29.9404 36.4208 29.9498C36.3442 29.9567 36.2998 29.9567 36.2998 29.9567Z" fill="#666666"/>
<path d="M59.9674 39.4554C60.7212 39.4554 61.3322 38.8508 61.3322 38.1051C61.3322 37.3593 60.7212 36.7548 59.9674 36.7548C59.2136 36.7548 58.6025 37.3593 58.6025 38.1051C58.6025 38.8508 59.2136 39.4554 59.9674 39.4554Z" fill="#666666"/>
<path d="M39.9337 39.4554C40.6875 39.4554 41.2985 38.8508 41.2985 38.1051C41.2985 37.3593 40.6875 36.7548 39.9337 36.7548C39.1799 36.7548 38.5688 37.3593 38.5688 38.1051C38.5688 38.8508 39.1799 39.4554 39.9337 39.4554Z" fill="#666666"/>
</svg>
