<svg width="93" height="94" viewBox="0 0 93 94" fill="none" xmlns="http://www.w3.org/2000/svg">
<g clip-path="url(#clip0)">
<path d="M36.5601 52.1759H0V85.2209H30.8028L36.5601 52.1759Z" fill="#FCE8CA"/>
<path d="M24.8895 57.1994H4.52881V59.6555H24.8895V57.1994Z" fill="#808080"/>
<path d="M24.8895 67.1353H4.52881V69.5914H24.8895V67.1353Z" fill="#808080"/>
<path d="M24.8895 62.1672H4.52881V64.6233H24.8895V62.1672Z" fill="#808080"/>
<path d="M24.8895 72.1031H4.52881V74.5593H24.8895V72.1031Z" fill="#808080"/>
<path d="M24.8895 77.071H4.52881V79.5271H24.8895V77.071Z" fill="#808080"/>
<path d="M93.0004 74.0748H70.9102V93.7924H93.0004V74.0748Z" fill="#E6E6E6"/>
<path d="M23.7653 40.8406C21.0261 40.7178 18.8457 38.4337 18.8457 35.6359C18.8457 32.7601 21.152 30.4268 23.9994 30.4268C24.2557 30.4268 24.5074 30.4446 24.7548 30.4826" fill="#E0B394"/>
<path d="M70.9107 73.5236V93.7927H22.7539V73.5236C22.7539 66.794 27.5165 61.1898 33.8189 59.9639C34.6583 59.7987 35.5265 59.7139 36.4146 59.7139H57.2478C58.1359 59.7139 59.0017 59.7987 59.8413 59.9639C66.148 61.1876 70.9107 66.794 70.9107 73.5236Z" fill="#71C5F4"/>
<path d="M59.8412 59.9639L56.6625 77.7591L46.8323 70.699L36.9999 77.7591L33.8188 59.9639C34.6582 59.7987 35.5264 59.7139 36.4145 59.7139H57.2478C58.1358 59.7139 59.0019 59.7987 59.8412 59.9639Z" fill="#64B4D8"/>
<path d="M44.8326 59.7148H36.4148C28.8697 59.7148 22.7529 65.8972 22.7529 73.5237V93.793H31.1707V73.5237C31.1709 65.8972 37.2874 59.7148 44.8326 59.7148Z" fill="#64B4D8"/>
<path d="M56.4448 47.3349V59.7394C56.4448 65.1049 52.1405 69.4555 46.832 69.4555C41.5218 69.4555 37.2192 65.1049 37.2192 59.7394V47.3349H56.4448Z" fill="#E0B394"/>
<path d="M70.2186 43.9727C69.9425 48.9964 67.4529 53.6876 63.3529 56.6974L61.294 58.209L60.6734 58.6645L54.2849 63.3578C49.8403 66.6221 43.8207 66.6221 39.374 63.3578L30.3059 56.6974C25.5146 53.1785 22.9233 47.36 23.4933 41.4006L25.066 24.9495C25.1101 24.4762 25.172 24.0073 25.2449 23.545C26.9392 12.9125 36.0382 4.97504 46.8292 4.97504C52.4601 4.97504 57.6314 7.1363 61.5303 10.7133C65.4271 14.2902 68.0536 19.2849 68.5949 24.9495L70.1677 41.4006C70.2494 42.2626 70.2671 43.1221 70.2186 43.9727Z" fill="#F7CBA4"/>
<path d="M29.1353 44.643C28.9829 47.2486 29.8223 49.8119 31.4836 51.8102L40.961 63.5815C41.4558 64.1776 42.0169 64.6777 42.6245 65.0774C41.4847 64.6755 40.3891 64.0994 39.375 63.3558L30.3069 56.6976C25.5156 53.1787 22.9243 47.3602 23.4943 41.4008L25.0649 24.9497C26.1386 13.7299 35.3856 5.14265 46.5036 4.97961C39.6556 5.14705 31.9014 11.6712 31.497 18.6197L29.1353 44.643Z" fill="#E8BA97"/>
<path d="M29.1595 24.8825C29.1595 24.8825 28.0923 37.4581 23.6558 39.7108L24.6621 29.1716L24.4103 22.538L29.1595 24.8825Z" fill="#C9628C"/>
<path d="M65.315 55.0095C68.9202 44.1403 68.4804 25.1595 51.0291 26.2758C46.5602 26.5616 42.975 24.6234 40.4545 22.5292C37.7132 20.2539 36.2287 17.7912 36.2287 17.7912C36.2287 17.7912 30.9889 27.3764 24.6621 29.1716L24.5363 30.4823H24.5341C24.2867 30.4443 24.0348 30.4264 23.7786 30.4264C22.7736 30.4264 21.8347 30.7167 21.0417 31.2212C18.2517 25.579 19.4932 17.1168 21.6491 12.8789C25.6254 5.06425 34.2206 9.02069 34.2206 9.02069C34.2206 6.93745 35.2456 5.3233 36.7102 4.07725C37.8589 3.10035 39.2782 2.35092 40.6867 1.78178C44.011 0.438787 47.6164 -0.0113849 51.1828 0.302744C71.3323 2.07718 76.5939 18.4396 77.6235 22.5C82.3134 41.0077 65.315 55.0095 65.315 55.0095Z" fill="#E0739B"/>
<path d="M40.455 22.5291C37.7137 20.2539 36.2291 17.7911 36.2291 17.7911C36.2291 17.7911 30.9894 27.3764 24.6626 29.1716L24.5368 30.4822H24.5346C24.2872 30.4442 24.0352 30.4264 23.7791 30.4264C22.7739 30.4264 21.8352 30.7167 21.0422 31.2212C18.2522 25.579 19.4937 17.1168 21.6496 12.8789C25.6259 5.06424 34.2211 9.02069 34.2211 9.02069C34.2211 6.93745 35.2461 5.32329 36.7107 4.07724C30.6757 13.415 40.455 22.5291 40.455 22.5291Z" fill="#C9628C"/>
<path d="M48.4878 69.9173H45.1743V93.7901H48.4878V69.9173Z" fill="#64B4D8"/>
<path d="M39.5901 82.615H27.8203V88.6435H39.5901V82.615Z" fill="#F2F2F2"/>
<path d="M31.1692 82.615H27.8203V88.6435H31.1692V82.615Z" fill="#E6E6E6"/>
<path d="M67.5611 83.4724H57.1787V86.8215H67.5611V83.4724Z" fill="#64B4D8"/>
<path d="M93.0004 79.1922H70.9102V81.6483H93.0004V79.1922Z" fill="#B3B3B3"/>
<path d="M93.0004 86.1137H70.9102V88.5698H93.0004V86.1137Z" fill="#B3B3B3"/>
<path d="M42.8922 78.8401C43.6648 78.8401 44.2912 78.207 44.2912 77.4261C44.2912 76.6451 43.6648 76.012 42.8922 76.012C42.1195 76.012 41.4932 76.6451 41.4932 77.4261C41.4932 78.207 42.1195 78.8401 42.8922 78.8401Z" fill="#808080"/>
<path d="M36.9971 43.2699C36.0818 43.2699 35.3403 42.5201 35.3403 41.5954V38.9169C35.3403 37.9922 36.082 37.2424 36.9971 37.2424C37.9124 37.2424 38.6538 37.9922 38.6538 38.9169V41.5954C38.654 42.5201 37.9122 43.2699 36.9971 43.2699Z" fill="#4D4D4D"/>
<path d="M56.6646 43.2699C55.7493 43.2699 55.0078 42.5201 55.0078 41.5954V38.9169C55.0078 37.9922 55.7495 37.2424 56.6646 37.2424C57.5798 37.2424 58.3213 37.9922 58.3213 38.9169V41.5954C58.3213 42.5201 57.5798 43.2699 56.6646 43.2699Z" fill="#4D4D4D"/>
<path d="M48.5624 43.5262H48.487V40.0655C48.487 39.1407 47.7454 38.3909 46.8303 38.3909C45.915 38.3909 45.1735 39.1407 45.1735 40.0655V43.5262H45.0981C44.1829 43.5262 43.4414 44.276 43.4414 45.2008C43.4414 46.1255 44.183 46.8753 45.0981 46.8753H48.5624C49.4777 46.8753 50.2191 46.1255 50.2191 45.2008C50.2191 44.276 49.4777 43.5262 48.5624 43.5262Z" fill="#E0B394"/>
<path d="M53.3538 51.1002C53.3538 51.1002 53.2588 51.4128 53.0588 51.9062C53.0105 52.0334 52.9539 52.1674 52.8905 52.3125C52.8156 52.4553 52.7288 52.6005 52.6356 52.7635C52.5424 52.9266 52.4356 53.0918 52.3223 53.2749C52.2823 53.3441 52.2391 53.4021 52.1924 53.4625C52.1759 53.4849 52.1575 53.5071 52.1392 53.5295C52.0742 53.6099 52.0075 53.6947 51.9392 53.7796C51.8024 53.9514 51.6542 54.1212 51.4995 54.2999C51.3362 54.4607 51.1612 54.6125 50.9812 54.7778C50.8913 54.8604 50.798 54.9408 50.703 55.0212C50.608 55.097 50.5064 55.1596 50.4029 55.2288C50.1996 55.3673 49.988 55.5013 49.7697 55.6351C49.3198 55.8406 48.8517 56.0816 48.3518 56.1822C47.8585 56.3363 47.3439 56.3609 46.8304 56.3943C46.3173 56.3609 45.8023 56.3385 45.309 56.1845C44.8091 56.084 44.341 55.8428 43.8911 55.6373C43.6728 55.5055 43.4611 55.3717 43.2563 55.2333C43.1547 55.164 43.053 55.1014 42.9562 55.0256C42.863 54.943 42.7695 54.8648 42.6795 54.7822C42.4995 54.6169 42.323 54.4629 42.1597 54.3043C42.0048 54.1256 41.8582 53.9538 41.7199 53.784C41.6516 53.6969 41.5868 53.6143 41.5216 53.5317C41.4982 53.5027 41.4749 53.4737 41.4515 53.4447C41.4115 53.3911 41.373 53.3397 41.3399 53.2794C41.2317 53.103 41.1265 52.94 41.0352 52.7793C40.9452 52.6163 40.857 52.4735 40.7836 52.3306C40.7169 52.1788 40.6552 52.0404 40.6036 51.9131C40.3952 51.404 40.3086 51.1004 40.3086 51.1004C40.3086 51.1004 40.5551 51.2008 40.9351 51.4062C41.0319 51.4554 41.1316 51.5157 41.2433 51.5759C41.3617 51.6227 41.4833 51.6831 41.6133 51.7411C41.745 51.7991 41.8767 51.8705 42.0164 51.9376C42.1546 52.009 42.3114 52.056 42.4663 52.1184C42.6214 52.1786 42.7762 52.2524 42.9378 52.317C43.1062 52.3663 43.2744 52.4243 43.4477 52.4801C43.5343 52.5069 43.6194 52.5403 43.706 52.5717C43.7943 52.5985 43.886 52.6141 43.9759 52.6387C44.1576 52.6811 44.339 52.7303 44.5208 52.7861C44.899 52.8329 45.2723 52.9446 45.6623 52.9648C46.0472 53.0318 46.4406 53.014 46.8304 53.0452C47.222 53.014 47.6153 53.034 48.0002 52.967C48.39 52.9492 48.7634 52.8352 49.1416 52.7883C49.3232 52.7347 49.5047 52.6857 49.6865 52.6433C49.7764 52.6187 49.8681 52.6031 49.9564 52.5763C50.0431 52.5429 50.1299 52.5115 50.2147 52.4847C50.3882 52.4289 50.5562 52.3686 50.7246 52.3216C50.8879 52.2568 51.0428 52.1832 51.1978 52.123C51.3511 52.0604 51.5111 52.0114 51.6444 51.9421C51.7812 51.8795 51.9092 51.8103 52.0393 51.7569C52.1677 51.6989 52.2876 51.6409 52.4059 51.5939C52.5225 51.5269 52.6258 51.4622 52.7241 51.4108C53.1121 51.194 53.3538 51.1002 53.3538 51.1002Z" fill="#F2F2F2"/>
<path d="M52.1924 53.4625C52.1759 53.4849 52.1575 53.5071 52.1392 53.5295C52.0742 53.6099 52.0075 53.6948 51.9392 53.7796C51.8024 53.9514 51.6542 54.1212 51.4995 54.2999C51.3362 54.4607 51.1613 54.6125 50.9812 54.7778C50.8913 54.8604 50.798 54.9408 50.703 55.0212C50.608 55.097 50.5064 55.1597 50.4029 55.2289C50.1996 55.3673 49.988 55.5013 49.7699 55.6352C49.32 55.8406 48.8519 56.0817 48.352 56.1823C47.8587 56.3363 47.3441 56.3609 46.8306 56.3943C46.3174 56.3609 45.8025 56.3385 45.3092 56.1845C44.8093 56.084 44.3412 55.8428 43.8913 55.6374C43.6729 55.5055 43.4613 55.3717 43.2564 55.2333C43.1549 55.1641 43.0532 55.1014 42.9564 55.0256C42.8632 54.943 42.7696 54.8648 42.6797 54.7822C42.4997 54.6169 42.3232 54.4629 42.1599 54.3043C42.0049 54.1257 41.8584 53.9538 41.7201 53.784C41.6518 53.697 41.587 53.6143 41.5218 53.5317C41.4983 53.5027 41.4751 53.4737 41.4517 53.4447C41.5049 53.4693 41.5583 53.4939 41.6133 53.5183C41.745 53.5763 41.8767 53.6456 42.0164 53.7126C42.1546 53.7862 42.3114 53.8332 42.4663 53.8956C42.6214 53.9558 42.7762 54.0274 42.9378 54.0943C43.1062 54.1411 43.2744 54.2015 43.4477 54.2573C43.5344 54.2841 43.6194 54.3153 43.706 54.3465C43.7943 54.3733 43.886 54.3889 43.9759 54.4135C44.1576 54.4559 44.339 54.5073 44.5208 54.561C44.899 54.6102 45.2723 54.7218 45.6623 54.7396C46.0472 54.8088 46.4406 54.7888 46.8304 54.8222C47.222 54.791 47.6153 54.811 48.0002 54.7418C48.3901 54.724 48.7634 54.6124 49.1416 54.5654C49.3232 54.5117 49.5047 54.4603 49.6865 54.4179C49.7764 54.3933 49.8682 54.3777 49.9564 54.3509C50.0431 54.3197 50.1299 54.2883 50.2147 54.2617C50.3882 54.2059 50.5562 54.1457 50.7246 54.0987C50.8879 54.0317 51.0428 53.958 51.1978 53.9C51.3511 53.8374 51.5109 53.7862 51.6444 53.7192C51.7812 53.6544 51.9092 53.5874 52.0393 53.5315C52.0909 53.5095 52.1423 53.4849 52.1924 53.4625Z" fill="#4D4D4D"/>
<path d="M52.8765 35.1373C52.8765 35.1373 52.8808 35.0928 52.8957 35.0165C52.9128 34.9425 52.93 34.8257 52.9671 34.6935C52.9836 34.6252 53.0051 34.554 53.0296 34.4756C53.0616 34.3961 53.1046 34.3162 53.1504 34.2255C53.1956 34.1345 53.2528 34.0445 53.313 33.9434C53.3734 33.8407 53.4457 33.7627 53.5197 33.6636C53.5949 33.5683 53.6793 33.4759 53.7678 33.3768C53.8611 33.2872 53.9627 33.1991 54.0704 33.1104C54.2813 32.9226 54.5392 32.7869 54.8078 32.636C55.0858 32.5172 55.3806 32.3883 55.6966 32.3288C56.0094 32.2466 56.3374 32.2273 56.6646 32.2119C56.9917 32.2271 57.3199 32.2447 57.6331 32.3264C57.9491 32.3854 58.2443 32.5148 58.5224 32.6329C58.7912 32.7836 59.0493 32.9191 59.2604 33.1071C59.3679 33.1959 59.4697 33.2844 59.5632 33.3735C59.6515 33.4728 59.7358 33.5659 59.8113 33.6606C59.8842 33.7594 59.9599 33.8404 60.0155 33.9391C60.0711 34.0374 60.125 34.1253 60.1688 34.2145C60.2124 34.3038 60.2545 34.3825 60.2863 34.4616C60.3152 34.5443 60.3408 34.619 60.3599 34.6898C60.4018 34.8268 60.4193 34.9443 60.4354 35.0181C60.4496 35.0943 60.4527 35.1376 60.4527 35.1376C60.4527 35.1376 60.4069 35.1365 60.3297 35.129C60.2547 35.1191 60.1379 35.1143 60.0091 35.0952C59.9425 35.0882 59.8744 35.0758 59.7995 35.0657C59.7198 35.0618 59.6411 35.0508 59.5556 35.044C59.3879 35.0262 59.213 34.9996 59.0206 34.992C58.926 34.9858 58.8345 34.972 58.7386 34.964C58.6394 34.9627 58.5415 34.9575 58.4443 34.9502C58.2539 34.9252 58.0469 34.9399 57.8547 34.9155C57.6525 34.9228 57.4591 34.8979 57.2587 34.9041C57.0616 34.8892 56.8624 34.905 56.6648 34.8909C56.4671 34.9045 56.2679 34.887 56.0703 34.9015C55.8697 34.8944 55.6761 34.9203 55.4736 34.912C55.2812 34.936 55.0738 34.9212 54.8832 34.9463C54.7861 34.9537 54.6881 34.959 54.5888 34.9601C54.4929 34.9682 54.4017 34.9829 54.3067 34.9887C54.1105 34.9994 53.9476 35.0183 53.7838 35.0324C53.6978 35.039 53.6174 35.0455 53.5429 35.051C53.4635 35.0655 53.3911 35.0816 53.3222 35.0906C53.1885 35.1145 53.0717 35.1202 52.9974 35.1297C52.9208 35.1373 52.8765 35.1373 52.8765 35.1373Z" fill="#666666"/>
<path d="M33.209 35.1373C33.209 35.1373 33.2133 35.0928 33.2282 35.0165C33.2453 34.9425 33.2626 34.8257 33.2996 34.6935C33.3162 34.6252 33.3376 34.554 33.3621 34.4756C33.3941 34.3961 33.4371 34.3162 33.4829 34.2255C33.5281 34.1345 33.5853 34.0445 33.6455 33.9434C33.706 33.8407 33.7782 33.7627 33.8522 33.6636C33.9272 33.5683 34.0118 33.4759 34.1003 33.3768C34.1937 33.2872 34.2952 33.1991 34.4029 33.1104C34.6138 32.9226 34.8717 32.7869 35.1404 32.636C35.4183 32.5172 35.7131 32.3883 36.0291 32.3288C36.3419 32.2466 36.67 32.2273 36.9971 32.2119C37.3242 32.2271 37.6525 32.2447 37.9656 32.3264C38.2817 32.3854 38.5768 32.5148 38.8549 32.6329C39.1237 32.7836 39.3819 32.9191 39.5929 33.1071C39.7005 33.1959 39.8022 33.2844 39.8957 33.3735C39.984 33.4728 40.0683 33.5659 40.1438 33.6606C40.2167 33.7594 40.2924 33.8404 40.348 33.9391C40.4036 34.0374 40.4575 34.1253 40.5013 34.2145C40.5449 34.3038 40.587 34.3825 40.6188 34.4616C40.6477 34.5443 40.6733 34.619 40.6924 34.6898C40.7344 34.8268 40.7518 34.9443 40.768 35.0181C40.7821 35.0943 40.7852 35.1376 40.7852 35.1376C40.7852 35.1376 40.7394 35.1365 40.6622 35.129C40.5872 35.1191 40.4704 35.1143 40.3416 35.0952C40.275 35.0882 40.2069 35.0758 40.132 35.0657C40.0523 35.0618 39.9736 35.0508 39.8881 35.044C39.7204 35.0262 39.5455 34.9996 39.353 34.992C39.2583 34.9858 39.1668 34.972 39.0709 34.964C38.9717 34.9627 38.8738 34.9575 38.7766 34.9502C38.5863 34.9252 38.3792 34.9399 38.187 34.9155C37.9849 34.9228 37.7914 34.8979 37.5911 34.9041C37.394 34.8892 37.1947 34.905 36.9971 34.8909C36.7995 34.9045 36.6002 34.887 36.4026 34.9015C36.2021 34.8944 36.0084 34.9203 35.8059 34.912C35.6135 34.936 35.4061 34.9212 35.2156 34.9463C35.1184 34.9537 35.0205 34.959 34.9211 34.9601C34.8252 34.9682 34.734 34.9829 34.639 34.9887C34.4429 34.9994 34.2799 35.0183 34.1161 35.0324C34.0302 35.039 33.9497 35.0455 33.8752 35.051C33.7959 35.0655 33.7236 35.0816 33.6545 35.0906C33.5209 35.1145 33.4041 35.1202 33.3298 35.1297C33.2533 35.1373 33.209 35.1373 33.209 35.1373Z" fill="#666666"/>
</g>
<defs>
<clipPath id="clip0">
<rect width="93" height="94" fill="white"/>
</clipPath>
</defs>
</svg>
