<svg width="91" height="91" viewBox="0 0 91 91" fill="none" xmlns="http://www.w3.org/2000/svg">
<g clip-path="url(#clip0)">
<path d="M46.6757 29.3787H0V66.6531H30.3951L46.6757 29.3787Z" fill="#CCCCCC"/>
<path d="M24.5386 34.8964H5.41406V37.187H24.5386V34.8964Z" fill="#666666"/>
<path d="M24.5386 46.6619H5.41406V48.9525H24.5386V46.6619Z" fill="#666666"/>
<path d="M24.5386 58.4274H5.41406V60.718H24.5386V58.4274Z" fill="#666666"/>
<path d="M24.5386 40.7792H5.41406V43.0698H24.5386V40.7792Z" fill="#666666"/>
<path d="M24.5386 52.5446H5.41406V54.8352H24.5386V52.5446Z" fill="#666666"/>
<path d="M83.5039 62.29H81.0049V57.3783H71.0095V62.29H68.5107V54.8795H83.5039V62.29Z" fill="#B3B3B3"/>
<path d="M61.2832 61.0408H91.0002V82.8957H62.4715L61.2832 61.0408Z" fill="#5E86B7"/>
<path d="M22.4031 41.1819C19.8209 41.0674 17.7656 38.9371 17.7656 36.3278C17.7656 33.6456 19.9397 31.4696 22.6238 31.4696C22.8654 31.4696 23.1028 31.4863 23.336 31.5217L22.4031 41.1819Z" fill="#E0B394"/>
<path d="M65.8875 41.1819C68.4696 41.0674 70.5271 38.9371 70.5271 36.3278C70.5271 33.6456 68.3511 31.4696 65.6668 31.4696C65.4252 31.4696 65.1858 31.4883 64.9546 31.5217L65.8875 41.1819Z" fill="#E0B394"/>
<path d="M66.8456 71.6628V90.5667H21.4497V71.6628C21.4497 65.3179 26.0372 60.0431 32.0782 58.9811C32.8091 58.85 33.5609 58.7833 34.3292 58.7833H53.966C54.8032 58.7833 55.6215 58.8624 56.4129 59.0165C62.356 60.1599 66.8456 65.3867 66.8456 71.6628Z" fill="#C0E7F9"/>
<path d="M48.1994 70.8318L48.0619 71.0234L44.1471 76.4043L40.2321 71.0234L40.0947 70.8318L44.1471 67.9541L48.1994 70.8318Z" fill="#F76B4F"/>
<path d="M56.4118 59.0167L53.4152 75.6132L48.1989 71.9086L44.1466 69.0308L40.0942 71.9086L34.8779 75.6132L32.0771 58.9811C32.808 58.85 33.5598 58.7833 34.3282 58.7833H53.9649C54.8021 58.7833 55.6204 58.8626 56.4118 59.0167Z" fill="#A3CDD6"/>
<path d="M53.3357 40.2284V59.3756C53.3357 64.4501 49.2214 68.5645 44.1469 68.5645C39.0708 68.5645 34.958 64.4501 34.958 59.3756V37.7295" fill="#E0B394"/>
<path d="M42.2635 58.7842H34.3283C27.2158 58.7842 21.4497 64.5501 21.4497 71.6628V90.5668H29.3848V71.6628C29.3848 64.5501 35.1507 58.7842 42.2635 58.7842Z" fill="#A3CDD6"/>
<path d="M37.1186 62.1816L28.5707 55.971C24.0535 52.6891 21.6099 47.262 22.147 41.7044L23.6297 26.3619C24.6506 15.7948 33.5307 7.73157 44.147 7.73157C54.7632 7.73157 63.643 15.7947 64.6643 26.3619L66.1469 41.7044C66.684 47.262 64.2405 52.6889 59.7232 55.971L51.1753 62.1816C46.9843 65.2261 41.3094 65.2261 37.1186 62.1816Z" fill="#F7CBA4"/>
<path d="M27.466 44.7281C27.3224 47.1583 28.1137 49.5488 29.6795 51.4126L38.6135 62.3909C39.0799 62.9468 39.6089 63.4134 40.1815 63.7861C39.1069 63.4112 38.0741 62.8739 37.1183 62.1806L28.5701 55.9709C24.0534 52.689 21.6108 47.2625 22.148 41.7045L23.6286 26.3616C24.6406 15.8977 33.3574 7.88878 43.838 7.73682C37.3827 7.89304 30.0729 13.9778 29.6918 20.4582L27.466 44.7281Z" fill="#E8BA97"/>
<path d="M47.8391 90.5667H40.457L44.147 71.5171L47.8391 90.5667Z" fill="#F76B4F"/>
<path d="M64.033 78.8346H53.6211V81.9581H64.033V78.8346Z" fill="#A3CDD6"/>
<path d="M56.8882 19.8391H87.0828V5.67896H56.8882V8.80246V19.8391Z" fill="#87AA3C"/>
<path d="M81.8381 0.432983H51.6436V14.5931H81.8381V0.432983Z" fill="#90BC42"/>
<path d="M66.7402 11.5436C68.3862 11.5436 69.7206 9.73912 69.7206 7.51315C69.7206 5.28717 68.3862 3.48267 66.7402 3.48267C65.0941 3.48267 63.7598 5.28717 63.7598 7.51315C63.7598 9.73912 65.0941 11.5436 66.7402 11.5436Z" fill="#87AA3C"/>
<path d="M64.9125 28.9471C61.0434 22.752 57.0577 26.4629 48.52 26.4629C42.806 26.4629 37.8375 23.6641 35.1761 21.813C33.1791 23.81 31.0509 25.2156 29.1642 26.1965C25.997 27.8373 23.5043 28.2788 23.4438 28.2893L23.6292 26.363C24.6309 15.9803 33.2185 8.01726 43.5888 7.74035C43.6721 7.73822 43.7553 7.73822 43.8387 7.73627C43.9407 7.73218 44.0427 7.73218 44.1469 7.73218C49.4549 7.73218 54.3296 9.74786 58.003 13.0839C61.6763 16.422 64.1523 21.0802 64.6626 26.3634L64.9125 28.9471Z" fill="#AF7C38"/>
<path d="M43.8387 7.73584C37.3834 7.89207 30.0721 13.9768 29.691 20.4572L29.1642 26.1962C25.997 27.8371 23.5043 28.2786 23.4438 28.289L23.6292 26.3628C24.6309 15.98 33.2185 8.01702 43.5888 7.74011C43.6722 7.73797 43.7553 7.73797 43.8387 7.73584Z" fill="#9B6A31"/>
<path d="M81.8384 10.6909V14.5933H77.936C77.936 12.438 79.6832 10.6909 81.8384 10.6909Z" fill="#87AA3C"/>
<path d="M55.5459 0.432983C55.5459 2.58819 53.7988 4.33532 51.6436 4.33532V0.432983H55.5459Z" fill="#87AA3C"/>
<path d="M81.8384 0.432983V4.33532C79.6832 4.33532 77.936 2.58819 77.936 0.432983H81.8384Z" fill="#87AA3C"/>
<path d="M52.2978 49.8988C52.2978 49.8988 52.1791 50.1903 51.9292 50.6506C51.8688 50.7693 51.7981 50.8943 51.719 51.0295C51.6253 51.1628 51.5169 51.2981 51.4003 51.4502C51.2837 51.6024 51.1504 51.7563 51.0087 51.9271C50.9588 51.9916 50.9046 52.0458 50.8463 52.102C50.8255 52.1228 50.8026 52.1436 50.7796 52.1646C50.6984 52.2396 50.6151 52.3187 50.5297 52.3977C50.3589 52.5581 50.1737 52.7164 49.98 52.883C49.776 53.033 49.5574 53.1744 49.3323 53.3285C49.2198 53.4057 49.1032 53.4805 48.9845 53.5555C48.8658 53.6262 48.7387 53.6845 48.6097 53.7492C48.3557 53.8783 48.0912 54.0032 47.8184 54.1282C47.2562 54.3198 46.671 54.5446 46.0462 54.6384C45.4298 54.7821 44.7864 54.805 44.145 54.8363C43.5035 54.805 42.8602 54.7842 42.2438 54.6406C41.619 54.5469 41.0339 54.3219 40.4716 54.1305C40.1988 54.0077 39.9343 53.8827 39.6782 53.7535C39.5511 53.689 39.4242 53.6307 39.3033 53.5598C39.1867 53.4826 39.0701 53.4098 38.9576 53.3328C38.7328 53.1787 38.5121 53.0351 38.308 52.8872C38.1143 52.7207 37.931 52.5604 37.7583 52.402C37.673 52.3208 37.5917 52.2438 37.5105 52.1667C37.4814 52.1397 37.4522 52.1125 37.4231 52.0855C37.3731 52.0355 37.3251 51.9875 37.2836 51.9314C37.1481 51.7668 37.017 51.6148 36.9025 51.465C36.79 51.313 36.6796 51.1797 36.5881 51.0464C36.5047 50.9048 36.4278 50.7757 36.3632 50.657C36.1029 50.1823 35.9946 49.899 35.9946 49.899C35.9946 49.899 36.3028 49.9927 36.7775 50.1842C36.8984 50.2301 37.0234 50.2863 37.1629 50.3424C37.3108 50.3862 37.4627 50.4423 37.6252 50.4965C37.7897 50.5507 37.9542 50.6174 38.129 50.6798C38.3018 50.7464 38.4977 50.7901 38.6912 50.8484C38.8849 50.9046 39.0785 50.9734 39.2806 51.0338C39.4908 51.0797 39.7013 51.1337 39.9178 51.1858C40.026 51.2108 40.1323 51.2419 40.2405 51.2711C40.3509 51.2962 40.4654 51.3107 40.5779 51.3337C40.8048 51.3733 41.0318 51.419 41.2588 51.471C41.7315 51.5148 42.1979 51.6189 42.6853 51.6376C43.1662 51.7001 43.6576 51.6834 44.145 51.7126C44.6343 51.6834 45.1257 51.7021 45.6069 51.6397C46.0942 51.623 46.5606 51.5169 47.0334 51.4732C47.2603 51.4232 47.4873 51.3774 47.7143 51.3377C47.8268 51.3148 47.9412 51.3002 48.0516 51.2752C48.1598 51.2439 48.2681 51.2147 48.3744 51.1899C48.591 51.1378 48.8013 51.0816 49.0115 51.0379C49.2156 50.9775 49.4093 50.9089 49.6029 50.8525C49.7945 50.7942 49.9944 50.7484 50.1609 50.6839C50.3317 50.6256 50.4921 50.561 50.6545 50.5111C50.8148 50.4569 50.9648 50.4029 51.1127 50.3591C51.2585 50.2966 51.3877 50.2363 51.5105 50.1883C51.9959 49.9862 52.2978 49.8988 52.2978 49.8988Z" fill="#F2F2F2"/>
<path d="M50.8466 52.102C50.8258 52.1228 50.8028 52.1436 50.7799 52.1645C50.6987 52.2395 50.6153 52.3186 50.53 52.3977C50.3592 52.558 50.174 52.7164 49.9803 52.8829C49.7762 53.033 49.5576 53.1744 49.3326 53.3285C49.2201 53.4057 49.1035 53.4805 48.9848 53.5555C48.8661 53.6262 48.739 53.6845 48.6099 53.7492C48.356 53.8783 48.0915 54.0032 47.8187 54.1282C47.2565 54.3198 46.6712 54.5446 46.0465 54.6384C45.4301 54.782 44.7867 54.805 44.1453 54.8362C43.5038 54.805 42.8604 54.7842 42.244 54.6406C41.6193 54.5469 41.0342 54.3219 40.4718 54.1305C40.199 54.0076 39.9345 53.8827 39.6784 53.7535C39.5514 53.689 39.4245 53.6307 39.3036 53.5598C39.187 53.4826 39.0704 53.4097 38.9579 53.3328C38.7331 53.1787 38.5123 53.0351 38.3083 52.8872C38.1145 52.7207 37.9313 52.5604 37.7585 52.402C37.6732 52.3208 37.592 52.2438 37.5108 52.1667C37.4816 52.1397 37.4525 52.1125 37.4233 52.0854C37.49 52.1084 37.5566 52.1313 37.6252 52.1542C37.7898 52.2084 37.9542 52.273 38.1291 52.3353C38.3019 52.4041 38.4977 52.4479 38.6913 52.5061C38.885 52.5623 39.0786 52.629 39.2807 52.6915C39.4909 52.7352 39.7014 52.7914 39.9178 52.8435C40.0261 52.8685 40.1324 52.8977 40.2406 52.9268C40.351 52.9519 40.4654 52.9665 40.5779 52.9894C40.8049 53.029 41.0319 53.0769 41.2588 53.1268C41.7316 53.1727 42.198 53.2768 42.6853 53.2933C43.1663 53.3578 43.6577 53.3392 44.1451 53.3705C44.6344 53.3413 45.1258 53.36 45.6069 53.2955C46.0943 53.2788 46.5607 53.1746 47.0334 53.1309C47.2604 53.0809 47.4874 53.033 47.7143 52.9935C47.8268 52.9706 47.9413 52.956 48.0517 52.9309C48.1599 52.9018 48.2682 52.8726 48.3744 52.8476C48.5911 52.7955 48.8014 52.7393 49.0116 52.6956C49.2157 52.633 49.4094 52.5644 49.6029 52.5102C49.7945 52.4519 49.9945 52.404 50.161 52.3416C50.3318 52.2811 50.4921 52.2188 50.6546 52.1667C50.7195 52.1457 50.784 52.1228 50.8466 52.102Z" fill="#4D4D4D"/>
<path d="M34.8757 42.9232C34.0132 42.9232 33.314 42.224 33.314 41.3614V38.8634C33.314 38.0008 34.0132 37.3016 34.8757 37.3016C35.7383 37.3016 36.4375 38.0008 36.4375 38.8634V41.3614C36.4375 42.2238 35.7383 42.9232 34.8757 42.9232Z" fill="#4D4D4D"/>
<path d="M49.8457 32.8245C49.8457 32.8245 49.8498 32.7831 49.8638 32.7118C49.8798 32.6428 49.8962 32.5339 49.931 32.4107C49.9467 32.3469 49.9669 32.2806 49.99 32.2074C50.0202 32.1333 50.0608 32.0586 50.104 31.9742C50.1466 31.8892 50.2006 31.8053 50.2572 31.711C50.3142 31.6152 50.3823 31.5425 50.4521 31.4501C50.5229 31.3612 50.6027 31.2752 50.686 31.1827C50.7742 31.0992 50.8696 31.0169 50.9713 30.9343C51.1702 30.7592 51.4131 30.6325 51.6664 30.4917C51.9284 30.381 52.2064 30.2608 52.5041 30.2052C52.7989 30.1286 53.1082 30.1105 53.4166 30.0961C53.7249 30.1103 54.0344 30.1266 54.3294 30.2029C54.6275 30.2578 54.9056 30.3787 55.1678 30.4885C55.4212 30.6291 55.6644 30.7555 55.8634 30.9309C55.9649 31.0137 56.0607 31.0962 56.1489 31.1794C56.2322 31.272 56.3115 31.3589 56.3828 31.4472C56.4516 31.5393 56.523 31.6148 56.5753 31.7069C56.6277 31.7986 56.6785 31.8805 56.7198 31.9637C56.7608 32.0471 56.8006 32.1203 56.8305 32.1942C56.8579 32.2714 56.8819 32.341 56.8998 32.407C56.9394 32.5346 56.9558 32.6444 56.9711 32.713C56.9844 32.7841 56.9872 32.8245 56.9872 32.8245C56.9872 32.8245 56.9441 32.8234 56.8712 32.8163C56.8005 32.8071 56.6904 32.8026 56.569 32.7848C56.5061 32.7784 56.442 32.7667 56.3714 32.7573C56.2962 32.7537 56.2221 32.7433 56.1416 32.737C55.9836 32.7203 55.8186 32.6956 55.6372 32.6885C55.5481 32.6826 55.4616 32.6698 55.3713 32.6622C55.2778 32.661 55.1856 32.6562 55.0938 32.6492C54.9143 32.6259 54.7192 32.6396 54.5381 32.6169C54.3475 32.6238 54.1652 32.6004 53.9762 32.6062C53.7905 32.5922 53.6027 32.6071 53.4162 32.594C53.2298 32.6066 53.0421 32.5904 52.8558 32.6039C52.6667 32.5973 52.4843 32.6213 52.2933 32.6137C52.1118 32.6363 51.9163 32.6222 51.7368 32.6457C51.6451 32.6526 51.5528 32.6576 51.4592 32.6586C51.3689 32.6661 51.2829 32.68 51.1933 32.6853C51.0084 32.6953 50.8547 32.7129 50.7004 32.7262C50.6194 32.7324 50.5437 32.7383 50.4735 32.7434C50.3986 32.7569 50.3304 32.772 50.2655 32.7806C50.1395 32.8028 50.0293 32.8081 49.9595 32.817C49.8873 32.8245 49.8457 32.8245 49.8457 32.8245Z" fill="#666666"/>
<path d="M31.3057 32.8245C31.3057 32.8245 31.3098 32.7831 31.3238 32.7118C31.3398 32.6428 31.3561 32.5339 31.391 32.4107C31.4066 32.3469 31.4269 32.2806 31.45 32.2074C31.4802 32.1333 31.5207 32.0586 31.5639 31.9742C31.6066 31.8892 31.6606 31.8053 31.7171 31.711C31.7742 31.6152 31.8422 31.5425 31.9121 31.4501C31.9828 31.3612 32.0626 31.2752 32.146 31.1827C32.2342 31.0992 32.3296 31.0169 32.4313 30.9343C32.6301 30.7592 32.8731 30.6325 33.1264 30.4917C33.3884 30.381 33.6663 30.2608 33.964 30.2052C34.2589 30.1286 34.5682 30.1105 34.8765 30.0961C35.1849 30.1103 35.4943 30.1266 35.7894 30.2029C36.0874 30.2578 36.3656 30.3787 36.6277 30.4885C36.8812 30.6291 37.1243 30.7555 37.3234 30.9309C37.4249 31.0137 37.5207 31.0962 37.6088 31.1794C37.6922 31.272 37.7715 31.3589 37.8427 31.4472C37.9115 31.5393 37.983 31.6148 38.0352 31.7069C38.0877 31.7986 38.1385 31.8805 38.1797 31.9637C38.2208 32.0471 38.2606 32.1203 38.2904 32.1942C38.3176 32.2714 38.3418 32.341 38.3598 32.407C38.3994 32.5346 38.4158 32.6444 38.431 32.713C38.4444 32.7841 38.4472 32.8245 38.4472 32.8245C38.4472 32.8245 38.404 32.8234 38.3311 32.8163C38.2604 32.8071 38.1504 32.8026 38.029 32.7848C37.9661 32.7784 37.9019 32.7667 37.8314 32.7573C37.7562 32.7537 37.6821 32.7433 37.6015 32.737C37.4435 32.7203 37.2786 32.6956 37.0971 32.6885C37.0081 32.6826 36.9215 32.6698 36.8312 32.6622C36.7378 32.661 36.6455 32.6562 36.5538 32.6492C36.3743 32.6259 36.1791 32.6396 35.998 32.6169C35.8075 32.6238 35.6251 32.6004 35.4362 32.6062C35.2505 32.5922 35.0626 32.6071 34.8763 32.594C34.6899 32.6066 34.5022 32.5904 34.316 32.6039C34.1268 32.5973 33.9445 32.6213 33.7534 32.6137C33.5721 32.6363 33.3764 32.6222 33.1969 32.6457C33.1052 32.6526 33.013 32.6576 32.9193 32.6586C32.829 32.6661 32.743 32.68 32.6534 32.6853C32.4686 32.6953 32.3148 32.7129 32.1606 32.7262C32.0795 32.7324 32.0038 32.7383 31.9336 32.7434C31.8588 32.7569 31.7905 32.772 31.7257 32.7806C31.5996 32.8028 31.4894 32.8081 31.4196 32.817C31.3474 32.8245 31.3057 32.8245 31.3057 32.8245Z" fill="#666666"/>
<path d="M53.4167 42.9232C52.5542 42.9232 51.855 42.224 51.855 41.3614V38.8634C51.855 38.0008 52.5542 37.3016 53.4167 37.3016C54.2793 37.3016 54.9785 38.0008 54.9785 38.8634V41.3614C54.9785 42.2238 54.2793 42.9232 53.4167 42.9232Z" fill="#4D4D4D"/>
<path d="M46.5411 36.5728V43.9653C46.5411 45.2878 45.4688 46.3601 44.1463 46.3601C42.8237 46.3601 41.7515 45.2878 41.7515 43.9653V36.5728H46.5411Z" fill="#E0B394"/>
</g>
<defs>
<clipPath id="clip0">
<rect width="91" height="91" fill="white"/>
</clipPath>
</defs>
</svg>
