<svg width="92" height="94" viewBox="0 0 92 94" fill="none" xmlns="http://www.w3.org/2000/svg">
<path d="M83.5234 63.8155H80.4222V58.2688C80.4222 57.4834 79.7971 56.8447 79.0284 56.8447H75.2003C74.4316 56.8447 73.8065 57.4834 73.8065 58.2688V63.8155H70.7051V58.2688C70.7051 55.7363 72.7217 53.676 75.2001 53.676H79.0282C81.5066 53.676 83.5233 55.7363 83.5233 58.2688V63.8155H83.5234Z" fill="#666666"/>
<path d="M56.5442 87.0521H90.5598C91.3549 87.0521 91.9996 86.3934 91.9996 85.5809V62.5407C91.9996 61.7283 91.3549 61.0695 90.5598 61.0695H52.2026L56.5442 87.0521Z" fill="#F76B4F"/>
<path d="M77.1145 80.6118C80.7123 80.6118 83.6289 77.6318 83.6289 73.9558C83.6289 70.2798 80.7123 67.2998 77.1145 67.2998C73.5167 67.2998 70.6001 70.2798 70.6001 73.9558C70.6001 77.6318 73.5167 80.6118 77.1145 80.6118Z" fill="white"/>
<path d="M38.3475 27.7994H0V72.5827H38.3475V27.7994Z" fill="#808080"/>
<path d="M68.9785 72.7962V91.9728H23.9077V72.7962C23.9077 65.5803 29.6326 59.731 36.693 59.731H56.1913C63.2537 59.731 68.9785 65.5803 68.9785 72.7962Z" fill="#F2F2F2"/>
<path d="M47.7869 59.7309V91.9728H45.0991V59.7309C45.0991 58.9725 45.7007 58.3578 46.443 58.3578C47.1851 58.3578 47.7869 58.9725 47.7869 59.7309Z" fill="#CCCCCC"/>
<path d="M44.5715 59.731H36.6933C29.6316 59.731 23.9067 65.5801 23.9067 72.7955V91.9722H31.785V72.7953C31.785 65.5801 37.5096 59.731 44.5715 59.731Z" fill="#E6E6E6"/>
<path d="M33.801 74.3775C33.2873 74.3775 32.8706 73.9519 32.8706 73.4269V54.4152C32.8706 53.8903 33.2871 53.4645 33.801 53.4645C34.3149 53.4645 34.7315 53.8901 34.7315 54.4152V73.4269C34.7315 73.9519 34.3148 74.3775 33.801 74.3775Z" fill="#808080"/>
<path d="M24.9564 41.8761C22.3928 41.7598 20.3521 39.5989 20.3521 36.9521C20.3521 34.2312 22.5105 32.0239 25.1754 32.0239C25.4153 32.0239 25.6509 32.0408 25.8825 32.0767" fill="#E0B394"/>
<path d="M67.9224 41.8761C70.486 41.7598 72.5287 39.5989 72.5287 36.9521C72.5287 34.2312 70.3681 32.0239 67.7032 32.0239C67.4633 32.0239 67.2256 32.043 66.9961 32.0767" fill="#E0B394"/>
<path d="M59.0242 77.9686C58.5104 77.9686 58.0938 77.543 58.0938 77.0179V52.0205C58.0938 51.4956 58.5103 51.0699 59.0242 51.0699C59.5379 51.0699 59.9546 51.4955 59.9546 52.0205V77.0181C59.9544 77.543 59.5379 77.9686 59.0242 77.9686Z" fill="#808080"/>
<path d="M61.9057 56.877L53.4187 63.1763C49.259 66.2647 43.625 66.2647 39.4633 63.1763L30.9763 56.877C26.492 53.5479 24.0648 48.0428 24.5981 42.4048L26.0701 26.8405C27.0852 16.1199 35.901 7.94061 46.4409 7.94061C51.711 7.94061 56.5509 9.98548 60.2 13.3695C61.1221 14.225 61.9677 15.165 62.7222 16.181C64.9633 19.1828 66.4333 22.833 66.8117 26.8403V26.8425L68.2837 42.4046C68.8172 48.0428 66.39 53.5479 61.9057 56.877Z" fill="#F7CBA4"/>
<path d="M29.8797 45.4712C29.7371 47.9363 30.5227 50.3614 32.0775 52.252L40.9476 63.3887C41.4106 63.9527 41.9359 64.4258 42.5044 64.804C41.4376 64.4238 40.4121 63.8787 39.4632 63.1753L30.9762 56.876C26.4919 53.5469 24.0667 48.0419 24.6002 42.4039L26.0702 26.8396C27.075 16.2247 35.7295 8.10032 46.135 7.94611C39.7259 8.10455 32.4683 14.277 32.0901 20.8509L29.8797 45.4712Z" fill="#E8BA97"/>
<path d="M66.8111 26.8405V26.8427C62.1779 26.8427 58.7314 18.7205 58.7314 18.7205L62.7216 16.1814C64.9628 19.183 66.4329 22.8334 66.8111 26.8405Z" fill="#666666"/>
<path d="M38.0388 85.9959H36.5916C36.0779 85.9959 35.6612 85.5703 35.6612 85.0452C35.6612 84.5203 36.0777 84.0946 36.5916 84.0946H37.1084V77.7574C37.1084 75.8936 35.6244 74.3777 33.8005 74.3777C31.9767 74.3777 30.4927 75.8938 30.4927 77.7574V84.0947H31.3196C31.8333 84.0947 32.25 84.5203 32.25 85.0454C32.25 85.5703 31.8335 85.996 31.3196 85.996H29.5623C29.0485 85.996 28.6318 85.5705 28.6318 85.0454V77.7574C28.6318 74.8455 30.9505 72.4764 33.8005 72.4764C36.6506 72.4764 38.9693 74.8455 38.9693 77.7574V85.0452C38.9693 85.5701 38.5527 85.9959 38.0388 85.9959Z" fill="#71C5F4"/>
<path d="M59.024 86.2769C61.5266 86.2769 63.5554 84.2041 63.5554 81.6471C63.5554 79.0901 61.5266 77.0172 59.024 77.0172C56.5214 77.0172 54.4927 79.0901 54.4927 81.6471C54.4927 84.2041 56.5214 86.2769 59.024 86.2769Z" fill="#71C5F4"/>
<path d="M59.0238 84.1329C60.3675 84.1329 61.4568 83.0199 61.4568 81.647C61.4568 80.2742 60.3675 79.1612 59.0238 79.1612C57.6801 79.1612 56.5908 80.2742 56.5908 81.647C56.5908 83.0199 57.6801 84.1329 59.0238 84.1329Z" fill="#E6F6FC"/>
<path d="M43.2764 18.7203H64.3211V2.02722H28.562V18.7203" fill="#F2F2F2"/>
<path d="M31.2417 18.7203H35.0741V2.02722H28.562V18.7203" fill="#CCCCCC"/>
<path d="M51.1625 8.78938H47.9925V5.55042H44.8912V8.78938H41.7212V11.958H44.8912V15.1972H47.9925V11.958H51.1625V8.78938Z" fill="#F76B4F"/>
<path d="M81.5253 72.6876H78.3553V69.4486H75.8743V72.6876H72.7041V75.2226H75.8743V78.4618H78.3553V75.2226H81.5253V72.6876Z" fill="#F76B4F"/>
<path d="M39.0914 17.7699C39.0914 22.8438 35.066 26.9589 30.1 26.9589C28.0325 26.9589 26.1284 26.2469 24.6087 25.0472C22.4793 23.3678 21.1064 20.7314 21.1064 17.7699C21.1064 12.6959 25.1318 8.58081 30.1 8.58081C31.94 8.58081 33.6499 9.14481 35.0743 10.1144C37.4952 11.7621 39.0914 14.5759 39.0914 17.7699Z" fill="#C0E7F9"/>
<path d="M39.091 17.7699C39.091 22.8439 35.0657 26.9589 30.0996 26.9589C28.0322 26.9589 26.128 26.2469 24.6084 25.0472L35.0739 10.1146C37.4949 11.7621 39.091 14.5759 39.091 17.7699Z" fill="#E6F6FC"/>
<path d="M14.6771 65.7167C14.0489 65.7167 13.54 65.1966 13.54 64.5549V38.1497C13.54 37.508 14.0491 36.9879 14.6771 36.9879C15.3051 36.9879 15.8142 37.508 15.8142 38.1497V64.5549C15.8143 65.1966 15.3053 65.7167 14.6771 65.7167Z" fill="#B3B3B3"/>
<path d="M32.1655 17.7698C32.1655 18.9358 31.2405 19.8813 30.0993 19.8813C29.6242 19.8813 29.1867 19.7178 28.8375 19.442C28.3482 19.0561 28.0327 18.4502 28.0327 17.7698C28.0327 16.6038 28.9577 15.6583 30.0993 15.6583C30.5221 15.6583 30.9151 15.7879 31.2425 16.0106C31.7988 16.3894 32.1655 17.036 32.1655 17.7698Z" fill="white"/>
<path d="M10.5418 41.635H5.57993C4.95175 41.635 4.44287 41.1149 4.44287 40.4732C4.44287 39.8316 4.95193 39.3115 5.57993 39.3115H10.5418C11.17 39.3115 11.6789 39.8316 11.6789 40.4732C11.6789 41.1149 11.17 41.635 10.5418 41.635Z" fill="#B3B3B3"/>
<path d="M10.5418 53.7463H5.57993C4.95175 53.7463 4.44287 53.2262 4.44287 52.5846C4.44287 51.9427 4.95193 51.4228 5.57993 51.4228H10.5418C11.17 51.4228 11.6789 51.9429 11.6789 52.5846C11.6791 53.2264 11.17 53.7463 10.5418 53.7463Z" fill="#B3B3B3"/>
<path d="M10.5418 47.6907H5.57993C4.95175 47.6907 4.44287 47.1706 4.44287 46.5289C4.44287 45.8872 4.95193 45.3671 5.57993 45.3671H10.5418C11.17 45.3671 11.6789 45.8872 11.6789 46.5289C11.6791 47.1708 11.17 47.6907 10.5418 47.6907Z" fill="#B3B3B3"/>
<path d="M10.5418 59.8018H5.57993C4.95175 59.8018 4.44287 59.2817 4.44287 58.6401C4.44287 57.9982 4.95193 57.4783 5.57993 57.4783H10.5418C11.17 57.4783 11.6789 57.9984 11.6789 58.6401C11.6791 59.2819 11.17 59.8018 10.5418 59.8018Z" fill="#B3B3B3"/>
<path d="M21.9127 53.7463H19.225C18.5968 53.7463 18.0879 53.2262 18.0879 52.5846C18.0879 51.9427 18.5969 51.4228 19.225 51.4228H21.9127C22.5409 51.4228 23.0498 51.9429 23.0498 52.5846C23.0498 53.2264 22.5409 53.7463 21.9127 53.7463Z" fill="#B3B3B3"/>
<path d="M20.2587 47.6907H19.225C18.5968 47.6907 18.0879 47.1706 18.0879 46.5289C18.0879 45.8872 18.5969 45.3671 19.225 45.3671H20.2587C20.8869 45.3671 21.3958 45.8872 21.3958 46.5289C21.3959 47.1708 20.8869 47.6907 20.2587 47.6907Z" fill="#B3B3B3"/>
<path d="M24.1868 59.8018H19.225C18.5968 59.8018 18.0879 59.2817 18.0879 58.6401C18.0879 57.9982 18.5969 57.4783 19.225 57.4783H24.1868C24.815 57.4783 25.3239 57.9984 25.3239 58.6401C25.3239 59.2819 24.8149 59.8018 24.1868 59.8018Z" fill="#B3B3B3"/>
<path d="M42.3312 70.9267C43.102 70.9267 43.7268 70.2882 43.7268 69.5007C43.7268 68.7131 43.102 68.0747 42.3312 68.0747C41.5604 68.0747 40.9355 68.7131 40.9355 69.5007C40.9355 70.2882 41.5604 70.9267 42.3312 70.9267Z" fill="#CCCCCC"/>
<path d="M54.5351 49.5554C54.5351 49.5554 54.4172 49.8512 54.169 50.3181C54.109 50.4385 54.0388 50.5652 53.9602 50.7025C53.8672 50.8376 53.7597 50.975 53.644 51.1292C53.5283 51.2834 53.3958 51.4396 53.2553 51.613C53.2057 51.6785 53.152 51.7334 53.0941 51.7903C53.0735 51.8114 53.0507 51.8325 53.028 51.8536C52.9473 51.9297 52.8647 52.0099 52.7799 52.0903C52.6104 52.253 52.4262 52.4134 52.234 52.5825C52.0313 52.7345 51.8142 52.8783 51.5911 53.0345C51.4795 53.1127 51.3636 53.1887 51.2459 53.2647C51.128 53.3365 51.0019 53.3956 50.8737 53.4612C50.6215 53.5921 50.3589 53.719 50.0882 53.8456C49.5299 54.0401 48.9489 54.2681 48.3286 54.3632C47.7166 54.509 47.0778 54.5321 46.441 54.5639C45.8042 54.5321 45.1654 54.511 44.5534 54.3652C43.9331 54.2701 43.3522 54.0421 42.7939 53.8477C42.5231 53.723 42.2604 53.5963 42.0062 53.4652C41.88 53.3997 41.7539 53.3406 41.634 53.2688C41.5183 53.1906 41.4024 53.1168 41.2908 53.0386C41.0675 52.8823 40.8484 52.7365 40.6458 52.5866C40.4535 52.4176 40.2715 52.255 40.0999 52.0943C40.0151 52.0119 39.9346 51.9339 39.8539 51.8557C39.8249 51.8281 39.796 51.8008 39.7671 51.7732C39.7175 51.7226 39.6699 51.6739 39.6285 51.617C39.4941 51.4501 39.3639 51.2959 39.2501 51.1439C39.1385 50.9897 39.0289 50.8545 38.938 50.7192C38.8554 50.5757 38.7788 50.4446 38.7147 50.3241C38.4563 49.8426 38.3486 49.5552 38.3486 49.5552C38.3486 49.5552 38.6546 49.6503 39.126 49.8446C39.2458 49.891 39.37 49.9481 39.5085 50.005C39.6553 50.0495 39.8063 50.1064 39.9674 50.1613C40.1308 50.2162 40.2941 50.2837 40.4677 50.3473C40.6393 50.4148 40.8337 50.4593 41.026 50.5184C41.2182 50.5755 41.4105 50.645 41.611 50.7064C41.8198 50.7528 42.0286 50.8077 42.2437 50.8606C42.3512 50.8859 42.4566 50.9177 42.5641 50.9472C42.6737 50.9726 42.7874 50.9875 42.899 51.0106C43.1244 51.0508 43.3497 51.0972 43.575 51.1499C44.0444 51.1944 44.5074 51.2999 44.9913 51.319C45.4689 51.3824 45.9568 51.3655 46.4407 51.395C46.9265 51.3655 47.4144 51.3844 47.892 51.321C48.3757 51.3042 48.839 51.1964 49.3083 51.1521C49.5336 51.1015 49.759 51.055 49.9843 51.0148C50.0959 50.9915 50.2096 50.9768 50.3192 50.9515C50.4267 50.9197 50.5343 50.8901 50.6396 50.8648C50.8547 50.8119 51.0635 50.755 51.2723 50.7106C51.475 50.6493 51.6672 50.5797 51.8595 50.5226C52.0498 50.4635 52.2482 50.417 52.4137 50.3515C52.5833 50.2924 52.7423 50.2268 52.9037 50.1761C53.0629 50.1213 53.2117 50.0664 53.3585 50.0219C53.5031 49.9586 53.6314 49.8973 53.7534 49.8486C54.2353 49.6441 54.5351 49.5554 54.5351 49.5554Z" fill="#F2F2F2"/>
<path d="M53.0937 51.7904C53.073 51.8115 53.0502 51.8326 53.0275 51.8537C52.9468 51.9297 52.8642 52.01 52.7794 52.0904C52.6099 52.253 52.4258 52.4135 52.2335 52.5826C52.0308 52.7346 51.8137 52.8784 51.5906 53.0346C51.479 53.1128 51.3631 53.1888 51.2454 53.2648C51.1275 53.3366 51.0014 53.3957 50.8733 53.4613C50.621 53.5922 50.3585 53.719 50.0877 53.8457C49.5294 54.0401 48.9484 54.2682 48.3282 54.3633C47.7162 54.509 47.0774 54.5322 46.4406 54.5639C45.8037 54.5322 45.1649 54.5111 44.5529 54.3653C43.9327 54.2702 43.3517 54.0422 42.7934 53.8477C42.5226 53.7231 42.2599 53.5964 42.0057 53.4653C41.8795 53.3998 41.7534 53.3407 41.6336 53.2689C41.5178 53.1907 41.4019 53.1169 41.2904 53.0386C41.067 52.8824 40.848 52.7366 40.6453 52.5866C40.453 52.4177 40.271 52.2551 40.0994 52.0944C40.0146 52.012 39.9341 51.934 39.8534 51.8557C39.8245 51.8282 39.7955 51.8009 39.7666 51.7733C39.8327 51.7966 39.8989 51.8198 39.9671 51.8431C40.1305 51.898 40.2938 51.9635 40.4674 52.0269C40.639 52.0966 40.8334 52.1409 41.0257 52.2002C41.2179 52.2573 41.4102 52.3248 41.6107 52.3882C41.8195 52.4326 42.0283 52.4895 42.2434 52.5424C42.3509 52.5677 42.4563 52.5973 42.5638 52.6268C42.6734 52.6522 42.7871 52.6671 42.8987 52.6902C43.1241 52.7304 43.3494 52.7789 43.5747 52.8295C44.0441 52.876 44.5071 52.9815 44.991 52.9984C45.4686 53.064 45.9565 53.0449 46.4404 53.0766C46.9262 53.0471 47.4141 53.066 47.8917 53.0006C48.3754 52.9837 48.8387 52.8782 49.308 52.8338C49.5333 52.7831 49.7587 52.7344 49.984 52.6944C50.0956 52.6711 50.2093 52.6564 50.3189 52.6311C50.4264 52.6015 50.534 52.5719 50.6393 52.5466C50.8544 52.4937 51.0632 52.4368 51.272 52.3924C51.4747 52.3291 51.6669 52.2593 51.8592 52.2044C52.0495 52.1453 52.2479 52.0966 52.4134 52.0333C52.583 51.972 52.742 51.9086 52.9034 51.8559C52.9675 51.8348 53.0317 51.8115 53.0937 51.7904Z" fill="#4D4D4D"/>
<path d="M37.2375 42.4792C36.3811 42.4792 35.687 41.7698 35.687 40.895V38.3608C35.687 37.4858 36.3813 36.7766 37.2375 36.7766C38.0939 36.7766 38.7881 37.486 38.7881 38.3608V40.895C38.7881 41.7698 38.0937 42.4792 37.2375 42.4792Z" fill="#4D4D4D"/>
<path d="M52.1001 32.2348C52.1001 32.2348 52.1042 32.1928 52.1181 32.1206C52.1341 32.0507 52.15 31.9402 52.1849 31.8151C52.2004 31.7505 52.2205 31.6831 52.2435 31.609C52.2735 31.5337 52.3137 31.4581 52.3565 31.3723C52.3989 31.2862 52.4525 31.201 52.5087 31.1054C52.5653 31.0083 52.6329 30.9344 52.7022 30.8406C52.7725 30.7505 52.8517 30.6633 52.9344 30.5695C53.0219 30.4848 53.1168 30.4013 53.2176 30.3174C53.4151 30.1397 53.6564 30.0113 53.9078 29.8685C54.1678 29.7561 54.4438 29.6342 54.7395 29.5779C55.0322 29.5002 55.3393 29.4817 55.6455 29.4672C55.9517 29.4815 56.259 29.4982 56.5519 29.5755C56.8476 29.6313 57.124 29.7538 57.3842 29.8654C57.6357 30.008 57.8772 30.1362 58.0749 30.3141C58.1755 30.3982 58.2707 30.4819 58.3583 30.5662C58.4409 30.6602 58.5198 30.7483 58.5904 30.8379C58.6587 30.9313 58.7295 31.0079 58.7814 31.1013C58.8335 31.1942 58.884 31.2776 58.9248 31.3619C58.9656 31.4463 59.0049 31.5207 59.0348 31.5957C59.0619 31.674 59.0858 31.7446 59.1036 31.8117C59.1429 31.9411 59.1593 32.0525 59.1744 32.1221C59.1877 32.1941 59.1906 32.2352 59.1906 32.2352C59.1906 32.2352 59.1478 32.2341 59.0754 32.2269C59.0051 32.2176 58.8959 32.213 58.7755 32.195C58.7131 32.1884 58.6493 32.1766 58.5793 32.1671C58.5047 32.1634 58.431 32.153 58.3511 32.1465C58.1942 32.1296 58.0303 32.1045 57.8503 32.0973C57.7619 32.0915 57.676 32.0782 57.5863 32.0707C57.4934 32.0694 57.402 32.0646 57.3109 32.0577C57.1326 32.034 56.9389 32.0479 56.759 32.025C56.5698 32.032 56.3887 32.0083 56.2013 32.0142C56.0169 32 55.8304 32.0151 55.6453 32.0017C55.4603 32.0145 55.2737 31.998 55.089 32.0118C54.9012 32.005 54.7201 32.0296 54.5306 32.0217C54.3505 32.0445 54.1563 32.0303 53.9782 32.0542C53.8873 32.0612 53.7956 32.0663 53.7026 32.0672C53.6129 32.0747 53.5274 32.0887 53.4386 32.0942C53.255 32.1043 53.1024 32.1221 52.9493 32.1357C52.8688 32.1421 52.7937 32.148 52.724 32.1531C52.6498 32.1669 52.582 32.1822 52.5175 32.1908C52.3924 32.2134 52.283 32.2187 52.2137 32.2277C52.1416 32.2348 52.1001 32.2348 52.1001 32.2348Z" fill="#666666"/>
<path d="M33.6929 32.2348C33.6929 32.2348 33.697 32.1928 33.7108 32.1206C33.7268 32.0507 33.7428 31.9402 33.7777 31.8151C33.7931 31.7505 33.8133 31.6831 33.8363 31.609C33.8663 31.5337 33.9065 31.4581 33.9493 31.3723C33.9917 31.2862 34.0452 31.201 34.1015 31.1054C34.1581 31.0083 34.2256 30.9344 34.295 30.8406C34.3653 30.7505 34.4445 30.6633 34.5272 30.5695C34.6147 30.4848 34.7095 30.4013 34.8103 30.3174C35.0078 30.1397 35.2491 30.0113 35.5005 29.8685C35.7605 29.7561 36.0365 29.6342 36.3323 29.5779C36.625 29.5002 36.9321 29.4817 37.2383 29.4672C37.5445 29.4815 37.8517 29.4982 38.1446 29.5755C38.4404 29.6313 38.7168 29.7538 38.9769 29.8654C39.2285 30.008 39.47 30.1362 39.6677 30.3141C39.7683 30.3982 39.8635 30.4819 39.951 30.5662C40.0337 30.6602 40.1126 30.7483 40.1832 30.8379C40.2515 30.9313 40.3223 31.0079 40.3742 31.1013C40.4263 31.1942 40.4768 31.2776 40.5178 31.3619C40.5586 31.4463 40.5979 31.5207 40.6277 31.5957C40.6549 31.674 40.6788 31.7446 40.6966 31.8117C40.7359 31.9411 40.7523 32.0525 40.7672 32.1221C40.7805 32.1941 40.7833 32.2352 40.7833 32.2352C40.7833 32.2352 40.7406 32.2341 40.6682 32.2269C40.5979 32.2176 40.4887 32.213 40.3681 32.195C40.3057 32.1884 40.2419 32.1766 40.1719 32.1671C40.0973 32.1634 40.0236 32.153 39.9437 32.1465C39.7868 32.1296 39.6229 32.1045 39.4429 32.0973C39.3545 32.0915 39.2686 32.0782 39.1789 32.0707C39.086 32.0694 38.9946 32.0646 38.9034 32.0577C38.7252 32.034 38.5315 32.0479 38.3516 32.025C38.1624 32.032 37.9813 32.0083 37.7939 32.0142C37.6095 32 37.423 32.0151 37.2379 32.0017C37.0528 32.0145 36.8663 31.998 36.6816 32.0118C36.4938 32.005 36.3127 32.0296 36.1231 32.0217C35.9431 32.0445 35.7489 32.0303 35.5708 32.0542C35.4799 32.0612 35.3882 32.0663 35.2951 32.0672C35.2055 32.0747 35.1199 32.0887 35.0312 32.0942C34.8475 32.1043 34.695 32.1221 34.5419 32.1357C34.4614 32.1421 34.3863 32.148 34.3166 32.1531C34.2424 32.1669 34.1746 32.1822 34.1101 32.1908C33.985 32.2134 33.8756 32.2187 33.8063 32.2277C33.7342 32.2348 33.6929 32.2348 33.6929 32.2348Z" fill="#666666"/>
<path d="M55.6457 42.4792C54.7893 42.4792 54.0952 41.7698 54.0952 40.895V38.3608C54.0952 37.4858 54.7895 36.7766 55.6457 36.7766C56.5021 36.7766 57.1963 37.486 57.1963 38.3608V40.895C57.1963 41.7698 56.5019 42.4792 55.6457 42.4792Z" fill="#4D4D4D"/>
<path d="M48.8197 36.0372V43.5363C48.8197 44.8778 47.7552 45.9656 46.4421 45.9656C45.1291 45.9656 44.0645 44.878 44.0645 43.5363V36.0372" fill="#E8BA97"/>
<path d="M10.4404 29.4005H2.99756V35.5603H10.4404V29.4005Z" fill="#E6E6E6"/>
</svg>
