<svg width="92" height="92" viewBox="0 0 92 92" fill="none" xmlns="http://www.w3.org/2000/svg">
<g clip-path="url(#clip0)">
<path d="M32.0081 91.5446H2.08827C1.48699 91.5446 1 91.0573 1 90.4564V68.5997H32.0081V91.5446Z" fill="#508DA3"/>
<path d="M56.99 71.5446H86.9098C87.5111 71.5446 87.998 71.0573 87.998 70.4564V48.5997H56.99V71.5446Z" fill="#508DA3"/>
<path d="M32.0081 90.2525H2.08827C1.48699 90.2525 1 89.7651 1 89.1642V67.3075H32.0081V90.2525Z" fill="#5D9EBA"/>
<path d="M56.99 70.2525H86.9098C87.5111 70.2525 87.998 69.7651 87.998 69.1642V47.3075H56.99V70.2525Z" fill="#5D9EBA"/>
<path d="M32.9256 79.1007H2.37256V88.7499H32.9256V79.1007Z" fill="#E0C8A2"/>
<path d="M56.0724 59.1007H86.6255V68.7499H56.0724V59.1007Z" fill="#E0C8A2"/>
<path d="M25.7286 63C23.4949 63 21.6854 64.8115 21.6854 67.0433C21.6854 65.4398 20.751 64.0527 19.3944 63.3999C18.864 63.1429 18.2704 63 17.6421 63H2.37256V83.4224H16.3588C17.4869 83.4224 18.5334 83.7732 19.3944 84.3731C20.7794 85.3339 21.6854 86.9353 21.6854 88.7489C21.6854 85.8072 24.0702 83.4224 27.0119 83.4224H40.9981V81.4252V63.0002L25.7286 63Z" fill="#FCE8CA"/>
<path d="M63.2694 43C65.5032 43 67.3127 44.8115 67.3127 47.0433C67.3127 45.4398 68.247 44.0527 69.6037 43.3999C70.1341 43.1429 70.7277 43 71.356 43H86.6255V63.4224H72.6392C71.5111 63.4224 70.4646 63.7732 69.6037 64.3731C68.2186 65.3339 67.3127 66.9353 67.3127 68.7489C67.3127 65.8072 64.9279 63.4224 61.9862 63.4224H47.9999V61.4252V43.0002L63.2694 43Z" fill="#FCE8CA"/>
<path d="M37.8138 67.3075H27.5791V69.5516H37.8138V67.3075Z" fill="#4D4D4D"/>
<path d="M37.8138 77.2994H27.5791V79.5435H37.8138V77.2994Z" fill="#4D4D4D"/>
<path d="M37.8138 72.3035H27.5791V74.5475H37.8138V72.3035Z" fill="#4D4D4D"/>
<path d="M16.5979 67.3075H6.36328V69.5516H16.5979V67.3075Z" fill="#4D4D4D"/>
<path d="M16.5979 77.2994H6.36328V79.5435H16.5979V77.2994Z" fill="#4D4D4D"/>
<path d="M16.5979 72.3035H6.36328V74.5475H16.5979V72.3035Z" fill="#4D4D4D"/>
<path d="M51.1843 47.3075H61.4189V49.5516H51.1843V47.3075Z" fill="#4D4D4D"/>
<path d="M51.1843 57.2994H61.4189V59.5435H51.1843V57.2994Z" fill="#4D4D4D"/>
<path d="M51.1843 52.3035H61.4189V54.5475H51.1843V52.3035Z" fill="#4D4D4D"/>
<path d="M72.4001 47.3075H82.6348V49.5516H72.4001V47.3075Z" fill="#4D4D4D"/>
<path d="M72.4001 57.2994H82.6348V59.5435H72.4001V57.2994Z" fill="#4D4D4D"/>
<path d="M72.4001 52.3035H82.6348V54.5475H72.4001V52.3035Z" fill="#4D4D4D"/>
<path d="M21.685 67.0433V88.7489C21.685 86.9353 20.7793 85.3339 19.394 84.3731V63.3999C20.7507 64.0527 21.685 65.4399 21.685 67.0433Z" fill="#EDD9BE"/>
<path d="M21.6855 67.0433V88.7489C21.6855 86.9353 22.5913 85.3339 23.9765 84.3731V63.3999C22.6197 64.0527 21.6855 65.4399 21.6855 67.0433Z" fill="#EDD9BE"/>
<path d="M67.313 47.0433V68.7489C67.313 66.9353 68.2187 65.3339 69.604 64.3731V43.3999C68.2474 44.0527 67.313 45.4399 67.313 47.0433Z" fill="#EDD9BE"/>
<path d="M67.3125 47.0433V68.7489C67.3125 66.9353 66.4068 65.3339 65.0215 64.3731V43.3999C66.3783 44.0527 67.3125 45.4399 67.3125 47.0433Z" fill="#EDD9BE"/>
<path d="M65.5673 73.0024V91.9989H19.9487V73.0024C19.9487 65.8563 25.7431 60.0617 32.8914 60.0617H52.6266C59.7726 60.0617 65.5673 65.8563 65.5673 73.0024Z" fill="#E0739B"/>
<path d="M44.0136 74.3876V91.9989H41.5024V74.3876C41.5024 73.6949 42.0654 73.1321 42.7579 73.1321C43.4526 73.1321 44.0136 73.6951 44.0136 74.3876Z" fill="#C9628C"/>
<path d="M51.9923 48.1101V67.3512C51.9923 72.4507 47.8577 76.5851 42.7584 76.5851C37.6574 76.5851 33.5244 72.4505 33.5244 67.3512V45.5992" fill="#E0B394"/>
<path d="M42.2804 79.0784C36.6119 79.0784 32 74.4668 32 68.7982V47.0463C32 46.4686 32.4683 46 33.0463 46C33.6244 46 34.0926 46.4684 34.0926 47.0463V68.7982C34.0926 73.313 37.7658 76.9858 42.2806 76.9858C46.7953 76.9858 50.4683 73.3128 50.4683 68.7982V49.5573C50.4683 48.9796 50.9365 48.5109 51.5146 48.5109C52.0926 48.5109 52.5609 48.9794 52.5609 49.5573V68.7984C52.5607 74.4669 47.949 79.0784 42.2804 79.0784Z" fill="#C9628C"/>
<path d="M40.8647 60.0613H32.8907C25.7433 60.0613 19.9487 65.8555 19.9487 73.0032V92.0001H27.9227V73.0032C27.9229 65.8555 33.7171 60.0613 40.8647 60.0613Z" fill="#C9628C"/>
<path d="M35.695 63.4754L27.105 57.2345C22.5658 53.9365 20.1102 48.4828 20.6498 42.898L22.1397 27.4801C23.1659 16.8611 32.0894 8.75848 42.7578 8.75848C53.426 8.75848 62.3496 16.8613 63.3758 27.4801L64.8657 42.898C65.4053 48.4828 62.9499 53.9365 58.4105 57.2345L49.8205 63.4754C45.6088 66.5349 39.9063 66.5349 35.695 63.4754Z" fill="#F7CBA4"/>
<path d="M25.9954 45.9363C25.8509 48.3784 26.6462 50.7806 28.2197 52.6535L37.1976 63.6858C37.6664 64.2444 38.1979 64.7132 38.7733 65.0879C37.6935 64.7112 36.6555 64.1713 35.6951 63.4745L27.1049 57.2343C22.566 53.9363 20.1115 48.483 20.6513 42.8979L22.1391 27.4797C23.1561 16.9644 31.9157 8.91622 42.4477 8.76349C35.9606 8.92036 28.615 15.0349 28.2321 21.5472L25.9954 45.9363Z" fill="#E8BA97"/>
<path d="M45.6168 27.4799H48.808L51.7376 16.3411L44.4136 12.3652L45.6168 27.4799Z" fill="#E8BA97"/>
<path d="M33.4424 42.9715C32.5754 42.9715 31.873 42.2687 31.873 41.4021V38.8918C31.873 38.025 32.5754 37.3224 33.4424 37.3224C34.3094 37.3224 35.0118 38.0252 35.0118 38.8918V41.4021C35.0118 42.2689 34.3093 42.9715 33.4424 42.9715Z" fill="#4D4D4D"/>
<path d="M52.0738 42.9715C51.2068 42.9715 50.5044 42.2687 50.5044 41.4021V38.8918C50.5044 38.025 51.2068 37.3224 52.0738 37.3224C52.9408 37.3224 53.6432 38.0252 53.6432 38.8918V41.4021C53.6432 42.2689 52.9408 42.9715 52.0738 42.9715Z" fill="#4D4D4D"/>
<path d="M12.168 13.6014C11.301 13.6014 10.5986 12.8987 10.5986 12.032V5.54497C10.5986 4.67816 11.301 3.97559 12.168 3.97559C13.035 3.97559 13.7374 4.67834 13.7374 5.54497V12.032C13.7376 12.8988 13.0348 13.6014 12.168 13.6014Z" fill="#71C5F4"/>
<path d="M15.4114 10.3579H8.92437C8.05738 10.3579 7.35498 9.65513 7.35498 8.7885C7.35498 7.92187 8.05738 7.21912 8.92437 7.21912H15.4114C16.2784 7.21912 16.9808 7.92187 16.9808 8.7885C16.9808 9.65513 16.2782 10.3579 15.4114 10.3579Z" fill="#71C5F4"/>
<path d="M70.9034 28.1455V54.3762H61.4197C63.9936 51.1913 65.2701 47.0814 64.8663 42.8983L63.3763 27.4801H52.1035L49.1739 15.9039L45.6164 27.4801H22.1396L20.6494 42.8983C20.2477 47.0814 21.522 51.1913 24.096 54.3762H14.6123V28.1455C14.6123 12.6016 27.2139 0 42.7578 0C42.9335 0 43.1093 0.00215625 43.2852 0.0041328C43.4086 0.00628905 43.5321 0.0104219 43.6535 0.0145547C43.7184 0.0167109 43.7833 0.0186875 43.846 0.0208437C44.1451 0.0334218 44.4424 0.0479765 44.7374 0.0689999C45.0488 0.0905623 45.358 0.119133 45.6666 0.150758C45.6994 0.154172 45.7323 0.157586 45.7654 0.161179C59.8955 1.66175 70.9034 13.6178 70.9034 28.1455Z" fill="#666666"/>
<path d="M20.6494 42.8983C20.2477 47.0814 21.522 51.1913 24.096 54.3762H14.6123V28.1455C14.6123 12.6016 27.2139 0 42.7578 0C42.9335 0 43.1093 0.00215625 43.2852 0.0041328C43.4086 0.00628905 43.5321 0.0104219 43.6535 0.0145547C43.7184 0.0167109 43.7833 0.0186875 43.846 0.0208437C44.1452 0.0334218 44.4424 0.0479765 44.7374 0.0689999C45.3924 0.115 46.041 0.184179 46.6814 0.274023C33.2072 2.15319 22.7902 13.5684 22.468 27.4799H22.1396L20.6494 42.8983Z" fill="#4D4D4D"/>
<path d="M44.3982 43.2117H44.3269V39.9682C44.3269 39.1014 43.6245 38.3988 42.7575 38.3988C41.8905 38.3988 41.1881 39.1016 41.1881 39.9682V43.2117H41.1168C40.2498 43.2117 39.5474 43.9145 39.5474 44.7811C39.5474 45.6477 40.2498 46.3505 41.1168 46.3505H44.3984C45.2654 46.3505 45.9678 45.6477 45.9678 44.7811C45.9678 43.9145 45.2652 43.2117 44.3982 43.2117Z" fill="#E0B394"/>
<path d="M50.9498 51.4612C50.9498 51.4612 50.8305 51.7541 50.5795 52.2166C50.5187 52.3359 50.4476 52.4615 50.3682 52.5975C50.274 52.7314 50.1651 52.8674 50.048 53.0201C49.9308 53.1729 49.7969 53.3278 49.6546 53.4994C49.6045 53.5642 49.5501 53.6187 49.4915 53.6751C49.4706 53.6959 49.4475 53.717 49.4245 53.7378C49.3429 53.8131 49.2591 53.8927 49.1734 53.9721C49.0018 54.1333 48.8157 54.2923 48.6211 54.4596C48.416 54.6104 48.1963 54.7525 47.9702 54.9074C47.8572 54.9848 47.7401 55.0601 47.6208 55.1354C47.5014 55.2066 47.3739 55.2652 47.2441 55.33C46.9888 55.4598 46.723 55.5854 46.449 55.711C45.8841 55.9034 45.296 56.1294 44.6681 56.2236C44.0488 56.3681 43.4021 56.3911 42.7575 56.4223C42.113 56.3909 41.4665 56.37 40.8469 56.2256C40.2191 56.1314 39.6311 55.9054 39.066 55.7129C38.7918 55.5895 38.5261 55.4639 38.2688 55.3342C38.1412 55.2693 38.0134 55.2107 37.8921 55.1396C37.775 55.0621 37.6578 54.9888 37.5448 54.9115C37.3188 54.7566 37.097 54.6123 36.892 54.4637C36.6974 54.2963 36.5132 54.1353 36.3396 53.9763C36.2539 53.8947 36.1722 53.8172 36.0906 53.7398C36.0613 53.7127 36.032 53.6853 36.0027 53.6582C35.9524 53.6081 35.9044 53.5599 35.8626 53.5033C35.7265 53.338 35.5947 53.1853 35.4797 53.0345C35.3666 52.8818 35.2558 52.7479 35.1638 52.6139C35.08 52.4716 35.0026 52.3418 34.9377 52.2225C34.6761 51.7454 34.5674 51.4608 34.5674 51.4608C34.5674 51.4608 34.8772 51.555 35.3542 51.7474C35.4755 51.7934 35.6011 51.85 35.7413 51.9064C35.8899 51.9505 36.0426 52.0069 36.2058 52.0613C36.3711 52.1158 36.5364 52.1826 36.7121 52.2455C36.8859 52.3125 37.0825 52.3564 37.2771 52.415C37.4717 52.4714 37.6663 52.5406 37.8693 52.6011C38.0806 52.6471 38.2919 52.7016 38.5097 52.7538C38.6186 52.779 38.7253 52.8103 38.8341 52.8396C38.9449 52.8647 39.0601 52.8793 39.1731 52.9023C39.4011 52.942 39.6293 52.988 39.8574 53.0404C40.3325 53.0845 40.8011 53.1891 41.2907 53.2079C41.7741 53.2706 42.2681 53.2539 42.7577 53.2832C43.2495 53.2539 43.7433 53.2728 44.2266 53.2099C44.7163 53.1932 45.1851 53.0864 45.66 53.0424C45.888 52.9921 46.1162 52.9461 46.3443 52.9064C46.4573 52.8834 46.5723 52.8687 46.6833 52.8437C46.7922 52.8122 46.9009 52.783 47.0077 52.758C47.2253 52.7057 47.4366 52.6491 47.6481 52.6052C47.8531 52.5445 48.0477 52.4755 48.2423 52.4191C48.4347 52.3605 48.6356 52.3145 48.8031 52.2496C48.9747 52.1911 49.1359 52.1262 49.299 52.0759C49.4602 52.0214 49.6108 51.967 49.7594 51.9232C49.9058 51.8604 50.0356 51.7997 50.159 51.7516C50.6465 51.549 50.9498 51.4612 50.9498 51.4612Z" fill="#F2F2F2"/>
<path d="M49.4912 53.6751C49.4704 53.6959 49.4472 53.717 49.4242 53.7378C49.3426 53.8131 49.2589 53.8927 49.1732 53.9721C49.0016 54.1333 48.8154 54.2923 48.6208 54.4596C48.4158 54.6104 48.196 54.7525 47.97 54.9074C47.8569 54.9848 47.7398 55.0601 47.6205 55.1354C47.5012 55.2066 47.3736 55.2651 47.2439 55.33C46.9885 55.4598 46.7228 55.5854 46.4487 55.711C45.8838 55.9034 45.2957 56.1294 44.6679 56.2236C44.0485 56.3681 43.4018 56.3911 42.7572 56.4223C42.1127 56.3909 41.4662 56.37 40.8466 56.2256C40.2188 56.1314 39.6309 55.9054 39.0657 55.7129C38.7915 55.5895 38.5258 55.4639 38.2685 55.3341C38.1409 55.2693 38.0131 55.2107 37.8919 55.1395C37.7747 55.0621 37.6575 54.9888 37.5445 54.9115C37.3185 54.7566 37.0967 54.6123 36.8917 54.4637C36.6971 54.2963 36.5129 54.1353 36.3394 53.9763C36.2536 53.8947 36.1719 53.8172 36.0903 53.7398C36.061 53.7127 36.0317 53.6853 36.0024 53.6582C36.0695 53.6812 36.1363 53.7042 36.2055 53.7272C36.3708 53.7816 36.5361 53.8465 36.7118 53.9092C36.8856 53.9782 37.0822 54.0222 37.2768 54.0808C37.4714 54.1372 37.666 54.2043 37.869 54.267C38.0803 54.311 38.2917 54.3674 38.5094 54.4197C38.6183 54.4449 38.7251 54.4742 38.8338 54.5035C38.9446 54.5286 39.0598 54.5432 39.1728 54.5662C39.4009 54.6059 39.6291 54.654 39.8571 54.7043C40.3322 54.7503 40.8008 54.8551 41.2905 54.8718C41.7738 54.9367 42.2678 54.9178 42.7574 54.9493C43.2492 54.92 43.743 54.9388 44.2264 54.874C44.716 54.8573 45.1848 54.7527 45.6597 54.7087C45.8878 54.6585 46.116 54.6104 46.344 54.5705C46.457 54.5475 46.572 54.5327 46.683 54.5078C46.7919 54.4785 46.9006 54.4492 47.0074 54.424C47.225 54.3717 47.4363 54.3151 47.6478 54.2713C47.8528 54.2086 48.0474 54.1394 48.242 54.0851C48.4345 54.0266 48.6353 53.9784 48.8028 53.9157C48.9744 53.855 49.1356 53.7923 49.2988 53.74C49.3636 53.7191 49.4285 53.6961 49.4912 53.6751Z" fill="#4D4D4D"/>
<path d="M48.4849 34.3031C48.4849 34.3031 48.489 34.2614 48.503 34.1899C48.5192 34.1207 48.5354 34.0111 48.5706 33.8873C48.5862 33.8234 48.6065 33.7565 48.6299 33.683C48.6602 33.6085 48.701 33.5335 48.7443 33.4487C48.7873 33.3634 48.8414 33.2791 48.8983 33.1842C48.9556 33.0879 49.0241 33.015 49.0942 32.9221C49.1653 32.8328 49.2455 32.7463 49.3292 32.6534C49.4178 32.5695 49.5138 32.4869 49.6158 32.4038C49.8156 32.2279 50.0598 32.1007 50.3143 31.9591C50.5775 31.8477 50.8569 31.727 51.1561 31.6713C51.4524 31.5942 51.7631 31.576 52.073 31.5616C52.383 31.5758 52.6939 31.5924 52.9905 31.6689C53.2901 31.7241 53.5695 31.8456 53.8331 31.9561C54.0877 32.0973 54.3322 32.2243 54.5322 32.4006C54.6341 32.4838 54.7304 32.5668 54.8192 32.6502C54.9029 32.7433 54.9827 32.8306 55.0542 32.9194C55.1232 33.0119 55.1951 33.0877 55.2476 33.1803C55.3004 33.2723 55.3514 33.3547 55.3928 33.4383C55.4339 33.522 55.474 33.5957 55.5042 33.6699C55.5317 33.7474 55.5559 33.8174 55.5739 33.8837C55.6136 34.012 55.6301 34.1224 55.6454 34.1914C55.6589 34.2627 55.6617 34.3033 55.6617 34.3033C55.6617 34.3033 55.6184 34.3022 55.5451 34.2952C55.474 34.2861 55.3635 34.2814 55.2415 34.2636C55.1782 34.2571 55.1139 34.2455 55.0429 34.2359C54.9674 34.2323 54.8929 34.2219 54.8118 34.2156C54.653 34.1989 54.4873 34.1739 54.3049 34.1669C54.2154 34.161 54.1285 34.1481 54.0377 34.1405C53.9438 34.1393 53.851 34.1344 53.759 34.1276C53.5786 34.1042 53.3826 34.1179 53.2006 34.0951C53.009 34.1019 52.8257 34.0785 52.636 34.0845C52.4493 34.0704 52.2606 34.0854 52.0732 34.0721C51.886 34.0848 51.6971 34.0685 51.5101 34.0821C51.3201 34.0755 51.1367 34.0997 50.9448 34.092C50.7626 34.1146 50.566 34.1006 50.3856 34.1242C50.2936 34.131 50.2009 34.136 50.1067 34.1371C50.016 34.1446 49.9295 34.1585 49.8395 34.1639C49.6537 34.1739 49.4992 34.1915 49.3441 34.2048C49.2627 34.2111 49.1865 34.2171 49.1161 34.2223C49.041 34.2359 48.9724 34.251 48.9071 34.2595C48.7804 34.2819 48.6698 34.2871 48.5995 34.2961C48.5269 34.3031 48.4849 34.3031 48.4849 34.3031Z" fill="#666666"/>
<path d="M29.8535 34.3031C29.8535 34.3031 29.8576 34.2614 29.8717 34.1899C29.8878 34.1207 29.9042 34.0111 29.9392 33.8873C29.9549 33.8234 29.9752 33.7565 29.9985 33.683C30.0289 33.6085 30.0697 33.5335 30.113 33.4487C30.1559 33.3634 30.21 33.2791 30.267 33.1842C30.3243 33.0879 30.3928 33.015 30.4628 32.9221C30.534 32.8328 30.6141 32.7463 30.6979 32.6534C30.7864 32.5695 30.8824 32.4869 30.9845 32.4038C31.1843 32.2279 31.4285 32.1007 31.6829 31.9591C31.9462 31.8477 32.2256 31.727 32.5247 31.6713C32.821 31.5942 33.1317 31.576 33.4417 31.5616C33.7516 31.5758 34.0625 31.5924 34.3592 31.6689C34.6587 31.7241 34.9381 31.8456 35.2017 31.9561C35.4563 32.0973 35.7009 32.2243 35.9009 32.4006C36.0028 32.4838 36.0991 32.5668 36.1878 32.6502C36.2716 32.7433 36.3514 32.8306 36.4229 32.9194C36.4919 33.0119 36.5638 33.0877 36.6162 33.1803C36.6689 33.2723 36.7201 33.3547 36.7614 33.4383C36.8026 33.522 36.8426 33.5957 36.8728 33.6699C36.9003 33.7474 36.9246 33.8174 36.9425 33.8837C36.9822 34.012 36.9988 34.1224 37.014 34.1914C37.0275 34.2627 37.0304 34.3033 37.0304 34.3033C37.0304 34.3033 36.9871 34.3022 36.9138 34.2952C36.8426 34.2861 36.7321 34.2814 36.6101 34.2636C36.5469 34.2571 36.4825 34.2455 36.4116 34.2359C36.3361 34.2323 36.2615 34.2219 36.1805 34.2156C36.0216 34.1989 35.856 34.1739 35.6736 34.1669C35.5841 34.161 35.4971 34.1481 35.4064 34.1405C35.3124 34.1393 35.2197 34.1344 35.1277 34.1276C34.9473 34.1042 34.7512 34.1179 34.5692 34.0951C34.3777 34.1019 34.1944 34.0785 34.0046 34.0845C33.818 34.0704 33.6293 34.0854 33.4419 34.0721C33.2546 34.0848 33.0658 34.0685 32.8787 34.0821C32.6888 34.0755 32.5053 34.0997 32.3134 34.092C32.1312 34.1146 31.9347 34.1006 31.7542 34.1242C31.6622 34.131 31.5695 34.136 31.4754 34.1371C31.3846 34.1446 31.2982 34.1585 31.2082 34.1639C31.0224 34.1739 30.8678 34.1915 30.7128 34.2048C30.6314 34.2111 30.5552 34.2171 30.4848 34.2223C30.4096 34.2359 30.341 34.251 30.2758 34.2595C30.1491 34.2819 30.0384 34.2871 29.9682 34.2961C29.8956 34.3031 29.8535 34.3031 29.8535 34.3031Z" fill="#666666"/>
</g>
<defs>
<clipPath id="clip0">
<rect width="92" height="92" fill="white"/>
</clipPath>
</defs>
</svg>
