<svg width="91" height="94" viewBox="0 0 91 94" fill="none" xmlns="http://www.w3.org/2000/svg">
<path d="M23.8918 38.6614C21.2757 38.5415 19.1934 36.3121 19.1934 33.5813C19.1934 30.7744 21.396 28.4971 24.1154 28.4971C24.3601 28.4971 24.6006 28.5145 24.837 28.5516" fill="#E0B394"/>
<path d="M67.9476 38.6614C70.5637 38.5415 72.6482 36.3121 72.6482 33.5813C72.6482 30.7744 70.4436 28.4971 67.724 28.4971C67.4793 28.4971 67.2367 28.5167 67.0024 28.5516" fill="#E0B394"/>
<path d="M68.917 70.5623V90.346H22.9243V70.5623C22.9243 65.9355 25.1796 61.8537 28.6186 59.4282C30.7135 57.9485 33.2454 57.0834 35.9732 57.0834H55.8704C58.6406 57.0834 61.2081 57.9747 63.3221 59.498C66.7038 61.9321 68.917 65.9812 68.917 70.5623Z" fill="#666666"/>
<path d="M44.0123 57.0831H35.9728C28.7668 57.0831 22.9248 63.1175 22.9248 70.5613V90.3454H30.9643V70.5613C30.9644 63.1173 36.8062 57.0831 44.0123 57.0831Z" fill="#4D4D4D"/>
<path d="M63.3227 59.4978L45.9909 90.3459L31.9652 65.3819L28.6191 59.428C30.7141 57.9482 33.2459 57.0831 35.9738 57.0831H55.871C58.6411 57.0831 61.2087 57.9743 63.3227 59.4978Z" fill="#E6E6E6"/>
<path d="M55.1513 43.0818V55.1892C55.1513 60.4263 51.0405 64.6728 45.9704 64.6728C40.8988 64.6728 36.7896 60.4264 36.7896 55.1892V43.0818H55.1513V43.0818Z" fill="#E0B394"/>
<path d="M44.0113 57.0831C38.583 57.0831 33.9288 60.509 31.9647 65.3819L28.6187 59.428C30.7136 57.9482 33.2454 57.0831 35.9733 57.0831H44.0113Z" fill="#CCCCCC"/>
<path d="M38.8007 60.6385L30.1404 54.1389C25.564 50.7042 23.0881 45.0246 23.6323 39.2081L25.1346 23.1514C26.1691 12.0924 35.1659 3.65393 45.9217 3.65393C56.6774 3.65393 65.674 12.0924 66.7088 23.1514L68.211 39.2081C68.755 45.0246 66.2795 50.704 61.7029 54.1389L53.0426 60.6385C48.796 63.8251 43.0466 63.8251 38.8007 60.6385Z" fill="#F7CBA4"/>
<path d="M29.0212 42.3727C28.8757 44.916 29.6774 47.4178 31.2639 49.3683L40.3154 60.8576C40.788 61.4394 41.3238 61.9276 41.904 62.3177C40.8153 61.9254 39.7688 61.3632 38.8005 60.6375L30.1399 54.1388C25.5638 50.7042 23.089 45.0249 23.6334 39.2084L25.1335 23.1513C26.1588 12.2003 34.9903 3.81872 45.6086 3.65955C39.0684 3.82294 31.6625 10.1909 31.2765 16.973L29.0212 42.3727Z" fill="#E8BA97"/>
<path d="M59.9591 9.25593C63.2292 12.3221 65.5606 16.4563 66.4318 21.1636C48.3323 30.0509 38.5366 18.1606 38.5366 18.1606C34.317 22.5193 25.1333 23.1512 25.1333 23.1512C26.1691 12.0934 35.1652 3.65503 45.9207 3.65503C51.2985 3.65521 56.2354 5.76471 59.9591 9.25593Z" fill="#AD683A"/>
<path d="M36.6167 5.91284C34.0639 12.623 38.5366 18.1606 38.5366 18.1606C34.317 22.5193 25.1333 23.1512 25.1333 23.1512C25.8485 15.5194 30.355 9.13399 36.6167 5.91284Z" fill="#8E502E"/>
<path d="M26.2305 79.9068H34.1071L30.1687 71.8434L26.2305 79.9068Z" fill="#7E9CE8"/>
<path d="M54.1795 48.1743C54.1795 48.1743 54.0592 48.4794 53.8061 48.961C53.745 49.0853 53.6732 49.216 53.593 49.3576C53.4981 49.4971 53.3885 49.6387 53.2703 49.7978C53.1521 49.957 53.0172 50.1182 52.8736 50.2968C52.8229 50.3644 52.768 50.4211 52.709 50.4799C52.6878 50.5017 52.6647 50.5234 52.6414 50.5452C52.5591 50.6236 52.4747 50.7064 52.3883 50.7892C52.2154 50.957 52.0275 51.1226 51.8313 51.2971C51.6246 51.454 51.403 51.6022 51.1751 51.7634C51.0612 51.844 50.943 51.9226 50.8229 52.001C50.7025 52.0751 50.5738 52.1361 50.443 52.2036C50.1857 52.3388 49.9177 52.4695 49.6413 52.6002C49.0716 52.8007 48.4789 53.0361 47.8458 53.1341C47.2212 53.2845 46.5693 53.3085 45.9195 53.3412C45.2697 53.3085 44.6178 53.2867 43.9932 53.1363C43.3603 53.0383 42.7674 52.8029 42.1978 52.6024C41.9214 52.4739 41.6534 52.343 41.3939 52.2079C41.2652 52.1403 41.1365 52.0794 41.014 52.0052C40.8959 51.9246 40.7778 51.8482 40.6639 51.7676C40.4361 51.6064 40.2125 51.4561 40.0056 51.3013C39.8094 51.1269 39.6236 50.9591 39.4486 50.7935C39.362 50.7085 39.2797 50.6279 39.1974 50.5473C39.1679 50.519 39.1384 50.4905 39.1087 50.4623C39.0581 50.4099 39.0096 50.3598 38.9674 50.3011C38.8302 50.1289 38.6975 49.9699 38.5814 49.8129C38.4675 49.6537 38.3557 49.5144 38.2629 49.3748C38.1785 49.2267 38.1004 49.0915 38.035 48.9673C37.7713 48.4705 37.6616 48.174 37.6616 48.174C37.6616 48.174 37.9739 48.272 38.4548 48.4725C38.5771 48.5204 38.7039 48.5793 38.8452 48.6381C38.995 48.6838 39.1489 48.7427 39.3135 48.7993C39.4802 48.856 39.6469 48.9256 39.8241 48.9911C39.9992 49.0609 40.1975 49.1066 40.3938 49.1676C40.59 49.2265 40.7862 49.2983 40.9908 49.3614C41.2039 49.4094 41.417 49.4661 41.6363 49.5206C41.746 49.5467 41.8537 49.5794 41.9633 49.61C42.0751 49.6361 42.1912 49.6515 42.3051 49.6754C42.5351 49.7169 42.7651 49.7648 42.9951 49.8191C43.4741 49.8648 43.9467 49.9739 44.4402 49.9935C44.9276 50.0589 45.4254 50.0415 45.9192 50.0719C46.415 50.0415 46.9129 50.0611 47.4002 49.9957C47.894 49.9783 48.3666 49.8672 48.8454 49.8213C49.0754 49.769 49.3054 49.7211 49.5353 49.6796C49.6493 49.6555 49.7653 49.6403 49.8771 49.6142C49.9868 49.5816 50.0965 49.5511 50.2042 49.5248C50.4235 49.4703 50.6366 49.4116 50.8497 49.3657C51.0564 49.3025 51.2526 49.2305 51.4488 49.1718C51.6429 49.1108 51.8455 49.0627 52.0142 48.9953C52.1871 48.9344 52.3496 48.8668 52.5142 48.8145C52.6766 48.7578 52.8286 48.7012 52.9782 48.6553C53.1259 48.59 53.2567 48.5268 53.3812 48.4767C53.8737 48.2659 54.1795 48.1743 54.1795 48.1743Z" fill="#F2F2F2"/>
<path d="M52.7096 50.48C52.6885 50.5019 52.6654 50.5235 52.6421 50.5454C52.5598 50.6238 52.4754 50.7066 52.389 50.7894C52.216 50.9572 52.0282 51.1228 51.832 51.2972C51.6253 51.4542 51.4036 51.6023 51.1758 51.7635C51.0618 51.8441 50.9436 51.9227 50.8235 52.0011C50.7032 52.0753 50.5745 52.1362 50.4437 52.2038C50.1863 52.3389 49.9183 52.4696 49.6419 52.6003C49.0723 52.8008 48.4795 53.0362 47.8464 53.1342C47.2219 53.2846 46.57 53.3087 45.9202 53.3413C45.2704 53.3087 44.6184 53.2868 43.9939 53.1364C43.361 53.0384 42.768 52.803 42.1984 52.6025C41.922 52.474 41.654 52.3431 41.3945 52.208C41.2658 52.1404 41.1371 52.0795 41.0147 52.0053C40.8965 51.9247 40.7785 51.8483 40.6646 51.7677C40.4367 51.6066 40.2131 51.4562 40.0062 51.3014C39.81 51.127 39.6243 50.9592 39.4492 50.7936C39.3626 50.7086 39.2804 50.628 39.1981 50.5474C39.1686 50.5191 39.1391 50.4907 39.1094 50.4624C39.1769 50.4865 39.2445 50.5103 39.3139 50.5344C39.4807 50.5911 39.6474 50.6587 39.8246 50.724C39.9996 50.796 40.198 50.8417 40.3942 50.9027C40.5904 50.9616 40.7867 51.0312 40.9912 51.0965C41.2043 51.1422 41.4174 51.2012 41.6368 51.2557C41.7464 51.2818 41.8541 51.3124 41.9638 51.3429C42.0756 51.369 42.1916 51.3844 42.3056 51.4083C42.5356 51.4498 42.7655 51.4999 42.9955 51.552C43.4745 51.5999 43.9471 51.709 44.4407 51.7264C44.928 51.794 45.4259 51.7744 45.9196 51.807C46.4155 51.7766 46.9133 51.7962 47.4007 51.7286C47.8944 51.7112 48.367 51.6023 48.8458 51.5564C49.0758 51.5041 49.3058 51.454 49.5358 51.4127C49.6497 51.3886 49.7658 51.3734 49.8776 51.3473C49.9873 51.3168 50.0969 51.2864 50.2046 51.2601C50.424 51.2056 50.6371 51.1468 50.8502 51.1009C51.0569 51.0356 51.2531 50.9636 51.4493 50.9071C51.6434 50.8461 51.846 50.796 52.0147 50.7306C52.1876 50.6675 52.3501 50.6021 52.5146 50.5476C52.5809 50.5257 52.6463 50.5019 52.7096 50.48Z" fill="#4D4D4D"/>
<path d="M36.5291 41.4187C35.6552 41.4187 34.9468 40.6869 34.9468 39.7842V37.1698C34.9468 36.2671 35.6552 35.5353 36.5291 35.5353C37.4031 35.5353 38.1115 36.2671 38.1115 37.1698V39.7842C38.1113 40.6871 37.4029 41.4187 36.5291 41.4187Z" fill="#4D4D4D"/>
<path d="M51.6953 32.8208C51.6953 32.8208 51.6996 32.7775 51.7136 32.703C51.7298 32.6308 51.7463 32.5168 51.7817 32.3879C51.7975 32.3213 51.8179 32.2517 51.8414 32.1751C51.872 32.0975 51.9132 32.0194 51.9568 31.9311C52 31.8423 52.0547 31.7543 52.1121 31.6557C52.1699 31.5555 52.2388 31.4795 52.3096 31.3827C52.3814 31.2897 52.4621 31.1997 52.5465 31.1029C52.6357 31.0156 52.7326 30.9294 52.8355 30.843C53.037 30.6597 53.2832 30.5272 53.5397 30.3799C53.805 30.2641 54.0867 30.1383 54.3883 30.0801C54.6871 29.9999 55.0005 29.981 55.3129 29.9659C55.6254 29.9808 55.9389 29.9979 56.2379 30.0778C56.5398 30.1352 56.8215 30.2617 57.0872 30.3768C57.3441 30.5239 57.5904 30.6563 57.7921 30.8397C57.8949 30.9263 57.9919 31.0128 58.0813 31.0996C58.1657 31.1966 58.2461 31.2875 58.3182 31.38C58.3879 31.4764 58.4602 31.5555 58.5132 31.6517C58.5664 31.7475 58.6179 31.8335 58.6597 31.9205C58.7012 32.0077 58.7416 32.0844 58.772 32.1617C58.7997 32.2423 58.8241 32.3154 58.8422 32.3844C58.8824 32.5181 58.8989 32.6328 58.9144 32.7048C58.9279 32.7792 58.9309 32.8214 58.9309 32.8214C58.9309 32.8214 58.8872 32.8203 58.8134 32.8129C58.7416 32.8034 58.6303 32.7986 58.5073 32.7801C58.4437 32.7733 58.3787 32.7612 58.3072 32.7512C58.231 32.7476 58.156 32.7366 58.0744 32.7301C57.9142 32.7127 57.7472 32.6868 57.5634 32.6793C57.4731 32.6732 57.3855 32.6596 57.2939 32.6517C57.1992 32.6505 57.1057 32.6455 57.013 32.6382C56.8311 32.6137 56.6335 32.6281 56.4499 32.6044C56.2569 32.6115 56.072 32.5871 55.8806 32.5932C55.6924 32.5785 55.502 32.5941 55.3133 32.5803C55.1245 32.5935 54.9342 32.5767 54.7456 32.5908C54.554 32.5838 54.3691 32.6091 54.1758 32.6011C53.992 32.6246 53.7938 32.6101 53.612 32.6347C53.5192 32.6418 53.4257 32.6472 53.3308 32.6483C53.2393 32.6561 53.1522 32.6705 53.0614 32.6762C52.874 32.6866 52.7184 32.705 52.5619 32.7189C52.4798 32.7255 52.4031 32.7316 52.332 32.7371C52.2562 32.7512 52.1871 32.767 52.1212 32.7759C51.9936 32.7992 51.8819 32.8047 51.811 32.814C51.7376 32.8208 51.6953 32.8208 51.6953 32.8208Z" fill="#666666"/>
<path d="M32.9111 32.8208C32.9111 32.8208 32.9154 32.7775 32.9294 32.703C32.9456 32.6308 32.9621 32.5168 32.9975 32.3879C33.0133 32.3213 33.0338 32.2517 33.0572 32.1751C33.0878 32.0975 33.129 32.0194 33.1726 31.9311C33.2158 31.8423 33.2705 31.7543 33.3279 31.6557C33.3857 31.5555 33.4546 31.4795 33.5254 31.3827C33.5972 31.2897 33.6779 31.1997 33.7623 31.1029C33.8515 31.0156 33.9484 30.9294 34.0513 30.843C34.2528 30.6597 34.499 30.5272 34.7555 30.3799C35.0208 30.2641 35.3025 30.1383 35.6042 30.0801C35.9029 29.9999 36.2163 29.981 36.5287 29.9659C36.8412 29.9808 37.1547 29.9979 37.4537 30.0778C37.7556 30.1352 38.0375 30.2617 38.3031 30.3768C38.5599 30.5239 38.8062 30.6563 39.008 30.8397C39.1107 30.9263 39.2077 31.0128 39.2971 31.0996C39.3815 31.1966 39.4619 31.2875 39.534 31.38C39.6037 31.4764 39.6761 31.5555 39.729 31.6517C39.7822 31.7475 39.8337 31.8335 39.8755 31.9205C39.9171 32.0077 39.9574 32.0844 39.9878 32.1617C40.0155 32.2423 40.0399 32.3154 40.058 32.3844C40.0982 32.5181 40.1147 32.6328 40.1302 32.7048C40.1437 32.7792 40.1467 32.8214 40.1467 32.8214C40.1467 32.8214 40.103 32.8203 40.0292 32.8129C39.9574 32.8034 39.8461 32.7986 39.7232 32.7801C39.6595 32.7733 39.5945 32.7612 39.523 32.7512C39.4468 32.7476 39.3718 32.7366 39.2902 32.7301C39.1301 32.7127 38.963 32.6868 38.7792 32.6793C38.6889 32.6732 38.6013 32.6596 38.5098 32.6517C38.415 32.6505 38.3215 32.6455 38.2288 32.6382C38.0469 32.6137 37.8493 32.6281 37.6657 32.6044C37.4727 32.6115 37.2878 32.5871 37.0964 32.5932C36.9082 32.5785 36.7178 32.5941 36.5291 32.5803C36.3403 32.5935 36.15 32.5767 35.9614 32.5908C35.7698 32.5838 35.585 32.6091 35.3916 32.6011C35.2078 32.6246 35.0096 32.6101 34.8278 32.6347C34.735 32.6418 34.6416 32.6472 34.5466 32.6483C34.4551 32.6561 34.368 32.6705 34.2772 32.6762C34.0899 32.6866 33.9342 32.705 33.7778 32.7189C33.6957 32.7255 33.6189 32.7316 33.5478 32.7371C33.4721 32.7512 33.4029 32.767 33.337 32.7759C33.2094 32.7992 33.0978 32.8047 33.0268 32.814C32.9534 32.8208 32.9111 32.8208 32.9111 32.8208Z" fill="#666666"/>
<path d="M55.3133 41.4187C54.4394 41.4187 53.731 40.6869 53.731 39.7842V37.1698C53.731 36.2671 54.4394 35.5353 55.3133 35.5353C56.1873 35.5353 56.8957 36.2671 56.8957 37.1698V39.7842C56.8955 40.6871 56.1871 41.4187 55.3133 41.4187Z" fill="#4D4D4D"/>
<path d="M48.3476 34.2281V41.9648C48.3476 43.3489 47.2613 44.471 45.9214 44.471C44.5814 44.471 43.4951 43.3489 43.4951 41.9648V34.2281" fill="#E0B394"/>
<path d="M34.7043 79.5796H25.6338V83.0528H34.7043V79.5796Z" fill="#4D4D4D"/>
<path d="M45.9715 75.5697C46.8454 75.5697 47.5539 74.8379 47.5539 73.9352C47.5539 73.0325 46.8454 72.3007 45.9715 72.3007C45.0976 72.3007 44.3892 73.0325 44.3892 73.9352C44.3892 74.8379 45.0976 75.5697 45.9715 75.5697Z" fill="#4D4D4D"/>
<path d="M45.9715 82.5435C46.8454 82.5435 47.5539 81.8117 47.5539 80.9089C47.5539 80.0062 46.8454 79.2744 45.9715 79.2744C45.0976 79.2744 44.3892 80.0062 44.3892 80.9089C44.3892 81.8117 45.0976 82.5435 45.9715 82.5435Z" fill="#4D4D4D"/>
<path d="M52.7912 63.765L47.6677 66.8205V66.7458C47.6677 66.2106 47.2477 65.7766 46.7294 65.7766H45.112C44.5939 65.7766 44.1738 66.2105 44.1738 66.7458V66.8205L39.0502 63.765C37.9963 63.1366 36.6787 63.9221 36.6787 65.1794V70.5455C36.6787 71.8027 37.9963 72.5883 39.0502 71.9599L44.1738 68.9043V69.1896C44.1738 69.7248 44.5937 70.1588 45.112 70.1588H46.7294C47.2475 70.1588 47.6677 69.725 47.6677 69.1896V68.9043L52.7912 71.9599C53.8452 72.5883 55.1625 71.8027 55.1625 70.5455V65.1794C55.1627 63.9221 53.8452 63.1366 52.7912 63.765Z" fill="#7E9CE8"/>
</svg>
