<svg width="83" height="83" viewBox="0 0 83 83" fill="none" xmlns="http://www.w3.org/2000/svg">
<g clip-path="url(#clip0)">
<path d="M63.1515 30.2567C65.9776 28.9105 67.9311 26.028 67.9311 22.6889C67.9311 19.253 65.8611 16.3015 62.9013 15.0097C63.1692 11.7846 61.5468 8.55697 58.5143 6.92955C56.4176 5.80429 54.0569 5.66498 51.9603 6.34761C51.213 5.15902 50.1587 4.14141 48.8333 3.42965C45.3942 1.58376 41.2415 2.38544 38.7136 5.12989C37.183 3.47144 34.992 2.4323 32.5579 2.4323C30.1782 2.4323 28.0321 3.42648 26.5073 5.01971C25.18 4.26426 23.628 3.85962 21.9746 3.93624C17.6287 4.13824 14.1231 7.7116 13.9996 12.0613C13.9407 14.1504 14.6474 16.0716 15.8588 17.5686C14.9374 19.7361 14.4321 22.2115 14.4321 24.9945L10.7859 39.994C10.5377 41.0148 11.3109 41.9982 12.3614 41.9982H16.5104L17.376 51.7589C17.7959 55.7059 21.632 58.3535 25.4713 57.3447L33.6249 55.2025V63.4295L18.431 68.3004C12.8642 70.0854 7.96169 73.5011 4.3592 78.1054L0 82.9997H82.999L77.0782 74.4371C75.1184 70.9935 72.4771 67.9856 69.316 65.5964L54.7858 54.6123V38.8985L54.7712 38.8865C56.5297 36.6385 57.8703 34.0486 58.6789 31.2332L63.1515 30.2567Z" fill="#FFDAAB"/>
<path d="M58.5145 6.92958C56.4178 5.80432 54.0571 5.665 51.9598 6.34827C51.2132 5.15905 50.1589 4.14143 48.8335 3.43031C46.4734 2.1632 43.7765 2.14357 41.5 3.14282V83.0004H82.9992L77.0784 74.4377C75.1186 70.9942 72.4773 67.9863 69.3162 65.5965L54.786 54.6123V38.8986L54.7714 38.8872C56.5299 36.6392 57.8705 34.0492 58.6791 31.2332L63.1516 30.2574C65.9778 28.9111 67.9307 26.0286 67.9307 22.6896C67.9307 19.253 65.8613 16.3021 62.9009 15.0097C63.1694 11.7852 61.547 8.55763 58.5145 6.92958Z" fill="#FFBE85"/>
<path d="M16.49 19.0889C13.5094 18.0441 11.4963 15.2129 11.5672 12.0555C11.5679 12.034 11.5685 12.0131 11.5691 11.9922C11.7281 6.37413 16.2488 1.76859 21.8618 1.50707C23.3075 1.43994 24.7417 1.66094 26.0842 2.15234C27.9409 0.754782 30.185 0.000596532 32.5578 0.000596532C34.7671 0.000596532 36.9157 0.685759 38.7103 1.92627C41.9911 -0.35275 46.3453 -0.665569 49.9832 1.28733C51.1009 1.88764 52.1033 2.68046 52.9417 3.62145C55.2384 3.26747 57.5725 3.66451 59.6641 4.78724C62.9684 6.5603 65.0796 9.89049 65.3354 13.5569C68.4332 15.5181 70.362 18.9483 70.362 22.6895C70.362 26.8365 67.9418 30.6689 64.1968 32.4521C63.0697 32.9884 27.2747 22.8693 16.49 19.0889Z" fill="#CC8135"/>
<path d="M65.3358 13.5563C65.0799 9.89052 62.9681 6.56032 59.6645 4.78724C57.5729 3.66451 55.2388 3.26747 52.942 3.62145C52.1036 2.67982 51.1018 1.88701 49.9835 1.28733C47.3055 -0.150126 44.24 -0.358462 41.5 0.539472V26.6929C52.9072 29.9345 63.5893 32.7416 64.1972 32.4522C67.9422 30.6684 70.3624 26.836 70.3624 22.6889C70.3624 18.9484 68.4336 15.5175 65.3358 13.5563Z" fill="#A15615"/>
<path d="M50.2666 43.7543C48.9235 43.7543 47.835 42.6658 47.835 41.3227C47.835 39.9802 48.9235 38.8917 50.2666 38.8917C51.9187 38.8917 53.2618 37.5087 53.2618 35.8084C53.2618 34.1088 51.9181 32.7258 50.2666 32.7258C48.9235 32.7258 47.835 31.6373 47.835 30.2942C47.835 28.9511 48.9235 27.8625 50.2666 27.8625C54.5999 27.8625 58.1251 31.4271 58.1251 35.8084C58.1251 40.1905 54.5999 43.7543 50.2666 43.7543Z" fill="#F59258"/>
<path d="M24.5922 33.354H22.9116C21.5685 33.354 20.48 32.2655 20.48 30.9224C20.48 29.5793 21.5685 28.4907 22.9116 28.4907H24.5922C25.9353 28.4907 27.0239 29.5793 27.0239 30.9224C27.0239 32.2655 25.9353 33.354 24.5922 33.354Z" fill="#F59258"/>
<path d="M55.6216 31.2396C55.4893 31.32 55.3487 31.3878 55.2005 31.4422C54.9288 31.5423 48.466 33.8827 42.3413 33.2381C39.4544 32.9341 36.4363 31.2839 33.3727 28.3324C31.2203 26.2591 29.8152 24.2663 29.7563 24.1828C29.3193 23.559 29.1997 22.7675 29.4327 22.0424C29.6657 21.318 30.2249 20.7436 30.943 20.4922C31.2184 20.3953 37.7604 18.1334 43.8636 18.7762C46.7505 19.0801 49.7527 20.7202 52.786 23.6502C54.9174 25.7095 56.3011 27.689 56.3587 27.772C56.7887 28.39 56.9077 29.1733 56.681 29.8914C56.5018 30.4594 56.1225 30.9363 55.6216 31.2396Z" fill="#738C28"/>
<path d="M52.7867 23.6509C49.7528 20.7202 46.7513 19.0808 43.8637 18.7762C43.0778 18.6939 42.285 18.6597 41.4985 18.6628V33.1083C41.7803 33.1628 42.0621 33.209 42.3414 33.2381C48.4667 33.8834 54.9289 31.5423 55.2012 31.4422C55.3487 31.3878 55.4893 31.32 55.6223 31.2396C56.1226 30.9369 56.5019 30.4595 56.6811 29.8914C56.9078 29.1733 56.7887 28.3907 56.3594 27.772C56.3011 27.689 54.9175 25.7095 52.7867 23.6509Z" fill="#4B5F1E"/>
<path d="M63.4767 35.096C63.3222 35.096 63.1664 35.0815 63.0119 35.0511C62.7269 34.996 55.9867 33.651 51.0817 29.9269C48.7691 28.1716 47.0429 25.1966 45.9505 21.085C45.183 18.1968 45.014 15.7645 45.007 15.6625C44.9557 14.9033 45.2635 14.1637 45.8384 13.664C46.4128 13.165 47.1885 12.9637 47.9332 13.1207C48.2188 13.1802 54.9868 14.6342 59.8742 18.3449C62.1868 20.1003 63.9054 23.0582 64.9819 27.1356C65.7386 30.001 65.8969 32.4105 65.9039 32.5118C65.9507 33.2634 65.6474 33.9948 65.0813 34.4919C64.6336 34.8845 64.0618 35.096 63.4767 35.096Z" fill="#8CA52D"/>
<path d="M63.1941 82.9996L63.4353 61.1504L23.9771 82.9996H63.1941Z" fill="#FAF9F5"/>
<path d="M41.5 82.9997H63.1942L63.4354 61.1504L41.5 73.2966V82.9997Z" fill="#E5E2D6"/>
</g>
<defs>
<clipPath id="clip0">
<rect width="83" height="83" fill="white"/>
</clipPath>
</defs>
</svg>
