<svg width="92" height="92" viewBox="0 0 92 92" fill="none" xmlns="http://www.w3.org/2000/svg">
<g clip-path="url(#clip0)">
<path d="M81.6636 77.7638V86.458L79.5338 90.3133L77.4043 86.458V77.7638H81.6636Z" fill="#E6E6E6"/>
<path d="M78.8977 86.4582L79.5332 90.3123L77.4043 86.4582V77.7644H78.8977V86.4582Z" fill="#CCCCCC"/>
<path d="M83.4552 70.8654H75.6147V78.7058H83.4552V70.8654Z" fill="#E6E6E6"/>
<path d="M77.9845 70.8654H75.6147V78.7058H77.9845V70.8654Z" fill="#CCCCCC"/>
<path d="M86.3774 53.7809V67.9101C86.3774 69.9876 84.6932 71.6718 82.6156 71.6718H76.4522C74.3746 71.6718 72.6904 69.9876 72.6904 67.9101V53.7809" fill="#F9C573"/>
<path d="M76.874 67.9102V53.781H72.6909V67.9102C72.6909 69.9877 74.3751 71.6719 76.4527 71.6719H78.3363C77.5286 71.6719 76.874 69.9877 76.874 67.9102Z" fill="#E2AF66"/>
<path d="M90.281 37.8668C89.2196 36.8054 87.7546 36.1495 86.1342 36.1495H72.9352C69.6965 36.1495 67.0713 38.7748 67.0713 42.0135C67.0713 43.3615 67.5254 44.6024 68.2881 45.5932C69.0529 46.582 70.1263 47.3205 71.3635 47.6655V54.1833H87.7064V47.6657C90.1822 46.9775 92.0002 44.7095 92.0002 42.0136C92.0002 40.3952 91.3424 38.9282 90.281 37.8668ZM85.773 43.2909H73.2964C72.7474 43.2909 72.2653 42.9983 72.0008 42.5585C71.8616 42.3304 71.7829 42.0641 71.7829 41.7775C71.7829 41.4588 71.8817 41.1641 72.0492 40.9199C72.3216 40.5244 72.7796 40.264 73.2962 40.264H85.7728C86.6082 40.264 87.2861 40.942 87.2861 41.7773C87.2861 42.6127 86.6083 43.2909 85.773 43.2909Z" fill="#EA8249"/>
<path d="M18.9599 41.4465H15.9331V91.0847H18.9599V41.4465Z" fill="#F9C573"/>
<path d="M74.586 47.6656V54.1835H71.3635V47.6656C70.1265 47.3206 69.0531 46.582 68.2881 45.5933C67.5254 44.6025 67.0713 43.3616 67.0713 42.0136C67.0713 38.7749 69.6965 36.1497 72.9352 36.1497H75.5383C74.5576 36.1497 73.6698 36.8055 73.0281 37.8669C72.5338 38.6842 72.1827 39.7395 72.0493 40.92C71.8819 41.1642 71.7831 41.4587 71.7831 41.7777C71.7831 42.0643 71.8618 42.3306 72.001 42.5586C72.1383 45.012 73.1916 47.024 74.586 47.6656Z" fill="#D36F3D"/>
<path d="M17.4462 52.5766C24.0289 52.5766 30.0863 54.8256 34.8924 58.5963C32.9748 50.7413 25.8921 44.9108 17.4462 44.9108C9.00037 44.9108 1.91762 50.7415 0 58.5967C4.80628 54.8256 10.8635 52.5766 17.4462 52.5766Z" fill="#808080"/>
<path d="M24.5675 43.2273C22.0654 43.1162 20.0737 41.052 20.0737 38.5236C20.0737 35.9246 22.1804 33.8158 24.7815 33.8158C25.0157 33.8158 25.2457 33.832 25.4717 33.8663L24.5675 43.2273Z" fill="#E0B394"/>
<path d="M67.1093 43.2273C69.6114 43.1162 71.605 41.052 71.605 38.5236C71.605 35.9246 69.4964 33.8158 66.8953 33.8158C66.6611 33.8158 66.4291 33.8339 66.2051 33.8663L67.1093 43.2273Z" fill="#E0B394"/>
<path d="M67.8338 72.7641V91.0825H23.8438V72.7641C23.8438 66.6822 28.1943 61.6173 33.9533 60.5094C34.72 60.3601 35.5132 60.2833 36.3243 60.2833H55.355C56.1661 60.2833 56.9592 60.3601 57.726 60.5094C63.4851 61.6173 67.8338 66.6822 67.8338 72.7641Z" fill="#5D9EBA"/>
<path d="M44.0134 60.2847H36.3241C29.4318 60.2847 23.8442 65.8721 23.8442 72.7645V91.0831H31.5336V72.7641C31.5336 65.8719 37.1212 60.2847 44.0134 60.2847Z" fill="#508DA3"/>
<path d="M47.3535 68.9221H44.3267V91.0826H47.3535V68.9221Z" fill="#508DA3"/>
<path d="M57.7263 60.5096L54.8206 76.5922L45.8389 70.2136L36.8593 76.5922L33.9536 60.5096C34.7203 60.3603 35.5135 60.2836 36.3246 60.2836H55.3553C56.1664 60.2836 56.9594 60.3603 57.7263 60.5096Z" fill="#508DA3"/>
<path d="M54.62 49.1929V60.4034C54.62 65.2526 50.6881 69.1844 45.8391 69.1844C40.9882 69.1844 37.0581 65.2524 37.0581 60.4034V49.1929H54.62Z" fill="#E0B394"/>
<path d="M39.0286 63.5767L30.7454 57.5586C26.3682 54.3785 24.0003 49.1194 24.5207 43.7338L25.9575 28.8664C26.947 18.6266 35.5519 10.8132 45.8393 10.8132C56.1268 10.8132 64.7317 18.6268 65.7212 28.8664L67.158 43.7338C67.6784 49.1194 65.3106 54.3781 60.9333 57.5586L52.65 63.5767C48.5886 66.5271 43.0896 66.5271 39.0286 63.5767Z" fill="#F7CBA4"/>
<path d="M53.7386 50.5644C53.7386 50.5644 53.6236 50.8469 53.3813 51.2928C53.3228 51.4078 53.2543 51.529 53.1776 51.6601C53.0868 51.7893 52.9819 51.9205 52.8689 52.0677C52.7558 52.215 52.6266 52.3643 52.4895 52.5298C52.441 52.5923 52.3887 52.6448 52.3321 52.6993C52.312 52.7194 52.2897 52.7397 52.2676 52.7598C52.1889 52.8324 52.1082 52.9091 52.0254 52.9859C51.8599 53.1413 51.6804 53.2946 51.4926 53.4561C51.2948 53.6015 51.083 53.7386 50.865 53.8879C50.7561 53.9626 50.6431 54.0352 50.5281 54.1078C50.4131 54.1765 50.29 54.2329 50.1649 54.2954C49.9188 54.4205 49.6625 54.5416 49.3982 54.6627C48.8534 54.8483 48.2863 55.0663 47.6809 55.157C47.0836 55.2963 46.4601 55.3184 45.8386 55.3488C45.2171 55.3186 44.5935 55.2983 43.9963 55.159C43.3909 55.0683 42.8238 54.8503 42.279 54.6647C42.0147 54.5455 41.7584 54.4246 41.5101 54.2994C41.387 54.2368 41.2639 54.1802 41.147 54.1118C41.0339 54.0372 40.9209 53.9664 40.812 53.8918C40.5941 53.7425 40.3802 53.6033 40.1824 53.4601C39.9948 53.2987 39.8171 53.1433 39.6496 52.9898C39.567 52.9111 39.4883 52.8365 39.4096 52.7618C39.3813 52.7356 39.3531 52.7093 39.3247 52.6831C39.2762 52.6346 39.2299 52.5882 39.1896 52.5338C39.0584 52.3744 38.9314 52.227 38.8204 52.0817C38.7115 51.9343 38.6044 51.8053 38.5156 51.6761C38.4349 51.5388 38.3602 51.4138 38.2976 51.2988C38.0454 50.8388 37.9404 50.5642 37.9404 50.5642C37.9404 50.5642 38.2391 50.655 38.6991 50.8406C38.816 50.885 38.9372 50.9394 39.0725 50.9938C39.2157 51.0362 39.363 51.0907 39.5204 51.1432C39.6798 51.1956 39.8392 51.2601 40.0088 51.3207C40.1763 51.3852 40.366 51.4276 40.5536 51.4842C40.7412 51.5387 40.929 51.6053 41.1247 51.6637C41.3284 51.7081 41.5322 51.7606 41.7421 51.8111C41.847 51.8353 41.95 51.8655 42.0549 51.8937C42.1618 51.918 42.2729 51.932 42.3818 51.9543C42.6017 51.9925 42.8216 52.0369 43.0416 52.0874C43.4996 52.1298 43.9517 52.2306 44.4239 52.2488C44.89 52.3093 45.3662 52.2932 45.8384 52.3214C46.3126 52.2932 46.7888 52.3113 47.2549 52.2508C47.7271 52.2346 48.179 52.1316 48.6372 52.0894C48.8572 52.0409 49.0771 51.9965 49.297 51.9582C49.4059 51.9359 49.517 51.9219 49.6239 51.8977C49.7288 51.8675 49.8338 51.8391 49.9367 51.815C50.1466 51.7645 50.3504 51.7101 50.5541 51.6677C50.752 51.6091 50.9396 51.5426 51.1272 51.4882C51.3128 51.4317 51.5065 51.3874 51.668 51.3246C51.8335 51.2682 51.9889 51.2055 52.1462 51.1572C52.3016 51.1047 52.4468 51.0522 52.5902 51.0098C52.7314 50.9493 52.8565 50.8907 52.9756 50.8443C53.446 50.649 53.7386 50.5644 53.7386 50.5644Z" fill="#F2F2F2"/>
<path d="M52.3321 52.6993C52.312 52.7194 52.2897 52.7397 52.2676 52.7598C52.1889 52.8324 52.1082 52.9092 52.0254 52.9859C51.8599 53.1413 51.6804 53.2946 51.4926 53.4561C51.2948 53.6015 51.0829 53.7386 50.865 53.8879C50.7561 53.9627 50.6431 54.0353 50.5281 54.1079C50.4131 54.1765 50.29 54.2329 50.1649 54.2954C49.9187 54.4205 49.6625 54.5416 49.3982 54.6627C48.8534 54.8483 48.2863 55.0663 47.6809 55.157C47.0836 55.2963 46.4601 55.3184 45.8386 55.3488C45.217 55.3186 44.5935 55.2983 43.9962 55.159C43.3909 55.0683 42.8238 54.8503 42.279 54.6647C42.0146 54.5456 41.7584 54.4246 41.5101 54.2994C41.387 54.2369 41.2639 54.1803 41.1469 54.1118C41.0339 54.0372 40.9209 53.9664 40.812 53.8919C40.594 53.7425 40.3802 53.6033 40.1824 53.4601C39.9948 53.2987 39.8171 53.1433 39.6496 52.9898C39.5669 52.9111 39.4882 52.8366 39.4095 52.7618C39.3813 52.7356 39.3531 52.7093 39.3247 52.6831C39.3892 52.7054 39.4539 52.7275 39.5204 52.7498C39.6798 52.8022 39.8392 52.8648 40.0088 52.9253C40.1762 52.992 40.366 53.0342 40.5536 53.0908C40.7412 53.1453 40.929 53.21 41.1246 53.2703C41.3284 53.3127 41.5322 53.3672 41.742 53.4177C41.847 53.4419 41.9499 53.4701 42.0549 53.4984C42.1618 53.5226 42.2728 53.5366 42.3817 53.5589C42.6017 53.5972 42.8216 53.6437 43.0415 53.6921C43.4996 53.7364 43.9517 53.8374 44.4239 53.8534C44.89 53.9159 45.3662 53.8978 45.8384 53.9282C46.3126 53.9 46.7888 53.9181 47.2549 53.8556C47.7271 53.8394 48.179 53.7386 48.6372 53.6962C48.8571 53.6477 49.0771 53.6013 49.297 53.563C49.4059 53.5408 49.517 53.5267 49.6239 53.5025C49.7288 53.4743 49.8337 53.4461 49.9367 53.4218C50.1466 53.3713 50.3503 53.3169 50.5541 53.2745C50.7519 53.2139 50.9395 53.1474 51.1271 53.0949C51.3127 53.0385 51.5065 52.992 51.668 52.9314C51.8335 52.8729 51.9889 52.8123 52.1461 52.762C52.209 52.7417 52.2716 52.7194 52.3321 52.6993Z" fill="#4D4D4D"/>
<path d="M36.8561 43.8047C36.0204 43.8047 35.3428 43.1271 35.3428 42.2912V39.8706C35.3428 39.0349 36.0204 38.3573 36.8561 38.3573C37.6918 38.3573 38.3696 39.0349 38.3696 39.8706V42.2912C38.3696 43.1271 37.692 43.8047 36.8561 43.8047Z" fill="#4D4D4D"/>
<path d="M54.8219 43.8047C53.9862 43.8047 53.3086 43.1271 53.3086 42.2912V39.8706C53.3086 39.0349 53.9862 38.3573 54.8219 38.3573C55.6576 38.3573 56.3353 39.0349 56.3353 39.8706V42.2912C56.3354 43.1271 55.658 43.8047 54.8219 43.8047Z" fill="#4D4D4D"/>
<path d="M48.159 37.651V44.8144C48.159 46.0959 47.1201 47.1349 45.8386 47.1349C44.557 47.1349 43.5181 46.0959 43.5181 44.8144V37.651" fill="#E0B394"/>
<path d="M29.6753 46.6638C29.5361 49.0186 30.303 51.3351 31.8203 53.1412L40.4776 63.7794C40.9297 64.3181 41.4422 64.7702 41.9971 65.1313C40.9558 64.7682 39.9549 64.2475 39.0288 63.5756L30.7454 57.5582C26.3685 54.3781 24.0015 49.1194 24.5223 43.7336L25.9571 28.8657C26.9378 18.7258 35.3847 10.9651 45.5407 10.8177C39.2852 10.969 32.2017 16.8653 31.8325 23.145L29.6753 46.6638Z" fill="#E8BA97"/>
<path d="M66.4504 23.5154H65.7153C65.7153 18.0266 63.4917 13.0586 59.8936 9.46075C57.226 6.79311 53.8037 4.88015 49.9758 4.07102H49.9753V2.26624C49.9753 1.52018 49.3704 0.915527 48.6245 0.915527H43.053C42.3069 0.915527 41.7023 1.52036 41.7023 2.26624V4.0712C32.7107 5.97427 25.9633 13.9569 25.9633 23.5154H25.1214C24.5793 23.5154 24.1123 23.8979 24.0056 24.4296L23.2482 28.2074C23.1069 28.9116 23.6457 29.569 24.364 29.569H33.7313L35.4716 34.6138H56.2057L57.946 29.569H67.1563C67.9557 29.569 68.5553 28.8373 68.3981 28.0535L67.6924 24.5331C67.5738 23.9414 67.054 23.5154 66.4504 23.5154Z" fill="#EA8249"/>
<path d="M33.7314 29.5692L35.4715 34.6139H37.3906L36.9249 29.5692H33.7314Z" fill="#D36F3D"/>
<path d="M32.4536 23.5155C32.4536 13.957 36.9977 5.97438 43.053 4.07131V0.915283C42.3069 0.915283 41.7023 1.52011 41.7023 2.26599V4.07096C32.7107 5.97403 25.9633 13.9566 25.9633 23.5151H25.1214C24.5793 23.5151 24.1123 23.8977 24.0056 24.4294L23.2482 28.2071C23.1069 28.9113 23.6457 29.5688 24.364 29.5688H35.2479L36.0651 23.5151H32.4536V23.5155Z" fill="#D36F3D"/>
<path d="M45.8382 22.6459C49.4814 22.6459 52.4347 19.6925 52.4347 16.0494C52.4347 12.4062 49.4814 9.45288 45.8382 9.45288C42.1951 9.45288 39.2417 12.4062 39.2417 16.0494C39.2417 19.6925 42.1951 22.6459 45.8382 22.6459Z" fill="#D36F3D"/>
<path d="M45.8386 20.1531C48.105 20.1531 49.9423 18.3158 49.9423 16.0494C49.9423 13.783 48.105 11.9457 45.8386 11.9457C43.5722 11.9457 41.7349 13.783 41.7349 16.0494C41.7349 18.3158 43.5722 20.1531 45.8386 20.1531Z" fill="#F9C573"/>
<path d="M64.3605 80.2183H54.8784V83.2451H64.3605V80.2183Z" fill="#508DA3"/>
<path d="M50.7076 88.0247C51.4506 88.0247 52.0529 87.4224 52.0529 86.6794C52.0529 85.9364 51.4506 85.3341 50.7076 85.3341C49.9646 85.3341 49.3623 85.9364 49.3623 86.6794C49.3623 87.4224 49.9646 88.0247 50.7076 88.0247Z" fill="#666666"/>
<path d="M50.7076 80.6272C51.4506 80.6272 52.0529 80.0248 52.0529 79.2818C52.0529 78.5388 51.4506 77.9365 50.7076 77.9365C49.9646 77.9365 49.3623 78.5388 49.3623 79.2818C49.3623 80.0248 49.9646 80.6272 50.7076 80.6272Z" fill="#666666"/>
</g>
<defs>
<clipPath id="clip0">
<rect width="92" height="92" fill="white"/>
</clipPath>
</defs>
</svg>
