<svg width="90" height="90" viewBox="0 0 90 90" fill="none" xmlns="http://www.w3.org/2000/svg">
<path d="M82.7521 58.4011C82.3529 58.8924 81.6382 58.9691 81.1432 58.5745C77.6476 55.7878 72.326 54.0083 66.3655 54.0083C60.4026 54.0083 55.0791 55.7892 51.5836 58.5779C51.097 58.9662 50.3878 58.9058 49.9923 58.425C36.6346 42.1975 44.0342 17.9869 53.0038 15.1306C55.6739 8.91258 79.484 4.48542 87.1474 25.7629C90.4588 34.9569 91.0042 48.2438 82.7521 58.4011Z" fill="#AA6A51"/>
<path d="M87.147 25.763C82.4837 12.8149 71.8412 9.38589 63.6216 10.0863C71.0072 10.7123 79.1657 14.8669 83.09 25.763C86.2942 34.659 86.9079 47.3867 79.469 57.4038C80.0643 57.7705 80.6241 58.1613 81.1427 58.5747C81.6375 58.9694 82.3524 58.8926 82.7516 58.4013C91.0038 48.2439 90.4586 34.957 87.147 25.763V25.763Z" fill="#87523E"/>
<path d="M83.0058 65.8624C81.2454 64.0112 78.11 62.7042 74.4089 61.9407C73.4447 61.7418 72.7119 60.9556 72.601 59.9772L71.6495 51.5917H60.4571L59.5056 59.9772C59.3947 60.9555 58.662 61.7416 57.6977 61.9407C53.9966 62.7042 50.8614 64.0112 49.101 65.8623C45.2204 69.9429 49.8996 88.946 49.8996 88.946H82.2072C82.207 88.946 86.8865 69.9431 83.0058 65.8624V65.8624Z" fill="#F7CBA4"/>
<path d="M70.9063 89.5675H49.8996C49.8996 89.5675 45.2204 69.9429 49.101 65.8622C50.7483 64.1292 53.5976 62.8763 56.9874 62.0948C58.4345 67.5622 63.6763 72.4769 66.0527 73.4585C68.4307 72.4769 73.6724 67.5622 75.1196 62.0948C78.5093 62.8763 81.3588 64.1294 83.0061 65.8624C86.8865 69.9431 70.9063 89.5675 70.9063 89.5675V89.5675Z" fill="#C365AF"/>
<path d="M83.0063 65.8624C81.3591 64.1294 78.5097 62.8763 75.1198 62.0948C75.0185 62.4775 74.897 62.8569 74.7607 63.2329C76.5017 63.9336 77.9477 64.8094 78.9486 65.8619C82.8292 69.9426 78.1503 88.946 78.1503 88.946H82.2074C82.2075 88.946 86.8869 69.9431 83.0063 65.8624V65.8624Z" fill="#9A4588"/>
<path d="M74.0507 64.8888C71.93 69.1586 68.0162 72.6484 66.0528 73.4585C64.091 72.6484 60.1786 69.1586 58.0581 64.8903C60.3836 65.64 63.1221 66.0721 66.0528 66.0721C68.9851 66.0723 71.7237 65.6402 74.0507 64.8888Z" fill="#E8EDF2"/>
<path d="M59.7207 58.0862C62.41 59.1694 65.2603 59.8248 67.2179 59.8248C68.6358 59.8248 70.5225 59.4808 72.4769 58.8795L71.6498 51.5915H60.4575L59.7207 58.0862Z" fill="#E8BA97"/>
<path d="M84.2321 37.3203H77.436V43.9472H84.2321C86.0621 43.9472 87.5456 42.4637 87.5456 40.6337C87.5456 38.8037 86.0621 37.3203 84.2321 37.3203V37.3203Z" fill="#E8BA97"/>
<path d="M47.8745 37.3203H54.6706V43.9472H47.8745C46.0445 43.9472 44.561 42.4637 44.561 40.6337C44.561 38.8037 46.0445 37.3203 47.8745 37.3203V37.3203Z" fill="#E8BA97"/>
<path d="M80.6892 49.2935C78.9054 53.19 70.3388 56.3303 66.0532 56.3303C61.7675 56.3303 53.2027 53.19 51.4171 49.2935C49.808 45.7798 50.2592 38.087 51.1233 31.2233C54.3717 31.2599 57.412 29.2124 58.4873 25.9625C58.5287 25.8354 58.5683 25.7083 58.6032 25.5812C61.9453 29.781 69.5318 33.5631 81.3307 34.2588C81.936 40.2394 82.0647 46.2913 80.6892 49.2935V49.2935Z" fill="#F7CBA4"/>
<path d="M81.3303 34.2588C80.0313 34.1822 78.7863 34.0661 77.5895 33.9182C77.9982 39.6399 78.0661 46.601 76.9832 49.2935C75.5323 52.9032 68.973 55.8621 65.0239 56.2782C65.3875 56.3124 65.7323 56.3303 66.0528 56.3303C70.3384 56.3303 78.905 53.1899 80.6888 49.2935C82.0642 46.2912 81.9355 40.2394 81.3303 34.2588Z" fill="#E8BA97"/>
<path d="M58.3935 38.6766C57.7355 38.6766 57.2021 38.1434 57.2021 37.4853V37.0759C57.2021 36.4179 57.7354 35.8845 58.3935 35.8845C59.0517 35.8845 59.5849 36.4177 59.5849 37.0759V37.4853C59.5848 38.1433 59.0515 38.6766 58.3935 38.6766Z" fill="#596C76"/>
<path d="M73.7134 38.6766C73.0554 38.6766 72.522 38.1434 72.522 37.4853V37.0759C72.522 36.4179 73.0552 35.8845 73.7134 35.8845C74.3714 35.8845 74.9048 36.4177 74.9048 37.0759V37.4853C74.9048 38.1433 74.3714 38.6766 73.7134 38.6766Z" fill="#596C76"/>
<path d="M66.0535 47.7371C63.8735 47.7371 61.911 46.528 60.932 44.5815C60.6363 43.9938 60.8733 43.2777 61.461 42.982C62.0488 42.6862 62.7649 42.9232 63.0606 43.511C63.6325 44.6482 64.7793 45.3547 66.0535 45.3547C67.3277 45.3547 68.4745 44.6482 69.0464 43.5112C69.3421 42.9232 70.0582 42.6865 70.6458 42.982C71.2338 43.2775 71.4705 43.9938 71.175 44.5814C70.1962 46.528 68.2338 47.7371 66.0535 47.7371V47.7371Z" fill="#596C76"/>
<path d="M4.94238 11.7958H47.3549V34.3779H4.94238V11.7958Z" fill="#596C76"/>
<path d="M44.1434 62.6893C42.1679 60.6119 38.6497 59.1456 34.4963 58.2888C33.4143 58.0655 32.5923 57.1834 32.4677 56.0856L31.3995 46.6751H18.8392L17.7711 56.0856C17.6466 57.1834 16.8245 58.0657 15.7425 58.2888C11.589 59.1456 8.07092 60.6119 6.09541 62.6893C1.74056 67.2688 6.99121 88.5948 6.99121 88.5948H43.2476C43.2476 88.5948 48.4983 67.2688 44.1434 62.6893V62.6893Z" fill="#F7CBA4"/>
<path d="M44.1434 62.6894C42.1679 60.612 38.6497 59.1457 34.4963 58.2889C34.2931 58.2471 34.0992 58.1819 33.9174 58.0966C31.4567 61.1497 27.6285 63.1675 25.1195 63.1675C22.6105 63.1675 18.7823 61.1495 16.3216 58.0966C16.1397 58.1819 15.9458 58.2471 15.7425 58.2889C11.589 59.1457 8.07092 60.612 6.09541 62.6894C1.74056 67.2689 6.99121 90 6.99121 90H30.207C30.2068 90 48.4983 67.2689 44.1434 62.6894Z" fill="#01C0FA"/>
<path d="M44.1436 62.6894C42.1681 60.6118 38.6498 59.1457 34.4965 58.2889C34.2932 58.2471 34.0993 58.1819 33.9175 58.0966C33.6414 58.4391 33.3472 58.7679 33.0405 59.083C35.8226 59.9516 38.1294 61.1528 39.5906 62.6896C43.9455 67.2691 38.6948 88.5951 38.6948 88.5951H43.248C43.2478 88.5949 48.4986 67.2689 44.1436 62.6894Z" fill="#0290CF"/>
<path d="M27.3185 56.2224C28.7077 56.2224 30.4981 55.9276 32.3899 55.4038L31.3994 46.675H18.8391L18.0195 53.8978C21.2833 55.3346 24.9057 56.2224 27.3185 56.2224V56.2224Z" fill="#E8BA97"/>
<path d="M2.88379 34.3779V13.0352C2.88379 10.0191 5.32881 7.57412 8.34486 7.57412H9.88442C10.5635 7.57412 11.1138 7.02364 11.1138 6.34476V5.37027C11.1138 2.40427 13.5181 0 16.484 0H49.9267C50.9355 0 51.7531 0.817642 51.7531 1.82639V3.62239C51.7531 12.5251 44.5361 19.7421 35.6332 19.7421L29.6726 19.7423V34.3779H2.88379Z" fill="#596C76"/>
<path d="M49.9268 0H45.5289C46.5376 0 47.3553 0.817642 47.3553 1.82639V3.62239C47.3553 12.5253 40.1381 19.7423 31.2354 19.7423L35.6332 19.7422C44.5361 19.7422 51.7532 12.5251 51.7532 3.62239V1.82639C51.7532 0.817642 50.9355 0 49.9268 0V0Z" fill="#465A61"/>
<path d="M45.5202 30.6594H37.8936V38.0963H45.5202C47.5739 38.0963 49.2387 36.4315 49.2387 34.3778C49.2385 32.3242 47.5739 30.6594 45.5202 30.6594Z" fill="#F7CBA4"/>
<path d="M4.71847 30.6594H12.3451V38.0963H4.71847C2.66479 38.0963 1 36.4315 1 34.3778C1.00018 32.3242 2.66497 30.6594 4.71847 30.6594Z" fill="#F7CBA4"/>
<path d="M41.5447 44.0938C39.5425 48.4669 29.9284 51.9925 25.1195 51.9925C20.3106 51.9925 10.6965 48.4668 8.69432 44.0936C7.14844 40.7207 7.29563 33.9113 7.97908 27.1915C12.1474 27.1915 15.5427 23.8781 15.673 19.7416L35.6331 19.742C37.5758 19.742 39.4401 19.397 41.1648 18.7675C42.4946 27.3463 43.7613 39.2531 41.5447 44.0938Z" fill="#F7CBA4"/>
<path d="M25.1194 42.3495C22.6727 42.3495 20.4704 40.9926 19.3719 38.8079C19.0401 38.1483 19.3058 37.3445 19.9657 37.0129C20.6248 36.6809 21.4289 36.9467 21.7607 37.6068C22.4025 38.8829 23.6895 39.6756 25.1194 39.6756C26.5494 39.6756 27.8364 38.8829 28.4782 37.6066C28.81 36.947 29.6137 36.6811 30.2733 37.0129C30.9329 37.3447 31.1988 38.1485 30.867 38.808C29.7683 40.9926 27.566 42.3495 25.1194 42.3495Z" fill="#596C76"/>
<path d="M41.1645 18.7676C39.7745 19.2749 38.2928 19.5934 36.7538 19.6993C38.0276 28.188 39.1289 39.4258 36.9916 44.0937C35.2706 47.8525 27.9259 50.9852 22.8428 51.7913C23.6734 51.923 24.4436 51.9926 25.1192 51.9926C29.9281 51.9926 39.5422 48.4668 41.5444 44.0938C43.7609 39.2531 42.4943 27.3463 41.1645 18.7676V18.7676Z" fill="#E8BA97"/>
<path d="M16.5234 32.1815C15.785 32.1815 15.1865 31.5831 15.1865 30.8447V30.3854C15.1865 29.6469 15.785 29.0483 16.5234 29.0483C17.2618 29.0483 17.8602 29.6468 17.8602 30.3854V30.8447C17.8602 31.5831 17.2618 32.1815 16.5234 32.1815Z" fill="#596C76"/>
<path d="M33.7153 32.1815C32.9769 32.1815 32.3784 31.5831 32.3784 30.8447V30.3854C32.3784 29.6469 32.9769 29.0483 33.7153 29.0483C34.4537 29.0483 35.0523 29.6468 35.0523 30.3854V30.8447C35.0521 31.5831 34.4537 32.1815 33.7153 32.1815Z" fill="#596C76"/>
<path d="M37.1222 57.8808V64.8292C37.1222 66.0539 35.7782 66.8025 34.7371 66.1571L28.5088 62.2997C30.4144 61.4315 32.4196 59.9555 33.917 58.0963C33.1308 57.7273 32.5673 56.9787 32.4675 56.0855L32.32 54.7825H34.0241C35.7355 54.7825 37.1222 56.1695 37.1222 57.8808V57.8808Z" fill="#E8EDF2"/>
<path d="M21.7296 62.2999L15.5013 66.1573C14.4603 66.8027 13.1162 66.0539 13.1162 64.8294V57.881C13.1162 56.1696 14.5031 54.7827 16.2143 54.7827H17.9184L17.7709 56.0857C17.6711 56.9769 17.1092 57.7257 16.3213 58.0965C17.8187 59.9557 19.824 61.4317 21.7296 62.2999V62.2999Z" fill="#E8EDF2"/>
<path d="M60.4284 63.7104H30.1133C28.6568 63.7104 27.4717 64.8953 27.4717 66.352V87.2905C27.4717 88.7469 28.6566 89.932 30.1133 89.932H60.4285C61.8852 89.932 63.0703 88.7471 63.0703 87.2905V66.3518C63.0701 64.8953 61.8852 63.7104 60.4284 63.7104Z" fill="#FE9738"/>
<path d="M32.5512 73.8105C31.8128 73.8105 31.2144 73.2121 31.2144 72.4735V70.6527C31.2144 69.9143 31.8128 69.3157 32.5512 69.3157C33.2896 69.3157 33.8881 69.9141 33.8881 70.6527V72.4735C33.8881 73.2121 33.2896 73.8105 32.5512 73.8105Z" fill="#596C76"/>
<path d="M32.5512 84.3262C31.8128 84.3262 31.2144 83.7278 31.2144 82.9894V81.1686C31.2144 80.4302 31.8128 79.8317 32.5512 79.8317C33.2896 79.8317 33.8881 80.4302 33.8881 81.1686V82.9894C33.8881 83.7278 33.2896 84.3262 32.5512 84.3262Z" fill="#596C76"/>
<path d="M32.6289 78.158H32.4736C31.7352 78.158 31.1367 77.5595 31.1367 76.8211C31.1367 76.0827 31.7352 75.4841 32.4736 75.4841H32.6289C33.3673 75.4841 33.9659 76.0825 33.9659 76.8211C33.9659 77.5597 33.3673 78.158 32.6289 78.158Z" fill="#596C76"/>
<path d="M61.7329 87.2903V66.3518C61.7329 65.6313 61.1489 65.0472 60.4284 65.0472H37.598C36.8775 65.0472 36.2935 65.6314 36.2935 66.3518V87.2903C36.2935 88.0108 36.8775 88.5948 37.598 88.5948H60.4284C61.1489 88.5948 61.7329 88.0108 61.7329 87.2903Z" fill="#596C76"/>
<path d="M60.4282 65.0472H56.1499C56.8704 65.0472 57.4544 65.6314 57.4544 66.3518V87.2903C57.4544 88.0108 56.8704 88.595 56.1499 88.595H60.4282C61.1487 88.595 61.7327 88.0109 61.7327 87.2903V66.3518C61.7329 65.6314 61.1489 65.0472 60.4282 65.0472Z" fill="#465A61"/>
</svg>
