<svg width="93" height="91" viewBox="0 0 93 91" fill="none" xmlns="http://www.w3.org/2000/svg">
<g clip-path="url(#clip0)">
<path d="M80.6206 83.986C79.8882 83.986 79.2943 83.4048 79.2943 82.6882V75.1196L73.7141 69.6594C73.1962 69.1527 73.1962 68.3309 73.7141 67.8241C74.2319 67.3174 75.072 67.3174 75.5897 67.8241L81.5584 73.6645C81.8071 73.9078 81.9468 74.2378 81.9468 74.5823V82.6885C81.9469 83.4048 81.3531 83.986 80.6206 83.986Z" fill="#808080"/>
<path d="M88.7998 83.986C88.0674 83.986 87.4735 83.4048 87.4735 82.6882V75.1196L81.8933 69.6594C81.3754 69.1527 81.3754 68.3309 81.8933 67.8241C82.4111 67.3174 83.2512 67.3174 83.7689 67.8241L89.7376 73.6645C89.9863 73.9078 90.1259 74.2378 90.1259 74.5823V82.6885C90.1261 83.4048 89.5323 83.986 88.7998 83.986Z" fill="#808080"/>
<path d="M28.9324 49.7007H0V81.714H28.9324V49.7007Z" fill="#FCE8CA"/>
<path d="M24.6456 54.6758H4.28809V56.8388H24.6456V54.6758Z" fill="#808080"/>
<path d="M24.6456 59.4886H4.28809V61.6517H24.6456V59.4886Z" fill="#808080"/>
<path d="M24.6456 64.3013H4.28809V66.4643H24.6456V64.3013Z" fill="#808080"/>
<path d="M24.6456 69.1141H4.28809V71.2772H24.6456V69.1141Z" fill="#808080"/>
<path d="M24.6456 73.927H4.28809V76.09H24.6456V73.927Z" fill="#808080"/>
<path d="M23.1637 38.9903C20.4226 38.8714 18.2407 36.6586 18.2407 33.9481C18.2407 31.1622 20.5486 28.9017 23.398 28.9017C23.6545 28.9017 23.9064 28.919 24.154 28.9558L23.1637 38.9903Z" fill="#E0B394"/>
<path d="M69.7681 38.9903C72.5093 38.8714 74.6933 36.6586 74.6933 33.9481C74.6933 31.1622 72.3832 28.9017 69.5338 28.9017C69.2773 28.9017 69.0232 28.9213 68.7778 28.9558L69.7681 38.9903Z" fill="#E0B394"/>
<path d="M56.8912 57.2745H36.0433C28.4927 57.2745 22.3716 63.2638 22.3716 70.6522V90.2888H70.5628V70.6522C70.5628 63.2638 64.4418 57.2745 56.8912 57.2745Z" fill="#2F83B2"/>
<path d="M58.1176 54.4346L57.2982 78.3064L52.6199 77.8901L54.5338 83.6069L46.453 90.1561H46.4132L38.3326 83.6069L40.2464 77.9395L35.568 78.3309L34.749 54.4468L58.1176 54.4346Z" fill="#27789B"/>
<path d="M44.467 57.2745H36.0433C28.4927 57.2745 22.3716 63.2638 22.3716 70.6522V90.2888H30.7953V70.6522C30.7953 63.2638 36.9164 57.2745 44.467 57.2745Z" fill="#27789B"/>
<path d="M34.4175 54.5685L46.468 83.3372L58.5146 54.5685H34.4175Z" fill="white"/>
<path d="M46.4655 54.2133L49.8387 62.2685L46.4677 70.3193L43.0942 62.2641L46.4655 54.2133Z" fill="#F9C573"/>
<path d="M63.0029 54.3531L53.9283 60.8034C49.4783 63.9658 43.4544 63.9658 39.0068 60.8034L29.9322 54.3531C25.1353 50.9441 22.5422 45.3071 23.1125 39.5339L24.6864 23.5965C24.7329 23.1184 24.797 22.6469 24.8742 22.1798C26.594 11.9052 35.6886 4.24377 46.4675 4.24377C52.1023 4.24377 57.2751 6.33766 61.1769 9.80276C63.4118 11.7884 65.2289 14.2262 66.4757 16.9777C67.4042 19.0282 68.0142 21.2542 68.2463 23.5967L69.8202 39.5341C70.3908 45.3071 67.7977 50.9441 63.0029 54.3531Z" fill="#F7CBA4"/>
<path d="M28.7597 42.6742C28.6071 45.1985 29.4472 47.6817 31.1095 49.6175L40.5937 61.0211C41.0889 61.5986 41.6503 62.0833 42.2583 62.4704C41.1176 62.081 40.0212 61.5229 39.0065 60.8027L29.932 54.3524C25.1372 50.9434 22.5441 45.3064 23.1145 39.5333L24.6862 23.5959C25.7606 12.7265 35.0141 4.40734 46.1401 4.24951C39.2872 4.41178 31.5273 10.7322 31.1228 17.4637L28.7597 42.6742Z" fill="#E8BA97"/>
<path d="M66.4764 16.9775C65.2916 22.5235 61.0583 26.6657 61.0583 26.6657C61.0583 26.6657 60.6162 13.2548 44.6998 15.2015C42.299 15.4936 39.9669 15.0544 37.7319 14.0983C37.7319 14.0983 36.3812 15.9651 33.8809 17.9399C31.7058 19.6552 28.6617 21.4549 24.875 22.1796C26.5948 11.9049 35.6893 4.24353 46.4682 4.24353C52.103 4.24353 57.2758 6.33741 61.1776 9.80252C63.4125 11.7885 65.2296 14.226 66.4764 16.9775Z" fill="#E8BA97"/>
<path d="M64.3735 27.7474C64.3735 27.7474 63.9314 14.3364 48.015 16.2832C45.6143 16.5752 43.2822 16.136 41.0471 15.18C41.0471 15.18 39.6964 17.0467 37.1961 19.0215C34.3865 21.2386 30.1222 23.5964 24.6864 23.5964C24.6864 23.5964 19.0559 8.71239 28.7826 3.95356C33.836 1.48111 37.7002 1.69741 40.2468 2.47837C42.601 3.19873 43.828 4.39914 43.828 4.39914C43.828 4.39914 55.0888 -4.69871 65.6997 5.68398C76.3106 16.0667 64.3735 27.7474 64.3735 27.7474Z" fill="#666666"/>
<path d="M37.1961 19.0216C34.3865 21.2387 30.1221 23.5965 24.6864 23.5965C24.6864 23.5965 19.0559 8.7125 28.7826 3.95367C33.836 1.48121 37.7002 1.69752 40.2468 2.47848C40.2468 2.47848 31.0749 8.4507 37.1961 19.0216Z" fill="#4D4D4D"/>
<path d="M50.8874 51.8646H42.045C41.3735 51.8646 40.8291 51.3321 40.8291 50.6749C40.8291 50.0178 41.3733 49.4851 42.045 49.4851H50.8874C51.5589 49.4851 52.1033 50.0176 52.1033 50.6749C52.1033 51.3321 51.5591 51.8646 50.8874 51.8646Z" fill="#C49270"/>
<path d="M49.5025 55.0178H43.4313C42.9701 55.0178 42.5967 54.652 42.5967 54.2011C42.5967 53.7502 42.9705 53.3844 43.4313 53.3844H49.5025C49.9637 53.3844 50.3371 53.7502 50.3371 54.2011C50.3371 54.652 49.9637 55.0178 49.5025 55.0178Z" fill="#E0B394"/>
<path d="M46.4655 67.2319L49.8387 75.287L46.4677 83.338L43.0942 75.2828L46.4655 67.2319Z" fill="#F9C573"/>
<path d="M93.0003 82.0385H62.2729V90.2883H93.0003V82.0385Z" fill="#AF7C38"/>
<path d="M36.6263 40.5827C35.7106 40.5827 34.9683 39.8563 34.9683 38.9604V36.3656C34.9683 35.4697 35.7106 34.7433 36.6263 34.7433C37.5419 34.7433 38.2843 35.4697 38.2843 36.3656V38.9604C38.2843 39.8563 37.5419 40.5827 36.6263 40.5827Z" fill="#4D4D4D"/>
<path d="M52.5171 30.0927C52.5171 30.0927 52.5214 30.0497 52.5363 29.9757C52.5534 29.9041 52.5707 29.7911 52.6077 29.6629C52.6243 29.5968 52.6457 29.5277 52.6702 29.4518C52.7022 29.3748 52.7454 29.2973 52.7912 29.2095C52.8364 29.1212 52.8938 29.0341 52.9539 28.9362C53.0144 28.8366 53.0867 28.7611 53.1608 28.6651C53.236 28.5727 53.3207 28.4835 53.4091 28.3873C53.5027 28.3006 53.604 28.2151 53.7119 28.1293C53.923 27.9473 54.1811 27.8159 54.4497 27.6696C54.7278 27.5546 55.023 27.4297 55.339 27.3719C55.652 27.2923 55.9804 27.2735 56.3077 27.2585C56.6351 27.2733 56.9636 27.2904 57.2768 27.3694C57.5932 27.4265 57.8884 27.552 58.1668 27.6663C58.4358 27.8122 58.6941 27.9435 58.9054 28.1257C59.0131 28.2117 59.1146 28.2974 59.2085 28.3838C59.297 28.4801 59.3813 28.5702 59.4568 28.6619C59.5299 28.7576 59.6056 28.8361 59.6612 28.9317C59.7169 29.0268 59.7709 29.1121 59.8147 29.1985C59.8583 29.2851 59.9004 29.3611 59.9322 29.4379C59.9611 29.5179 59.9869 29.5904 60.0057 29.659C60.0477 29.7916 60.0651 29.9055 60.0813 29.977C60.0955 30.0507 60.0986 30.0927 60.0986 30.0927C60.0986 30.0927 60.0528 30.0916 59.9754 30.0843C59.9002 30.0747 59.7836 30.0701 59.6546 30.0516C59.5878 30.0449 59.5199 30.0328 59.4448 30.023C59.3651 30.0193 59.2863 30.0084 59.2007 30.002C59.0329 29.9848 58.8578 29.959 58.6652 29.9516C58.5706 29.9455 58.4789 29.932 58.383 29.9244C58.2838 29.9231 58.1857 29.9182 58.0885 29.911C57.898 29.8869 57.6909 29.9011 57.4986 29.8775C57.2962 29.8846 57.1026 29.8604 56.9021 29.8664C56.7048 29.8519 56.5055 29.8673 56.3076 29.8536C56.1097 29.8668 55.9103 29.8499 55.7127 29.8639C55.512 29.857 55.3183 29.8821 55.1156 29.8741C54.9231 29.8974 54.7155 29.883 54.5249 29.9073C54.4278 29.9144 54.3297 29.9196 54.2303 29.9206C54.1344 29.9285 54.043 29.9427 53.948 29.9484C53.7517 29.9587 53.5886 29.977 53.4247 29.9909C53.3388 29.9973 53.2584 30.0035 53.1837 30.0088C53.1043 30.0228 53.0319 30.0385 52.9628 30.0474C52.8291 30.0705 52.7122 30.076 52.6379 30.0852C52.5612 30.0927 52.5171 30.0927 52.5171 30.0927Z" fill="#666666"/>
<path d="M32.8354 30.0927C32.8354 30.0927 32.8398 30.0497 32.8547 29.9757C32.8718 29.9041 32.889 29.7911 32.9261 29.6629C32.9426 29.5968 32.9641 29.5277 32.9886 29.4518C33.0205 29.3748 33.0638 29.2973 33.1095 29.2095C33.1548 29.1212 33.2122 29.0341 33.2723 28.9362C33.3328 28.8366 33.4051 28.7611 33.4792 28.6651C33.5544 28.5727 33.639 28.4835 33.7275 28.3873C33.821 28.3006 33.9224 28.2151 34.0303 28.1293C34.2413 27.9473 34.4995 27.8159 34.7681 27.6696C35.0462 27.5546 35.3414 27.4297 35.6574 27.3719C35.9704 27.2923 36.2988 27.2735 36.6261 27.2585C36.9534 27.2733 37.282 27.2904 37.5952 27.3694C37.9116 27.4265 38.2067 27.552 38.4852 27.6663C38.7542 27.8122 39.0125 27.9435 39.2237 28.1257C39.3315 28.2117 39.4332 28.2974 39.5269 28.3838C39.6154 28.4801 39.6996 28.5702 39.7752 28.6619C39.8482 28.7576 39.924 28.8361 39.9795 28.9317C40.0353 29.0268 40.0893 29.1121 40.133 29.1985C40.1766 29.2851 40.2188 29.3611 40.2506 29.4379C40.2794 29.5179 40.3052 29.5904 40.3241 29.659C40.3661 29.7916 40.3835 29.9055 40.3997 29.977C40.4139 30.0507 40.4169 30.0927 40.4169 30.0927C40.4169 30.0927 40.3712 30.0916 40.2938 30.0843C40.2186 30.0747 40.102 30.0701 39.973 30.0516C39.9062 30.0449 39.8382 30.0328 39.7632 30.023C39.6835 30.0193 39.6046 30.0084 39.5191 30.002C39.3513 29.9848 39.1762 29.959 38.9836 29.9516C38.889 29.9455 38.7972 29.932 38.7013 29.9244C38.6022 29.9231 38.5041 29.9182 38.4069 29.911C38.2164 29.8869 38.0093 29.9011 37.8169 29.8775C37.6146 29.8846 37.421 29.8604 37.2204 29.8664C37.0232 29.8519 36.8239 29.8673 36.6259 29.8536C36.4281 29.8668 36.2287 29.8499 36.031 29.8639C35.8303 29.857 35.6367 29.8821 35.434 29.8741C35.2415 29.8974 35.0338 29.883 34.8433 29.9073C34.7461 29.9144 34.648 29.9196 34.5487 29.9206C34.4528 29.9285 34.3614 29.9427 34.2664 29.9484C34.0701 29.9587 33.9069 29.977 33.7431 29.9909C33.6572 29.9973 33.5767 30.0035 33.5021 30.0088C33.4227 30.0228 33.3502 30.0385 33.2812 30.0474C33.1475 30.0705 33.0305 30.076 32.9562 30.0852C32.8798 30.0927 32.8354 30.0927 32.8354 30.0927Z" fill="#666666"/>
<path d="M56.3074 40.5827C55.3918 40.5827 54.6494 39.8563 54.6494 38.9604V36.3656C54.6494 35.4697 55.3918 34.7433 56.3074 34.7433C57.2231 34.7433 57.9654 35.4697 57.9654 36.3656V38.9604C57.9654 39.8563 57.2231 40.5827 56.3074 40.5827Z" fill="#4D4D4D"/>
<path d="M49.0088 33.9863V41.6651C49.0088 43.0389 47.8706 44.1527 46.4666 44.1527C45.0627 44.1527 43.9243 43.039 43.9243 41.6651V33.9863" fill="#E0B394"/>
<path d="M82.8313 71.366C84.3122 71.366 85.5126 70.1913 85.5126 68.7422C85.5126 67.2932 84.3122 66.1185 82.8313 66.1185C81.3504 66.1185 80.1499 67.2932 80.1499 68.7422C80.1499 70.1913 81.3504 71.366 82.8313 71.366Z" fill="#F76B4F"/>
<path d="M74.6521 71.366C76.133 71.366 77.3335 70.1913 77.3335 68.7422C77.3335 67.2932 76.133 66.1185 74.6521 66.1185C73.1712 66.1185 71.9707 67.2932 71.9707 68.7422C71.9707 70.1913 73.1712 71.366 74.6521 71.366Z" fill="#F76B4F"/>
</g>
<defs>
<clipPath id="clip0">
<rect width="93" height="91" fill="white"/>
</clipPath>
</defs>
</svg>
