<svg width="92" height="94" viewBox="0 0 92 94" fill="none" xmlns="http://www.w3.org/2000/svg">
<g clip-path="url(#clip0)">
<path d="M86.4196 91.2979H82.2846V75.3487C82.2846 74.8238 81.8681 74.3981 81.3542 74.3981C80.8405 74.3981 80.4238 74.8238 80.4238 75.3487V91.2979H76.2888C75.7751 91.2979 75.3584 91.7236 75.3584 92.2485C75.3584 92.7734 75.7751 93.1992 76.2888 93.1992H86.4196C86.9333 93.1992 87.35 92.7734 87.35 92.2485C87.35 91.7236 86.9333 91.2979 86.4196 91.2979Z" fill="#CCCCCC"/>
<path d="M79.8032 68.4482L81.3539 46.4935L82.9044 68.4482H79.8032Z" fill="#CCCCCC"/>
<path d="M8.0613 70.5849C5.55323 70.5849 3.5127 68.5001 3.5127 65.9374V61.5012C3.5127 60.9179 3.97539 60.445 4.54644 60.445C5.11748 60.445 5.58018 60.9179 5.58018 61.5012V65.9374C5.58018 67.3352 6.69316 68.4722 8.06112 68.4722C9.42908 68.4722 10.5421 67.3351 10.5421 65.9374V27.4814C10.5421 26.8982 11.0048 26.4252 11.5758 26.4252C12.1469 26.4252 12.6096 26.8982 12.6096 27.4814V65.9375C12.6097 68.5001 10.569 70.5849 8.0613 70.5849Z" fill="#CCCCCC"/>
<path d="M21.0865 13.7596V7.42249H3.5127V29.8145H21.0865V13.7596Z" fill="#F76B4F"/>
<path d="M66.9858 74.8231V94H21.9141V74.8231C21.9141 69.6962 24.8045 65.2578 29.0097 63.1201C30.7238 62.2476 32.6547 61.7574 34.6995 61.7574H54.1983C56.2432 61.7574 58.1741 62.2475 59.8881 63.1201C64.0955 65.2578 66.9858 69.6962 66.9858 74.8231Z" fill="#E6E6E6"/>
<path d="M46.0002 73.2513V94H42.8989V73.2513C42.8989 72.3767 43.5936 71.6669 44.4496 71.6669C45.3057 71.6669 46.0002 72.3769 46.0002 73.2513Z" fill="#CCCCCC"/>
<path d="M59.8879 63.1201L46.0595 76.9972C45.1657 77.8943 43.7336 77.8943 42.8396 76.9972L32.5696 66.6921L29.0093 63.1199C29.5054 62.8686 30.0204 62.6468 30.5517 62.463C31.8521 62.0046 33.2477 61.7574 34.6991 61.7574H54.1979C55.6492 61.7574 57.0427 62.0046 58.3433 62.461C58.8748 62.6468 59.3896 62.8665 59.8879 63.1201Z" fill="#F7CBA4"/>
<path d="M42.5787 61.7574H34.7003C27.6386 61.7574 21.9136 67.6066 21.9136 74.8222V93.9993H29.792V74.8222C29.792 67.6067 35.5166 61.7574 42.5787 61.7574Z" fill="#CCCCCC"/>
<path d="M42.5784 61.7574C38.5239 61.7574 34.91 63.6861 32.5696 66.6921L29.0093 63.1199C30.7233 62.2475 32.6542 61.7574 34.6991 61.7574H42.5784Z" fill="#E0B394"/>
<path d="M58.3433 62.461L51.4275 67.5985C47.2656 70.6869 41.6316 70.6869 37.4697 67.5985L30.5518 62.4632C31.8522 62.0048 33.2478 61.7576 34.6991 61.7576H54.1979C55.6492 61.7574 57.0427 62.0048 58.3433 62.461Z" fill="#E0B394"/>
<path d="M37.4708 65.204L28.9838 58.9038C24.499 55.5745 22.0726 50.0691 22.606 44.4311L24.0781 28.867C25.0921 18.1473 33.9085 9.96765 44.4489 9.96765C54.9894 9.96765 63.8058 18.1473 64.8197 28.867L66.2917 44.4311C66.8249 50.0691 64.3989 55.5744 59.9139 58.9038L51.4269 65.204C47.2659 68.2926 41.6316 68.2926 37.4708 65.204Z" fill="#F7CBA4"/>
<path d="M27.8869 47.4984C27.7443 49.9637 28.5299 52.3888 30.0847 54.2795L38.955 65.4163C39.418 65.9803 39.9432 66.4536 40.5118 66.8316C39.445 66.4514 38.4195 65.9063 37.4704 65.2029L28.9832 58.9036C24.4987 55.5743 22.0735 50.0693 22.607 44.4311L24.077 28.8666C25.0818 18.2516 33.7365 10.127 44.1422 9.97278C37.7329 10.1312 30.4753 16.3038 30.0969 22.8778L27.8869 47.4984Z" fill="#E8BA97"/>
<path d="M35.245 43.3437C34.3885 43.3437 33.6943 42.6343 33.6943 41.7593V39.2252C33.6943 38.3502 34.3885 37.6407 35.245 37.6407C36.1016 37.6407 36.7957 38.3502 36.7957 39.2252V41.7593C36.7957 42.6343 36.1016 43.3437 35.245 43.3437Z" fill="#4D4D4D"/>
<path d="M53.6528 43.3437C52.7962 43.3437 52.1021 42.6343 52.1021 41.7593V39.2252C52.1021 38.3502 52.7962 37.6407 53.6528 37.6407C54.5093 37.6407 55.2035 38.3502 55.2035 39.2252V41.7593C55.2035 42.6343 54.5093 43.3437 53.6528 43.3437Z" fill="#4D4D4D"/>
<path d="M78.0136 46.9514C78.0136 46.9514 76.4959 64.8819 59.9146 58.9037C64.399 55.5744 66.8243 50.0693 66.2908 44.4312L64.8188 28.8667C56.6583 32.5677 50.6522 24.7452 50.6522 24.7452C50.6522 24.7452 43.7653 34.9357 29.1129 36.3573C27.3142 36.5326 25.3975 36.5748 23.3611 36.4502L22.6064 44.431C22.0729 50.0692 24.4981 55.5742 28.9848 58.9035C12.4034 64.8817 10.8857 46.9512 10.8857 46.9512C11.0884 47.7518 11.5452 48.4321 12.1511 48.9116C12.759 49.3932 13.5178 49.672 14.3282 49.672C16.1662 49.672 17.7004 48.2398 17.8679 46.3703L19.404 29.2382C19.9973 22.6241 23.0098 16.7853 27.4962 12.6004C27.55 12.5498 27.6037 12.5011 27.6574 12.4547C27.8062 12.8413 28.9104 13.1582 30.6325 13.4095C38.7351 14.5882 60.537 14.2693 61.2421 12.4547C65.8196 16.6457 68.8961 22.5459 69.4957 29.2381L71.0318 46.3701C71.1166 47.3059 71.5405 48.1299 72.1752 48.7212C72.8098 49.3128 73.6513 49.6719 74.5715 49.6719C76.1921 49.6722 77.6064 48.5525 78.0136 46.9514Z" fill="#666666"/>
<path d="M29.1129 36.3573C27.3142 36.5326 25.3975 36.5748 23.3611 36.4502L22.6064 44.431C22.0729 50.0691 24.4981 55.5742 28.9848 58.9035C12.4034 64.8817 10.8857 46.9512 10.8857 46.9512C11.0884 47.7518 11.5452 48.432 12.1511 48.9116C12.759 49.3932 13.5178 49.672 14.3282 49.672C16.1662 49.672 17.7004 48.2398 17.8679 46.3703L19.404 29.2382C19.9973 22.6241 23.0098 16.7853 27.4962 12.6004C27.55 12.5498 27.6037 12.5011 27.6574 12.4547C27.8062 12.8413 28.9104 13.1582 30.6325 13.4095L34.7986 17.5373C34.7984 17.5374 25.4553 23.9698 29.1129 36.3573Z" fill="#4D4D4D"/>
<path d="M64.5484 3.91847C63.4464 6.76399 62.3443 9.60951 61.2425 12.4548C60.3886 14.656 59.5367 16.8572 58.6829 19.0583C51.3514 16.0924 43.3543 15.5053 35.7603 17.2966C33.8829 17.7359 32.0305 18.3254 30.2173 19.0583C29.3634 16.8572 28.5115 14.656 27.6577 12.4548C26.5556 9.60933 25.4516 6.76381 24.3496 3.91847C27.4117 2.67848 30.5564 1.73426 33.7444 1.0814C43.9993 -1.01212 54.6986 -0.0656954 64.5484 3.91847Z" fill="#E6E6E6"/>
<path d="M35.7603 17.2965C33.8829 17.7359 32.0305 18.3254 30.2173 19.0583C29.3634 16.8572 28.5115 14.6559 27.6577 12.4548C26.5556 9.60929 25.4516 6.76377 24.3496 3.91843C27.4117 2.67844 30.5564 1.73422 33.7444 1.08136L35.7603 17.2965Z" fill="#CCCCCC"/>
<path d="M48.7915 6.99986H45.5868V3.72546H43.3126V6.99986H40.1079V9.32361H43.3126V12.5978H45.5868V9.32361H48.7915V6.99986Z" fill="#F95428"/>
<path d="M16.6411 15.9778H13.4365V12.7034H11.1622V15.9778H7.95752V18.3016H11.1622V21.5758H13.4365V18.3016H16.6411V15.9778Z" fill="white"/>
<path d="M61.8846 81.1036H53.8213V84.2723H61.8846V81.1036Z" fill="#F76B4F"/>
<path d="M86.4198 63.942H76.2891V86.7567H86.4198V63.942Z" fill="#C0E7F9"/>
<path d="M78.3565 63.942H76.2891V86.7567H78.3565V63.942Z" fill="#ABCCD8"/>
<path d="M84.2486 63.942H82.1812V86.7567H84.2486V63.942Z" fill="#D2F1FC"/>
<path d="M13.712 84.363L11.628 86.9887C10.5116 88.3914 8.49367 88.6069 7.12086 87.4661C5.74589 86.3274 5.53512 84.2657 6.65152 82.861L8.73553 80.2372L12.158 80.8521L13.712 84.363Z" fill="#5E86B7"/>
<path d="M84.8959 23.6973C85.5162 25.3915 84.6767 27.278 83.0185 27.9117C81.3625 28.5475 79.5141 27.6899 78.8938 25.9957L77.7319 22.8313L78.9373 18.9663L83.7339 20.5329L84.8959 23.6973Z" fill="#F76B4F"/>
<path d="M16.5133 79.6775C16.5133 80.4021 16.2776 81.133 15.7958 81.7392L13.7118 84.363L8.73535 80.2372L10.8194 77.6115C11.9358 76.2088 13.9537 75.9933 15.3286 77.1342C16.1081 77.7806 16.5133 78.7248 16.5133 79.6775Z" fill="#F76B4F"/>
<path d="M82.5742 17.3683L83.7341 20.5327L77.7322 22.8312L76.5723 19.6667C75.9501 17.9725 76.7915 16.0861 78.4475 15.4503C78.8177 15.3088 79.1981 15.2412 79.5722 15.2412C80.8685 15.2412 82.0903 16.0523 82.5742 17.3683Z" fill="#F9C573"/>
<path d="M88.4881 84.9758H74.2222V86.7565H88.4881V84.9758Z" fill="#ABCCD8"/>
<path d="M46.0698 45.2568H45.9994V41.9824C45.9994 41.1074 45.3053 40.3979 44.4487 40.3979C43.5921 40.3979 42.898 41.1074 42.898 41.9824V45.2568H42.8276C41.971 45.2568 41.2769 45.9662 41.2769 46.8412C41.2769 47.7162 41.971 48.4256 42.8276 48.4256H46.0698C46.9264 48.4256 47.6205 47.7162 47.6205 46.8412C47.6205 45.966 46.9264 45.2568 46.0698 45.2568Z" fill="#E0B394"/>
<path d="M52.5426 53.4682C52.5426 53.4682 52.4247 53.764 52.1765 54.2309C52.1165 54.3513 52.0463 54.478 51.9677 54.6153C51.8747 54.7504 51.7672 54.8878 51.6515 55.042C51.5358 55.1962 51.4033 55.3524 51.2628 55.5257C51.2132 55.5913 51.1595 55.6462 51.1016 55.7033C51.081 55.7244 51.0582 55.7455 51.0355 55.7666C50.9548 55.8426 50.8722 55.9228 50.7874 56.0033C50.6177 56.1659 50.4337 56.3264 50.2415 56.4955C50.0388 56.6475 49.8217 56.7912 49.5986 56.9475C49.487 57.0257 49.3711 57.1017 49.2532 57.1777C49.1353 57.2495 49.0092 57.3086 48.8811 57.3742C48.6288 57.5051 48.3663 57.6319 48.0955 57.7586C47.5372 57.953 46.9563 58.1811 46.336 58.2762C45.724 58.4219 45.0852 58.4451 44.4484 58.4768C43.8115 58.4451 43.1728 58.4239 42.5607 58.2782C41.9405 58.1831 41.3595 57.955 40.8012 57.7606C40.5305 57.636 40.2678 57.5093 40.0135 57.3782C39.8874 57.3127 39.7612 57.2535 39.6414 57.1818C39.5256 57.1035 39.4097 57.0297 39.2982 56.9515C39.0748 56.7953 38.8558 56.6495 38.6531 56.4995C38.4608 56.3306 38.2788 56.1679 38.1072 56.0073C38.0224 55.9249 37.9417 55.8468 37.8612 55.7686C37.8323 55.7411 37.8033 55.7137 37.7744 55.6862C37.7248 55.6355 37.6772 55.5869 37.6359 55.53C37.5015 55.3631 37.3712 55.2089 37.2574 55.0568C37.1459 54.9026 37.0363 54.7675 36.9453 54.6322C36.8627 54.4886 36.7861 54.3575 36.722 54.2371C36.4636 53.7555 36.356 53.4682 36.356 53.4682C36.356 53.4682 36.662 53.5633 37.1333 53.7575C37.2531 53.804 37.3773 53.8611 37.5158 53.918C37.6626 53.9624 37.8136 54.0194 37.9748 54.0742C38.1381 54.1291 38.3014 54.1967 38.475 54.2602C38.6466 54.3278 38.841 54.3722 39.0333 54.4313C39.2256 54.4884 39.4178 54.558 39.6184 54.6193C39.8272 54.6658 40.036 54.7207 40.251 54.7736C40.3585 54.7989 40.464 54.8306 40.5714 54.8602C40.681 54.8855 40.7948 54.9004 40.9064 54.9235C41.1317 54.9638 41.357 55.0102 41.5825 55.0629C42.0519 55.1073 42.5149 55.2129 42.9988 55.2318C43.4764 55.2951 43.9643 55.2783 44.4482 55.3078C44.9341 55.2783 45.4219 55.2972 45.8995 55.2338C46.3832 55.2169 46.8465 55.1092 47.3158 55.0649C47.5411 55.0142 47.7665 54.9678 47.992 54.9276C48.1036 54.9043 48.2173 54.8896 48.3269 54.8642C48.4344 54.8325 48.542 54.8029 48.6473 54.7776C48.8624 54.7247 49.0712 54.6678 49.28 54.6234C49.4827 54.5621 49.6749 54.4925 49.8672 54.4354C50.0575 54.3763 50.2559 54.3298 50.4213 54.2643C50.591 54.2051 50.75 54.1396 50.9114 54.0889C51.0706 54.034 51.2193 53.9791 51.3661 53.9347C51.5108 53.8714 51.6391 53.8101 51.7611 53.7614C52.2427 53.5571 52.5426 53.4682 52.5426 53.4682Z" fill="#F2F2F2"/>
<path d="M51.1016 55.7033C51.081 55.7244 51.0582 55.7455 51.0355 55.7666C50.9548 55.8426 50.8722 55.9229 50.7874 56.0033C50.6177 56.1659 50.4337 56.3264 50.2415 56.4955C50.0388 56.6475 49.8217 56.7913 49.5986 56.9475C49.487 57.0257 49.3711 57.1017 49.2532 57.1777C49.1353 57.2495 49.0092 57.3086 48.8811 57.3742C48.6288 57.5051 48.3663 57.6319 48.0955 57.7586C47.5372 57.953 46.9563 58.1811 46.336 58.2762C45.724 58.4219 45.0852 58.4451 44.4484 58.4768C43.8115 58.4451 43.1728 58.424 42.5607 58.2782C41.9405 58.1831 41.3595 57.9551 40.8012 57.7606C40.5305 57.636 40.2678 57.5093 40.0135 57.3782C39.8874 57.3127 39.7612 57.2536 39.6414 57.1818C39.5256 57.1036 39.4097 57.0298 39.2982 56.9515C39.0748 56.7953 38.8558 56.6495 38.6531 56.4995C38.4608 56.3306 38.2788 56.168 38.1072 56.0073C38.0224 55.9249 37.9417 55.8469 37.8612 55.7686C37.8323 55.7411 37.8033 55.7138 37.7744 55.6862C37.8405 55.7095 37.9067 55.7327 37.9749 55.756C38.1383 55.8109 38.3016 55.8764 38.4752 55.9398C38.6468 56.0095 38.8412 56.0538 39.0335 56.1131C39.2257 56.1702 39.418 56.2377 39.6185 56.3011C39.8273 56.3455 40.0361 56.4024 40.2512 56.4553C40.3587 56.4806 40.4642 56.5102 40.5716 56.5397C40.6812 56.5651 40.795 56.5799 40.9065 56.6031C41.1319 56.6433 41.3572 56.6918 41.5827 56.7424C42.0521 56.7889 42.5151 56.8944 42.999 56.9113C43.4766 56.9769 43.9645 56.9578 44.4484 56.9895C44.9342 56.96 45.4221 56.9791 45.8997 56.9135C46.3834 56.8966 46.8466 56.7911 47.316 56.7467C47.5413 56.696 47.7666 56.6473 47.9922 56.6073C48.1037 56.584 48.2175 56.5693 48.3271 56.544C48.4345 56.5144 48.5422 56.4848 48.6475 56.4595C48.8626 56.4066 49.0714 56.3497 49.2802 56.3053C49.4828 56.242 49.6751 56.1722 49.8674 56.1173C50.0577 56.0582 50.256 56.0095 50.4215 55.9462C50.5912 55.8849 50.7502 55.8215 50.9115 55.7686C50.9753 55.7475 51.0395 55.7244 51.1016 55.7033Z" fill="#4D4D4D"/>
<path d="M50.1074 34.7848C50.1074 34.7848 50.1116 34.7427 50.1254 34.6706C50.1414 34.6006 50.1574 34.4901 50.1922 34.3651C50.2077 34.3004 50.2278 34.2331 50.2508 34.1589C50.2808 34.0836 50.3211 34.008 50.3638 33.9222C50.4062 33.8361 50.4598 33.7509 50.516 33.6553C50.5726 33.5582 50.6402 33.4844 50.7096 33.3906C50.7798 33.3004 50.8591 33.213 50.9417 33.1194C51.0292 33.0347 51.1241 32.9512 51.2249 32.8673C51.4224 32.6896 51.6637 32.5613 51.9151 32.4184C52.1751 32.3061 52.4513 32.1842 52.7468 32.1278C53.0396 32.0501 53.3466 32.0316 53.6528 32.0171C53.959 32.0314 54.2663 32.0481 54.5592 32.1254C54.8551 32.1812 55.1313 32.3037 55.3915 32.4153C55.643 32.558 55.8845 32.6861 56.0822 32.864C56.1828 32.9481 56.2781 33.0318 56.3656 33.1161C56.4482 33.2101 56.5271 33.2982 56.5977 33.3878C56.666 33.4812 56.7368 33.5578 56.7887 33.6513C56.8408 33.7442 56.8913 33.8275 56.9323 33.9118C56.9731 33.9962 57.0124 34.0706 57.0423 34.1457C57.0694 34.2239 57.0933 34.2946 57.1111 34.3616C57.1504 34.491 57.1668 34.6025 57.1819 34.672C57.1952 34.744 57.1981 34.7851 57.1981 34.7851C57.1981 34.7851 57.1553 34.784 57.0829 34.7769C57.0126 34.7675 56.9034 34.7629 56.7828 34.7449C56.7205 34.7383 56.6567 34.7266 56.5866 34.717C56.512 34.7133 56.4383 34.7029 56.3584 34.6965C56.2015 34.6796 56.0376 34.6544 55.8576 34.6472C55.7692 34.6414 55.6833 34.6282 55.5936 34.6206C55.5007 34.6193 55.4093 34.6146 55.3182 34.6076C55.1399 34.5839 54.9462 34.5979 54.7664 34.5749C54.5771 34.5819 54.396 34.5582 54.2086 34.5641C54.0242 34.5499 53.8377 34.565 53.6527 34.5516C53.4676 34.5644 53.2811 34.5479 53.0963 34.5617C52.9086 34.5549 52.7274 34.5795 52.5379 34.5716C52.3578 34.5944 52.1636 34.5802 51.9855 34.6041C51.8946 34.6111 51.803 34.6162 51.7099 34.6171C51.6202 34.6247 51.5347 34.6386 51.4459 34.6441C51.2623 34.6542 51.1097 34.672 50.9564 34.6856C50.8759 34.692 50.8008 34.6979 50.7311 34.7031C50.6569 34.7168 50.5892 34.7321 50.5247 34.7407C50.3996 34.7633 50.2902 34.7686 50.2208 34.7776C50.1487 34.7848 50.1074 34.7848 50.1074 34.7848Z" fill="#666666"/>
</g>
<defs>
<clipPath id="clip0">
<rect width="92" height="94" fill="white"/>
</clipPath>
</defs>
</svg>
