<svg width="91" height="93" viewBox="0 0 91 93" fill="none" xmlns="http://www.w3.org/2000/svg">
<path d="M68.0568 74.1041V92.9977H23.6616V74.1041C23.6616 71.1654 24.6249 68.4556 26.248 66.289C28.5492 63.215 32.1762 61.2317 36.2572 61.2317H55.4632C62.4178 61.2317 68.0568 66.9947 68.0568 74.1041Z" fill="#5D9EBA"/>
<path d="M55.7107 58.7117H36.0078V77.5927H55.7107V58.7117Z" fill="#71C5F4"/>
<path d="M36.0088 61.2358V64.1662C33.2086 66.5284 31.4226 70.1039 31.4226 74.1041V92.9976H23.6616V74.1041C23.6616 67.0798 29.1661 61.369 36.0088 61.2358Z" fill="#508DA3"/>
<path d="M54.7206 49.9822V61.5446C54.7206 66.546 50.7526 70.6014 45.8586 70.6014C40.9632 70.6014 36.9966 66.5462 36.9966 61.5446V49.9822H54.7206Z" fill="#E0B394"/>
<path d="M45.8592 71.642C40.4113 71.642 35.979 67.1123 35.979 61.5446V49.9821C35.979 49.4074 36.4349 48.9415 36.9972 48.9415H54.7212C55.2838 48.9415 55.7395 49.4074 55.7395 49.9821V61.5446C55.7396 67.1123 51.3072 71.642 45.8592 71.642ZM38.0156 51.0229V61.5448C38.0156 65.9649 41.5343 69.5608 45.8592 69.5608C50.1841 69.5608 53.7032 65.9647 53.7032 61.5448V51.0229H38.0156Z" fill="#5D9EBA"/>
<path d="M32.2841 76.9575V92.9975H23.6616V74.1042C23.6616 71.1655 24.6249 68.4556 26.248 66.2891C30.0175 68.7012 32.2841 72.6869 32.2841 76.9575Z" fill="#6ABFE5"/>
<path d="M59.4341 76.9575V92.9975H68.0565V74.1042C68.0565 71.1655 67.0932 68.4556 65.4702 66.2891C61.7007 68.7012 59.4341 72.6869 59.4341 76.9575Z" fill="#71C5F4"/>
<path d="M53.8005 86.646H37.916V92.9978H53.8005V86.646Z" fill="#CCCCCC"/>
<path d="M83.3411 63.3445H76.6211V93H83.3411V63.3445Z" fill="#F9C573"/>
<path d="M78.2605 63.3445H76.6211V93H78.2605V63.3445Z" fill="#E2AF66"/>
<path d="M2.46049 69.0864L2.41553 24.8829L10.4383 24.8738L12.7867 28.6598L12.2092 32.9283L14.5577 36.7129L13.9803 40.9812L16.3288 44.7656L15.7496 49.0359L18.0964 52.8201L17.5207 57.0885L19.8691 60.8731L19.292 65.1414L21.6419 68.9258L21.0773 73.1066L2.46049 69.0864Z" fill="#E6E6E6"/>
<path d="M24.6698 76.4047L16.6982 69.0874C15.6301 68.107 14.1999 67.6449 12.7743 67.82L1.51807 69.2013L1.53904 90.1831C1.54011 91.0948 2.49185 91.6758 3.2776 91.2446L4.19594 90.7408C5.34266 90.1114 6.72558 90.1294 7.85648 90.788C11.7317 93.0457 16.3369 93.6012 20.62 92.3275L22.6288 91.7301C24.0303 91.3135 24.9821 89.985 24.948 88.4935L24.6698 76.4047ZM17.6967 84.5082H9.38675C7.98036 84.5082 6.84022 83.343 6.84022 81.9057C6.84022 80.4685 7.98036 79.3031 9.38675 79.3031H17.6967C19.1031 79.3031 20.2433 80.4683 20.2433 81.9057C20.2433 83.3429 19.1033 84.5082 17.6967 84.5082Z" fill="#EA8249"/>
<path d="M24.5933 43.6405C22.0681 43.526 20.0581 41.3969 20.0581 38.7891C20.0581 36.1085 22.1841 33.9336 24.8092 33.9336C25.0454 33.9336 25.2775 33.9503 25.5057 33.9855L24.5933 43.6405Z" fill="#E0B394"/>
<path d="M67.1188 43.6405C69.644 43.526 71.6561 41.3969 71.6561 38.7891C71.6561 36.1085 69.528 33.9336 66.9031 33.9336C66.6669 33.9336 66.4326 33.9523 66.2065 33.9855L67.1188 43.6405Z" fill="#E0B394"/>
<path d="M38.9848 64.6286L30.6252 58.4216C26.2077 55.1416 23.8179 49.7173 24.3431 44.1629L25.793 28.8287C26.7917 18.2674 35.4758 10.2087 45.8582 10.2087C56.2403 10.2087 64.9244 18.2674 65.9231 28.8287L67.373 44.1629C67.8982 49.7175 65.5086 55.1414 61.0909 58.4216L52.7314 64.6286C48.6327 67.6718 43.0831 67.6718 38.9848 64.6286Z" fill="#F7CBA4"/>
<path d="M29.5452 47.1848C29.4047 49.6136 30.1787 52.0029 31.71 53.8655L40.4471 64.8379C40.9033 65.3935 41.4205 65.8598 41.9805 66.2323C40.9298 65.8578 39.9196 65.3207 38.9849 64.6277L30.6251 58.4215C26.208 55.1415 23.8193 49.7179 24.3447 44.163L25.7926 28.8285C26.7824 18.3702 35.3071 10.3658 45.5567 10.214C39.2437 10.37 32.095 16.4514 31.7223 22.9282L29.5452 47.1848Z" fill="#E8BA97"/>
<path d="M66.5894 23.3097H65.9172C65.9172 17.6488 63.673 12.5248 60.042 8.81394C57.3497 6.0625 53.8959 4.08956 50.0327 3.25494H50.0322V1.39316C50.0322 0.623742 49.4218 0 48.669 0H43.0461C42.2932 0 41.6829 0.623742 41.6829 1.39316V3.25494C32.6085 5.21771 25.7989 13.451 25.7989 23.3095H25.1255C24.4759 23.3095 23.9164 23.7779 23.7888 24.4289L23.1106 27.886C22.9414 28.7482 23.5867 29.5531 24.4473 29.5531H36.6032L38.3595 34.7563H53.3559L55.1123 29.5531H67.268C68.1286 29.5531 68.7737 28.7482 68.6047 27.886L67.9265 24.4289C67.7985 23.7779 67.239 23.3097 66.5894 23.3097Z" fill="#EA8249"/>
<path d="M32.349 23.3097C32.349 13.4511 36.935 5.21789 43.0461 3.25512V0C42.2932 0 41.6829 0.623742 41.6829 1.39316V3.25494C32.6085 5.21771 25.7989 13.451 25.7989 23.3095H25.1255C24.4759 23.3095 23.9164 23.7779 23.7887 24.4289L23.1105 27.886C22.9415 28.7482 23.5867 29.5531 24.4472 29.5531H35.0676L35.8924 23.3093H32.349V23.3097Z" fill="#D36F3D"/>
<path d="M17.6967 85.4449H9.38691C7.47737 85.4449 5.92383 83.8573 5.92383 81.9057C5.92383 79.954 7.4772 78.3665 9.38691 78.3665H17.6967C19.6063 78.3665 21.1598 79.954 21.1598 81.9057C21.1598 83.8573 19.6063 85.4449 17.6967 85.4449ZM9.38691 80.2397C8.48795 80.2397 7.75677 80.9871 7.75677 81.9057C7.75677 82.8244 8.48813 83.5716 9.38691 83.5716H17.6967C18.5957 83.5716 19.3269 82.8242 19.3269 81.9057C19.3269 80.9869 18.5955 80.2397 17.6967 80.2397H9.38691Z" fill="#D36F3D"/>
<path d="M88.4701 54.2893H71.4918C70.9329 54.2893 70.4795 54.7523 70.4795 55.3239V64.0107C70.4795 64.582 70.9325 65.0453 71.4918 65.0453H88.4701C89.0291 65.0453 89.4825 64.5823 89.4825 64.0107V55.3239C89.4825 54.7523 89.0294 54.2893 88.4701 54.2893Z" fill="#808080"/>
<path d="M85.073 39.1653C84.8532 39.1653 84.6308 39.0993 84.4364 38.9615L79.6647 35.585C79.1562 35.2252 79.0293 34.5121 79.3814 33.9922C79.7334 33.4726 80.431 33.3427 80.9397 33.7027L85.7114 37.0792C86.2199 37.439 86.3468 38.1521 85.9947 38.6719C85.7774 38.9929 85.4281 39.1653 85.073 39.1653Z" fill="#808080"/>
<path d="M82.8545 38.0914L76.7173 45.1393L81.0129 36.7882L81.5379 35.7672L83.6047 37.2299L82.8545 38.0914Z" fill="#808080"/>
<path d="M79.0402 20.3235C78.9074 20.5028 78.7217 20.6437 78.4968 20.7191L72.9819 22.5665C72.3941 22.7634 71.7614 22.4361 71.5687 21.8355C71.3761 21.2348 71.6962 20.5881 72.2841 20.3913L77.7991 18.5438C78.3868 18.3469 79.0195 18.6742 79.2122 19.2749C79.3311 19.6458 79.2545 20.0342 79.0402 20.3235Z" fill="#808080"/>
<path d="M76.8621 21.482L78.6522 30.738L74.7334 22.1953L74.2544 21.1512L76.6431 20.351L76.8621 21.482Z" fill="#808080"/>
<path d="M53.8299 51.2079C53.8299 51.2079 53.7139 51.4992 53.4695 51.9591C53.4105 52.0777 53.3412 52.2027 53.2639 52.3378C53.1722 52.471 53.0664 52.6063 52.9523 52.7583C52.8382 52.9102 52.7079 53.0642 52.5695 53.235C52.5206 53.2994 52.4676 53.3536 52.4106 53.4097C52.3902 53.4306 52.3678 53.4513 52.3454 53.4722C52.2659 53.547 52.1845 53.6262 52.101 53.7052C51.9339 53.8654 51.7528 54.0236 51.5633 54.1902C51.3638 54.34 51.1499 54.4815 50.9299 54.6356C50.8199 54.7126 50.706 54.7874 50.5897 54.8624C50.4737 54.9333 50.3494 54.9914 50.2231 55.056C49.9746 55.185 49.716 55.31 49.4492 55.4348C48.8993 55.6262 48.3272 55.8511 47.7162 55.9446C47.1133 56.0883 46.4841 56.1112 45.8569 56.1424C45.2297 56.1112 44.6004 56.0905 43.9977 55.9468C43.3868 55.8531 42.8145 55.6284 42.2646 55.4369C41.9979 55.3141 41.7393 55.1892 41.4887 55.0602C41.3644 54.9957 41.2402 54.9374 41.1222 54.8666C41.0081 54.7896 40.8941 54.7167 40.7841 54.6397C40.5643 54.4857 40.3483 54.342 40.1487 54.1944C39.9593 54.0278 39.7801 53.8676 39.6111 53.7094C39.5276 53.6282 39.4481 53.5512 39.3687 53.4742C39.3402 53.4471 39.3116 53.42 39.2832 53.393C39.2343 53.343 39.1874 53.2951 39.1467 53.2389C39.0143 53.0746 38.886 52.9225 38.774 52.7727C38.664 52.6208 38.5561 52.4875 38.4665 52.3544C38.3851 52.2129 38.3098 52.0837 38.2467 51.9651C37.9922 51.4907 37.8862 51.2075 37.8862 51.2075C37.8862 51.2075 38.1877 51.3012 38.6519 51.4927C38.7701 51.5385 38.8922 51.5946 39.0287 51.6509C39.1734 51.6947 39.3219 51.7508 39.4808 51.8049C39.6417 51.8591 39.8025 51.9257 39.9737 51.988C40.1427 52.0547 40.3341 52.0983 40.5236 52.1566C40.713 52.2127 40.9023 52.2815 41.1 52.3418C41.3056 52.3876 41.5114 52.4417 41.7231 52.4937C41.829 52.5186 41.9328 52.5498 42.0387 52.5791C42.1466 52.6039 42.2586 52.6187 42.3686 52.6415C42.5906 52.6811 42.8126 52.7269 43.0346 52.7789C43.4968 52.8226 43.9531 52.9267 44.4296 52.9454C44.9 53.0079 45.3806 52.9912 45.8571 53.0203C46.3357 52.9912 46.8163 53.0099 47.2868 52.9474C47.7633 52.9307 48.2195 52.8246 48.6818 52.7809C48.9038 52.7309 49.1258 52.6851 49.3477 52.6455C49.4578 52.6227 49.5697 52.6081 49.6776 52.5831C49.7835 52.5518 49.8895 52.5228 49.9933 52.4977C50.2051 52.4457 50.4108 52.3894 50.6164 52.3458C50.816 52.2855 51.0054 52.2169 51.1947 52.1606C51.3821 52.1023 51.5776 52.0565 51.7405 51.992C51.9076 51.9337 52.0644 51.8692 52.2233 51.8193C52.38 51.7651 52.5267 51.711 52.6713 51.6674C52.8139 51.6049 52.9401 51.5446 53.0604 51.4967C53.5346 51.2953 53.8299 51.2079 53.8299 51.2079Z" fill="#F2F2F2"/>
<path d="M52.4101 53.4097C52.3896 53.4305 52.3673 53.4513 52.3449 53.4721C52.2654 53.547 52.184 53.6262 52.1005 53.7052C51.9334 53.8654 51.7523 54.0236 51.5628 54.1901C51.3633 54.34 51.1494 54.4815 50.9294 54.6355C50.8194 54.7125 50.7055 54.7874 50.5892 54.8624C50.4732 54.9332 50.3489 54.9913 50.2226 55.056C49.9741 55.185 49.7155 55.3099 49.4487 55.4347C48.8988 55.6262 48.3267 55.851 47.7157 55.9446C47.1128 56.0883 46.4837 56.1111 45.8564 56.1424C45.2292 56.1111 44.5999 56.0904 43.9972 55.9468C43.3863 55.853 42.814 55.6284 42.2641 55.4369C41.9974 55.3141 41.7388 55.1892 41.4882 55.0602C41.3639 54.9957 41.2397 54.9374 41.1217 54.8666C41.0076 54.7895 40.8937 54.7167 40.7837 54.6397C40.5638 54.4857 40.3479 54.342 40.1483 54.1943C39.9588 54.0278 39.7797 53.8676 39.6106 53.7094C39.5271 53.6282 39.4476 53.5511 39.3682 53.4741C39.3398 53.4471 39.3112 53.42 39.2827 53.3929C39.3479 53.4158 39.413 53.4387 39.4802 53.4616C39.641 53.5157 39.8019 53.5802 39.973 53.6427C40.142 53.7114 40.3335 53.7551 40.5229 53.8134C40.7124 53.8696 40.9017 53.9362 41.0993 53.9987C41.3049 54.0425 41.5107 54.0986 41.7224 54.1506C41.8284 54.1754 41.9321 54.2047 42.0381 54.2337C42.146 54.2588 42.2579 54.2733 42.3679 54.2962C42.5899 54.3358 42.8119 54.3836 43.0339 54.4335C43.4962 54.4793 43.9524 54.5834 44.4289 54.6001C44.8994 54.6646 45.3799 54.6459 45.8564 54.6771C46.3351 54.6481 46.8157 54.6668 47.2861 54.6023C47.7626 54.5856 48.2188 54.4815 48.6811 54.4379C48.9031 54.388 49.1251 54.34 49.3471 54.3006C49.4571 54.2777 49.5691 54.2632 49.6769 54.2381C49.7829 54.209 49.8888 54.1798 49.9926 54.1549C50.2045 54.103 50.4101 54.0467 50.6157 54.0031C50.8153 53.9406 51.0048 53.8719 51.1941 53.8178C51.3814 53.7595 51.5769 53.7117 51.7399 53.6492C51.9069 53.5889 52.0637 53.5264 52.2226 53.4745C52.286 53.4534 52.3491 53.4305 52.4101 53.4097Z" fill="#4D4D4D"/>
<path d="M36.7921 44.2361C35.9486 44.2361 35.2646 43.5372 35.2646 42.6751V40.1785C35.2646 39.3165 35.9486 38.6176 36.7921 38.6176C37.6356 38.6176 38.3195 39.3165 38.3195 40.1785V42.6751C38.3193 43.5372 37.6356 44.2361 36.7921 44.2361Z" fill="#4D4D4D"/>
<path d="M54.9239 44.2361C54.0804 44.2361 53.3965 43.5372 53.3965 42.6751V40.1785C53.3965 39.3165 54.0804 38.6176 54.9239 38.6176C55.7674 38.6176 56.4513 39.3165 56.4513 40.1785V42.6751C56.4511 43.5372 55.7676 44.2361 54.9239 44.2361Z" fill="#4D4D4D"/>
<path d="M48.1996 37.8892V45.2776C48.1996 46.5994 47.1509 47.671 45.8576 47.671C44.5642 47.671 43.5156 46.5994 43.5156 45.2776V37.8892" fill="#E0B394"/>
<path d="M45.8583 59.667C46.4769 59.667 46.9784 59.1546 46.9784 58.5224C46.9784 57.8902 46.4769 57.3777 45.8583 57.3777C45.2398 57.3777 44.7383 57.8902 44.7383 58.5224C44.7383 59.1546 45.2398 59.667 45.8583 59.667Z" fill="#E0B394"/>
</svg>
