<svg width="92" height="94" viewBox="0 0 92 94" fill="none" xmlns="http://www.w3.org/2000/svg">
<g clip-path="url(#clip0)">
<path d="M55.9093 60.608H37.2586C30.5038 60.608 25.0278 66.2028 25.0278 73.1047V91.4479H68.1397V73.1047C68.1401 66.2028 62.6643 60.608 55.9093 60.608Z" fill="#F76B4F"/>
<path d="M48.068 73.3013H45.1016V91.4482H48.068V73.3013Z" fill="#E5624C"/>
<path d="M24.9949 42.1691H15.5509L16.852 49.5244L12.3605 46.234L6.81087 42.1689H4.77268H4.03398C1.80658 42.1691 0 39.9972 0 37.315V25.2652C0 22.5833 1.80658 20.4095 4.03416 20.4095H8.69616H14.4975H24.9945C26.7661 20.4095 28.202 21.8768 28.202 23.6867V38.8916C28.2023 40.7018 26.7661 42.1691 24.9949 42.1691Z" fill="#FCE8CA"/>
<path d="M23.5875 24.9928H4.88721V27.2154H23.5875V24.9928Z" fill="#666666"/>
<path d="M23.5875 29.626H4.88721V31.8486H23.5875V29.626Z" fill="#666666"/>
<path d="M23.5875 34.3401H4.88721V36.5627H23.5875V34.3401Z" fill="#666666"/>
<path d="M55.0064 13.3171C55.1447 12.6927 55.218 12.0421 55.218 11.3733C55.218 6.50159 51.3519 2.55139 46.5839 2.55139C41.8159 2.55139 37.9497 6.50159 37.9497 11.3733C37.9497 12.0421 38.0228 12.6927 38.1614 13.3171" fill="#808080"/>
<path d="M37.9492 11.3734C37.9492 12.0423 38.0224 12.6929 38.1609 13.3173H43.1767C43.1208 12.6929 43.091 12.0423 43.091 11.3734C43.091 6.50178 44.6548 2.55157 46.5834 2.55157C41.8156 2.55139 37.9492 6.50159 37.9492 11.3734Z" fill="#666666"/>
<path d="M25.9344 43.5279C23.4822 43.4168 21.5303 41.3497 21.5303 38.8178C21.5303 36.2152 23.5949 34.1036 26.1441 34.1036C26.3736 34.1036 26.5989 34.1198 26.8204 34.1541L25.9344 43.5279Z" fill="#E0B394"/>
<path d="M67.2308 43.5279C69.683 43.4168 71.6369 41.3497 71.6369 38.8178C71.6369 36.2152 69.5703 34.1036 67.0211 34.1036C66.7916 34.1036 66.5643 34.1218 66.3447 34.1541L67.2308 43.5279Z" fill="#E0B394"/>
<path d="M44.7945 60.608H37.2586C30.5038 60.608 25.0278 66.2028 25.0278 73.1047V91.4479H32.5637V73.1047C32.5639 66.2028 38.0399 60.608 44.7945 60.608Z" fill="#E5624C"/>
<path d="M55.1901 55.063V66.2887C55.1901 71.1444 51.3367 75.0816 46.5843 75.0816C41.8303 75.0816 37.9785 71.1444 37.9785 66.2887V55.063H55.1901Z" fill="#E0B394"/>
<path d="M39.9091 63.9046L31.7912 57.8783C27.5014 54.6939 25.1807 49.4277 25.6906 44.035L27.0987 29.1475C28.0684 18.894 36.5015 14.7073 46.5836 14.7073C56.6657 14.7073 65.0988 18.894 66.0686 29.1475L67.4766 44.035C67.9866 49.4277 65.6659 54.6937 61.376 57.8783L53.2581 63.9046C49.2782 66.8592 43.889 66.8592 39.9091 63.9046Z" fill="#F7CBA4"/>
<path d="M30.7422 46.969C30.6058 49.3271 31.3572 51.6466 32.8443 53.4552L41.3288 64.1078C41.7718 64.6474 42.2742 65.1 42.8179 65.4617C41.7974 65.098 40.8165 64.5766 39.9088 63.9037L31.7906 57.8783C27.5011 54.6939 25.1816 49.4282 25.6917 44.0352L27.0977 29.1474C28.0589 18.9939 36.3371 11.2226 46.2905 11.0751C40.16 11.2266 33.2179 17.1308 32.856 23.4191L30.7422 46.969Z" fill="#E0B394"/>
<path d="M66.2954 31.5397C59.5735 34.7524 51.2637 27.9229 51.2637 27.9229C45.9102 31.3943 39.584 31.5823 34.7486 30.966C30.2911 30.3981 27.0991 29.1475 27.0991 29.1475C28.0682 18.8949 36.5027 11.0712 46.5844 11.0712C51.6254 11.0712 56.2531 13.0272 59.7435 16.2642C63.2339 19.5031 65.5833 24.0212 66.0699 29.1475L66.2954 31.5397Z" fill="#808080"/>
<path d="M46.5846 11.071C40.5924 11.1114 35.5852 18.9211 35.0097 29.1473C35.0097 29.1473 34.8852 29.8707 34.7486 30.9658C30.2911 30.398 27.0991 29.1473 27.0991 29.1473C28.0684 18.8949 36.5027 11.071 46.5846 11.071Z" fill="#666666"/>
<path d="M58.5781 54.19C58.0794 54.19 57.6507 53.806 57.5961 53.2879C57.5377 52.7332 57.9303 52.235 58.4735 52.1753L65.8065 51.3684C66.9057 51.2474 67.8959 50.6448 68.5234 49.7149C69.1511 48.785 69.3503 47.6251 69.0702 46.5325L67.1934 39.2108C67.0552 38.671 67.3709 38.1188 67.8994 37.9774C68.4282 37.8357 68.9678 38.159 69.1065 38.6988L70.9833 46.0205C71.4094 47.6829 71.1064 49.4474 70.1516 50.862C69.1969 52.2766 67.6904 53.1935 66.0184 53.3775L58.6853 54.1843C58.6494 54.188 58.6135 54.19 58.5781 54.19Z" fill="#666666"/>
<path d="M86.4649 78.5794L87.9797 91.4486H80.9591H76.2128H62.1719L63.6866 78.5794L63.6847 78.5734L68.5416 77.5812L69.0757 74.3645L69.4336 72.1924C71.7968 71.5256 78.3545 71.5256 80.7178 72.1924L81.0777 74.3624L81.6078 77.5812L86.4667 78.5734L86.4649 78.5794Z" fill="#4D8DA3"/>
<path d="M75.0762 89.406C78.5266 89.406 81.3237 86.548 81.3237 83.0226C81.3237 79.4972 78.5266 76.6392 75.0762 76.6392C71.6257 76.6392 68.8286 79.4972 68.8286 83.0226C68.8286 86.548 71.6257 89.406 75.0762 89.406Z" fill="#E6E6E6"/>
<path d="M75.0761 85.0825C76.1896 85.0825 77.0922 84.1602 77.0922 83.0226C77.0922 81.8849 76.1896 80.9626 75.0761 80.9626C73.9627 80.9626 73.0601 81.8849 73.0601 83.0226C73.0601 84.1602 73.9627 85.0825 75.0761 85.0825Z" fill="#4D8DA3"/>
<path d="M40.4838 78.9429H30.3979V81.9739H40.4838V78.9429Z" fill="#E5624C"/>
<path d="M37.78 45.256C36.9606 45.256 36.2969 44.5775 36.2969 43.7406V41.3167C36.2969 40.4797 36.9608 39.8013 37.78 39.8013C38.5992 39.8013 39.2632 40.4798 39.2632 41.3167V43.7406C39.2633 44.5775 38.5992 45.256 37.78 45.256Z" fill="#4D4D4D"/>
<path d="M55.3874 45.256C54.5681 45.256 53.9043 44.5775 53.9043 43.7406V41.3167C53.9043 40.4797 54.5682 39.8013 55.3874 39.8013C56.2066 39.8013 56.8706 40.4798 56.8706 41.3167V43.7406C56.8706 44.5775 56.2064 45.256 55.3874 45.256Z" fill="#4D4D4D"/>
<path d="M48.1335 45.488H48.0661V42.356C48.0661 41.519 47.4022 40.8406 46.583 40.8406C45.7636 40.8406 45.0998 41.5192 45.0998 42.356V45.488H45.0325C44.2131 45.488 43.5493 46.1665 43.5493 47.0033C43.5493 47.8403 44.2133 48.5187 45.0325 48.5187H48.1337C48.953 48.5187 49.6168 47.8402 49.6168 47.0033C49.6168 46.1665 48.9529 45.488 48.1335 45.488Z" fill="#E0B394"/>
<path d="M52.4234 52.3422C52.4234 52.3422 52.3384 52.6251 52.1594 53.0716C52.1161 53.1868 52.0655 53.3081 52.0087 53.4394C51.9417 53.5686 51.8639 53.7001 51.7805 53.8475C51.6971 53.9949 51.6015 54.1446 51.5 54.3102C51.4642 54.3728 51.4254 54.4253 51.3837 54.4798C51.3688 54.5 51.3525 54.5202 51.3361 54.5404C51.2779 54.6131 51.2182 54.6898 51.1571 54.7668C51.0348 54.9223 50.902 55.0759 50.7635 55.2375C50.6174 55.3829 50.4607 55.5204 50.2995 55.6699C50.219 55.7446 50.1354 55.8173 50.0503 55.8902C49.9653 55.9588 49.8742 56.0154 49.7816 56.0782C49.5996 56.2034 49.4102 56.3247 49.2149 56.4459C48.812 56.6319 48.393 56.85 47.9454 56.9409C47.5037 57.0802 47.043 57.1024 46.5834 57.1329C46.1239 57.1026 45.663 57.0824 45.2214 56.9429C44.7738 56.852 44.3547 56.6337 43.9519 56.4479C43.7565 56.3288 43.567 56.2074 43.3835 56.0822C43.2926 56.0196 43.2015 55.9631 43.1149 55.8942C43.0315 55.8195 42.9478 55.7488 42.8673 55.6739C42.7061 55.5245 42.5481 55.3849 42.4019 55.2415C42.2632 55.08 42.132 54.9243 42.0082 54.7708C41.9471 54.692 41.8889 54.6173 41.8307 54.5424C41.8096 54.5162 41.789 54.4899 41.7679 54.4637C41.7322 54.4152 41.6977 54.3687 41.668 54.3142C41.5712 54.1547 41.477 54.0071 41.3951 53.8616C41.3146 53.7142 41.2355 53.5848 41.1698 53.4555C41.1101 53.3182 41.0549 53.1928 41.0086 53.0777C40.8221 52.6171 40.7446 52.3422 40.7446 52.3422C40.7446 52.3422 40.9653 52.4331 41.3054 52.6191C41.392 52.6635 41.4815 52.718 41.5813 52.7726C41.6873 52.815 41.796 52.8695 41.9124 52.922C42.0303 52.9745 42.1482 53.0391 42.2734 53.0999C42.3972 53.1645 42.5374 53.207 42.6763 53.2635C42.8152 53.318 42.9537 53.3847 43.0985 53.4434C43.2493 53.4879 43.3999 53.5404 43.5549 53.5908C43.6324 53.6151 43.7086 53.6454 43.7862 53.6736C43.8653 53.6979 43.9474 53.712 44.0279 53.7342C44.1905 53.7726 44.3529 53.817 44.5157 53.8675C44.8543 53.9099 45.1885 54.0109 45.5376 54.0291C45.8821 54.0897 46.2343 54.0735 46.5834 54.1018C46.934 54.0735 47.286 54.0917 47.6306 54.0311C47.9797 54.0149 48.314 53.912 48.6525 53.8695C48.8151 53.8211 48.9775 53.7766 49.1403 53.7383C49.2208 53.7161 49.3029 53.7019 49.382 53.6777C49.4595 53.6474 49.5373 53.6191 49.6133 53.5949C49.7685 53.5444 49.9191 53.4899 50.0697 53.4475C50.2158 53.3889 50.3547 53.3223 50.4932 53.2675C50.6305 53.211 50.7737 53.1666 50.8928 53.104C51.0152 53.0474 51.13 52.9848 51.2464 52.9363C51.3613 52.8838 51.4687 52.8313 51.5746 52.7889C51.679 52.7283 51.7715 52.6698 51.8595 52.6233C52.2071 52.4272 52.4234 52.3422 52.4234 52.3422Z" fill="#F2F2F2"/>
<path d="M51.3839 54.48C51.3689 54.5002 51.3526 54.5204 51.3362 54.5405C51.278 54.6133 51.2184 54.69 51.1573 54.7669C51.0349 54.9224 50.9021 55.0761 50.7636 55.2377C50.6175 55.3831 50.4608 55.5206 50.2996 55.67C50.2191 55.7447 50.1356 55.8174 50.0504 55.8903C49.9654 55.959 49.8743 56.0155 49.7818 56.0783C49.5997 56.2035 49.4104 56.3249 49.215 56.4461C48.8122 56.632 48.3931 56.8502 47.9455 56.941C47.5039 57.0804 47.0432 57.1026 46.5835 57.1331C46.1241 57.1028 45.6632 57.0826 45.2215 56.9431C44.7739 56.8522 44.3548 56.6339 43.952 56.4481C43.7567 56.3289 43.5671 56.2076 43.3836 56.0824C43.2927 56.0198 43.2016 55.9632 43.115 55.8944C43.0316 55.8197 42.9479 55.749 42.8674 55.6741C42.7062 55.5246 42.5483 55.3851 42.402 55.2417C42.2633 55.0801 42.1321 54.9244 42.0083 54.771C41.9472 54.6922 41.889 54.6175 41.8308 54.5426C41.8098 54.5163 41.7891 54.4901 41.7681 54.4638C41.8157 54.486 41.8637 54.5082 41.9129 54.5305C42.0308 54.583 42.1486 54.6456 42.2739 54.7063C42.3977 54.773 42.5378 54.8154 42.6767 54.8719C42.8156 54.9265 42.9542 54.9911 43.099 55.0519C43.2498 55.0943 43.4003 55.1488 43.5554 55.1993C43.6329 55.2235 43.7091 55.2518 43.7867 55.2801C43.8657 55.3043 43.9479 55.3184 44.0284 55.3407C44.191 55.379 44.3534 55.4255 44.5162 55.4739C44.8547 55.5184 45.189 55.6193 45.5381 55.6355C45.8825 55.6981 46.2347 55.6799 46.5839 55.7102C46.9344 55.682 47.2864 55.7001 47.6311 55.6375C47.9802 55.6214 48.3144 55.5204 48.653 55.478C48.8156 55.4295 48.978 55.3831 49.1408 55.3447C49.2213 55.3225 49.3034 55.3083 49.3825 55.2841C49.4599 55.2558 49.5378 55.2276 49.6138 55.2033C49.769 55.1528 49.9196 55.0983 50.0702 55.0559C50.2163 54.9953 50.3551 54.9287 50.4937 54.876C50.631 54.8194 50.7742 54.773 50.8933 54.7124C51.0157 54.6538 51.1305 54.5932 51.2469 54.5428C51.2928 54.5226 51.3389 54.5003 51.3839 54.48Z" fill="#4D4D4D"/>
<path d="M51.9966 37.8961C51.9966 37.8961 52.0005 37.8559 52.0138 37.7869C52.0291 37.7201 52.0446 37.6143 52.0776 37.4948C52.0925 37.4329 52.1116 37.3685 52.1335 37.2976C52.1623 37.2257 52.2007 37.1533 52.2417 37.0713C52.2823 36.9888 52.3335 36.9073 52.3872 36.8159C52.4415 36.723 52.506 36.6525 52.5723 36.5627C52.6395 36.4764 52.7153 36.3931 52.7944 36.3033C52.8781 36.2223 52.9689 36.1425 53.0654 36.0622C53.2542 35.8922 53.4849 35.7694 53.7255 35.6328C53.9744 35.5252 54.2384 35.4086 54.5212 35.3548C54.8011 35.2805 55.0949 35.2629 55.3878 35.2489C55.6807 35.2627 55.9745 35.2786 56.2548 35.3526C56.5378 35.4061 56.802 35.5232 57.051 35.6299C57.2916 35.7663 57.5227 35.8889 57.7117 36.0591C57.808 36.1395 57.899 36.2196 57.9829 36.3002C58.0619 36.3901 58.1374 36.4744 58.205 36.5599C58.2702 36.6492 58.3381 36.7226 58.3877 36.8118C58.4375 36.9007 58.4858 36.9804 58.525 37.061C58.564 37.1418 58.6017 37.213 58.6303 37.2846C58.6562 37.3593 58.6792 37.4271 58.696 37.4911C58.7336 37.6151 58.7492 37.7215 58.7636 37.7882C58.7762 37.857 58.7791 37.8963 58.7791 37.8963C58.7791 37.8963 58.7381 37.8952 58.6689 37.8884C58.6017 37.8796 58.4973 37.875 58.382 37.858C58.3223 37.8517 58.2614 37.8403 58.1944 37.8313C58.123 37.8278 58.0526 37.8177 57.976 37.8117C57.826 37.7955 57.6693 37.7715 57.497 37.7647C57.4124 37.759 57.3302 37.7465 57.2445 37.7392C57.1558 37.7379 57.0681 37.7333 56.9811 37.7267C56.8106 37.7041 56.6253 37.7173 56.4534 37.6953C56.2724 37.7019 56.0992 37.6793 55.9199 37.685C55.7434 37.6714 55.5652 37.6857 55.3882 37.6731C55.2112 37.6854 55.0328 37.6696 54.8559 37.6828C54.6764 37.6764 54.5032 37.6997 54.3217 37.6924C54.1494 37.7142 53.9638 37.7006 53.7933 37.7234C53.7063 37.73 53.6186 37.7349 53.5297 37.7359C53.4438 37.7432 53.3622 37.7564 53.2772 37.7617C53.1017 37.7715 52.9556 37.7884 52.8091 37.8014C52.7322 37.8075 52.6602 37.8132 52.5935 37.8181C52.5225 37.8313 52.4577 37.8458 52.396 37.8541C52.2764 37.8758 52.1718 37.8807 52.1053 37.8895C52.0361 37.8961 51.9966 37.8961 51.9966 37.8961Z" fill="#666666"/>
<path d="M34.3892 37.8961C34.3892 37.8961 34.3931 37.8559 34.4064 37.7869C34.4217 37.7201 34.4371 37.6143 34.4702 37.4948C34.4851 37.4329 34.5042 37.3685 34.5261 37.2976C34.5548 37.2257 34.5933 37.1533 34.6343 37.0713C34.6749 36.9888 34.7261 36.9073 34.7798 36.8159C34.8341 36.723 34.8986 36.6525 34.9649 36.5627C35.0321 36.4764 35.1079 36.3931 35.187 36.3033C35.2707 36.2223 35.3614 36.1425 35.4579 36.0622C35.6468 35.8922 35.8775 35.7694 36.1181 35.6328C36.367 35.5252 36.6309 35.4086 36.9138 35.3548C37.1937 35.2805 37.4875 35.2629 37.7804 35.2489C38.0733 35.2627 38.3671 35.2786 38.6474 35.3526C38.9304 35.4061 39.1945 35.5232 39.4436 35.6299C39.6842 35.7663 39.9153 35.8889 40.1043 36.0591C40.2006 36.1395 40.2915 36.2196 40.3754 36.3002C40.4545 36.3901 40.53 36.4744 40.5975 36.5599C40.6628 36.6492 40.7307 36.7226 40.7803 36.8118C40.8301 36.9007 40.8784 36.9804 40.9176 37.061C40.9566 37.1418 40.9943 37.213 41.0227 37.2846C41.0486 37.3593 41.0716 37.4271 41.0884 37.4911C41.126 37.6151 41.1416 37.7215 41.156 37.7882C41.1686 37.857 41.1715 37.8963 41.1715 37.8963C41.1715 37.8963 41.1305 37.8952 41.0613 37.8884C40.9941 37.8796 40.8897 37.875 40.7744 37.858C40.7147 37.8517 40.6538 37.8403 40.5868 37.8313C40.5154 37.8278 40.445 37.8177 40.3684 37.8117C40.2184 37.7955 40.0617 37.7715 39.8894 37.7647C39.8048 37.759 39.7226 37.7465 39.6369 37.7392C39.5482 37.7379 39.4605 37.7333 39.3735 37.7267C39.203 37.7041 39.0177 37.7173 38.8458 37.6953C38.6648 37.7019 38.4916 37.6793 38.3123 37.685C38.1358 37.6714 37.9576 37.6857 37.7806 37.6731C37.6036 37.6854 37.4252 37.6696 37.2483 37.6828C37.0688 37.6764 36.8956 37.6997 36.7141 37.6924C36.5418 37.7142 36.3562 37.7006 36.1857 37.7234C36.0987 37.73 36.011 37.7349 35.9221 37.7359C35.8362 37.7432 35.7546 37.7564 35.6696 37.7617C35.4941 37.7715 35.348 37.7884 35.2015 37.8014C35.1246 37.8075 35.0526 37.8132 34.9859 37.8181C34.9149 37.8313 34.8501 37.8458 34.7884 37.8541C34.6688 37.8758 34.5642 37.8807 34.4977 37.8895C34.4291 37.8961 34.3892 37.8961 34.3892 37.8961Z" fill="#666666"/>
<path d="M58.0426 54.7159C59.1588 54.7159 60.0637 53.7913 60.0637 52.6508C60.0637 51.5103 59.1588 50.5858 58.0426 50.5858C56.9264 50.5858 56.0215 51.5103 56.0215 52.6508C56.0215 53.7913 56.9264 54.7159 58.0426 54.7159Z" fill="#F76B4F"/>
<path d="M89.5263 69.8954L92.0002 77.7476L91.0094 80.5804L89.8208 80.3379V80.3359L86.4667 79.6509L81.6078 78.6587L81.0777 75.44L80.7178 73.2699C78.3545 72.6031 71.7968 72.6031 69.4336 73.2699L69.0757 75.442L68.5416 78.6587L63.6847 79.6509L60.3306 80.3359L59.1402 80.5804L58.1514 77.7476L60.6253 69.8954L63.5997 69.1075C63.6827 69.0852 63.7657 69.063 63.8489 69.0428C72.2973 66.8586 77.8563 66.8586 86.3027 69.0428C86.3857 69.063 86.4687 69.0852 86.5519 69.1075L89.5263 69.8954Z" fill="#5D9EBA"/>
<path d="M58.1514 77.748L69.0757 75.4424L68.5418 78.6591L59.1402 80.5808L58.1514 77.748Z" fill="#4D808C"/>
<path d="M81.608 78.6587L81.0781 75.4399L92.0004 77.7475L91.0096 80.5804L81.608 78.6587Z" fill="#4D808C"/>
</g>
<defs>
<clipPath id="clip0">
<rect width="92" height="94" fill="white"/>
</clipPath>
</defs>
</svg>
