<svg width="91" height="91" viewBox="0 0 91 91" fill="none" xmlns="http://www.w3.org/2000/svg">
<path d="M31.0081 83.6398H1.08827C0.486992 83.6398 0 83.1525 0 82.5516V60.6949H31.0081V83.6398Z" fill="#508DA3"/>
<path d="M31.0081 82.3477H1.08827C0.486992 82.3477 0 81.8604 0 81.2595V59.4027H31.0081V82.3477Z" fill="#5D9EBA"/>
<path d="M31.9256 71.196H1.37256V80.8451H31.9256V71.196Z" fill="#E0C8A2"/>
<path d="M24.7286 55.0952C22.4949 55.0952 20.6854 56.9067 20.6854 59.1385C20.6854 57.535 19.751 56.1479 18.3944 55.4951C17.864 55.2381 17.2704 55.0952 16.6421 55.0952H1.37256V75.5176H15.3588C16.4869 75.5176 17.5334 75.8684 18.3944 76.4683C19.7794 77.4291 20.6854 79.0305 20.6854 80.8441C20.6854 77.9024 23.0702 75.5176 26.0119 75.5176H39.9981V73.5204V55.0954L24.7286 55.0952Z" fill="#FCE8CA"/>
<path d="M36.8138 59.4027H26.5791V61.6468H36.8138V59.4027Z" fill="#4D4D4D"/>
<path d="M36.8138 69.3946H26.5791V71.6387H36.8138V69.3946Z" fill="#4D4D4D"/>
<path d="M36.8138 64.3987H26.5791V66.6427H36.8138V64.3987Z" fill="#4D4D4D"/>
<path d="M15.5979 59.4027H5.36328V61.6468H15.5979V59.4027Z" fill="#4D4D4D"/>
<path d="M15.5979 69.3946H5.36328V71.6387H15.5979V69.3946Z" fill="#4D4D4D"/>
<path d="M15.5979 64.3987H5.36328V66.6427H15.5979V64.3987Z" fill="#4D4D4D"/>
<path d="M20.685 59.1385V80.8441C20.685 79.0305 19.7793 77.4291 18.394 76.4683V55.4951C19.7507 56.1479 20.685 57.5351 20.685 59.1385Z" fill="#EDD9BE"/>
<path d="M20.6855 59.1385V80.8441C20.6855 79.0305 21.5913 77.4291 22.9765 76.4683V55.4951C21.6197 56.1479 20.6855 57.5351 20.6855 59.1385Z" fill="#EDD9BE"/>
<path d="M59.8157 58.3626H40.5766C33.6087 58.3626 27.96 64.0112 27.96 70.9793V89.4987H72.4319V70.9793C72.4321 64.0112 66.7835 58.3626 59.8157 58.3626Z" fill="#F9C573"/>
<path d="M59.073 52.0845V63.4179C59.073 68.3202 55.0979 72.2952 50.1957 72.2952C45.2916 72.2952 41.3184 68.3202 41.3184 63.4179V52.0845H59.073Z" fill="#E0B394"/>
<path d="M50.1957 73.3152C44.7383 73.3152 40.2983 68.8753 40.2983 63.4178V52.0843C40.2983 51.5211 40.7551 51.0643 41.3184 51.0643H59.0729C59.6362 51.0643 60.093 51.5211 60.093 52.0843V63.4178C60.0928 68.8753 55.653 73.3152 50.1957 73.3152ZM42.3384 53.1044V63.4178C42.3384 67.7504 45.863 71.2752 50.1957 71.2752C54.5283 71.2752 58.0529 67.7506 58.0529 63.4178V53.1044H42.3384Z" fill="#E2AF66"/>
<path d="M28.69 41.1187C26.1605 41.0065 24.147 38.9196 24.147 36.3634C24.147 33.7359 26.2768 31.604 28.9063 31.604C29.1429 31.604 29.3756 31.6204 29.604 31.655L28.69 41.1187Z" fill="#E0B394"/>
<path d="M71.6979 41.1187C74.2274 41.0065 76.2431 38.9196 76.2431 36.3634C76.2431 33.7359 74.1114 31.604 71.4818 31.604C71.2452 31.604 71.0106 31.6223 70.7842 31.655L71.6979 41.1187Z" fill="#E0B394"/>
<path d="M48.3502 58.3626H40.5766C33.6087 58.3626 27.96 64.0112 27.96 70.9793V89.4987H35.7335V70.9793C35.7335 64.0112 41.3821 58.3626 48.3502 58.3626Z" fill="#E2AF66"/>
<path d="M69.7731 50.7938C69.3713 51.4977 68.9122 52.1709 68.4001 52.8052C67.5556 53.8517 66.5702 54.7962 65.4544 55.6062L64.5099 56.2917L62.7983 57.536L58.6407 60.5573L57.0801 61.6916C56.9985 61.7508 56.9169 61.8078 56.8332 61.8651C55.0114 63.1197 52.9205 63.801 50.8071 63.9112C50.1257 63.948 49.4444 63.9234 48.7671 63.8397C46.8392 63.6051 44.9563 62.889 43.3101 61.6916L42.8491 61.3571L41.0436 60.0454L36.9515 57.0711L35.2399 55.8267L34.936 55.6063C33.5834 54.6231 32.4207 53.4438 31.4721 52.124C30.9682 51.4223 30.5235 50.6797 30.146 49.9044C28.9077 47.3788 28.363 44.523 28.6426 41.6302L30.095 26.5994C31.0946 16.2485 39.7952 8.34944 50.1952 8.34944C55.3951 8.34944 60.1687 10.3242 63.7693 13.5922C67.3698 16.8602 69.7934 21.4238 70.2953 26.5994L71.7478 41.6302C72.06 44.8676 71.3399 48.0624 69.7731 50.7938Z" fill="#F7CBA4"/>
<path d="M33.8546 44.5927C33.7139 46.9734 34.4891 49.3152 36.0232 51.1411L44.7753 61.896C45.2323 62.4407 45.7504 62.8977 46.3115 63.2628C45.2588 62.8956 44.2469 62.3693 43.3106 61.69L34.9365 55.6067C30.5118 52.3916 28.1188 47.0754 28.6451 41.6305L30.0956 26.5997C31.087 16.3487 39.6264 8.5028 49.8937 8.35386C43.5698 8.50689 36.4087 14.4677 36.0354 20.8162L33.8546 44.5927Z" fill="#E8BA97"/>
<path d="M52.5414 37.9157V45.1577C52.5414 46.4534 51.491 47.5036 50.1955 47.5036C48.8998 47.5036 47.8496 46.4532 47.8496 45.1577V37.9157H52.5414Z" fill="#E0B394"/>
<path d="M40.9099 43.0254C44.1264 43.0254 46.7339 40.4179 46.7339 37.2014C46.7339 33.9849 44.1264 31.3774 40.9099 31.3774C37.6934 31.3774 35.0859 33.9849 35.0859 37.2014C35.0859 40.4179 37.6934 43.0254 40.9099 43.0254Z" fill="#C0E7F9"/>
<path d="M59.1375 43.0254C62.354 43.0254 64.9615 40.4179 64.9615 37.2014C64.9615 33.9849 62.354 31.3774 59.1375 31.3774C55.921 31.3774 53.3135 33.9849 53.3135 37.2014C53.3135 40.4179 55.921 43.0254 59.1375 43.0254Z" fill="#C0E7F9"/>
<path d="M60.6492 38.1199H57.625C57.1181 38.1199 56.707 37.7088 56.707 37.2019C56.707 36.695 57.1181 36.2839 57.625 36.2839H60.6492C61.1561 36.2839 61.5672 36.695 61.5672 37.2019C61.5672 37.709 61.1563 38.1199 60.6492 38.1199Z" fill="#9DC4D1"/>
<path d="M42.4226 38.1199H39.3985C38.8916 38.1199 38.4805 37.7088 38.4805 37.2019C38.4805 36.695 38.8916 36.2839 39.3985 36.2839H42.4226C42.9295 36.2839 43.3406 36.695 43.3406 37.2019C43.3406 37.709 42.9297 38.1199 42.4226 38.1199Z" fill="#9DC4D1"/>
<path d="M71.9171 33.6403C71.6502 33.1444 71.0318 32.9589 70.5354 33.2258L65.8271 35.7614C65.1634 32.6774 62.4165 30.3581 59.1372 30.3581C55.7099 30.3581 52.8635 32.8903 52.3694 36.1821H47.6783C47.1842 32.8903 44.3377 30.3581 40.9105 30.3581C37.6894 30.3581 34.9825 32.5956 34.2582 35.5977L29.8543 33.2262C29.3583 32.9589 28.7398 33.1448 28.4726 33.6407C28.2057 34.1366 28.3912 34.7551 28.8871 35.0224L34.0963 37.8276C34.4134 41.3092 37.3476 44.0463 40.9105 44.0463C44.3377 44.0463 47.1842 41.5141 47.6783 38.2223H52.3694C52.8635 41.5141 55.7099 44.0463 59.1372 44.0463C62.6328 44.0463 65.523 41.4112 65.9302 38.0234L71.5028 35.0226C71.9985 34.7551 72.1843 34.1366 71.9171 33.6403ZM40.9107 42.0059C38.2617 42.0059 36.1067 39.8509 36.1067 37.2019C36.1067 34.553 38.2617 32.398 40.9107 32.398C43.5596 32.398 45.7147 34.553 45.7147 37.2019C45.7147 39.8509 43.5593 42.0059 40.9107 42.0059ZM59.137 42.0059C56.488 42.0059 54.333 39.8509 54.333 37.2019C54.333 34.553 56.488 32.398 59.137 32.398C61.7859 32.398 63.941 34.553 63.941 37.2019C63.941 39.8509 61.7859 42.0059 59.137 42.0059Z" fill="#808080"/>
<path d="M79.571 28.2253C79.571 28.2253 72.431 27.4093 70.7664 31.6035C66.4517 31.6035 65.4949 22.1052 65.4949 22.1052C62.027 25.5731 63.4549 28.4291 63.4549 28.4291C56.2252 28.4291 49.9848 20.7199 49.791 20.4793C49.7891 20.4773 49.7891 20.4752 49.7869 20.4732C49.7869 25.5733 52.4389 28.6332 52.4389 28.6332C44.8909 28.6332 39.791 21.6971 39.791 21.6971L37.8754 23.7147L35.915 25.7772C34.079 30.0611 29.8581 30.3734 29.8581 30.3734C26.5697 31.3118 21.0229 26.1852 21.0229 26.1852C32.345 24.4513 33.7322 16.8462 33.7322 16.8462C30.1683 15.2795 25.6252 18.3537 25.5131 18.4312C31.021 9.04934 40.8131 10.6589 40.8131 10.6589C40.8131 6.55644 34.6911 3.94925 34.6911 3.94925C44.8911 2.31729 50.195 8.3496 50.195 8.3496C50.195 8.3496 49.7869 4.15329 54.479 1.50132C54.479 1.50132 54.0465 5.24885 56.3027 9.29213C56.3027 9.29213 59.375 4.72862 68.3509 7.00931C68.3509 7.00931 64.0119 8.59025 64.0119 13.8167C64.0119 13.8167 70.7991 14.1493 76.5111 19.8613C76.5111 19.8613 71.1193 20.4325 69.8873 24.0739C69.8871 24.0739 75.6949 24.3494 79.571 28.2253Z" fill="#EA8249"/>
<path d="M39.7908 21.6973L37.2103 25.7774C33.4021 31.0033 29.8581 30.3736 29.8581 30.3736C26.5697 31.312 21.0229 26.1854 21.0229 26.1854C32.345 24.4515 32.0425 16.8464 32.0425 16.8464C28.4786 15.2797 25.6252 18.3539 25.5131 18.4314C31.021 9.04953 40.8131 10.6591 40.8131 10.6591C40.8131 10.6591 45.2686 11.5894 47.4105 13.7314C47.4105 13.7314 47.3618 13.7337 47.2718 13.7403C43.4706 14.0247 40.4004 16.9584 39.9143 20.7389L39.7908 21.6973Z" fill="#D36F3D"/>
<path d="M51.6231 53.318H48.7671C48.2038 53.318 47.7471 52.8612 47.7471 52.298C47.7471 51.7347 48.2038 51.278 48.7671 51.278H51.6231C52.1863 51.278 52.6431 51.7347 52.6431 52.298C52.6431 52.8612 52.1867 53.318 51.6231 53.318Z" fill="#C49270"/>
<path d="M35.239 84.5864C36.0276 84.5864 36.6669 83.9471 36.6669 83.1585C36.6669 82.3699 36.0276 81.7306 35.239 81.7306C34.4503 81.7306 33.811 82.3699 33.811 83.1585C33.811 83.9471 34.4503 84.5864 35.239 84.5864Z" fill="#5D9EBA"/>
<path d="M40.1349 87.5118C40.9236 87.5118 41.5629 86.8725 41.5629 86.0838C41.5629 85.2952 40.9236 84.6559 40.1349 84.6559C39.3463 84.6559 38.707 85.2952 38.707 86.0838C38.707 86.8725 39.3463 87.5118 40.1349 87.5118Z" fill="#5D9EBA"/>
<path d="M41.0246 82.3363C41.8132 82.3363 42.4525 81.697 42.4525 80.9084C42.4525 80.1198 41.8132 79.4805 41.0246 79.4805C40.236 79.4805 39.5967 80.1198 39.5967 80.9084C39.5967 81.697 40.236 82.3363 41.0246 82.3363Z" fill="#5D9EBA"/>
<path d="M63.3112 74.9842C64.0998 74.9842 64.7391 74.3449 64.7391 73.5562C64.7391 72.7676 64.0998 72.1283 63.3112 72.1283C62.5226 72.1283 61.8833 72.7676 61.8833 73.5562C61.8833 74.3449 62.5226 74.9842 63.3112 74.9842Z" fill="#5D9EBA"/>
<path d="M63.4556 28.4293C56.2259 28.4293 49.9854 20.7201 49.7917 20.4794C48.5005 17.2991 52.307 17.8111 52.307 17.8111C53.6677 24.2024 63.4556 28.4293 63.4556 28.4293Z" fill="#D36F3D"/>
<path d="M52.4393 28.6334C44.8913 28.6334 39.7913 21.6973 39.7913 21.6973L37.8757 23.7149L36.0356 20.8161C36.0356 20.8161 36.8006 10.7222 39.93 17.8111C43.0613 24.9002 52.4393 28.6334 52.4393 28.6334Z" fill="#D36F3D"/>
</svg>
