<svg width="91" height="91" viewBox="0 0 91 91" fill="none" xmlns="http://www.w3.org/2000/svg">
<g clip-path="url(#clip0)">
<path d="M66.8671 69.9925V88.3441H22.7974V69.9925C22.7974 63.0868 28.3951 57.4893 35.3006 57.4893H54.3658C61.2694 57.4891 66.8671 63.0868 66.8671 69.9925Z" fill="#508DA3"/>
<path d="M9.59421 46.3176C9.09194 46.3176 8.68457 45.9102 8.68457 45.4079V39.2928C8.68457 38.7905 9.09194 38.3831 9.59421 38.3831C10.0965 38.3831 10.5039 38.7905 10.5039 39.2928V45.4079C10.504 45.9105 10.0967 46.3176 9.59421 46.3176Z" fill="#4D4D4D"/>
<path d="M14.1551 27.9217C15.5227 27.9217 16.6315 26.813 16.6315 25.4453C16.6315 24.0777 15.5227 22.969 14.1551 22.969C12.7874 22.969 11.6787 24.0777 11.6787 25.4453C11.6787 26.813 12.7874 27.9217 14.1551 27.9217Z" fill="#C0E7F9"/>
<path d="M77.7332 19.5827C79.1009 19.5827 80.2096 18.474 80.2096 17.1064C80.2096 15.7387 79.1009 14.63 77.7332 14.63C76.3655 14.63 75.2568 15.7387 75.2568 17.1064C75.2568 18.474 76.3655 19.5827 77.7332 19.5827Z" fill="#C0E7F9"/>
<path d="M72.1675 11.6626C73.1548 11.6626 73.9552 10.8622 73.9552 9.8749C73.9552 8.88761 73.1548 8.08725 72.1675 8.08725C71.1802 8.08725 70.3799 8.88761 70.3799 9.8749C70.3799 10.8622 71.1802 11.6626 72.1675 11.6626Z" fill="#C0E7F9"/>
<path d="M7.81353 23.4871C8.80082 23.4871 9.60118 22.6867 9.60118 21.6994C9.60118 20.7121 8.80082 19.9117 7.81353 19.9117C6.82624 19.9117 6.02588 20.7121 6.02588 21.6994C6.02588 22.6867 6.82624 23.4871 7.81353 23.4871Z" fill="#C0E7F9"/>
<path d="M15.0649 16.1967C17.27 16.1967 19.0575 14.4092 19.0575 12.2041C19.0575 9.99905 17.27 8.21149 15.0649 8.21149C12.8598 8.21149 11.0723 9.99905 11.0723 12.2041C11.0723 14.4092 12.8598 16.1967 15.0649 16.1967Z" fill="#C0E7F9"/>
<path d="M72.9799 68.3536C72.5535 70.6272 72.2496 72.9228 72.0835 75.2302C71.93 77.3678 71.853 79.5096 71.853 81.6528C71.853 82.9554 73.126 84.0115 74.6961 84.0115C75.9726 84.0115 77.2297 83.7527 78.3579 83.2574C80.3137 82.3991 82.5395 82.3991 84.4955 83.2574C85.6237 83.7527 86.8808 84.0115 88.1573 84.0115C89.7274 84.0115 91.0004 82.9554 91.0004 81.6528C91.0004 75.1583 90.2939 68.6771 88.8894 62.2881L87.8434 57.5294C86.8762 53.1285 86.1921 48.6877 85.7943 44.2263L85.2494 38.1121C85.1013 36.4514 83.434 35.1667 81.4269 35.1667C79.4197 35.1667 77.7522 36.4514 77.6043 38.1121L77.0594 44.2263C76.6618 48.6877 75.9777 53.1285 75.0103 57.5294L72.9799 68.3536Z" fill="#508DA3"/>
<path d="M23.7227 40.4013C21.216 40.2901 19.2207 38.2221 19.2207 35.6891C19.2207 33.0853 21.3311 30.9727 23.9371 30.9727C24.1715 30.9727 24.402 30.9889 24.6285 31.0232" fill="#E0B394"/>
<path d="M65.937 40.4013C68.4438 40.2901 70.441 38.2221 70.441 35.6891C70.441 33.0853 68.3284 30.9727 65.7226 30.9727C65.4882 30.9727 65.2557 30.9908 65.0312 31.0232" fill="#E0B394"/>
<path d="M44.8323 64.691C49.8193 64.691 53.862 60.6483 53.862 55.6614C53.862 50.6745 49.8193 46.6318 44.8323 46.6318C39.8454 46.6318 35.8027 50.6745 35.8027 55.6614C35.8027 60.6483 39.8454 64.691 44.8323 64.691Z" fill="#447E8E"/>
<path d="M43.0033 57.4894H35.2999C28.3951 57.4894 22.7974 63.0868 22.7974 69.9919V88.3437H30.5007V69.9917C30.5009 63.0869 36.0983 57.4894 43.0033 57.4894Z" fill="#447E8E"/>
<path d="M59.9529 54.758L51.6544 60.7884C47.585 63.7439 42.0763 63.7439 38.0089 60.7884L29.7105 54.758C25.3258 51.5721 22.9525 46.3039 23.4739 40.9084L24.9132 26.0136C25.0163 24.9401 25.2044 23.893 25.4692 22.8782C27.232 16.1079 32.4172 10.7993 38.9955 8.79609C39.9435 8.50709 40.92 8.2867 41.9206 8.14114C42.8708 8.00162 43.8432 7.92892 44.8318 7.92892C49.9846 7.92892 54.7172 9.88578 58.2832 13.1243C61.7139 16.2394 64.0688 20.5413 64.6834 25.4274C64.7097 25.6215 64.732 25.8175 64.7501 26.0136L66.1894 40.9084C66.7109 46.3039 64.3376 51.5721 59.9529 54.758Z" fill="#F7CBA4"/>
<path d="M48.3777 38.8826H41.2861V49.9123H48.3777V38.8826Z" fill="#E0B394"/>
<path d="M28.6381 43.8439C28.4986 46.2029 29.2668 48.5238 30.7871 50.3331L39.4602 60.9908C39.913 61.5306 40.4265 61.9834 40.9825 62.3453C39.9394 61.9815 38.9368 61.4598 38.0088 60.7868L29.7104 54.7585C25.3257 51.5727 22.9543 46.3044 23.476 40.9089L24.9133 26.0141C25.8958 15.8559 34.358 8.08087 44.5325 7.93335C38.2658 8.08496 31.1694 13.992 30.7995 20.283L28.6381 43.8439Z" fill="#E8BA97"/>
<path d="M45.0344 58.144C48.0489 58.144 50.4926 55.7003 50.4926 52.6858C50.4926 49.6713 48.0489 47.2276 45.0344 47.2276C42.0199 47.2276 39.5762 49.6713 39.5762 52.6858C39.5762 55.7003 42.0199 58.144 45.0344 58.144Z" fill="#F9C573"/>
<path d="M45.034 54.9556C46.2876 54.9556 47.3039 53.9394 47.3039 52.6858C47.3039 51.4322 46.2876 50.416 45.034 50.416C43.7804 50.416 42.7642 51.4322 42.7642 52.6858C42.7642 53.9394 43.7804 54.9556 45.034 54.9556Z" fill="#E2AF66"/>
<path d="M45.0339 59.1546C41.467 59.1546 38.5649 56.2527 38.5649 52.6856C38.5649 49.1187 41.4668 46.2166 45.0339 46.2166C48.6011 46.2166 51.5029 49.1185 51.5029 52.6856C51.5029 56.2527 48.6009 59.1546 45.0339 59.1546ZM45.0339 48.2382C42.5816 48.2382 40.5865 50.2332 40.5865 52.6856C40.5865 55.138 42.5816 57.1331 45.0339 57.1331C47.4863 57.1331 49.4814 55.138 49.4814 52.6856C49.4814 50.2334 47.4861 48.2382 45.0339 48.2382Z" fill="#447E8E"/>
<path d="M72.122 61.8839C72.122 64.6393 71.0485 67.2269 69.1018 69.1737C68.4347 69.8428 67.6867 70.4109 66.8659 70.8717V69.9923C66.8659 69.4141 66.8275 68.8441 66.7486 68.2861C67.0214 68.0778 67.2823 67.8474 67.5288 67.6007C69.0572 66.0745 69.898 64.0448 69.898 61.8837C69.898 57.4242 66.2714 53.7975 61.8118 53.7975H50.4912V51.5739H61.8118C67.4967 51.5741 72.122 56.1994 72.122 61.8839Z" fill="#447E8E"/>
<path d="M9.59506 45.4079C5.09464 45.4079 1.44629 49.0563 1.44629 53.5567V83.5979C1.44629 84.6122 2.26867 85.435 3.28335 85.435H15.9068C16.9211 85.435 17.7438 84.6126 17.7438 83.5979V53.5567C17.7436 49.0563 14.0955 45.4079 9.59506 45.4079Z" fill="#F9C573"/>
<path d="M9.59523 45.4083C7.88507 45.4083 6.50017 49.0552 6.50017 53.5572V85.4351H3.28335C2.26902 85.4351 1.44629 84.6128 1.44629 83.5981V53.5572C1.44647 49.0552 5.0934 45.4083 9.59523 45.4083Z" fill="#E2AF66"/>
<path d="M64.6833 25.4274C57.0903 21.0224 50.4192 20.7658 43.5338 24.0002C41.8579 24.7886 40.1497 25.2253 38.4799 25.4153V25.4173C32.4759 26.1067 26.9874 23.6383 25.4692 22.8782C27.232 16.1079 32.4172 10.7993 38.9955 8.79609C40.2631 9.04065 40.8493 9.25305 40.8493 9.25305C40.8493 9.25305 41.2131 8.78809 41.9207 8.14114C42.8709 8.00162 43.8432 7.92892 44.8318 7.92892C49.9847 7.92892 54.7172 9.88578 58.2833 13.1243C61.7137 16.2394 64.0687 20.5413 64.6833 25.4274Z" fill="#E0B394"/>
<path d="M64.7507 26.0155L65.5775 34.5748C64.8356 32.252 63.1436 30.3558 60.9582 29.339L59.3955 16.7467C60.7662 17.1267 62.6644 21.8915 64.1057 22.5506C64.417 23.6666 64.6353 24.8249 64.7507 26.0155Z" fill="#9B5F10"/>
<path d="M71.921 27.2143C61.0046 19.3302 52.514 18.3194 44.0237 22.9692C42.4004 23.8587 40.7224 24.4004 39.0668 24.6935V24.6955C32.0621 25.9448 25.4961 22.777 25.4961 22.777C22.4942 11.1431 29.4685 7.80734 33.7136 7.80734C38.3632 7.80734 40.4313 8.41591 40.4313 8.41591C40.4313 8.41591 41.157 7.35856 42.6004 6.15175C42.6165 6.13753 42.6308 6.12544 42.6448 6.11336C42.7075 6.06075 42.7539 6.02236 42.7822 6.00014C42.7964 5.98805 42.8064 5.97988 42.8104 5.97597L42.8124 5.97401H42.8144C45.5152 3.79268 50.5104 1.26992 57.7698 3.56234C69.293 7.20091 71.921 27.2143 71.921 27.2143Z" fill="#B27214"/>
<path d="M6.6132 42.2749C8.26003 42.2749 9.59505 40.9398 9.59505 39.293C9.59505 37.6462 8.26003 36.3112 6.6132 36.3112C4.96637 36.3112 3.63135 37.6462 3.63135 39.293C3.63135 40.9398 4.96637 42.2749 6.6132 42.2749Z" fill="#C0E7F9"/>
<path d="M6.61317 43.1843C4.46756 43.1843 2.72168 41.4384 2.72168 39.2928C2.72168 37.1472 4.46756 35.4013 6.61317 35.4013C8.75878 35.4013 10.5047 37.1472 10.5047 39.2928C10.5047 41.4384 8.75878 43.1843 6.61317 43.1843ZM6.61317 37.2206C5.47052 37.2206 4.54115 38.1501 4.54115 39.2926C4.54115 40.4353 5.4707 41.3647 6.61317 41.3647C7.75565 41.3647 8.6852 40.4351 8.6852 39.2926C8.6852 38.1501 7.75565 37.2206 6.61317 37.2206Z" fill="#999999"/>
<path d="M17.673 57.0321H1.51625C0.678945 57.0321 0 56.3533 0 55.5159C0 54.6786 0.678768 53.9998 1.51625 53.9998H17.6732C18.5105 53.9998 19.1894 54.6786 19.1894 55.5159C19.1893 56.3532 18.5103 57.0321 17.673 57.0321Z" fill="#E2AF66"/>
<path d="M17.673 77.854H1.51625C0.678945 77.854 0 77.1753 0 76.3378C0 75.5003 0.678768 74.8216 1.51625 74.8216H17.6732C18.5105 74.8216 19.1894 75.5003 19.1894 76.3378C19.1894 77.1753 18.5103 77.854 17.673 77.854Z" fill="#E2AF66"/>
<path d="M77.2329 42.283C79.7457 43.7385 83.1056 43.7385 85.6182 42.283H85.6202L85.794 44.2257C86.1093 47.7492 86.6006 51.2607 87.2717 54.7498C86.0021 56.8057 83.8573 58.1542 81.4253 58.1542C78.9953 58.1542 76.8506 56.8059 75.5811 54.7498C76.2522 51.2606 76.7434 47.7492 77.0587 44.2257L77.2329 42.283Z" fill="#447E8E"/>
<path d="M36.7819 66.1091C33.6081 69.1657 31.7887 73.4452 31.7887 77.8502V88.3442H28.7563V77.8502C28.7563 72.6244 30.9153 67.5503 34.6795 63.9258C35.2819 63.3435 36.2422 63.3618 36.8223 63.9663C37.4026 64.5686 37.3864 65.5289 36.7819 66.1091Z" fill="#447E8E"/>
<path d="M60.9066 77.8502V88.3441H57.8742V77.8502C57.8742 73.4452 56.0548 69.1655 52.881 66.109C52.2786 65.5289 52.2603 64.5686 52.8404 63.9663C53.4206 63.3618 54.3809 63.3437 54.9853 63.9257C58.7496 67.5483 60.9066 72.6246 60.9066 77.8502Z" fill="#447E8E"/>
<path d="M46.3478 67.9487V88.3441H43.3154V67.9486C43.3154 67.1116 43.9947 66.4323 44.8317 66.4323C45.6685 66.4325 46.3478 67.1118 46.3478 67.9487Z" fill="#447E8E"/>
<path d="M65.9914 39.8692V40.0329C65.9914 43.0186 63.5715 45.4365 60.5877 45.4365H49.8453C49.3398 45.4365 48.883 45.2323 48.5516 44.9009C48.2201 44.5694 48.0137 44.1105 48.0137 43.605C48.0137 42.7357 47.662 41.9473 47.0918 41.3773C46.5218 40.8073 45.7334 40.4554 44.8641 40.4554C43.9948 40.4554 43.2064 40.8071 42.6364 41.3773C42.0664 41.9473 41.7125 42.7357 41.7125 43.605C41.7125 44.6177 40.8939 45.4365 39.881 45.4365H29.1405C26.1547 45.4365 23.7349 43.0188 23.7349 40.0329V39.2203L24.0562 35.8867C24.7517 33.4144 26.5104 31.3866 28.8088 30.3314V30.3295C29.9126 29.822 31.1437 29.5391 32.4396 29.5391H57.2884C58.5984 29.5391 59.8437 29.8302 60.9576 30.3497C63.1428 31.3666 64.8349 33.2628 65.5769 35.5856L65.9914 39.8692Z" fill="#E0B394"/>
<path d="M65.9914 38.8584V39.0221C65.9914 42.0079 63.5715 44.4258 60.5877 44.4258H49.8453C49.3398 44.4258 48.883 44.2215 48.5516 43.8901C48.2201 43.5586 48.0137 43.0997 48.0137 42.5942C48.0137 41.7249 47.662 40.9365 47.0918 40.3665C46.5218 39.7965 45.7334 39.4446 44.8641 39.4446C43.9948 39.4446 43.2064 39.7963 42.6364 40.3665C42.0664 40.9365 41.7125 41.7249 41.7125 42.5942C41.7125 43.6069 40.8939 44.4258 39.881 44.4258H29.1405C26.1547 44.4258 23.7349 42.008 23.7349 39.0221V38.2095L24.0562 34.8759C24.7517 32.4036 26.5104 30.3759 28.8088 29.3207V29.3187C29.9126 28.8113 31.1437 28.5283 32.4396 28.5283H57.2884C58.5984 28.5283 59.8437 28.8194 60.9576 29.339C63.1428 30.3558 64.8349 32.252 65.5769 34.5748L65.9914 38.8584Z" fill="#F9C573"/>
<path d="M42.6004 6.15173C41.157 7.35855 40.4313 8.41589 40.4313 8.41589C40.4313 8.41589 38.3632 7.80733 33.7137 7.80733C29.4685 7.80733 22.494 11.1429 25.4961 22.777C25.2171 23.8221 25.021 24.9057 24.9139 26.0155L24.0566 34.8759C24.7521 32.4036 26.5108 30.3759 28.8093 29.3207V29.3187L30.283 24.3558V24.3546C32.7223 24.9102 35.8472 25.2697 39.0667 24.6955V24.6935C34.9468 13.5224 41.3269 7.25955 42.6004 6.15173Z" fill="#9B5F10"/>
<path d="M58.6598 34.2332H54.4147C52.9075 34.2332 51.6855 35.455 51.6855 36.9623C51.6855 38.4695 52.9073 39.6914 54.4147 39.6914H58.6598C60.167 39.6914 61.389 38.4697 61.389 36.9623C61.3888 35.455 60.1669 34.2332 58.6598 34.2332Z" fill="#C0E7F9"/>
<path d="M38.0408 36.9623C38.0408 38.4704 36.8178 39.6914 35.3117 39.6914H31.0665C30.3126 39.6914 29.6292 39.3863 29.136 38.8929C28.6427 38.3975 28.3374 37.7163 28.3374 36.9623C28.3374 35.4543 29.5584 34.2332 31.0665 34.2332H35.3117C36.0656 34.2332 36.7471 34.5384 37.2403 35.0318C37.7356 35.5269 38.0408 36.2082 38.0408 36.9623Z" fill="#C0E7F9"/>
<path d="M38.0416 36.9623C38.0416 38.4704 36.8187 39.6914 35.3125 39.6914H32.2539L34.801 34.2332H35.3125C36.0665 34.2332 36.7479 34.5384 37.2411 35.0318C37.7365 35.5269 38.0416 36.2082 38.0416 36.9623Z" fill="#E6F6FC"/>
<path d="M61.3898 36.9623C61.3898 38.4704 60.1668 39.6914 58.6607 39.6914H55.6021L58.1492 34.2332H58.6607C59.4148 34.2332 60.0961 34.5384 60.5893 35.0318C61.0846 35.5269 61.3898 36.2082 61.3898 36.9623Z" fill="#E6F6FC"/>
<path d="M58.6609 40.5H54.4157C52.4651 40.5 50.8779 38.9128 50.8779 36.9621C50.8779 35.0115 52.4651 33.4243 54.4157 33.4243H58.6609C60.6116 33.4243 62.1987 35.0115 62.1987 36.9621C62.1985 38.9128 60.6114 40.5 58.6609 40.5ZM54.4156 35.0417C53.3566 35.0417 52.4951 35.9034 52.4951 36.9621C52.4951 38.0209 53.3568 38.8826 54.4156 38.8826H58.6607C59.7197 38.8826 60.5812 38.0209 60.5812 36.9621C60.5812 35.9034 59.7195 35.0417 58.6607 35.0417H54.4156Z" fill="#E2AF66"/>
<path d="M35.3118 40.5H31.0666C29.116 40.5 27.5288 38.9128 27.5288 36.9621C27.5288 35.0115 29.116 33.4243 31.0666 33.4243H35.3118C37.2624 33.4243 38.8496 35.0115 38.8496 36.9621C38.8494 38.9128 37.2623 40.5 35.3118 40.5ZM31.0664 35.0417C30.0075 35.0417 29.146 35.9034 29.146 36.9621C29.146 38.0209 30.0077 38.8826 31.0664 38.8826H35.3116C36.3706 38.8826 37.232 38.0209 37.232 36.9621C37.232 35.9034 36.3704 35.0417 35.3116 35.0417H31.0664Z" fill="#E2AF66"/>
<path d="M60.5873 44.9312H49.8449C49.221 44.9312 48.6345 44.6884 48.1939 44.2475C47.7515 43.8051 47.5082 43.218 47.5082 42.5942C47.5082 41.887 47.2334 41.2228 46.7343 40.7239C46.2354 40.225 45.5711 39.95 44.864 39.95C44.1568 39.95 43.4926 40.2248 42.9937 40.7239C42.4934 41.2242 42.2179 41.8886 42.2179 42.5942C42.2179 43.8828 41.1695 44.931 39.8811 44.931H29.1406C25.8813 44.931 23.2295 42.2803 23.2295 39.0221L23.232 38.161L23.5699 34.739C24.273 32.2392 25.9895 30.1652 28.3038 29.0028V28.9966L28.5981 28.8594C29.8058 28.3044 31.0983 28.0226 32.4399 28.0226H57.2887C58.6443 28.0226 59.9507 28.3113 61.1715 28.8807C63.4986 29.9633 65.2798 31.9827 66.0587 34.4207L66.0752 34.4721L66.4971 38.858V39.0217C66.4963 42.2805 63.8457 44.9312 60.5873 44.9312ZM44.8639 38.9393C45.8409 38.9393 46.759 39.3191 47.449 40.009C48.139 40.6992 48.5188 41.6172 48.5188 42.5942C48.5188 42.9479 48.6572 43.2813 48.9085 43.5328C49.1584 43.7827 49.491 43.9203 49.8449 43.9203H60.5873C63.2882 43.9203 65.4855 41.7228 65.4855 39.0221V38.8827L65.0788 34.6779C64.3773 32.5307 62.8001 30.7537 60.7442 29.7971C59.6579 29.2906 58.4952 29.0336 57.2884 29.0336H32.4397C31.2915 29.0336 30.1841 29.265 29.1457 29.7213L29.0197 29.7801C26.8403 30.7807 25.215 32.6708 24.5549 34.9701L24.2401 38.2338V39.0223C24.2401 41.7231 26.4383 43.9204 29.1404 43.9204H39.8809C40.6121 43.9204 41.207 43.3256 41.207 42.5944C41.207 41.6186 41.5877 40.7006 42.2791 40.0092C42.9687 39.3193 43.8867 38.9393 44.8639 38.9393Z" fill="#E2AF66"/>
</g>
<defs>
<clipPath id="clip0">
<rect width="91" height="91" fill="white"/>
</clipPath>
</defs>
</svg>
