<svg width="99" height="99" viewBox="0 0 99 99" fill="none" xmlns="http://www.w3.org/2000/svg">
<g clip-path="url(#clip0)">
<path d="M73.8859 86.9301V92.5851C66.6886 96.6684 58.3666 99 49.4992 99C44.2725 99 39.2376 98.1895 34.5078 96.6887C31.2147 95.6441 28.0688 94.2619 25.1133 92.5851V86.9301C25.1133 77.2788 32.5463 69.3609 42.0035 68.5973C42.5005 68.5565 43.0013 68.5361 43.5089 68.5361H55.4881C56.9043 68.5361 58.282 68.6939 59.6053 68.9968C67.7838 70.8677 73.8859 78.1882 73.8859 86.9301Z" fill="#EAA27F"/>
<path d="M73.8859 86.9301V92.5851C66.6886 96.6684 58.3665 99 49.4992 99C44.2725 99 39.2376 98.1895 34.5078 96.6887V86.9301C34.5078 76.7712 42.7452 68.5361 52.9057 68.5361H55.4881C65.65 68.5361 73.8859 76.7712 73.8859 86.9301Z" fill="#F6BA97"/>
<path d="M56.0621 61.4498V69.5044C56.0621 72.4531 54.1179 74.9456 51.4396 75.7735C50.827 75.9631 50.1737 76.0665 49.4977 76.0665C45.8737 76.0665 42.9355 73.1284 42.9355 69.5044V61.4498H56.0621Z" fill="#EAA27F"/>
<path d="M56.0622 68.9938V69.5044C56.0622 72.4531 54.118 74.9456 51.4397 75.7734C49.0235 75.0302 47.2069 72.9297 46.8716 70.3586C47.3097 70.3858 47.7508 70.3994 48.1934 70.3994C49.4351 70.3994 50.6527 70.3005 51.8385 70.1063C53.2993 69.8714 54.7109 69.4953 56.0622 68.9938Z" fill="#F6BA97"/>
<path d="M31.4951 48.25C31.4951 51.2878 29.276 53.8075 26.3696 54.2751C26.0524 54.3264 25.7253 54.3529 25.3922 54.3529C22.0205 54.3529 19.2886 51.6217 19.2886 48.25C19.2886 44.8783 22.0205 42.1463 25.3922 42.1463C25.7253 42.1463 26.0524 42.1727 26.3696 42.2249C29.276 42.6924 31.4951 45.2113 31.4951 48.25Z" fill="#F6BA97"/>
<path d="M31.4948 48.25C31.4948 51.2878 29.2757 53.8075 26.3693 54.2751C25.8413 52.3551 25.5596 50.3346 25.5596 48.25C25.5596 46.1646 25.8413 44.1441 26.3693 42.2249C29.2757 42.6924 31.4948 45.2113 31.4948 48.25Z" fill="#EAA27F"/>
<path d="M27.5731 48.25C27.5731 49.4547 26.5965 50.4313 25.3918 50.4313C24.1871 50.4313 23.2104 49.4547 23.2104 48.25C23.2104 47.0452 24.1871 46.0679 25.3918 46.0679C26.5965 46.0679 27.5731 47.0452 27.5731 48.25Z" fill="#EAA27F"/>
<path d="M67.502 48.25C67.502 51.2878 69.7211 53.8075 72.6275 54.2751C72.9455 54.3264 73.2718 54.3529 73.6056 54.3529C76.9773 54.3529 79.7085 51.6217 79.7085 48.25C79.7085 44.8783 76.9773 42.1463 73.6056 42.1463C73.2718 42.1463 72.9455 42.1727 72.6275 42.2249C69.7211 42.6924 67.502 45.2113 67.502 48.25Z" fill="#F6BA97"/>
<path d="M67.5024 48.25C67.5024 51.2878 69.7215 53.8075 72.628 54.2751C73.1559 52.3551 73.4384 50.3346 73.4384 48.25C73.4384 46.1646 73.1567 44.1441 72.628 42.2249C69.7215 42.6924 67.5024 45.2113 67.5024 48.25Z" fill="#EAA27F"/>
<path d="M72.2071 36.3591V45.0067C72.2071 56.3069 63.9523 65.681 53.143 67.4212C53.1068 67.4273 53.0683 67.4333 53.032 67.4394C51.8824 67.6229 50.7019 67.7135 49.4979 67.7135C36.9575 67.7135 26.791 57.5471 26.791 45.0067V36.3591C26.791 33.7186 27.2412 31.1807 28.0735 28.8234C31.1794 19.9855 39.6003 13.65 49.4979 13.65H49.5002C50.7019 13.65 51.8839 13.7429 53.0358 13.9249C63.8971 15.6221 72.2071 25.0204 72.2071 36.3591Z" fill="#EAA27F"/>
<path d="M75.787 48.25C75.787 49.4547 74.8104 50.4313 73.6057 50.4313C72.4009 50.4313 71.4243 49.4547 71.4243 48.25C71.4243 47.0452 72.4009 46.0679 73.6057 46.0679C74.8104 46.0679 75.787 47.0452 75.787 48.25Z" fill="#EAA27F"/>
<path d="M72.2071 36.3591V45.0067C72.2071 56.3069 63.9523 65.681 53.1431 67.4213C53.1068 67.4273 53.0683 67.4334 53.0321 67.4394C42.17 65.7422 33.8623 56.3431 33.8623 45.0067V36.3591C33.8623 25.0204 42.1722 15.6221 53.0359 13.9249C63.8972 15.6221 72.2071 25.0204 72.2071 36.3591Z" fill="#F6BA97"/>
<path d="M44.663 43.6841C44.663 45.1063 43.5096 46.2597 42.0866 46.2597C40.6636 46.2597 39.5103 45.1063 39.5103 43.6841C39.5103 42.2611 40.6636 41.1077 42.0866 41.1077C43.5096 41.1077 44.663 42.2611 44.663 43.6841Z" fill="#2F373B"/>
<path d="M59.4874 43.6841C59.4874 45.1063 58.3341 46.2597 56.9111 46.2597C55.4881 46.2597 54.3354 45.1063 54.3354 43.6841C54.3354 42.2611 55.4881 41.1077 56.9111 41.1077C58.3341 41.1077 59.4874 42.2611 59.4874 43.6841Z" fill="#2F373B"/>
<path d="M44.1372 43.2294C44.1372 43.839 43.6432 44.3329 43.0337 44.3329C42.4241 44.3329 41.9302 43.839 41.9302 43.2294C41.9302 42.6199 42.4241 42.1259 43.0337 42.1259C43.6432 42.1259 44.1372 42.6199 44.1372 43.2294Z" fill="white"/>
<path d="M59.0886 43.2294C59.0886 43.839 58.5947 44.3329 57.9851 44.3329C57.3748 44.3329 56.8809 43.839 56.8809 43.2294C56.8809 42.6199 57.3748 42.1259 57.9851 42.1259C58.5947 42.1259 59.0886 42.6199 59.0886 43.2294Z" fill="white"/>
<path d="M52.075 50.1699H46.9231C46.309 50.1699 45.812 49.6729 45.812 49.0589C45.812 48.4448 46.309 47.9478 46.9231 47.9478H52.075C52.6891 47.9478 53.1861 48.4448 53.1861 49.0589C53.1861 49.6722 52.6891 50.1699 52.075 50.1699Z" fill="#EAA27F"/>
<path d="M49.4993 56.1906C47.5974 56.1906 45.6963 55.714 43.9629 54.7608C43.4742 54.4926 43.2952 53.8778 43.5641 53.3891C43.8329 52.9004 44.447 52.7222 44.9357 52.9903C47.793 54.5613 51.2048 54.5613 54.0621 52.9903C54.5508 52.7222 55.1649 52.9004 55.4338 53.3891C55.7026 53.8778 55.5244 54.4926 55.0349 54.7608C53.3023 55.714 51.4004 56.1906 49.4993 56.1906Z" fill="#EAA27F"/>
<path d="M72.2068 22.4811H26.8029C24.4471 17.632 30.3098 6.92395 49.5037 6.92395C51.6556 6.92395 53.6398 7.05915 55.4639 7.30614C69.9099 9.25182 74.2983 18.1758 72.2068 22.4811Z" fill="#151A1C"/>
<path d="M49.5005 27.7002C49.5005 27.7002 49.4212 32.8477 59.8037 34.6038C59.8037 34.6038 52.9341 31.1686 55.3587 26.1179" fill="#EAA27F"/>
<path d="M51.521 27.7002C51.521 27.7002 51.4417 32.8477 61.8242 34.6038C61.8242 34.6038 54.9547 31.1686 57.3792 26.1179" fill="#2F373B"/>
<path d="M72.2069 22.481H38.7233C36.6318 18.1758 41.0179 9.25177 55.464 7.30609C69.91 9.25177 74.2984 18.1758 72.2069 22.481Z" fill="#2F373B"/>
<path d="M31.9226 27.0454V38.644L26.791 41.9537V36.3591C26.791 33.7186 27.2412 31.1807 28.0735 28.8234L31.9226 27.0454Z" fill="#151A1C"/>
<path d="M67.0752 27.0454V38.644L72.2068 41.9537V36.3591C72.2068 33.7186 71.7566 31.1807 70.9243 28.8234L67.0752 27.0454Z" fill="#2F373B"/>
<path d="M72.2067 22.481V32.1792C61.794 27.8657 50.459 26.6428 39.5229 28.5099C38.5267 28.6799 37.5349 28.8732 36.547 29.0961C33.2372 29.8355 29.9788 30.8635 26.8027 32.1792V22.481C29.9788 21.1661 33.2372 20.1373 36.547 19.3979C37.5349 19.1758 38.5267 18.9817 39.5229 18.8118C50.459 16.9454 61.794 18.1675 72.2067 22.481Z" fill="#FFD833"/>
<path d="M36.547 19.3979V29.0961C33.2372 29.8355 29.9788 30.8635 26.8027 32.1792V22.4811C29.9788 21.1661 33.2372 20.1373 36.547 19.3979Z" fill="#E8C018"/>
<path d="M31.6946 79.2622V95.7008C29.4558 94.8374 27.2956 93.8155 25.2291 92.6493C23.9118 91.9061 22.6308 91.1062 21.3906 90.2452V79.2622C21.3906 76.4177 23.6973 74.1102 26.5426 74.1102C27.2209 74.1102 27.8674 74.2417 28.4618 74.4803C29.1122 74.7409 29.6983 75.1307 30.1855 75.6193C31.1168 76.5529 31.6946 77.84 31.6946 79.2622Z" fill="#EAA27F"/>
<path d="M31.6945 79.2622V95.7008C29.4557 94.8375 27.2955 93.8155 25.229 92.6493V79.2622C25.229 77.0967 26.5667 75.2417 28.4617 74.4803C29.1121 74.7409 29.6982 75.1307 30.1853 75.6194C31.1166 76.5529 31.6945 77.84 31.6945 79.2622Z" fill="#F6BA97"/>
<path d="M21.3902 71.225V85.7722H15.8198C14.8961 84.9157 14.0071 84.0245 13.1528 83.1015V71.225H21.3902Z" fill="#2F373B"/>
<path d="M21.3902 80.6747V85.7723H15.8198C14.8961 84.9157 14.0071 84.0245 13.1528 83.1015V80.6747H21.3902Z" fill="#151A1C"/>
<path d="M64.4916 70.3647V96.6842C64.2106 96.7756 63.9281 96.8625 63.6426 96.9471C62.3843 97.3232 61.1033 97.6503 59.8041 97.9229C59.2346 98.0438 58.6628 98.1556 58.0865 98.2545C58.0019 98.2681 57.9189 98.2847 57.8343 98.2968C55.1227 98.7591 52.3386 99 49.5002 99C46.6617 99 43.8777 98.7591 41.1661 98.2991C41.0807 98.2847 40.9984 98.2704 40.9131 98.256C40.7454 98.2281 40.5762 98.1979 40.4085 98.1654C40.0709 98.105 39.7333 98.0377 39.3979 97.9675C39.3314 97.9531 39.2627 97.9388 39.1962 97.9252C37.604 97.5876 36.0421 97.1752 34.5088 96.6888V70.3647L39.1962 68.3442L39.7997 77.6353C40.1419 82.9021 44.5136 86.9989 49.7917 86.9989C55.3214 86.9989 59.8041 82.5154 59.8041 76.9857V68.3442L64.4916 70.3647Z" fill="#FFD833"/>
<path d="M31.7632 71.225H39.9998V85.7715H31.7632V71.225Z" fill="#2F373B"/>
<path d="M31.7632 80.6754H39.9998V85.7715H31.7632V80.6754Z" fill="#151A1C"/>
</g>
<defs>
<clipPath id="clip0">
<rect width="99" height="99" fill="white"/>
</clipPath>
</defs>
</svg>
