<svg width="93" height="94" viewBox="0 0 93 94" fill="none" xmlns="http://www.w3.org/2000/svg">
<path d="M93 20.0099H0V82.823H93V20.0099Z" fill="#90BC42"/>
<path d="M86.576 26.3789H6.42432V75.1359H86.576V26.3789Z" fill="#666666"/>
<path d="M79.2259 24.407C80.859 23.3458 81.942 21.4941 81.942 19.3857C81.942 16.0902 79.2989 13.4189 76.0387 13.4189C75.9963 13.4189 75.9544 13.4213 75.9121 13.4222C75.6051 10.4184 73.0935 8.07556 70.0405 8.07556C66.7801 8.07556 64.1372 10.747 64.1372 14.0424C64.1372 17.3377 65.8399 26.5756 65.8399 28.684C65.8399 31.9795 71.8513 34.6508 75.1114 34.6508C78.3718 34.6508 81.0147 31.9793 81.0147 28.684C81.0145 27.0063 80.3287 25.4911 79.2259 24.407Z" fill="#E6E6E6"/>
<path d="M13.6731 24.407C12.04 23.3458 10.957 21.4941 10.957 19.3857C10.957 16.0902 13.6001 13.4189 16.8604 13.4189C16.9027 13.4189 16.9446 13.4213 16.987 13.4222C17.2939 10.4184 19.8055 8.07556 22.8585 8.07556C26.1189 8.07556 28.7618 10.747 28.7618 14.0424C28.7618 17.3377 27.0591 26.5756 27.0591 28.684C27.0591 31.9795 21.0477 34.6508 17.7876 34.6508C14.5272 34.6508 11.8843 31.9793 11.8843 28.684C11.8841 27.0063 12.5704 25.4911 13.6731 24.407Z" fill="#CCCCCC"/>
<path d="M56.7468 57.1619H36.2544C28.8326 57.1619 22.8159 63.2431 22.8159 70.7449V90.6828H70.1851V70.7449C70.1851 63.2433 64.1686 57.1619 56.7468 57.1619Z" fill="#999999"/>
<path d="M44.5345 57.1619H36.2544C28.8326 57.1619 22.8159 63.2431 22.8159 70.7449V90.6828H31.096V70.7449C31.096 63.2433 37.1125 57.1619 44.5345 57.1619Z" fill="#808080"/>
<path d="M23.9187 38.5986C21.2242 38.4778 19.0796 36.2309 19.0796 33.479C19.0796 30.6502 21.3481 28.3551 24.149 28.3551C24.4011 28.3551 24.6487 28.3728 24.8921 28.41" fill="#E0B394"/>
<path d="M69.076 38.5986C71.7704 38.4778 73.9172 36.2309 73.9172 33.479C73.9172 30.6502 71.6465 28.3551 68.8456 28.3551C68.5935 28.3551 68.3438 28.375 68.1025 28.41" fill="#E0B394"/>
<path d="M59.9719 52.0374V66.7896L54.1051 67.4485L55.8434 73.3784L46.5007 85.0184L37.1578 73.3784L38.8961 67.4485L33.0293 66.7896V52.0374H59.9719Z" fill="#666666"/>
<path d="M53.2355 57.8208L46.5001 77.3675L39.7646 57.8208H53.2355Z" fill="#CCCCCC"/>
<path d="M39.1656 60.7444L30.2461 54.1943C25.5327 50.733 22.9829 45.0091 23.5432 39.1475L25.0903 22.9659C26.1558 11.821 35.4218 3.3168 46.4993 3.3168C57.577 3.3168 66.8429 11.8209 67.9084 22.9659L69.4554 39.1475C70.0158 45.0091 67.4661 50.7328 62.7525 54.1943L53.8331 60.7444C49.4601 63.9554 43.5384 63.9554 39.1656 60.7444Z" fill="#F7CBA4"/>
<path d="M29.0939 42.3364C28.944 44.8993 29.7696 47.4206 31.4036 49.3864L40.726 60.9651C41.2128 61.5515 41.7646 62.0435 42.3622 62.4366C41.2409 62.0413 40.1632 61.4745 39.1659 60.7433L30.246 54.1939C25.533 50.7327 22.9842 45.0091 23.5448 39.1473L25.0896 22.9652C26.1457 11.929 35.2413 3.48224 46.1775 3.32178C39.4416 3.48646 31.8141 9.90398 31.4163 16.7388L29.0939 42.3364Z" fill="#E8BA97"/>
<path d="M65.298 81.5052H55.0854V85.8976H65.298V81.5052Z" fill="#666666"/>
<path d="M56.7626 15.899C56.6138 15.899 56.4629 15.8603 56.3252 15.7791C50.907 12.582 42.0925 12.582 36.6753 15.7791C36.2608 16.0239 35.7284 15.8823 35.4864 15.4634C35.2443 15.0444 35.3842 14.5065 35.7989 14.2617C41.6991 10.7795 51.3008 10.7793 57.2014 14.2617C57.6159 14.5065 57.756 15.0442 57.5138 15.4634C57.3525 15.743 57.0615 15.8988 56.7626 15.899Z" fill="#E0B394"/>
<path d="M39.7626 20.049C39.3906 20.049 39.0463 19.8059 38.9319 19.4275C38.7913 18.9636 39.0493 18.4723 39.5081 18.3302C43.8838 16.9753 49.1101 16.9747 53.489 18.328C53.948 18.4699 54.2062 18.961 54.0658 19.4249C53.9254 19.8889 53.4399 20.1501 52.9805 20.0082C48.9209 18.7535 44.0749 18.7541 40.0174 20.0104C39.9324 20.0363 39.8468 20.049 39.7626 20.049Z" fill="#E0B394"/>
<path d="M48.7818 60.091L46.5002 68.4728L44.2186 60.091C43.8721 58.8174 44.6124 57.5008 45.8725 57.1503C47.1325 56.8 48.4351 57.5484 48.7818 58.822C48.8982 59.2497 48.8892 59.6918 48.7818 60.091Z" fill="white"/>
<path d="M19.123 43.3994H12.387C11.4868 43.3994 10.7573 42.6619 10.7573 41.7522C10.7573 40.8424 11.4868 40.1049 12.387 40.1049H19.123C20.0232 40.1049 20.7526 40.8424 20.7526 41.7522C20.7526 42.6619 20.0232 43.3994 19.123 43.3994Z" fill="#CCCCCC"/>
<path d="M19.123 50.4273H12.387C11.4868 50.4273 10.7573 49.6898 10.7573 48.7801C10.7573 47.8704 11.4868 47.1329 12.387 47.1329H19.123C20.0232 47.1329 20.7526 47.8704 20.7526 48.7801C20.7526 49.6898 20.0232 50.4273 19.123 50.4273Z" fill="#CCCCCC"/>
<path d="M22.1651 57.4555H12.387C11.4868 57.4555 10.7573 56.718 10.7573 55.8083C10.7573 54.8986 11.4868 54.1611 12.387 54.1611H22.1651C23.0653 54.1611 23.7948 54.8986 23.7948 55.8083C23.7948 56.718 23.0653 57.4555 22.1651 57.4555Z" fill="#CCCCCC"/>
<path d="M79.5292 57.4555H71.055C70.1548 57.4555 69.4253 56.718 69.4253 55.8083C69.4253 54.8986 70.1548 54.1611 71.055 54.1611H79.5292C80.4294 54.1611 81.1589 54.8986 81.1589 55.8083C81.1589 56.718 80.4294 57.4555 79.5292 57.4555Z" fill="#CCCCCC"/>
<path d="M47.8038 77.3673H45.1963V90.6832H47.8038V77.3673Z" fill="#666666"/>
<path d="M55.0061 46.5827C55.0061 46.5827 54.8823 46.8902 54.6216 47.3756C54.5586 47.5009 54.4847 47.6327 54.4022 47.7753C54.3045 47.916 54.1915 48.0586 54.0698 48.2189C53.9481 48.3792 53.8089 48.5418 53.6613 48.7218C53.6091 48.7899 53.5527 48.847 53.4918 48.9063C53.47 48.9283 53.4462 48.9501 53.4222 48.9722C53.3374 49.0513 53.2506 49.1347 53.1616 49.2182C52.9834 49.3873 52.7899 49.5542 52.588 49.7299C52.3751 49.8879 52.1469 50.0374 51.9123 50.1999C51.7949 50.2812 51.6732 50.3601 51.5493 50.4393C51.4255 50.514 51.2929 50.5755 51.1583 50.6436C50.8932 50.7798 50.6172 50.9115 50.3325 51.0433C49.7458 51.2454 49.1353 51.4826 48.4834 51.5814C47.8402 51.7329 47.1689 51.7571 46.4995 51.79C45.8304 51.7571 45.1588 51.7351 44.5157 51.5836C43.8638 51.4848 43.2533 51.2476 42.6666 51.0455C42.3819 50.9159 42.106 50.7841 41.8386 50.648C41.706 50.5799 41.5736 50.5184 41.4476 50.4437C41.3259 50.3623 41.2042 50.2856 41.0868 50.2043C40.8521 50.0418 40.6218 49.8901 40.4089 49.7343C40.2068 49.5586 40.0157 49.3895 39.8353 49.2226C39.7463 49.1369 39.6615 49.0557 39.5767 48.9744C39.5463 48.9457 39.5158 48.9173 39.4855 48.8886C39.4333 48.8359 39.3834 48.7855 39.34 48.7262C39.1987 48.5527 39.0619 48.3924 38.9424 48.2341C38.825 48.0738 38.7099 47.9332 38.6143 47.7928C38.5273 47.6435 38.447 47.5073 38.3797 47.3821C38.1081 46.8814 37.9951 46.5827 37.9951 46.5827C37.9951 46.5827 38.3166 46.6815 38.8121 46.8836C38.9382 46.9319 39.0686 46.9912 39.2141 47.0505C39.3683 47.0966 39.5271 47.1559 39.6965 47.213C39.8682 47.2701 40.0398 47.3404 40.2224 47.4063C40.4028 47.4766 40.6069 47.5227 40.8091 47.5842C41.0113 47.6435 41.2132 47.716 41.4239 47.7797C41.6434 47.828 41.8628 47.8851 42.0889 47.94C42.2019 47.9664 42.3127 47.9993 42.4257 48.03C42.5409 48.0564 42.6604 48.0716 42.7777 48.0959C43.0146 48.1376 43.2514 48.1858 43.4883 48.2409C43.9816 48.287 44.4683 48.3968 44.9767 48.4166C45.4785 48.4825 45.9915 48.4649 46.4999 48.4957C47.0105 48.4651 47.5233 48.4847 48.0253 48.4188C48.5337 48.4012 49.0205 48.2892 49.5137 48.2431C49.7505 48.1904 49.9874 48.1421 50.2243 48.1003C50.3416 48.0761 50.4611 48.0608 50.5763 48.0344C50.6893 48.0015 50.8022 47.9707 50.913 47.9444C51.139 47.8895 51.3584 47.8302 51.578 47.7841C51.7909 47.7204 51.9931 47.6479 52.1951 47.5886C52.3951 47.5271 52.6036 47.4788 52.7774 47.4107C52.9556 47.3492 53.1229 47.2811 53.2924 47.2284C53.4596 47.1713 53.616 47.1142 53.7704 47.0681C53.9225 47.0022 54.0573 46.9385 54.1855 46.888C54.691 46.6749 55.0061 46.5827 55.0061 46.5827Z" fill="#F2F2F2"/>
<path d="M53.4907 48.9063C53.4689 48.9283 53.4451 48.9501 53.4211 48.9722C53.3363 49.0513 53.2495 49.1347 53.1605 49.2182C52.9823 49.3873 52.7888 49.5542 52.5868 49.7299C52.374 49.8879 52.1458 50.0374 51.9111 50.1999C51.7938 50.2812 51.6721 50.3601 51.5482 50.4393C51.4243 50.514 51.2917 50.5755 51.1572 50.6436C50.8921 50.7798 50.616 50.9115 50.3314 51.0433C49.7447 51.2454 49.1342 51.4826 48.4823 51.5814C47.8391 51.7329 47.1678 51.7571 46.4984 51.79C45.8293 51.7571 45.1577 51.7351 44.5146 51.5836C43.8626 51.4848 43.2521 51.2476 42.6654 51.0455C42.3808 50.9159 42.1049 50.7841 41.8375 50.648C41.7049 50.5799 41.5725 50.5184 41.4465 50.4437C41.3248 50.3623 41.2031 50.2856 41.0857 50.2043C40.851 50.0418 40.6207 49.8901 40.4078 49.7343C40.2057 49.5586 40.0146 49.3895 39.8342 49.2226C39.7452 49.1369 39.6604 49.0557 39.5756 48.9744C39.5452 48.9457 39.5147 48.9173 39.4844 48.8886C39.5539 48.9129 39.6235 48.9369 39.6951 48.9612C39.8667 49.0183 40.0384 49.0864 40.2209 49.1523C40.4013 49.2248 40.6055 49.2709 40.8076 49.3324C41.0098 49.3917 41.2118 49.462 41.4225 49.5279C41.6419 49.574 41.8613 49.6333 42.0875 49.6882C42.2004 49.7146 42.3112 49.7453 42.4242 49.7761C42.5394 49.8026 42.6589 49.8178 42.7763 49.842C43.0131 49.8837 43.25 49.9342 43.4868 49.9871C43.9802 50.0354 44.4668 50.1452 44.9752 50.1628C45.4771 50.2309 45.99 50.2111 46.4984 50.2441C47.009 50.2135 47.5218 50.2331 48.0238 50.165C48.5323 50.1474 49.0191 50.0376 49.5122 49.9915C49.7491 49.9388 49.9859 49.8883 50.2228 49.8465C50.3401 49.8222 50.4597 49.807 50.5748 49.7805C50.6878 49.7499 50.8008 49.719 50.9116 49.6928C51.1375 49.6379 51.357 49.5786 51.5766 49.5325C51.7894 49.4666 51.9916 49.3941 52.1936 49.337C52.3936 49.2755 52.6021 49.225 52.7759 49.1591C52.9541 49.0954 53.1214 49.0295 53.2909 48.9746C53.3581 48.9524 53.4255 48.9283 53.4907 48.9063Z" fill="#4D4D4D"/>
<path d="M36.8265 39.2255C35.9264 39.2255 35.1968 38.4881 35.1968 37.5783V34.9438C35.1968 34.0341 35.9264 33.2966 36.8265 33.2966C37.7265 33.2966 38.4561 34.0341 38.4561 34.9438V37.5783C38.4561 38.4881 37.7265 39.2255 36.8265 39.2255Z" fill="#4D4D4D"/>
<path d="M52.4473 28.5745C52.4473 28.5745 52.4516 28.5308 52.4662 28.4558C52.4829 28.3831 52.4998 28.2681 52.5363 28.1381C52.5526 28.0709 52.5737 28.0008 52.5978 27.9237C52.6293 27.8455 52.6718 27.7669 52.7166 27.6777C52.7611 27.5881 52.8175 27.4996 52.8765 27.4001C52.9361 27.2991 53.0071 27.2224 53.0799 27.1249C53.1538 27.0311 53.237 26.9404 53.3239 26.8429C53.4158 26.7548 53.5155 26.6681 53.6216 26.5809C53.829 26.3962 54.0826 26.2627 54.3469 26.1142C54.6202 25.9974 54.9103 25.8706 55.2211 25.812C55.5288 25.7312 55.8514 25.7121 56.1733 25.6969C56.4951 25.7118 56.8179 25.7292 57.1258 25.8096C57.4367 25.8676 57.727 25.9951 58.0006 26.1109C58.265 26.2591 58.5188 26.3925 58.7266 26.5774C58.8325 26.6648 58.9324 26.7518 59.0245 26.8394C59.1115 26.9371 59.1941 27.0287 59.2684 27.1218C59.3402 27.2189 59.4146 27.2986 59.4691 27.3957C59.5238 27.4923 59.5768 27.5789 59.6199 27.6665C59.6628 27.7544 59.7042 27.8317 59.7354 27.9096C59.7639 27.9909 59.7892 28.0643 59.8077 28.1341C59.8489 28.2687 59.8662 28.3845 59.882 28.457C59.896 28.532 59.8989 28.5745 59.8989 28.5745C59.8989 28.5745 59.8538 28.5734 59.7779 28.5659C59.704 28.5562 59.5894 28.5514 59.4626 28.5327C59.397 28.5259 59.33 28.5136 59.2564 28.5037C59.178 28.5 59.1006 28.489 59.0165 28.4824C58.8515 28.4648 58.6795 28.4387 58.4903 28.4312C58.3973 28.4249 58.3072 28.4113 58.2127 28.4034C58.1152 28.4021 58.0189 28.397 57.9234 28.3899C57.7361 28.3652 57.5325 28.3798 57.3434 28.3559C57.1445 28.363 56.9543 28.3386 56.757 28.3447C56.5632 28.33 56.3673 28.3456 56.1727 28.3317C55.9782 28.3451 55.7822 28.328 55.588 28.3421C55.3907 28.3351 55.2004 28.3605 55.0011 28.3524C54.8119 28.3761 54.6079 28.3614 54.4206 28.3862C54.3251 28.3933 54.2288 28.3987 54.1309 28.3998C54.0366 28.4077 53.9469 28.4222 53.8533 28.4279C53.6604 28.4383 53.5001 28.4569 53.3389 28.4708C53.2545 28.4774 53.1753 28.4835 53.1021 28.489C53.0242 28.5033 52.9528 28.5191 52.885 28.5281C52.7535 28.5516 52.6385 28.5571 52.5655 28.5665C52.4907 28.5745 52.4473 28.5745 52.4473 28.5745Z" fill="#666666"/>
<path d="M33.1011 28.5745C33.1011 28.5745 33.1054 28.5308 33.12 28.4558C33.1367 28.3831 33.1536 28.2681 33.1901 28.1381C33.2064 28.0709 33.2275 28.0008 33.2517 27.9237C33.2831 27.8455 33.3256 27.7669 33.3704 27.6777C33.4149 27.5881 33.4713 27.4996 33.5303 27.4001C33.5899 27.2991 33.6609 27.2224 33.7337 27.1249C33.8077 27.0311 33.8908 26.9404 33.9777 26.8429C34.0696 26.7548 34.1693 26.6681 34.2754 26.5809C34.4828 26.3962 34.7364 26.2627 35.0007 26.1142C35.274 25.9974 35.5641 25.8706 35.8749 25.812C36.1826 25.7312 36.5052 25.7121 36.8271 25.6969C37.1489 25.7118 37.4717 25.7292 37.7796 25.8096C38.0906 25.8676 38.3808 25.9951 38.6544 26.1109C38.9188 26.2591 39.1726 26.3925 39.3804 26.5774C39.4863 26.6648 39.5862 26.7518 39.6783 26.8394C39.7653 26.9371 39.8479 27.0287 39.9222 27.1218C39.994 27.2189 40.0684 27.2986 40.1229 27.3957C40.1776 27.4923 40.2307 27.5789 40.2737 27.6665C40.3166 27.7544 40.358 27.8317 40.3892 27.9096C40.4177 27.9909 40.4428 28.0643 40.4615 28.1341C40.5027 28.2687 40.52 28.3845 40.5358 28.457C40.5498 28.532 40.5527 28.5745 40.5527 28.5745C40.5527 28.5745 40.5077 28.5734 40.4317 28.5659C40.3578 28.5562 40.2432 28.5514 40.1164 28.5327C40.0508 28.5259 39.9838 28.5136 39.9102 28.5037C39.8318 28.5 39.7544 28.489 39.6703 28.4824C39.5054 28.4648 39.3333 28.4387 39.1441 28.4312C39.0511 28.4249 38.961 28.4113 38.8665 28.4034C38.769 28.4021 38.6727 28.397 38.5772 28.3899C38.3899 28.3652 38.1863 28.3798 37.9972 28.3559C37.7983 28.363 37.6079 28.3386 37.4109 28.3447C37.2171 28.33 37.0211 28.3456 36.8265 28.3317C36.632 28.3451 36.436 28.328 36.2418 28.3421C36.0446 28.3351 35.8542 28.3605 35.6549 28.3524C35.4657 28.3761 35.2617 28.3614 35.0744 28.3862C34.9789 28.3933 34.8826 28.3987 34.7847 28.3998C34.6904 28.4077 34.6007 28.4222 34.5072 28.4279C34.3143 28.4383 34.1539 28.4569 33.9928 28.4708C33.9083 28.4774 33.8291 28.4835 33.7559 28.489C33.678 28.5033 33.6066 28.5191 33.5388 28.5281C33.4073 28.5516 33.2923 28.5571 33.2193 28.5665C33.1445 28.5745 33.1011 28.5745 33.1011 28.5745Z" fill="#666666"/>
<path d="M56.1726 39.2255C55.2726 39.2255 54.543 38.4881 54.543 37.5783V34.9438C54.543 34.0341 55.2726 33.2966 56.1726 33.2966C57.0727 33.2966 57.8023 34.0341 57.8023 34.9438V37.5783C57.8023 38.4881 57.0727 39.2255 56.1726 39.2255Z" fill="#4D4D4D"/>
<path d="M48.9986 32.5279V40.3245C48.9986 41.7193 47.8797 42.8502 46.4998 42.8502C45.1199 42.8502 44.001 41.7193 44.001 40.3245V32.5279" fill="#E8BA97"/>
</svg>
