<svg width="92" height="94" viewBox="0 0 92 94" fill="none" xmlns="http://www.w3.org/2000/svg">
<g clip-path="url(#clip0)">
<path d="M33.9776 86.6316H3.32541C2.70944 86.6316 2.21045 86.1214 2.21045 85.4924V62.6139H33.9778V86.6316H33.9776Z" fill="#64B4D8"/>
<path d="M33.9776 85.2791H3.32541C2.70944 85.2791 2.21045 84.7689 2.21045 84.1399V61.2614H33.9778V85.2791H33.9776V85.2791Z" fill="#71C5F4"/>
<path d="M34.9174 73.6068H3.61621V83.7072H34.9174V73.6068Z" fill="#E0C8A2"/>
<path d="M20.1145 49.0631H19.8608V41.6736C24.0535 41.418 27.9611 39.6313 30.9562 36.5711L29.4784 35.0613C23.5992 41.0685 14.0328 41.0683 8.15364 35.0613C5.30559 32.1513 3.7371 28.2824 3.7371 24.1672C3.7371 20.0519 5.30559 16.1831 8.15364 13.2731L6.67589 11.7632C3.43289 15.0765 1.64697 19.4815 1.64697 24.1672C1.64697 28.8529 3.43289 33.258 6.67553 36.5711C9.67056 39.6313 13.578 41.418 17.7707 41.6736V49.0631H17.517C15.7857 49.0631 14.382 50.4971 14.382 52.2662H23.2492C23.2494 50.4971 21.8458 49.0631 20.1145 49.0631Z" fill="#F9C573"/>
<path d="M33.592 40.1185C33.3244 40.1185 33.0572 40.0143 32.8529 39.8059L5.21341 11.5655C4.80516 11.1484 4.80516 10.4724 5.21341 10.0556C5.62166 9.63886 6.28309 9.63886 6.69116 10.0556L34.3307 38.296C34.7389 38.7131 34.7389 39.3891 34.3307 39.8059C34.1267 40.0144 33.8594 40.1185 33.592 40.1185Z" fill="#B3B3B3"/>
<path d="M32.3403 43.3586C29.7488 43.2411 27.686 41.0567 27.686 38.381C27.686 35.6306 29.868 33.3992 32.5619 33.3992C32.8042 33.3992 33.0425 33.4163 33.2766 33.4526" fill="#E0B394"/>
<path d="M75.4256 43.3586C78.0171 43.2411 80.082 41.0567 80.082 38.381C80.082 35.6306 77.8981 33.3992 75.2041 33.3992C74.9617 33.3992 74.7212 33.4185 74.4893 33.4526" fill="#E0B394"/>
<path d="M18.816 36.6796C25.5799 36.6796 31.0631 31.0772 31.0631 24.1663C31.0631 17.2553 25.5799 11.6529 18.816 11.6529C12.0521 11.6529 6.56885 17.2553 6.56885 24.1663C6.56885 31.0772 12.0521 36.6796 18.816 36.6796Z" fill="#71C5F4"/>
<path d="M27.5441 56.7525C25.2556 56.7525 23.4018 58.6487 23.4018 60.9849C23.4018 59.3065 22.4446 57.8544 21.0547 57.1711C20.5113 56.9019 19.9031 56.7525 19.2594 56.7525H3.61621V78.1298H17.9448C19.1006 78.1298 20.1728 78.4972 21.0547 79.1249C22.4737 80.1306 23.4018 81.807 23.4018 83.7053C23.4018 80.6261 25.845 78.1298 28.8587 78.1298H43.1873V76.0392V56.7525H27.5441Z" fill="#FCE8CA"/>
<path d="M39.9243 61.2621H29.439V63.611H39.9243V61.2621Z" fill="#4D4D4D"/>
<path d="M39.9243 71.7191H29.439V74.068H39.9243V71.7191Z" fill="#4D4D4D"/>
<path d="M39.9243 66.4894H29.439V68.8383H39.9243V66.4894Z" fill="#4D4D4D"/>
<path d="M18.817 36.6804C12.0517 36.6804 6.56982 31.0771 6.56982 24.167C6.56982 17.2569 12.0517 11.6536 18.817 11.6536C14.9443 11.6536 11.8052 17.2569 11.8052 24.167C11.8052 31.0771 14.9442 36.6804 18.817 36.6804Z" fill="#64B4D8"/>
<path d="M76.6643 74.6129V93.9978H31.1035V74.6129C31.1035 68.1298 35.6764 62.738 41.7058 61.6212C41.8959 61.5849 42.0862 61.5549 42.2806 61.5294C42.8511 61.4483 43.4364 61.4077 44.0299 61.4077H63.7401C64.3317 61.4077 64.9148 61.4483 65.4853 61.5294C65.6775 61.5551 65.8698 61.5849 66.0601 61.6212C72.0895 62.7358 76.6643 68.1278 76.6643 74.6129Z" fill="#E6E6E6"/>
<path d="M55.1378 64.9926H52.6299V93.9996H55.1378V64.9926Z" fill="#CCCCCC"/>
<path d="M65.4856 61.5294L63.1845 73.9617L53.8821 69.2767L44.5818 73.9617L42.2808 61.5294C42.8513 61.4483 43.4365 61.4077 44.03 61.4077H63.7403C64.3318 61.4077 64.9149 61.4483 65.4856 61.5294Z" fill="#CCCCCC"/>
<path d="M51.9934 61.4068H44.0295C36.891 61.4068 31.104 67.3194 31.104 74.6132V93.9985H39.0679V74.6134C39.0681 67.3194 44.855 61.4068 51.9934 61.4068Z" fill="#CCCCCC"/>
<path d="M69.5165 58.5227L60.9373 64.8905C56.7303 68.0125 51.0351 68.0125 46.8303 64.8905L38.2511 58.5227C33.7179 55.1572 31.2643 49.5903 31.8035 43.8932L32.6375 35.0719L32.93 31.9905L33.2915 28.1596C34.3156 17.3226 43.2293 9.05429 53.8837 9.05429C59.2109 9.05429 64.1036 11.1214 67.7903 14.5423C71.4791 17.9654 73.964 22.7421 74.4761 28.1596L74.8773 32.392V32.3942L75.1679 35.4756L75.9641 43.8934C76.5031 49.5905 74.0495 55.1574 69.5165 58.5227Z" fill="#F7CBA4"/>
<path d="M37.1424 46.993C36.9981 49.4849 37.7924 51.9365 39.3641 53.8477L48.3307 65.1055C48.7988 65.6755 49.3297 66.154 49.9044 66.5362C48.8259 66.1518 47.7893 65.601 46.8301 64.8899L38.2509 58.5222C33.7178 55.1567 31.2663 49.592 31.8055 43.8927L33.2915 28.1592C34.3073 17.4289 43.0558 9.21622 53.5745 9.06034C47.0957 9.22044 39.7592 15.4601 39.3768 22.1054L37.1424 46.993Z" fill="#E8BA97"/>
<path d="M44.5451 47.1832C47.8404 47.1832 50.5117 44.4539 50.5117 41.087C50.5117 37.7201 47.8404 34.9908 44.5451 34.9908C41.2499 34.9908 38.5786 37.7201 38.5786 41.087C38.5786 44.4539 41.2499 47.1832 44.5451 47.1832Z" fill="#C0E7F9"/>
<path d="M69.1865 41.0874C69.1865 44.4526 66.5135 47.1818 63.2196 47.1818C62.5823 47.1818 61.9678 47.0793 61.3931 46.8913C58.9918 46.1033 57.2529 43.8014 57.2529 41.0874C57.2529 37.7199 59.9238 34.9908 63.2198 34.9908C63.8886 34.9908 64.5303 35.1039 65.1301 35.3111C67.4874 36.1248 69.1865 38.4032 69.1865 41.0874Z" fill="#C0E7F9"/>
<path d="M69.186 41.0874C69.186 44.4526 66.5129 47.1818 63.2191 47.1818C62.5817 47.1818 61.9672 47.0793 61.3926 46.8913L65.1294 35.3111C67.4869 36.1248 69.186 38.4032 69.186 41.0874Z" fill="#E6F6FC"/>
<path d="M50.5123 41.0874C50.5123 44.4526 47.8393 47.1818 44.5455 47.1818C43.9081 47.1818 43.2936 47.0793 42.7188 46.8913L46.4555 35.3111C48.8132 36.1248 50.5123 38.4032 50.5123 41.0874Z" fill="#E6F6FC"/>
<path d="M56.287 41.0864V47.0556C56.287 48.4118 55.2108 49.5114 53.8835 49.5114C52.5561 49.5114 51.48 48.4118 51.48 47.0556V41.0864" fill="#E0B394"/>
<path d="M77.0824 35.5353C65.7965 16.7439 59.7357 25.7125 53.675 25.7125C52.2788 25.7125 50.9915 25.5203 49.8191 25.2043C44.3246 23.7265 41.3443 19.5199 41.3443 19.5199C41.3443 25.0719 32.7923 33.4425 32.7923 33.4425C22.7772 9.56908 43.8229 6.4814 43.8229 6.4814C45.476 2.62703 50.678 -0.23648 56.998 0.0154104C59.2676 0.102985 61.6794 0.591895 64.1247 1.58275C86.2782 10.5515 77.0824 35.5353 77.0824 35.5353Z" fill="#AF7C38"/>
<path d="M49.8185 25.2045C44.324 23.7267 41.3437 19.52 41.3437 19.52C41.3437 25.0721 32.7917 33.4427 32.7917 33.4427C22.7768 9.56908 43.8225 6.4814 43.8225 6.4814C45.4756 2.62703 50.6776 -0.23648 56.9976 0.0154104C56.659 0.149985 43.2583 5.62071 49.8185 25.2045Z" fill="#9B6C34"/>
<path d="M75.1678 35.4756L74.8772 32.3942L69.8924 38.8916C68.9828 36.0121 66.3356 33.9228 63.2188 33.9228C59.7077 33.9228 56.7915 36.5735 56.2853 40.019H51.4792C50.9731 36.5733 48.0569 33.9228 44.5458 33.9228C41.5443 33.9228 38.978 35.8605 37.98 38.5754L32.9297 31.9908L32.6372 35.0723L37.5447 41.47C37.7403 45.2428 40.8056 48.2508 44.546 48.2508C48.0571 48.2508 50.9732 45.6001 51.4794 42.1546H56.2855C56.7917 45.6003 59.7078 48.2508 63.2189 48.2508C66.7865 48.2508 69.7382 45.5136 70.173 41.9872L75.1678 35.4756ZM44.546 46.1151C41.8322 46.1151 39.6244 43.8593 39.6244 41.0864C39.6244 38.3136 41.8322 36.0578 44.546 36.0578C47.2598 36.0578 49.4676 38.3136 49.4676 41.0864C49.4676 43.8593 47.2598 46.1151 44.546 46.1151ZM63.2188 46.1151C60.5049 46.1151 58.2971 43.8593 58.2971 41.0864C58.2971 38.3136 60.5049 36.0578 63.2188 36.0578C65.9326 36.0578 68.1404 38.3136 68.1404 41.0864C68.1404 43.8593 65.9326 46.1151 63.2188 46.1151Z" fill="#666666"/>
<path d="M90.3538 60.4745V91.1172C90.3538 92.7093 89.0906 94 87.5324 94C85.9741 94 84.7109 92.7093 84.7109 91.1172V60.4745L85.6834 17.1133C85.7055 16.128 86.4374 15.2779 87.3994 15.2093C88.4619 15.1333 89.3559 15.9774 89.3799 17.0474L90.3538 60.4745Z" fill="#E0AD86"/>
<path d="M90.3538 65.386V91.1174C90.3538 92.7095 89.0906 94.0002 87.5324 94.0002C85.9741 94.0002 84.7109 92.7095 84.7109 91.1174V65.386H90.3538Z" fill="#D68C5B"/>
<path d="M18.1894 61.2621H7.7041V63.611H18.1894V61.2621Z" fill="#4D4D4D"/>
<path d="M18.1894 71.7191H7.7041V74.068H18.1894V71.7191Z" fill="#4D4D4D"/>
<path d="M18.1894 66.4894H7.7041V68.8383H18.1894V66.4894Z" fill="#4D4D4D"/>
<path d="M71.961 85.5989H61.7202V88.8021H71.961V85.5989Z" fill="#CCCCCC"/>
<path d="M49.6865 78.2912C50.4526 78.2912 51.0737 77.6566 51.0737 76.8738C51.0737 76.0911 50.4526 75.4565 49.6865 75.4565C48.9204 75.4565 48.2993 76.0911 48.2993 76.8738C48.2993 77.6566 48.9204 78.2912 49.6865 78.2912Z" fill="#666666"/>
<path d="M49.6865 85.056C50.4526 85.056 51.0737 84.4215 51.0737 83.6387C51.0737 82.8559 50.4526 82.2214 49.6865 82.2214C48.9204 82.2214 48.2993 82.8559 48.2993 83.6387C48.2993 84.4215 48.9204 85.056 49.6865 85.056Z" fill="#666666"/>
<path d="M49.6865 91.8209C50.4526 91.8209 51.0737 91.1864 51.0737 90.4036C51.0737 89.6208 50.4526 88.9862 49.6865 88.9862C48.9204 88.9862 48.2993 89.6208 48.2993 90.4036C48.2993 91.1864 48.9204 91.8209 49.6865 91.8209Z" fill="#666666"/>
<path d="M59.6194 54.1324C59.6194 54.1324 59.5357 54.3427 59.3594 54.6744C59.3168 54.76 59.2669 54.8501 59.211 54.9478C59.1449 55.0438 59.0685 55.1415 58.9862 55.2511C58.9039 55.3607 58.8097 55.4719 58.7098 55.5949C58.6744 55.6416 58.6363 55.6805 58.5954 55.7211C58.5808 55.7359 58.5645 55.7512 58.5483 55.7661C58.491 55.82 58.4322 55.8771 58.3718 55.934C58.2513 56.0495 58.1206 56.1637 57.9839 56.2838C57.84 56.3919 57.6856 56.494 57.5268 56.6051C57.4474 56.6605 57.3652 56.7147 57.2813 56.7687C57.1976 56.8197 57.1079 56.8617 57.0168 56.9084C56.8375 57.0015 56.6508 57.0916 56.4583 57.1818C56.0616 57.32 55.6487 57.4819 55.2079 57.5497C54.7731 57.6532 54.3188 57.6697 53.8664 57.6923C53.4139 57.6699 52.9597 57.6547 52.5248 57.5511C52.084 57.4836 51.6711 57.3215 51.2744 57.1832C51.0819 57.0945 50.8952 57.0044 50.7145 56.9113C50.6248 56.8647 50.5351 56.8226 50.4498 56.7716C50.3675 56.7162 50.2854 56.6635 50.2059 56.608C50.0473 56.4969 49.8915 56.3934 49.7474 56.2867C49.6106 56.1667 49.4813 56.051 49.3594 55.937C49.2992 55.8784 49.2419 55.823 49.1844 55.7675C49.1639 55.7481 49.1433 55.7284 49.1228 55.709C49.0874 55.6728 49.0538 55.6385 49.0243 55.5979C48.9287 55.4793 48.8362 55.3697 48.7553 55.2615C48.6759 55.1519 48.5981 55.0559 48.5334 54.9599C48.4747 54.8578 48.4204 54.7647 48.3748 54.6792C48.1911 54.337 48.1147 54.1328 48.1147 54.1328C48.1147 54.1328 48.3323 54.2004 48.6673 54.3384C48.7526 54.3715 48.8407 54.4119 48.9391 54.4524C49.0434 54.484 49.1506 54.5246 49.2655 54.5635C49.3815 54.6026 49.4976 54.6507 49.6209 54.6957C49.7429 54.7438 49.8809 54.7754 50.0176 54.8174C50.1544 54.858 50.2909 54.9076 50.4336 54.9511C50.582 54.9841 50.7305 55.0231 50.8832 55.0607C50.9597 55.0787 51.0345 55.1013 51.111 55.1222C51.189 55.1402 51.2697 55.1508 51.3491 55.1672C51.5092 55.1958 51.6695 55.2287 51.8296 55.2663C52.1631 55.2979 52.4923 55.3728 52.8362 55.3864C53.1756 55.4314 53.5223 55.4194 53.8664 55.4404C54.2115 55.4194 54.5585 55.4328 54.8979 55.3879C55.2417 55.3759 55.5709 55.2992 55.9046 55.2678C56.0647 55.2316 56.2249 55.1988 56.385 55.1701C56.4645 55.1536 56.5451 55.1429 56.6231 55.1251C56.6997 55.1027 56.7759 55.0816 56.851 55.0636C57.0037 55.026 57.1521 54.9854 57.3005 54.954C57.4445 54.9105 57.5812 54.8609 57.718 54.8204C57.8533 54.7783 57.9943 54.7453 58.1117 54.6988C58.2322 54.6568 58.3452 54.6102 58.4599 54.5742C58.5729 54.5351 58.6789 54.496 58.7831 54.4646C58.8859 54.4196 58.977 54.3759 59.0638 54.3414C59.4065 54.1956 59.6194 54.1324 59.6194 54.1324Z" fill="#F2F2F2"/>
<path d="M58.5961 55.7209C58.5816 55.7358 58.5652 55.751 58.549 55.7659C58.4917 55.8198 58.433 55.8769 58.3726 55.9339C58.252 56.0493 58.1214 56.1635 57.9847 56.2836C57.8407 56.3917 57.6864 56.4938 57.5275 56.6049C57.4481 56.6603 57.366 56.7145 57.2821 56.7685C57.1983 56.8195 57.1087 56.8616 57.0176 56.9082C56.8382 57.0013 56.6515 57.0914 56.4591 57.1816C56.0624 57.3198 55.6494 57.4817 55.2087 57.5495C54.7738 57.653 54.3196 57.6696 53.8671 57.6921C53.4147 57.6697 52.9604 57.6545 52.5256 57.551C52.0848 57.4834 51.6719 57.3213 51.2751 57.183C51.0827 57.0944 50.896 57.0042 50.7152 56.9111C50.6255 56.8645 50.5359 56.8225 50.4505 56.7714C50.3682 56.716 50.2861 56.6633 50.2067 56.6078C50.048 56.4968 49.8922 56.3932 49.7481 56.2865C49.6114 56.1665 49.482 56.0508 49.3602 55.9368C49.3 55.8782 49.2427 55.8228 49.1852 55.7673C49.1647 55.7479 49.144 55.7282 49.1235 55.7088C49.1706 55.7253 49.2175 55.7418 49.266 55.7583C49.3821 55.7974 49.4982 55.8439 49.6215 55.8891C49.7435 55.9386 49.8815 55.9702 50.0182 56.0123C50.1549 56.0528 50.2915 56.1009 50.4342 56.1459C50.5826 56.1775 50.731 56.2179 50.8838 56.2555C50.9603 56.2735 51.0351 56.2946 51.1116 56.3155C51.1896 56.3335 51.2703 56.3442 51.3497 56.3605C51.5098 56.3892 51.6701 56.4235 51.8302 56.4597C52.1637 56.4927 52.4929 56.5678 52.8368 56.5799C53.1762 56.6266 53.5228 56.613 53.8669 56.6354C54.2121 56.6144 54.5591 56.6278 54.8985 56.5814C55.2423 56.5695 55.5714 56.4942 55.9051 56.4628C56.0652 56.4266 56.2255 56.3923 56.3856 56.3637C56.465 56.3471 56.5457 56.3365 56.6237 56.3187C56.7002 56.2977 56.7764 56.2766 56.8515 56.2586C57.0043 56.221 57.1527 56.1804 57.3011 56.149C57.445 56.1041 57.5818 56.0545 57.7185 56.0154C57.8538 55.9733 57.9949 55.9386 58.1122 55.8938C58.2328 55.8503 58.3458 55.8052 58.4605 55.7677C58.5065 55.7527 58.5521 55.7359 58.5961 55.7209Z" fill="#4D4D4D"/>
<path d="M23.4018 60.9849V83.7054C23.4018 81.807 22.4739 80.1308 21.0547 79.1249V57.1711C22.4446 57.8544 23.4018 59.3065 23.4018 60.9849Z" fill="#EDD9BE"/>
<path d="M23.4019 60.9849V83.7054C23.4019 81.807 24.3298 80.1308 25.7489 79.1249V57.1711C24.3591 57.8544 23.4019 59.3065 23.4019 60.9849Z" fill="#EDD9BE"/>
<path d="M63.2192 42.6351C64.056 42.6351 64.7343 41.942 64.7343 41.087C64.7343 40.232 64.056 39.5389 63.2192 39.5389C62.3824 39.5389 61.7041 40.232 61.7041 41.087C61.7041 41.942 62.3824 42.6351 63.2192 42.6351Z" fill="#808080"/>
<path d="M44.5454 42.6351C45.3822 42.6351 46.0605 41.942 46.0605 41.087C46.0605 40.232 45.3822 39.5389 44.5454 39.5389C43.7086 39.5389 43.0303 40.232 43.0303 41.087C43.0303 41.942 43.7086 42.6351 44.5454 42.6351Z" fill="#808080"/>
</g>
<defs>
<clipPath id="clip0">
<rect width="92" height="94" fill="white"/>
</clipPath>
</defs>
</svg>
