<svg width="91" height="91" viewBox="0 0 91 91" fill="none" xmlns="http://www.w3.org/2000/svg">
<g clip-path="url(#clip0)">
<path d="M80.9295 61.2355H77.6934V91H80.9295V61.2355Z" fill="#E2AF66"/>
<path d="M13.8343 78.9268H10.123V90.9986H13.8343V78.9268Z" fill="#F9C573"/>
<path d="M86.2157 25.428C86.2157 27.9306 80.7293 30.1745 72.067 31.689C68.6684 33.9069 65.5248 35.2013 63.9218 35.2013C63.6716 35.2013 60.7093 34.5913 60.4699 34.626L56.5865 24.4787C56.3728 22.2674 66.0994 20.1616 65.2731 18.209C77.7627 19.6158 86.2157 22.3212 86.2157 25.428Z" fill="#E2AF66"/>
<path d="M25.9293 18.209C25.103 20.1616 29.1843 22.2672 28.9707 24.4787L30.6966 35.0575C30.4549 35.0209 34.4658 47.2916 28.7769 38.5313C27.9037 37.1869 21.9168 32.6889 19.1357 31.6892C10.4757 30.1747 4.99121 27.9308 4.99121 25.4282C4.99103 22.3212 13.4419 19.6158 25.9293 18.209Z" fill="#E2AF66"/>
<path d="M73.7026 62.0594V66.8059C73.7026 69.9038 76.2142 72.4153 79.3121 72.4153V67.6688C79.3122 64.5705 76.8007 62.0594 73.7026 62.0594Z" fill="#F9C573"/>
<path d="M73.7026 71.5522V76.2987C73.7026 79.3966 76.2142 81.9081 79.3121 81.9081V77.1616C79.3122 74.0636 76.8007 71.5522 73.7026 71.5522Z" fill="#F9C573"/>
<path d="M73.7026 52.5665V57.313C73.7026 60.4109 76.2142 62.9224 79.3121 62.9224V58.1759C79.3122 55.0777 76.8007 52.5665 73.7026 52.5665Z" fill="#F9C573"/>
<path d="M84.9214 62.0594V66.8059C84.9214 69.9038 82.4099 72.4153 79.312 72.4153V67.6688C79.3124 64.5705 81.8235 62.0594 84.9214 62.0594Z" fill="#F9C573"/>
<path d="M84.9214 71.5522V76.2987C84.9214 79.3966 82.4099 81.9081 79.312 81.9081V77.1616C79.3124 74.0636 81.8235 71.5522 84.9214 71.5522Z" fill="#F9C573"/>
<path d="M84.9214 52.5665V57.313C84.9214 60.4109 82.4099 62.9224 79.312 62.9224V58.1759C79.3124 55.0777 81.8235 52.5665 84.9214 52.5665Z" fill="#F9C573"/>
<path d="M23.0751 39.8332C20.3999 39.7145 18.2705 37.5074 18.2705 34.8041C18.2705 32.0252 20.5229 29.7707 23.3039 29.7707C23.5541 29.7707 23.8001 29.7879 24.0416 29.8245L23.0751 39.8332Z" fill="#E0B394"/>
<path d="M68.1273 39.8332C70.8026 39.7145 72.9341 37.5074 72.9341 34.8041C72.9341 32.0252 70.6796 29.7707 67.8986 29.7707C67.6483 29.7707 67.4002 29.7901 67.1606 29.8245L68.1273 39.8332Z" fill="#E0B394"/>
<path d="M55.777 58.0703H35.43C28.0609 58.0703 22.0869 64.0441 22.0869 71.4134V90.9991H69.1198V71.4134C69.1198 64.0443 63.1461 58.0703 55.777 58.0703Z" fill="#F9C573"/>
<path d="M54.0172 54.8344H37.189V75.0304H54.0172V54.8344Z" fill="#F76B4F"/>
<path d="M43.6512 58.0703H35.43C28.0609 58.0703 22.0869 64.0441 22.0869 71.4134V90.9991H30.3081V71.4134C30.3081 64.0443 36.2819 58.0703 43.6512 58.0703Z" fill="#E2AF66"/>
<path d="M54.0174 54.8344V64.0748L52.8847 64.899C48.5416 68.0532 42.6626 68.0532 38.3195 64.899L37.189 64.077V54.8344H54.0174Z" fill="#E0B394"/>
<path d="M61.7414 55.1558L52.885 61.5894C48.5419 64.7457 42.6629 64.7457 38.3199 61.5894L29.4656 55.1558C24.7839 51.7556 22.2532 46.1333 22.8099 40.3751L24.346 24.4789C24.4301 23.6073 24.566 22.7508 24.7516 21.9158C26.4041 14.4143 31.9576 8.46823 39.0989 6.18793L45.582 8.99699H45.6252L52.1083 6.18793C55.0489 7.12635 57.7199 8.68844 59.9593 10.7229C63.1588 13.629 65.4825 17.5017 66.4533 21.916C66.6388 22.751 66.7748 23.6075 66.8589 24.4791L68.395 40.3753C68.9515 46.1333 66.4211 51.7556 61.7414 55.1558Z" fill="#F7CBA4"/>
<path d="M28.3202 43.5074C28.1712 46.0252 28.9911 48.5021 30.6136 50.433L39.8698 61.8071C40.353 62.3831 40.901 62.8664 41.4944 63.2526C40.3811 62.8643 39.311 62.3076 38.3208 61.5892L29.4644 55.1557C24.7849 51.7555 22.2542 46.1331 22.8108 40.3747L24.3448 24.4785C25.3935 13.6372 34.4246 5.3396 45.2831 5.18213C38.5949 5.34387 31.0215 11.648 30.6268 18.362L28.3202 43.5074Z" fill="#E8BA97"/>
<path d="M14.9143 4.30431C14.7167 4.27783 14.5229 4.2757 14.3191 4.26592C14.1193 4.2677 13.9213 4.29382 13.7155 4.31106C13.515 4.34199 13.3181 4.39353 13.1137 4.4385C12.9152 4.49484 12.7241 4.57357 12.5249 4.64538C12.3331 4.7282 12.147 4.82684 11.9572 4.92495C11.7787 5.0371 11.5998 5.15423 11.4233 5.27793C11.2571 5.41212 11.0922 5.55163 10.9302 5.69666C10.884 5.74447 10.8394 5.79566 10.7932 5.84418C10.7456 5.79388 10.6976 5.74341 10.65 5.69382C10.4875 5.54897 10.3229 5.40856 10.1566 5.27455C9.97991 5.15085 9.80111 5.03337 9.62231 4.92122C9.43196 4.82329 9.24623 4.72411 9.05428 4.64147C8.85522 4.56966 8.66327 4.49146 8.4651 4.43459C8.26053 4.38927 8.06324 4.33861 7.86294 4.30733C7.65695 4.29009 7.45842 4.26485 7.25865 4.26254C7.0555 4.27285 6.85929 4.27445 6.66449 4.302C6.46845 4.33595 6.27739 4.37576 6.09273 4.42535C5.90646 4.492 5.72731 4.55864 5.55615 4.64325C5.72695 4.74509 5.8894 4.82898 6.04527 4.91287L6.48925 5.18693L6.8911 5.47539L7.2535 5.77629C7.36725 5.88026 7.47406 5.98779 7.57928 6.08803L7.87076 6.40902C7.95749 6.52419 8.04245 6.63491 8.12758 6.74066C8.20525 6.85548 8.27759 6.97047 8.35473 7.0764C8.418 7.19637 8.48607 7.30745 8.55041 7.41854C8.6048 7.53779 8.66238 7.65136 8.71783 7.76387C8.76227 7.88366 8.8115 7.99777 8.85771 8.11169C8.89094 8.23237 8.93502 8.34559 8.97057 8.46147C8.99367 8.58215 9.03206 8.69536 9.0573 8.81231C9.07276 8.9321 9.10173 9.0471 9.1188 9.16458C9.12768 9.28366 9.14492 9.40078 9.15612 9.51862C9.15825 9.63788 9.16216 9.75643 9.17016 9.87497H12.406C12.4127 9.75625 12.4182 9.6377 12.4188 9.51827C12.4296 9.40025 12.4481 9.28348 12.4552 9.16404C12.4721 9.04639 12.5023 8.93175 12.5163 8.8116C12.5423 8.69465 12.5792 8.58073 12.6027 8.46022C12.6388 8.34452 12.6816 8.23059 12.715 8.11009C12.7616 7.99634 12.8098 7.88117 12.8549 7.76191C12.9093 7.64834 12.9685 7.53584 13.0222 7.41587C13.087 7.30479 13.1549 7.19299 13.2182 7.0732C13.2957 6.96727 13.3678 6.85192 13.4455 6.73711C13.531 6.63189 13.6156 6.52028 13.7027 6.40528L13.9945 6.0843L14.321 5.77273L14.6841 5.47219L15.0849 5.1848C15.2212 5.10304 15.3616 5.00511 15.5195 4.91251C15.6865 4.82791 15.8536 4.74438 16.02 4.64325C15.8444 4.55953 15.6697 4.49306 15.4948 4.42606C15.3138 4.37629 15.1164 4.33648 14.9143 4.30431Z" fill="#999999"/>
<path d="M90.4545 36.7426C90.2728 36.6928 90.0755 36.6528 89.8733 36.6207C89.6756 36.5942 89.4819 36.5921 89.278 36.5823C89.0783 36.5841 88.8803 36.6102 88.6745 36.6276C88.474 36.6582 88.2771 36.7097 88.0727 36.755C87.874 36.8112 87.6831 36.8901 87.4838 36.9619C87.2921 37.0447 87.106 37.1434 86.9162 37.2415C86.7377 37.3536 86.5587 37.4708 86.3823 37.5945C86.2161 37.7287 86.0511 37.868 85.8892 38.0132C85.843 38.061 85.7984 38.1122 85.7522 38.1607C85.7046 38.1104 85.6566 38.06 85.6089 38.0104C85.4465 37.8655 85.2819 37.7253 85.1156 37.5914C84.9389 37.4677 84.7599 37.3503 84.5813 37.2381C84.3909 37.1402 84.2052 37.041 84.0133 36.9584C83.8142 36.8866 83.6223 36.8084 83.4241 36.7515C83.2195 36.7062 83.022 36.6555 82.8219 36.6242C82.6159 36.607 82.4174 36.5818 82.2176 36.5796C82.0145 36.5898 81.8183 36.5915 81.6235 36.6191C81.4274 36.653 81.2364 36.6927 81.0517 36.7424C80.8654 36.8091 80.6863 36.8759 80.5151 36.9603C80.6859 37.0622 80.8484 37.1461 81.0043 37.2299L81.4482 37.504L81.8501 37.7925L82.2125 38.0937C82.3262 38.1977 82.4332 38.3049 82.5383 38.4055L82.8297 38.7264C82.9165 38.8418 83.0014 38.9525 83.0866 39.0581C83.1642 39.1729 83.2366 39.2879 83.3137 39.3938C83.377 39.5138 83.445 39.6249 83.5094 39.736C83.5638 39.8552 83.6214 39.9688 83.6768 40.0813C83.7212 40.2011 83.7705 40.3152 83.8167 40.4291C83.8499 40.5498 83.894 40.663 83.9295 40.7789C83.9527 40.8996 83.991 41.0128 84.0163 41.1299C84.0317 41.2497 84.0607 41.3647 84.078 41.482C84.0868 41.6011 84.1041 41.7182 84.1153 41.8361C84.1174 41.9553 84.1213 42.074 84.1293 42.1928H87.3651C87.3719 42.0739 87.3774 41.9555 87.3779 41.8361C87.3888 41.718 87.4072 41.6013 87.4143 41.4818C87.4312 41.3642 87.4614 41.2495 87.4755 41.1292C87.5014 41.0123 87.5384 40.8983 87.5619 40.7778C87.5979 40.6621 87.6408 40.5482 87.6742 40.4277C87.7208 40.3138 87.7689 40.1988 87.8141 40.0795C87.8684 39.9663 87.9276 39.8536 87.9813 39.7335C88.0462 39.6226 88.1141 39.5108 88.1773 39.3908C88.2548 39.2849 88.327 39.1695 88.4047 39.0547C88.4898 38.9495 88.5748 38.8381 88.6618 38.7229L88.9537 38.4019L89.2802 38.0903L89.6433 37.7898L90.0441 37.5024C90.1804 37.4205 90.3208 37.3227 90.4786 37.2299C90.6457 37.1455 90.8128 37.0618 90.9791 36.9609C90.8041 36.8763 90.6292 36.8098 90.4545 36.7426Z" fill="#999999"/>
<path d="M66.4533 21.9156H24.7515C26.404 14.4141 31.9574 8.46805 39.0987 6.18774L45.5819 8.9968H45.6251L52.1082 6.18774C55.0488 7.12617 57.7197 8.68826 59.9592 10.7228C63.1589 13.6289 65.4824 17.5015 66.4533 21.9156Z" fill="#E8BA97"/>
<path d="M68.4553 18.6082H22.7515L27.2282 3.22976C27.9811 0.640731 30.8354 -0.701147 33.3102 0.371112L37.8473 2.33665L45.5819 5.6894H45.6251L57.8947 0.371112C60.3692 -0.701147 63.2257 0.640731 63.9788 3.22976L68.4553 18.6082Z" fill="#F9C573"/>
<path d="M37.8473 2.33665L35.3317 18.6082H22.7515L27.2282 3.22976C27.9811 0.640731 30.8354 -0.701147 33.3102 0.371112L37.8473 2.33665Z" fill="#E2AF66"/>
<path d="M69.1201 70.6335V90.9979H59.9854V74.3724C59.9854 69.7468 62.3629 65.4469 66.2808 62.9896L66.324 62.9551C68.0695 65.0328 69.1201 67.7101 69.1201 70.6335Z" fill="#F76B4F"/>
<path d="M22.0869 70.6335V90.9979H31.2216V74.3724C31.2216 69.7468 28.8441 65.4469 24.9262 62.9896L24.883 62.9551C23.1377 65.0328 22.0869 67.7101 22.0869 70.6335Z" fill="#E5624C"/>
<path d="M54.0172 84.4154H37.189V90.9979H54.0172V84.4154Z" fill="#E2AF66"/>
<path d="M23.9351 69.0831C23.934 68.8816 23.9331 68.6814 23.932 68.4827C23.9317 68.3637 23.9312 68.2449 23.9308 68.1269C23.9255 68.0283 23.9198 67.9302 23.9144 67.8324C23.8915 67.4412 23.8688 67.0564 23.8466 66.6775C23.7961 65.92 23.747 65.1885 23.7003 64.4857C23.4994 61.6758 23.2739 59.3341 23.0901 57.6949C23.0021 56.8752 22.9117 56.2313 22.8593 55.7923C22.7988 55.3533 22.7667 55.1189 22.7667 55.1189C22.7667 55.1189 22.7345 55.3529 22.6741 55.7923C22.6218 56.2313 22.5312 56.8754 22.4432 57.6949C22.2596 59.3341 22.0339 61.676 21.8332 64.4857C21.7865 65.1881 21.7374 65.92 21.6869 66.6775C21.6647 67.0561 21.6421 67.4412 21.619 67.8324C21.6137 67.9302 21.6082 68.0283 21.6029 68.1269L21.6018 68.1452C21.6014 68.1642 21.6037 68.0461 21.6018 68.1047L21.5979 68.1413L21.5901 68.2151L21.5742 68.3631C21.5533 68.5608 21.5321 68.7598 21.5108 68.9603L21.4948 69.1108C21.4905 69.1631 21.484 69.2116 21.4726 69.2497L21.4148 69.4971C21.3802 69.6618 21.3451 69.8276 21.31 69.9944C21.2746 70.1614 21.2042 70.3413 21.1539 70.5151C21.0951 70.6893 21.0533 70.8692 20.9822 71.0405C20.9093 71.2108 20.8361 71.3817 20.7625 71.5538L20.6559 71.8127L20.5226 72.061C20.4346 72.2267 20.3461 72.3932 20.2574 72.5605C20.1645 72.725 20.0488 72.8779 19.9464 73.0382C19.7518 73.3667 19.4894 73.6505 19.2543 73.9549L19.1653 74.0687L19.0643 74.1727L18.8622 74.3811L18.6609 74.5909C18.5946 74.6616 18.5281 74.7327 18.451 74.7926C18.1511 75.0414 17.8696 75.3137 17.5367 75.5238C17.3863 75.6226 17.2484 75.7396 17.0947 75.8334L15.6248 55.1555L14.0656 77.0905C13.3945 77.2521 12.697 77.2935 12.0051 77.3212L11.9737 77.3194L11.8859 77.3153L11.7105 77.3073L11.3596 77.2913L11.0088 77.2753C10.8956 77.2686 10.8232 77.2467 10.7285 77.2341C10.5497 77.2048 10.3705 77.1783 10.1907 77.1541C10.0945 77.1372 9.99427 77.1125 9.89314 77.0862L8.33479 55.1553L6.8653 75.8288C6.71227 75.7349 6.5731 75.621 6.42523 75.5204C6.09234 75.3103 5.81081 75.0382 5.51115 74.7897C5.43366 74.7299 5.36755 74.6589 5.30125 74.5882L5.09988 74.3785L4.8978 74.17L4.79685 74.066L4.7078 73.9526C4.47391 73.6476 4.21158 73.3638 4.01678 73.0357C3.91459 72.8754 3.79888 72.7229 3.70575 72.5585C3.61688 72.3913 3.52837 72.2249 3.4404 72.0593L3.3071 71.8111L3.20135 71.552C3.12776 71.3803 3.05436 71.2092 2.98167 71.0392C2.9104 70.8681 2.86863 70.6882 2.8098 70.514C2.75897 70.3379 2.69001 70.166 2.65251 69.9881C2.61607 69.8095 2.57982 69.632 2.54356 69.4555C2.50712 69.2786 2.46162 69.1034 2.45078 68.9248C2.43052 68.7465 2.41061 68.5695 2.39053 68.3939C2.38076 68.3043 2.36849 68.2204 2.36067 68.1269C2.35534 68.0283 2.34965 67.9302 2.34432 67.8324C2.32139 67.4412 2.29882 67.0564 2.27678 66.6775C2.22613 65.92 2.17725 65.1885 2.13033 64.4857C2.02813 63.0807 1.92274 61.7927 1.81788 60.6513C1.71213 59.5096 1.61082 58.5146 1.51769 57.6949C1.42918 56.8752 1.33836 56.2313 1.28557 55.7923C1.22496 55.3533 1.19261 55.1189 1.19261 55.1189C1.19261 55.1189 1.16027 55.3529 1.09966 55.7923C1.04687 56.2313 0.956053 56.8754 0.867542 57.6949C0.774411 58.5146 0.672925 59.5097 0.567352 60.6513C0.462313 61.7929 0.357273 63.0809 0.254721 64.4857C0.207622 65.1881 0.158924 65.92 0.10827 66.6775C0.0860533 67.0561 0.063659 67.4412 0.0407316 67.8324C0.0353996 67.9302 0.0297122 68.0283 0.0243802 68.1269C0.0234915 68.235 0.0226029 68.3436 0.0220697 68.4525C0.0220697 68.6731 0.0222474 68.8953 0.0222474 69.119C0.0151381 69.3439 0.0394874 69.5685 0.0657918 69.7946C0.0912076 70.0214 0.116979 70.2496 0.14275 70.4792C0.171187 70.7088 0.232505 70.934 0.277293 71.1642C0.330435 71.3924 0.367937 71.6274 0.436897 71.8549C0.509412 72.0816 0.582104 72.3097 0.655152 72.5388L0.770323 72.8827L0.916241 73.2163C1.01524 73.4392 1.11495 73.6631 1.21501 73.8881C1.32112 74.1101 1.45193 74.3207 1.57172 74.539C2.54622 76.2758 4.04024 77.8041 5.85969 78.8794C6.07936 79.0274 6.32126 79.1364 6.55764 79.2569C6.79687 79.3712 7.02952 79.5032 7.27746 79.6008C7.77582 79.7886 8.27009 80.001 8.79494 80.1171C9.0578 80.1823 9.30698 80.2595 9.58247 80.3117L10.4315 80.4432C10.5685 80.4614 10.726 80.4896 10.8461 80.4978L11.1968 80.5172L11.5475 80.5365L11.7229 80.5463L11.8105 80.5511L11.9801 80.5572C14.125 80.5248 16.2894 79.974 18.0994 78.8769C19.9164 77.7989 21.4129 76.2743 22.3851 74.5363C22.5045 74.3182 22.6353 74.1078 22.7414 73.8856C22.8415 73.6608 22.9412 73.4369 23.0402 73.214L23.1861 72.8807L23.3002 72.5366C23.3733 72.3075 23.4463 72.0797 23.5185 71.8529C23.5872 71.6258 23.6251 71.3908 23.6781 71.1626C23.7236 70.9299 23.7833 70.7127 23.814 70.4725C23.8412 70.2311 23.8682 69.9912 23.8949 69.7525C23.9063 69.6336 23.9178 69.5152 23.9292 69.3974C23.9365 69.3355 23.9374 69.2832 23.9361 69.2346L23.9351 69.0831Z" fill="#808080"/>
<path d="M54.0482 48.433C54.0482 48.433 53.9252 48.7349 53.6662 49.2118C53.6037 49.3348 53.5303 49.4642 53.4483 49.6044C53.3513 49.7425 53.2392 49.8827 53.1183 50.0402C52.9974 50.1977 52.8593 50.3573 52.7127 50.5343C52.661 50.6011 52.6048 50.6573 52.5444 50.7156C52.5229 50.7371 52.4991 50.7588 52.4754 50.7803C52.3914 50.8579 52.305 50.9399 52.2165 51.022C52.0396 51.1882 51.8475 51.352 51.6469 51.5246C51.4353 51.6799 51.2089 51.8266 50.9759 51.9864C50.8595 52.0662 50.7386 52.1438 50.6156 52.2215C50.4927 52.2949 50.3611 52.3553 50.2273 52.4222C49.9641 52.556 49.69 52.6854 49.4074 52.8148C48.825 53.0133 48.2186 53.2463 47.5715 53.3433C46.9329 53.4923 46.2662 53.5159 45.6016 53.5483C44.9371 53.5159 44.2704 53.4944 43.6318 53.3455C42.9845 53.2484 42.3783 53.0154 41.7959 52.8169C41.5133 52.6896 41.2392 52.5601 40.9738 52.4264C40.8423 52.3596 40.7106 52.2992 40.5855 52.2258C40.4646 52.146 40.3438 52.0704 40.2274 51.9906C39.9944 51.831 39.7656 51.6821 39.5543 51.5289C39.3536 51.3563 39.1638 51.1901 38.9847 51.0262C38.8962 50.9422 38.8121 50.8622 38.7278 50.7824C38.6976 50.7543 38.6674 50.7262 38.6372 50.6983C38.5855 50.6466 38.5357 50.5968 38.4927 50.5387C38.3525 50.3683 38.2165 50.2108 38.098 50.0555C37.9815 49.898 37.8671 49.7599 37.7722 49.6218C37.6858 49.4752 37.606 49.3413 37.5392 49.2184C37.2696 48.7264 37.1572 48.433 37.1572 48.433C37.1572 48.433 37.4766 48.53 37.9684 48.7285C38.0935 48.776 38.2229 48.8343 38.3676 48.8926C38.5208 48.9379 38.6783 48.9962 38.8466 49.0522C39.017 49.1083 39.1875 49.1773 39.3688 49.242C39.5479 49.311 39.7507 49.3563 39.9512 49.4167C40.1518 49.475 40.3525 49.5461 40.5617 49.6087C40.7796 49.6561 40.9975 49.7123 41.2218 49.7661C41.3339 49.7921 41.444 49.8244 41.5563 49.8546C41.6706 49.8806 41.7893 49.8957 41.9057 49.9193C42.1408 49.9604 42.376 50.0078 42.6111 50.0617C43.101 50.107 43.5842 50.2149 44.089 50.2343C44.5873 50.299 45.0965 50.2817 45.6013 50.3119C46.1084 50.2817 46.6174 50.3011 47.1159 50.2364C47.6207 50.2192 48.1041 50.1091 48.5938 50.0638C48.8289 50.0121 49.064 49.9646 49.2992 49.9236C49.4158 49.8998 49.5343 49.8847 49.6488 49.8589C49.7609 49.8266 49.8731 49.7963 49.9833 49.7704C50.2076 49.7165 50.4255 49.6582 50.6434 49.6129C50.8549 49.5504 51.0555 49.4791 51.256 49.421C51.4545 49.3605 51.6616 49.3131 51.8342 49.2463C52.011 49.1858 52.1772 49.119 52.3455 49.0671C52.5117 49.0109 52.667 48.955 52.8202 48.9096C52.9713 48.8449 53.105 48.7824 53.2324 48.7328C53.7354 48.5236 54.0482 48.433 54.0482 48.433Z" fill="#F2F2F2"/>
<path d="M52.5449 50.7156C52.5234 50.7371 52.4996 50.7588 52.4759 50.7803C52.3919 50.8579 52.3055 50.9399 52.217 51.022C52.0401 51.1882 51.848 51.352 51.6473 51.5246C51.4358 51.6799 51.2094 51.8266 50.9764 51.9864C50.86 52.0662 50.7391 52.1438 50.6161 52.2215C50.4931 52.2949 50.3616 52.3553 50.2278 52.4222C49.9646 52.556 49.6905 52.6854 49.4079 52.8148C48.8255 53.0133 48.2191 53.2463 47.5719 53.3433C46.9333 53.4923 46.2667 53.5159 45.6021 53.5483C44.9376 53.5159 44.2709 53.4944 43.6323 53.3455C42.985 53.2484 42.3788 53.0154 41.7964 52.8169C41.5138 52.6896 41.2397 52.5601 40.9743 52.4264C40.8428 52.3596 40.7111 52.2992 40.586 52.2258C40.4651 52.146 40.3443 52.0704 40.2279 51.9906C39.9949 51.831 39.7661 51.6821 39.5548 51.5289C39.3541 51.3563 39.1643 51.1901 38.9852 51.0263C38.8967 50.9422 38.8126 50.8622 38.7283 50.7824C38.6981 50.7543 38.6679 50.7262 38.6377 50.6983C38.7067 50.7221 38.7758 50.7458 38.8469 50.7696C39.0173 50.8258 39.1878 50.8926 39.3691 50.9573C39.5482 51.0286 39.751 51.0737 39.9515 51.1341C40.1522 51.1924 40.3528 51.2614 40.562 51.3261C40.7799 51.3714 40.9978 51.4297 41.2221 51.4836C41.3342 51.5095 41.4443 51.5397 41.5566 51.5699C41.6709 51.5959 41.7896 51.611 41.906 51.6346C42.1412 51.6757 42.3763 51.7253 42.6114 51.777C43.1013 51.8244 43.5845 51.9323 44.0893 51.9496C44.5876 52.0164 45.0968 51.997 45.6016 52.0294C46.1087 51.9992 46.6177 52.0185 47.1161 51.9517C47.621 51.9345 48.1042 51.8266 48.5939 51.7813C48.829 51.7295 49.0642 51.6798 49.2993 51.6389C49.4157 51.6151 49.5345 51.6 49.6487 51.5742C49.7609 51.544 49.873 51.5138 49.9832 51.4878C50.2075 51.434 50.4254 51.3757 50.6435 51.3304C50.855 51.2657 51.0557 51.1944 51.2562 51.1384C51.4547 51.078 51.6617 51.0284 51.8343 50.9637C52.0112 50.9011 52.1773 50.8364 52.3457 50.7824C52.413 50.7609 52.48 50.7371 52.5449 50.7156Z" fill="#4D4D4D"/>
<path d="M35.9984 40.9901C35.1048 40.9901 34.3804 40.2656 34.3804 39.372V36.7838C34.3804 35.8902 35.1048 35.1658 35.9984 35.1658C36.8921 35.1658 37.6165 35.8902 37.6165 36.7838V39.372C37.6165 40.2656 36.8923 40.9901 35.9984 40.9901Z" fill="#4D4D4D"/>
<path d="M51.5078 30.5365C51.5078 30.5365 51.5121 30.4935 51.5267 30.4198C51.5432 30.3483 51.5601 30.2355 51.5963 30.1079C51.6125 30.0419 51.6335 29.973 51.6575 29.8972C51.6887 29.8205 51.7309 29.7432 51.7755 29.6555C51.8197 29.5676 51.8755 29.4806 51.9342 29.3829C51.9934 29.2837 52.0639 29.2084 52.1361 29.1126C52.2095 29.0205 52.2921 28.9313 52.3783 28.8355C52.4695 28.7489 52.5687 28.6638 52.6739 28.5781C52.8799 28.3967 53.1318 28.2655 53.3941 28.1196C53.6655 28.0048 53.9536 27.8803 54.262 27.8228C54.5675 27.7433 54.8877 27.7246 55.2073 27.7097C55.5269 27.7245 55.8475 27.7414 56.1532 27.8204C56.4619 27.8773 56.7502 28.0026 57.0218 28.1164C57.2843 28.2619 57.5363 28.3929 57.7427 28.5746C57.8477 28.6604 57.9471 28.7459 58.0384 28.8319C58.1248 28.9279 58.2069 29.0178 58.2807 29.1094C58.3519 29.2048 58.4259 29.283 58.4801 29.3784C58.5345 29.4734 58.5871 29.5583 58.6297 29.6445C58.6722 29.7309 58.7134 29.8068 58.7445 29.8834C58.7728 29.9632 58.7979 30.0355 58.8163 30.1039C58.8574 30.2362 58.8745 30.3499 58.8901 30.421C58.904 30.4946 58.907 30.5364 58.907 30.5364C58.907 30.5364 58.8624 30.5353 58.7868 30.528C58.7134 30.5186 58.5995 30.5138 58.4739 30.4955C58.4086 30.4887 58.3423 30.4767 58.2691 30.4671C58.1913 30.4633 58.1145 30.4527 58.0309 30.4461C57.8673 30.4288 57.6963 30.4031 57.5084 30.3958C57.416 30.3897 57.3266 30.3764 57.2329 30.3686C57.1361 30.3673 57.0404 30.3624 56.9455 30.3553C56.7596 30.3311 56.5574 30.3453 56.3697 30.3218C56.1722 30.329 55.9833 30.3048 55.7876 30.3108C55.5951 30.2964 55.4005 30.3117 55.2075 30.298C55.0145 30.3112 54.8199 30.2943 54.6268 30.3083C54.431 30.3014 54.2419 30.3265 54.0441 30.3185C53.8562 30.3418 53.6536 30.3274 53.4677 30.3517C53.3728 30.3588 53.2771 30.364 53.1801 30.365C53.0864 30.3729 52.9974 30.3871 52.9046 30.3926C52.713 30.4029 52.5538 30.421 52.394 30.4349C52.3101 30.4413 52.2315 30.4473 52.1589 30.4528C52.0814 30.4669 52.0106 30.4823 51.9433 30.4912C51.8128 30.5143 51.6985 30.5197 51.6262 30.5289C51.5508 30.5365 51.5078 30.5365 51.5078 30.5365Z" fill="#666666"/>
<path d="M32.2988 30.5365C32.2988 30.5365 32.3031 30.4935 32.3177 30.4198C32.3342 30.3483 32.3511 30.2355 32.3873 30.1079C32.4035 30.0419 32.4245 29.973 32.4485 29.8972C32.4798 29.8205 32.5219 29.7432 32.5665 29.6555C32.6107 29.5676 32.6666 29.4806 32.7252 29.3829C32.7844 29.2837 32.855 29.2084 32.9271 29.1126C33.0005 29.0205 33.0832 28.9313 33.1694 28.8355C33.2605 28.7489 33.3597 28.6638 33.4649 28.5781C33.6709 28.3967 33.9228 28.2655 34.1851 28.1196C34.4565 28.0048 34.7446 27.8803 35.053 27.8228C35.3585 27.7433 35.6788 27.7246 35.9983 27.7097C36.3179 27.7245 36.6385 27.7414 36.9442 27.8204C37.2529 27.8773 37.5412 28.0026 37.8128 28.1164C38.0753 28.2619 38.3273 28.3929 38.5337 28.5746C38.6387 28.6604 38.7381 28.7459 38.8294 28.8319C38.9158 28.9279 38.9979 29.0178 39.0717 29.1094C39.1429 29.2048 39.2169 29.283 39.2711 29.3784C39.3255 29.4734 39.3781 29.5583 39.4207 29.6445C39.4632 29.7309 39.5045 29.8068 39.5356 29.8834C39.5638 29.9632 39.5889 30.0355 39.6074 30.1039C39.6484 30.2362 39.6655 30.3499 39.6811 30.421C39.695 30.4946 39.698 30.5364 39.698 30.5364C39.698 30.5364 39.6534 30.5353 39.5779 30.528C39.5045 30.5186 39.3905 30.5138 39.2649 30.4955C39.1996 30.4887 39.1333 30.4767 39.0601 30.4671C38.9823 30.4633 38.9055 30.4527 38.822 30.4461C38.6583 30.4288 38.4873 30.4031 38.2994 30.3958C38.207 30.3897 38.1176 30.3764 38.0239 30.3686C37.9271 30.3673 37.8315 30.3624 37.7365 30.3553C37.5506 30.3311 37.3484 30.3453 37.1607 30.3218C36.9632 30.329 36.7743 30.3048 36.5786 30.3108C36.3861 30.2964 36.1915 30.3117 35.9985 30.298C35.8055 30.3112 35.6109 30.2943 35.4179 30.3083C35.222 30.3014 35.0329 30.3265 34.8351 30.3185C34.6472 30.3418 34.4446 30.3274 34.2587 30.3517C34.1638 30.3588 34.0682 30.364 33.9711 30.365C33.8774 30.3729 33.7884 30.3871 33.6956 30.3926C33.504 30.4029 33.3448 30.421 33.185 30.4349C33.1011 30.4413 33.0226 30.4473 32.9499 30.4528C32.8724 30.4669 32.8016 30.4823 32.7343 30.4912C32.6038 30.5143 32.4895 30.5197 32.4172 30.5289C32.342 30.5365 32.2988 30.5365 32.2988 30.5365Z" fill="#666666"/>
<path d="M55.2074 40.9901C54.3138 40.9901 53.5894 40.2656 53.5894 39.372V36.7838C53.5894 35.8902 54.3138 35.1658 55.2074 35.1658C56.1011 35.1658 56.8255 35.8902 56.8255 36.7838V39.372C56.8255 40.2656 56.1011 40.9901 55.2074 40.9901Z" fill="#4D4D4D"/>
<path d="M48.0853 33.8713V41.5304C48.0853 42.9005 46.9745 44.0115 45.6042 44.0115C44.2341 44.0115 43.123 42.9007 43.123 41.5304V33.8713" fill="#E0B394"/>
<path d="M46.9503 57.2076H43.93C43.4535 57.2076 43.0669 56.8212 43.0669 56.3445C43.0669 55.868 43.4533 55.4814 43.93 55.4814H46.9503C47.4268 55.4814 47.8134 55.8678 47.8134 56.3445C47.8134 56.8212 47.427 57.2076 46.9503 57.2076Z" fill="#E0B394"/>
</g>
<defs>
<clipPath id="clip0">
<rect width="91" height="91" fill="white"/>
</clipPath>
</defs>
</svg>
