<svg width="91" height="93" viewBox="0 0 91 93" fill="none" xmlns="http://www.w3.org/2000/svg">
<path d="M28.3904 21.358C27.5947 23.2797 31.5902 25.3522 31.3846 27.5288L29.8262 30.7373C34.9501 29.5334 34.6383 37.4262 34.3973 37.4262C32.8514 37.4262 29.0989 36.1522 21.8473 34.6275L21.8452 34.6253C13.5049 33.1346 8.22314 30.9262 8.22314 28.463C8.22314 25.6262 15.2275 23.1288 25.8428 21.6786C26.67 21.564 27.5199 21.4579 28.3904 21.358Z" fill="#E2AF66"/>
<path d="M86.4479 28.463C86.4479 30.9262 81.164 33.1346 72.8237 34.6253H72.8216C68.2701 36.309 65.2193 38.1114 64.4242 39.4637C61.4295 44.5563 62.6047 38.8196 62.3742 38.8536L59.2485 37.4409L60.9928 25.8532C60.7872 23.6766 67.0745 23.2795 66.2788 21.3578C67.1494 21.4575 67.9993 21.5638 68.8263 21.6784C79.4414 23.129 86.4479 25.6262 86.4479 28.463Z" fill="#F9C573"/>
<path d="M88.6206 64.3541C89.5159 62.8114 89.4761 60.8064 88.365 59.2756C87.2539 57.7447 85.388 57.1242 83.6835 57.5522C83.2492 55.8144 81.8339 54.4254 79.989 54.1459C78.1441 53.8663 76.3954 54.776 75.4864 56.3103C73.9769 55.3954 72.0151 55.4361 70.5172 56.5715C70.3753 56.6792 70.244 56.7958 70.118 56.9164C69.9948 57.0345 69.877 57.1564 69.7696 57.2855C69.6971 57.3725 69.6283 57.4617 69.5631 57.5533C68.9105 58.4675 68.6192 59.5915 68.7221 60.6969C68.7427 60.918 68.7789 61.1381 68.8314 61.3561C67.131 61.8 65.7719 63.2464 65.4983 65.1318C65.225 67.0173 66.1151 68.8044 67.6162 69.7333C66.721 71.276 66.7606 73.281 67.8718 74.8118C68.983 76.3427 70.8488 76.9632 72.5531 76.535C72.6617 76.9695 72.8314 77.382 73.0543 77.7611C73.11 77.8557 73.169 77.9484 73.231 78.0388C73.9142 79.0326 74.9795 79.749 76.2477 79.9413C78.0926 80.2207 79.8413 79.3112 80.7502 77.7769C82.2597 78.6918 84.2215 78.6511 85.7195 77.5157C87.2174 76.3801 87.8246 74.4732 87.4056 72.7315C89.106 72.2876 90.4651 70.8412 90.7389 68.9557C91.012 67.0701 90.1219 65.2832 88.6206 64.3541Z" fill="#CCCCCC"/>
<path d="M57.1339 60.5903H37.5383C30.4414 60.5903 24.688 66.47 24.688 73.723V93H69.984V73.723C69.984 66.47 64.2308 60.5903 57.1339 60.5903Z" fill="#90BC42"/>
<path d="M56.3783 56.3201V68.1173C56.3783 73.2201 52.3297 77.3577 47.3366 77.3577C42.3417 77.3577 38.2949 73.2201 38.2949 68.1173V56.3201H56.3783Z" fill="#E0B394"/>
<path d="M47.3364 78.5256C41.7207 78.5256 37.1519 73.8564 37.1519 68.1173V56.3201C37.1519 55.6749 37.6636 55.1522 38.2947 55.1522H56.3782C57.0092 55.1522 57.5211 55.6749 57.5211 56.3201V68.1173C57.5211 73.8566 52.9522 78.5256 47.3364 78.5256ZM39.4373 57.4882V68.1175C39.4373 72.5687 42.9808 76.1901 47.3364 76.1901C51.6921 76.1901 55.2356 72.5687 55.2356 68.1175V57.4882H39.4373Z" fill="#83A538"/>
<path d="M25.641 42.6406C23.0645 42.5238 21.0137 40.3515 21.0137 37.6907C21.0137 34.9557 23.1829 32.7366 25.8612 32.7366C26.1022 32.7366 26.3391 32.7537 26.5718 32.7897L25.641 42.6406Z" fill="#E0B394"/>
<path d="M69.0296 42.6406C71.606 42.5238 73.6589 40.3515 73.6589 37.6907C73.6589 34.9557 71.4875 32.7366 68.8092 32.7366C68.5682 32.7366 68.3293 32.7557 68.0986 32.7897L69.0296 42.6406Z" fill="#E0B394"/>
<path d="M45.456 60.5903H37.5383C30.4414 60.5903 24.688 66.47 24.688 73.723V93H32.6057V73.723C32.6057 66.47 38.3589 60.5903 45.456 60.5903Z" fill="#83A538"/>
<path d="M62.8779 57.7224L54.3486 64.0546C50.1681 67.159 44.506 67.159 40.3234 64.0546L31.7941 57.7224C27.2873 54.3759 24.8481 48.842 25.3841 43.1745L26.8636 27.5289C26.982 26.2845 27.2043 25.072 27.5244 23.9041C29.9555 14.9621 37.9674 8.53021 47.3363 8.53021C52.6326 8.53021 57.4966 10.5857 61.164 13.9876C63.9814 16.6038 66.0947 20.0182 67.15 23.9042C67.468 25.0722 67.6904 26.2846 67.8087 27.5291L69.2882 43.1746C69.8239 48.842 67.3845 54.3757 62.8779 57.7224Z" fill="#F7CBA4"/>
<path d="M30.6921 46.2583C30.5487 48.7365 31.3383 51.1741 32.9008 53.0746L41.8152 64.2694C42.2807 64.8363 42.8084 65.3121 43.3798 65.6922C42.3077 65.3101 41.277 64.7622 40.3233 64.0551L31.794 57.7229C27.2872 54.3764 24.85 48.8425 25.3862 43.175L26.8635 27.5294C27.8734 16.859 36.571 8.69223 47.0285 8.53711C40.5872 8.69641 33.2936 14.9011 32.9134 21.5093L30.6921 46.2583Z" fill="#E0B394"/>
<path d="M67.1495 23.9041C66.8607 23.8679 66.5719 23.834 66.279 23.8C60.6669 23.1523 54.2091 22.785 47.3358 22.785C40.4624 22.785 34.0025 23.1523 28.3904 23.8C28.0994 23.834 27.8106 23.8679 27.5239 23.9041C29.955 14.9621 37.9669 8.53021 47.3358 8.53021C52.632 8.53021 57.4961 10.5857 61.1635 13.9876C63.9809 16.6034 66.0942 20.0181 67.1495 23.9041Z" fill="#E0B394"/>
<path d="M68.8258 21.6786C67.9988 21.564 67.1491 21.4577 66.2784 21.358C60.6662 20.7103 54.2085 20.343 47.3351 20.343C40.4618 20.343 34.0019 20.7103 28.3897 21.358C27.5192 21.4577 26.6693 21.564 25.8423 21.6786C27.6022 11.7768 36.0671 4.43604 46.0759 4.43604H48.5942C58.6029 4.43622 67.0659 11.777 68.8258 21.6786Z" fill="#F9C573"/>
<path d="M46.0759 4.43622H46.4644C39.7262 4.43622 33.9997 11.4139 32.591 20.9397C31.1448 21.0607 29.7423 21.2009 28.3897 21.358C27.5192 21.4577 26.6693 21.564 25.8423 21.6786C27.6022 11.777 36.0671 4.43622 46.0759 4.43622Z" fill="#E2AF66"/>
<path d="M1.58882 68.9137C1.19017 68.9137 0.791153 68.7582 0.486694 68.4473C-0.121867 67.8253 -0.121867 66.8169 0.486694 66.1951L7.65471 58.8694C8.26345 58.2475 9.25005 58.2475 9.85861 58.8694C10.4672 59.4913 10.4672 60.4998 9.85861 61.1216L2.6906 68.4473C2.38649 68.7582 1.98766 68.9137 1.58882 68.9137Z" fill="#F76B4F"/>
<path d="M78.1172 72.8306C81.2442 72.8306 83.7792 70.2399 83.7792 67.0441C83.7792 63.8483 81.2442 61.2576 78.1172 61.2576C74.9901 61.2576 72.4551 63.8483 72.4551 67.0441C72.4551 70.2399 74.9901 72.8306 78.1172 72.8306Z" fill="#FCEA81"/>
<path d="M78.1221 73.9986C77.7911 73.9986 77.4568 73.9738 77.12 73.9229C75.3221 73.6504 73.7354 72.679 72.6525 71.187C71.5696 69.695 71.1199 67.8614 71.3865 66.0241C71.9368 62.2309 75.4059 59.6031 79.1154 60.1647C80.9134 60.4372 82.5 61.4086 83.583 62.9006C84.6659 64.3926 85.1156 66.2263 84.849 68.0635C84.3486 71.5124 81.4363 73.9986 78.1221 73.9986ZM78.1148 62.4247C75.9136 62.4247 73.9798 64.0756 73.6473 66.3665C73.4702 67.5869 73.7688 68.8045 74.488 69.7953C75.2072 70.7862 76.2608 71.4313 77.455 71.6124C79.9181 71.9844 82.2224 70.2403 82.588 67.721C82.765 66.5005 82.4664 65.283 81.7473 64.2921C81.028 63.3013 79.9744 62.6559 78.7802 62.475C78.5566 62.441 78.3346 62.4247 78.1148 62.4247ZM83.7186 67.8923H83.7207H83.7186Z" fill="#E8D574"/>
<path d="M90.971 0H87.9115C83.4045 0 79.751 3.73398 79.751 8.33983V11.4666H82.8105C87.3175 11.4666 90.971 7.73261 90.971 3.12676V0Z" fill="#90BC42"/>
<path d="M11.9141 4.09723L11.4047 7.18021C10.6545 11.7219 13.6488 16.0255 18.0927 16.7923L21.1093 17.3127L21.6185 14.2297C22.3688 9.68794 19.3745 5.38433 14.9306 4.61763L11.9141 4.09723Z" fill="#90BC42"/>
<path d="M9.94922 51.3135L11.7008 52.6237C14.281 54.5536 17.9039 53.9806 19.7923 51.3435L21.0743 49.5534L19.3227 48.2433C16.7426 46.3134 13.1196 46.8864 11.2312 49.5235L9.94922 51.3135Z" fill="#90BC42"/>
<path d="M62.8774 57.7223L54.3481 64.0545C51.1192 66.452 47.0093 66.9976 43.3795 65.6916C43.3711 65.6875 43.3608 65.6853 43.3524 65.6831C42.2885 65.2987 41.2683 64.7573 40.323 64.0543L31.7937 57.7222C27.2849 54.3756 24.8477 48.8418 25.3837 43.1742L25.4336 42.6413L26.1318 35.2495L26.2585 35.2622C28.5669 37.6213 30.1731 40.5835 30.9128 43.8091C31.0355 44.342 31.133 44.8815 31.2079 45.4271L31.7834 49.6506C31.9288 50.723 32.8368 51.5172 33.8965 51.4937C33.9526 51.4915 34.0086 51.4915 34.0626 51.4915C35.9471 51.4915 37.6697 52.1965 38.9933 53.3623C41.3911 51.7547 44.2543 50.8162 47.3337 50.8162C50.4753 50.8162 53.3946 51.7909 55.8194 53.4556C57.1576 52.2346 58.9237 51.4914 60.858 51.4914H60.8788C61.9385 51.4935 62.8486 50.7205 62.994 49.6461L63.5676 45.4268C64.0912 41.5791 65.8282 38.0095 68.5169 35.2618L68.5377 35.2596L69.2359 42.6408L69.2858 43.1737C69.8213 48.842 67.384 54.3756 62.8774 57.7223Z" fill="#B3B3B3"/>
<path d="M51.694 83.5053C52.526 83.5053 53.2005 82.816 53.2005 81.9657C53.2005 81.1154 52.526 80.4261 51.694 80.4261C50.862 80.4261 50.1875 81.1154 50.1875 81.9657C50.1875 82.816 50.862 83.5053 51.694 83.5053Z" fill="#FCEA81"/>
<path d="M48.3751 77.3472H46.2974V85.204H48.3751V77.3472Z" fill="#83A538"/>
<path d="M53.0095 55.0281C53.0095 55.0281 52.9269 55.3254 52.7529 55.7946C52.7109 55.9156 52.6617 56.0431 52.6066 56.1811C52.5414 56.317 52.466 56.455 52.385 56.61C52.3037 56.7649 52.211 56.9222 52.1125 57.0962C52.0778 57.162 52.04 57.2172 51.9995 57.2746C51.9849 57.2959 51.9691 57.3171 51.9531 57.3384C51.8965 57.4148 51.8386 57.4955 51.7792 57.5761C51.6603 57.7396 51.5313 57.9011 51.3968 58.0709C51.2546 58.2239 51.1026 58.3683 50.946 58.5254C50.8676 58.604 50.7866 58.6803 50.704 58.7568C50.6213 58.8289 50.533 58.8885 50.443 58.9542C50.2662 59.0859 50.0821 59.2132 49.8924 59.3408C49.5012 59.5362 49.0939 59.7654 48.6591 59.861C48.2301 60.0076 47.7824 60.0308 47.3361 60.0628C46.8898 60.031 46.4417 60.0097 46.013 59.8632C45.5783 59.7676 45.1711 59.5382 44.7797 59.3429C44.5897 59.2176 44.4058 59.0903 44.2277 58.9586C44.1392 58.8928 44.0508 58.8333 43.9668 58.7611C43.8856 58.6825 43.8045 58.6082 43.7261 58.5297C43.5697 58.3726 43.416 58.226 43.274 58.0753C43.1391 57.9054 43.0118 57.742 42.8915 57.5805C42.8321 57.4977 42.7756 57.4192 42.7191 57.3405C42.6986 57.3129 42.6786 57.2853 42.6581 57.2577C42.6235 57.2067 42.5901 57.158 42.5611 57.1006C42.4669 56.9328 42.3755 56.7778 42.2959 56.6249C42.2175 56.4699 42.1409 56.3339 42.0771 56.198C42.0192 56.0536 41.9655 55.9219 41.9207 55.801C41.7396 55.3169 41.6641 55.0281 41.6641 55.0281C41.6641 55.0281 41.8784 55.1236 42.209 55.3191C42.2931 55.3657 42.38 55.4231 42.477 55.4804C42.5799 55.5249 42.6857 55.5823 42.7987 55.6375C42.9132 55.6927 43.0276 55.7606 43.1494 55.8244C43.2697 55.8923 43.406 55.937 43.5406 55.9964C43.6755 56.0538 43.81 56.1237 43.9508 56.1853C44.0971 56.232 44.2435 56.2872 44.3942 56.3402C44.4696 56.3657 44.5433 56.3976 44.6189 56.4273C44.6958 56.4527 44.7753 56.4676 44.8537 56.491C45.0115 56.5313 45.1697 56.578 45.3277 56.6312C45.6567 56.6757 45.9814 56.782 46.3205 56.8011C46.6552 56.8648 46.9973 56.8477 47.3363 56.8775C47.6768 56.8477 48.0188 56.867 48.3536 56.8032C48.6927 56.7862 49.0174 56.6779 49.3464 56.6334C49.5043 56.5824 49.6624 56.5357 49.8204 56.4954C49.8988 56.4719 49.9783 56.4572 50.0552 56.4316C50.1306 56.3998 50.2059 56.37 50.2799 56.3446C50.4306 56.2916 50.5771 56.2342 50.7233 56.1897C50.8655 56.1281 51.0001 56.058 51.135 56.0008C51.2684 55.9414 51.4074 55.8945 51.5233 55.8287C51.6422 55.7694 51.7537 55.7034 51.8667 55.6526C51.9783 55.5973 52.0826 55.5421 52.1855 55.4976C52.2868 55.4339 52.377 55.3723 52.4623 55.3234C52.7994 55.1174 53.0095 55.0281 53.0095 55.0281Z" fill="#F2F2F2"/>
<path d="M51.9991 57.2746C51.9845 57.2959 51.9687 57.3171 51.9527 57.3384C51.8962 57.4149 51.8382 57.4955 51.7789 57.5762C51.6599 57.7396 51.5309 57.9011 51.3964 58.071C51.2542 58.2239 51.1022 58.3683 50.9456 58.5254C50.8673 58.6041 50.7862 58.6804 50.7036 58.7568C50.6209 58.8289 50.5326 58.8885 50.4426 58.9543C50.2658 59.086 50.0817 59.2133 49.892 59.3408C49.5008 59.5362 49.0935 59.7655 48.6587 59.861C48.2297 60.0076 47.782 60.0309 47.3357 60.0628C46.8894 60.031 46.4413 60.0098 46.0126 59.8632C45.5779 59.7677 45.1707 59.5382 44.7793 59.343C44.5893 59.2176 44.4054 59.0903 44.2273 58.9586C44.1388 58.8929 44.0504 58.8333 43.9664 58.7612C43.8851 58.6825 43.8041 58.6082 43.7257 58.5298C43.5693 58.3727 43.4156 58.2261 43.2736 58.0753C43.1387 57.9055 43.0114 57.742 42.8911 57.5805C42.8317 57.4977 42.7752 57.4192 42.7187 57.3406C42.6982 57.313 42.6782 57.2854 42.6577 57.2578C42.7041 57.2812 42.7503 57.3044 42.7983 57.3279C42.9128 57.3831 43.0272 57.4488 43.149 57.5126C43.2693 57.5827 43.4056 57.6272 43.5402 57.6868C43.6751 57.7442 43.8096 57.8121 43.9504 57.8757C44.0966 57.9204 44.2431 57.9776 44.3938 58.0306C44.4692 58.0561 44.5429 58.0858 44.6185 58.1156C44.6954 58.1411 44.7749 58.156 44.8533 58.1794C45.0111 58.2197 45.1693 58.2686 45.3273 58.3196C45.6563 58.3663 45.981 58.4726 46.3201 58.4894C46.6548 58.5552 46.9969 58.5361 47.3359 58.5681C47.6764 58.5383 48.0184 58.5576 48.3532 58.4916C48.6923 58.4746 49.017 58.3685 49.346 58.3238C49.5039 58.2728 49.662 58.2241 49.82 58.1836C49.8984 58.1601 49.9779 58.1454 50.0548 58.1198C50.1302 58.09 50.2055 58.0604 50.2795 58.0348C50.4302 57.9818 50.5767 57.9244 50.7229 57.8799C50.8651 57.8161 50.9997 57.746 51.1346 57.691C51.268 57.6316 51.407 57.5827 51.5229 57.5189C51.6418 57.4574 51.7533 57.3936 51.8663 57.3406C51.9107 57.3195 51.9557 57.2961 51.9991 57.2746Z" fill="#4D4D4D"/>
<path d="M38.0862 44.7333C37.2256 44.7333 36.5278 44.0202 36.5278 43.1407V40.5934C36.5278 39.7138 37.2256 39.0007 38.0862 39.0007C38.9468 39.0007 39.6446 39.7138 39.6446 40.5934V43.1407C39.6446 44.0202 38.947 44.7333 38.0862 44.7333Z" fill="#4D4D4D"/>
<path d="M53.0225 34.4354C53.0225 34.4354 53.0266 34.3931 53.0406 34.3206C53.0566 34.2503 53.0728 34.1393 53.1078 34.0136C53.1234 33.9486 53.1435 33.8808 53.1666 33.8064C53.1968 33.7308 53.2372 33.6547 53.2802 33.5686C53.3228 33.482 53.3765 33.3964 53.433 33.3001C53.4899 33.2024 53.558 33.1283 53.6275 33.034C53.698 32.9434 53.7777 32.8557 53.8608 32.7614C53.9488 32.6762 54.0441 32.5923 54.1456 32.508C54.3439 32.3294 54.5865 32.2003 54.8391 32.0568C55.1005 31.9438 55.3778 31.8214 55.675 31.7645C55.9691 31.6864 56.2777 31.6679 56.5855 31.6532C56.8932 31.6675 57.2021 31.6844 57.4964 31.7622C57.7937 31.8183 58.0714 31.9415 58.333 32.0535C58.5859 32.1968 58.8285 32.3258 59.0272 32.5045C59.1283 32.589 59.224 32.6731 59.3121 32.7579C59.3953 32.8524 59.4744 32.941 59.5455 33.0309C59.6141 33.1248 59.6854 33.2019 59.7374 33.2958C59.7899 33.3891 59.8405 33.4729 59.8816 33.5575C59.9225 33.6425 59.9623 33.7172 59.9921 33.7926C60.0193 33.8712 60.0435 33.9422 60.0613 34.0096C60.1007 34.1399 60.1171 34.2517 60.1324 34.3219C60.1457 34.3943 60.1485 34.4354 60.1485 34.4354C60.1485 34.4354 60.1055 34.4343 60.0328 34.427C59.9623 34.4178 59.8524 34.413 59.7314 34.3949C59.6687 34.3883 59.6047 34.3764 59.5343 34.3669C59.4593 34.3633 59.3853 34.3527 59.3048 34.3464C59.1472 34.3293 58.9826 34.3041 58.8017 34.297C58.7128 34.291 58.6264 34.2779 58.5363 34.2703C58.443 34.269 58.3509 34.2641 58.2596 34.2572C58.0804 34.2334 57.8858 34.2474 57.705 34.2243C57.5149 34.2314 57.3329 34.2076 57.1445 34.2134C56.9591 34.1993 56.7718 34.2143 56.5857 34.2009C56.3998 34.2138 56.2123 34.1973 56.0265 34.2111C55.8379 34.2043 55.6558 34.2289 55.4652 34.221C55.2843 34.2439 55.0892 34.2298 54.91 34.2537C54.8186 34.2608 54.7266 34.2659 54.6331 34.2668C54.543 34.2744 54.4571 34.2884 54.3677 34.2941C54.1832 34.3042 54.0299 34.322 53.8759 34.3357C53.7951 34.342 53.7195 34.348 53.6495 34.3533C53.5749 34.3671 53.5068 34.3823 53.4419 34.3911C53.3163 34.4138 53.2062 34.419 53.1362 34.4283C53.0641 34.4354 53.0225 34.4354 53.0225 34.4354Z" fill="#666666"/>
<path d="M34.5229 34.4354C34.5229 34.4354 34.527 34.3931 34.5411 34.3206C34.5571 34.2503 34.5732 34.1393 34.6083 34.0136C34.6239 33.9486 34.644 33.8808 34.6671 33.8064C34.6973 33.7308 34.7377 33.6547 34.7807 33.5686C34.8233 33.482 34.877 33.3964 34.9335 33.3001C34.9904 33.2024 35.0585 33.1283 35.128 33.034C35.1985 32.9434 35.2781 32.8557 35.3613 32.7614C35.4493 32.6762 35.5446 32.5923 35.646 32.508C35.8444 32.3294 36.087 32.2003 36.3396 32.0568C36.601 31.9438 36.8783 31.8214 37.1754 31.7645C37.4696 31.6864 37.7781 31.6679 38.086 31.6532C38.3936 31.6675 38.7025 31.6844 38.9969 31.7622C39.2942 31.8183 39.5718 31.9415 39.8335 32.0535C40.0864 32.1968 40.329 32.3258 40.5277 32.5045C40.6288 32.589 40.7244 32.6731 40.8126 32.7579C40.8958 32.8524 40.9749 32.941 41.046 33.0309C41.1146 33.1248 41.1858 33.2019 41.2379 33.2958C41.2903 33.3891 41.341 33.4729 41.3821 33.5575C41.4229 33.6425 41.4627 33.7172 41.4926 33.7926C41.5198 33.8712 41.544 33.9422 41.5617 34.0096C41.6012 34.1399 41.6176 34.2517 41.6328 34.3219C41.6462 34.3943 41.649 34.4354 41.649 34.4354C41.649 34.4354 41.606 34.4343 41.5333 34.427C41.4627 34.4178 41.3529 34.413 41.2319 34.3949C41.1691 34.3883 41.1051 34.3764 41.0348 34.3669C40.9598 34.3633 40.8858 34.3527 40.8053 34.3464C40.6477 34.3293 40.4831 34.3041 40.3021 34.297C40.2133 34.291 40.1269 34.2779 40.0368 34.2703C39.9435 34.269 39.8514 34.2641 39.7601 34.2572C39.5809 34.2334 39.3863 34.2474 39.2055 34.2243C39.0154 34.2314 38.8334 34.2076 38.645 34.2134C38.4596 34.1993 38.2722 34.2143 38.0862 34.2009C37.9002 34.2138 37.7127 34.1973 37.527 34.2111C37.3384 34.2043 37.1563 34.2289 36.9657 34.221C36.7848 34.2439 36.5896 34.2298 36.4105 34.2537C36.3191 34.2608 36.2271 34.2659 36.1336 34.2668C36.0435 34.2744 35.9576 34.2884 35.8682 34.2941C35.6837 34.3042 35.5303 34.322 35.3764 34.3357C35.2956 34.342 35.22 34.348 35.15 34.3533C35.0753 34.3671 35.0073 34.3823 34.9424 34.3911C34.8167 34.4138 34.7067 34.419 34.6369 34.4283C34.5645 34.4354 34.5229 34.4354 34.5229 34.4354Z" fill="#666666"/>
<path d="M56.5857 44.7333C55.7251 44.7333 55.0273 44.0202 55.0273 43.1407V40.5934C55.0273 39.7138 55.7251 39.0007 56.5857 39.0007C57.4463 39.0007 58.1441 39.7138 58.1441 40.5934V43.1407C58.1439 44.0202 57.4463 44.7333 56.5857 44.7333Z" fill="#4D4D4D"/>
<path d="M49.7252 38.2576V45.7959C49.7252 47.1446 48.6554 48.2379 47.3358 48.2379C46.0161 48.2379 44.9463 47.1446 44.9463 45.7959V38.2576H49.7252Z" fill="#E0B394"/>
<path d="M43.3794 65.6916C43.3711 65.6874 43.3608 65.6853 43.3524 65.6831C42.2885 65.2987 41.2683 64.7573 40.323 64.0543L31.7937 57.7222C27.2849 54.3756 24.8477 48.8418 25.3837 43.1742L25.4336 42.6413L26.1318 35.2495L26.2585 35.2622C28.5669 37.6213 30.1731 40.5835 30.9128 43.8091L30.6926 46.2574C30.5492 48.7355 31.3389 51.1731 32.9013 53.0736L41.815 64.2685C42.2803 64.8359 42.808 65.3115 43.3794 65.6916Z" fill="#AAAAAA"/>
</svg>
