<svg width="92" height="91" viewBox="0 0 92 91" fill="none" xmlns="http://www.w3.org/2000/svg">
<g clip-path="url(#clip0)">
<path d="M31.9225 40.1465H1.07227V60.0807H41.86" fill="#E6E6E6"/>
<path d="M41.8597 61.1409H0V39.0864H31.9223C32.5143 39.0864 32.9943 39.5611 32.9943 40.1467C32.9943 40.7322 32.5145 41.2071 31.9223 41.2071H2.14404V59.0204H41.8597C42.4518 59.0204 42.9317 59.4951 42.9317 60.0807C42.9317 60.6664 42.4518 61.1409 41.8597 61.1409Z" fill="#666666"/>
<path d="M26.4952 37.3858C23.8367 37.2692 21.7207 35.0998 21.7207 32.4426C21.7207 29.7112 23.9589 27.4952 26.7225 27.4952C26.9712 27.4952 27.2156 27.5121 27.4558 27.5482L26.4952 37.3858Z" fill="#E0B394"/>
<path d="M71.694 37.3858C74.3525 37.2692 76.4707 35.0998 76.4707 32.4426C76.4707 29.7112 74.2303 27.4952 71.4667 27.4952C71.218 27.4952 70.9715 27.5142 70.7334 27.5482L71.694 37.3858Z" fill="#E0B394"/>
<path d="M72.4646 68.4277V87.6789H25.7266V68.4277C25.7266 62.8674 29.2233 58.1171 34.1609 56.2065C35.6574 55.6297 37.2846 55.3116 38.987 55.3116H59.2065C60.9089 55.3116 62.5362 55.6276 64.0305 56.2065C68.9679 58.115 72.4646 62.8674 72.4646 68.4277Z" fill="#F7CBA4"/>
<path d="M72.4656 72.5917H25.7275V87.678H72.4656V72.5917Z" fill="#C1442B"/>
<path d="M47.1579 55.3115C39.8342 55.3115 33.8976 61.1835 33.8976 68.4277V72.5925H25.7271V68.4275C25.7271 61.1834 31.6636 55.3114 38.9873 55.3114L47.1579 55.3115Z" fill="#E0B394"/>
<path d="M33.8981 72.5917H25.7275V87.678H33.8981V72.5917Z" fill="#A53725"/>
<path d="M64.0302 56.2065L56.3313 61.7392C52.0177 64.8417 46.1753 64.8417 41.8595 61.7392L34.1606 56.2065C35.6571 55.6297 37.2843 55.3116 38.9867 55.3116H59.2063C60.9084 55.3116 62.5357 55.6276 64.0302 56.2065Z" fill="#E0B394"/>
<path d="M41.8604 58.7714L33.0596 52.4467C28.4089 49.1046 25.8931 43.5777 26.446 37.9179L27.9725 22.2935C29.0238 11.5323 38.1663 3.32098 49.0964 3.32098C60.0264 3.32098 69.169 11.5323 70.2203 22.2935L71.7468 37.9179C72.2997 43.5777 69.784 49.1044 65.1332 52.4467L56.3324 58.7714C52.0176 61.872 46.175 61.872 41.8604 58.7714Z" fill="#F7CBA4"/>
<path d="M31.9226 40.9972C31.7747 43.472 32.5895 45.9064 34.2016 47.8044L43.3998 58.9845C43.8801 59.5508 44.4246 60.0257 45.0141 60.4053C43.9078 60.0235 42.8444 59.4765 41.8604 58.7703L33.0595 52.4465C28.4094 49.1044 25.8945 43.5779 26.4475 37.9179L27.9718 22.2931C29.0138 11.6368 37.9884 3.48095 48.7788 3.32614C42.1325 3.48521 34.6066 9.68176 34.2144 16.2812L31.9226 40.9972Z" fill="#E8BA97"/>
<path d="M70.4128 24.2695H70.4107C68.5304 24.9502 66.498 25.3213 64.3798 25.3213C57.83 25.3213 52.1186 21.7757 49.0956 16.5185C46.4049 21.1966 41.5875 24.5176 35.9446 25.1941C35.2434 25.2789 34.5317 25.3213 33.8092 25.3213C31.691 25.3213 29.6586 24.9502 27.7783 24.2695L27.9713 22.2931C29.0239 11.533 38.1657 3.32187 49.0956 3.32187C50.472 3.32187 51.8184 3.45126 53.124 3.70151C53.1262 3.70151 53.1283 3.70151 53.1283 3.70151C57.011 4.4416 60.5334 6.23139 63.3635 8.77193C67.1454 12.1691 69.6946 16.9131 70.2199 22.2931L70.4128 24.2695Z" fill="#666666"/>
<path d="M53.1926 3.71626C44.1517 5.46784 37.0809 12.9114 36.1633 22.2931L35.9703 24.2695C35.966 24.5791 35.9573 24.8866 35.9446 25.1941C35.2434 25.2789 34.5317 25.3213 33.8092 25.3213C31.691 25.3213 29.6586 24.9502 27.7783 24.2695L27.9713 22.2931C29.0239 11.533 38.1657 3.32187 49.0956 3.32187C50.472 3.32187 51.8184 3.45126 53.124 3.70151C53.1262 3.70151 53.1283 3.70151 53.1283 3.70151C53.1497 3.70791 53.1711 3.712 53.1926 3.71626Z" fill="#4D4D4D"/>
<path d="M19.4921 16.3143L18.4179 10.1241C18.3324 9.63109 17.8586 9.30032 17.3605 9.38439L10.8615 10.4876C10.622 10.5283 10.4089 10.6612 10.2687 10.8575C10.1286 11.0537 10.0727 11.2968 10.114 11.5337L10.7503 15.2006C10.4465 15.1492 10.1334 15.1457 9.82078 15.1988C9.09736 15.3216 8.46576 15.7157 8.04223 16.3084C7.61853 16.9012 7.45375 17.6215 7.57792 18.3367C7.7019 19.0523 8.10045 19.677 8.69971 20.0959C9.16887 20.424 9.71692 20.5952 10.2801 20.5952C10.4362 20.5952 10.5934 20.582 10.7507 20.5554C11.4737 20.4326 12.1057 20.0385 12.5292 19.4458C12.9529 18.853 13.1177 18.1327 12.9935 17.4171L12.0744 12.1197L16.7682 11.3229L17.2493 14.0954C16.9495 14.0442 16.6365 14.0414 16.3199 14.0951C15.5965 14.2179 14.9649 14.6119 14.5414 15.2047C14.1177 15.7974 13.9529 16.5178 14.077 17.2333C14.2012 17.9489 14.5996 18.5736 15.1988 18.9926C15.668 19.3207 16.2159 19.4918 16.7792 19.4918C16.9353 19.4918 17.0926 19.4787 17.2498 19.452C18.7423 19.1989 19.7484 17.7911 19.4921 16.3143Z" fill="#5D9EBA"/>
<path d="M87.8254 21.9922L89.9456 16.072C90.1143 15.6003 89.8644 15.0827 89.3882 14.9157L83.1726 12.7381C82.9437 12.6579 82.6919 12.6709 82.4725 12.7743C82.2531 12.8778 82.0844 13.0631 82.0034 13.2896L80.7475 16.7964C80.5078 16.605 80.2365 16.4506 79.9373 16.3459C79.2455 16.1035 78.4998 16.142 77.8373 16.4545C77.175 16.7671 76.6753 17.316 76.4302 18.0001C76.1851 18.6842 76.2241 19.4219 76.54 20.0773C76.7872 20.5902 77.1811 21.0043 77.6722 21.2764C77.8084 21.352 77.9521 21.4163 78.1025 21.4689C78.7941 21.7113 79.54 21.6728 80.2025 21.3603C80.865 21.0479 81.3648 20.4988 81.6099 19.8147L83.4243 14.7482L87.9133 16.3212L86.9638 18.9728C86.7275 18.7835 86.4557 18.6294 86.1533 18.5233C85.4615 18.2809 84.7158 18.3195 84.0532 18.6319C83.3909 18.9445 82.8912 19.4934 82.6461 20.1777C82.401 20.862 82.44 21.5995 82.7561 22.2549C83.0033 22.7678 83.3972 23.1819 83.8883 23.454C84.0245 23.5296 84.1682 23.5939 84.3186 23.6465C85.7461 24.1468 87.3194 23.4048 87.8254 21.9922Z" fill="#5D9EBA"/>
<path d="M91.1954 39.5817L88.0665 38.6895C87.7831 38.6086 87.4784 38.6424 87.2198 38.7837C86.9614 38.925 86.7704 39.1617 86.6884 39.4423L85.4222 43.7872C85.1173 43.572 84.7766 43.4042 84.4062 43.2987C82.6365 42.7937 80.7825 43.8079 80.2725 45.5578C79.7627 47.3078 80.7873 49.1422 82.5565 49.6464C82.8631 49.7339 83.1755 49.7773 83.486 49.7773C84.0434 49.7773 84.5949 49.6377 85.0962 49.3637C85.8768 48.9369 86.4426 48.2354 86.6899 47.3881C86.6899 47.388 86.6901 47.3878 86.6901 47.3874L88.5193 41.1102L90.5785 41.6974C91.1688 41.8656 91.7862 41.5288 91.9564 40.9444C92.1271 40.3602 91.7864 39.75 91.1954 39.5817Z" fill="#5D9EBA"/>
<path d="M52.9546 51.1741C52.9546 53.282 51.2266 54.9913 49.0955 54.9913C46.9644 54.9913 45.2363 53.282 45.2363 51.1741C45.2363 50.7669 45.3007 50.3745 45.4207 50.0078C45.9181 48.4704 47.3761 47.3571 49.0955 47.3571C50.8149 47.3571 52.2729 48.4704 52.7703 50.0078C52.8903 50.3746 52.9546 50.7671 52.9546 51.1741Z" fill="#C1442B"/>
<path d="M52.7698 50.0078H45.4204C45.9178 48.4704 47.3758 47.3571 49.0952 47.3571C50.8146 47.3571 52.2725 48.4704 52.7698 50.0078Z" fill="white"/>
<path d="M26.4121 54.4623L18.8397 50.8042L26.3364 45.6842C26.8236 45.3515 26.9459 44.691 26.6094 44.2094C26.2734 43.7277 25.6053 43.6065 25.1183 43.9394L16.7228 49.6735L8.32723 43.9394C7.8401 43.6067 7.1722 43.7277 6.83618 44.2094C6.49981 44.6912 6.62199 45.3515 7.10913 45.6842L14.6059 50.8042L7.03348 54.4623C6.5016 54.7192 6.28077 55.3542 6.54059 55.8805C6.72639 56.2569 7.10787 56.4757 7.5048 56.4757C7.66257 56.4757 7.82303 56.4412 7.97432 56.368L16.723 52.1418L25.4716 56.3678C25.6229 56.4411 25.7834 56.4755 25.9411 56.4755C26.3381 56.4755 26.7194 56.2568 26.9053 55.8803C27.1648 55.3544 26.9442 54.7192 26.4121 54.4623Z" fill="#4D4D4D"/>
<path d="M49.096 55.8394C46.4952 55.8394 44.3794 53.7466 44.3794 51.1741C44.3794 48.6016 46.4952 46.5087 49.096 46.5087C51.6968 46.5087 53.8126 48.6016 53.8126 51.1741C53.8126 53.7464 51.6968 55.8394 49.096 55.8394ZM49.096 48.205C47.4409 48.205 46.0945 49.5368 46.0945 51.1739C46.0945 52.811 47.4409 54.1428 49.096 54.1428C50.7511 54.1428 52.0975 52.811 52.0975 51.1739C52.0975 49.5368 50.7511 48.205 49.096 48.205Z" fill="#F76B4F"/>
<path d="M18.3306 36.3307H15.1147V87.678H18.3306V36.3307Z" fill="#666666"/>
<path d="M50.7765 40.0076H50.7034V36.7206C50.7034 35.8422 49.9837 35.13 49.0953 35.13C48.2071 35.13 47.4873 35.8422 47.4873 36.7206V40.0076H47.4142C46.526 40.0076 45.8062 40.7198 45.8062 41.5981C45.8062 42.4765 46.5258 43.1887 47.4142 43.1887H50.7763C51.6645 43.1887 52.3844 42.4765 52.3844 41.5981C52.3844 40.7198 51.6645 40.0076 50.7765 40.0076Z" fill="#E0B394"/>
<path d="M54.9629 29.8721C54.9629 29.8721 54.9672 29.8299 54.9816 29.7574C54.9981 29.6872 55.0148 29.5763 55.0508 29.4508C55.0669 29.386 55.0876 29.3182 55.1115 29.2438C55.1426 29.1682 55.1844 29.0923 55.2288 29.0063C55.2729 28.9198 55.3284 28.8343 55.3866 28.7383C55.4454 28.6407 55.5154 28.5668 55.5873 28.4726C55.6603 28.3821 55.7424 28.2945 55.8281 28.2003C55.9188 28.1153 56.0171 28.0315 56.1219 27.9474C56.3265 27.7691 56.5768 27.6401 56.8376 27.4968C57.1073 27.384 57.3935 27.2617 57.7001 27.205C58.0036 27.127 58.322 27.1085 58.6395 27.0939C58.957 27.1083 59.2756 27.125 59.5794 27.2027C59.8862 27.2587 60.1726 27.3817 60.4427 27.4936C60.7036 27.6367 60.954 27.7656 61.1589 27.944C61.2633 28.0284 61.3619 28.1123 61.4529 28.1969C61.5386 28.2913 61.6203 28.3798 61.6936 28.4696C61.7644 28.5632 61.8379 28.6402 61.8917 28.734C61.9457 28.8273 61.998 28.9109 62.0404 28.9955C62.0827 29.0803 62.1236 29.1549 62.1545 29.2303C62.1826 29.3087 62.2075 29.3797 62.2259 29.4469C62.2667 29.5769 62.2836 29.6886 62.2992 29.7587C62.3128 29.831 62.3159 29.8721 62.3159 29.8721C62.3159 29.8721 62.2715 29.871 62.1964 29.8637C62.1235 29.8543 62.0102 29.8497 61.8854 29.8317C61.8207 29.8251 61.7546 29.8132 61.682 29.8036C61.6045 29.8001 61.5283 29.7894 61.4453 29.783C61.2825 29.7661 61.1127 29.7409 60.926 29.7336C60.8342 29.7278 60.7452 29.7146 60.6522 29.707C60.5559 29.7057 60.461 29.7007 60.3666 29.6938C60.1817 29.67 59.981 29.684 59.7943 29.6609C59.5981 29.6679 59.4103 29.6442 59.2159 29.6501C59.0247 29.6359 58.8312 29.651 58.6395 29.6376C58.4476 29.6506 58.2542 29.6341 58.0625 29.6478C57.8679 29.641 57.68 29.6655 57.4834 29.6577C57.2967 29.6807 57.0952 29.6664 56.9105 29.6904C56.8162 29.6974 56.7211 29.7025 56.6248 29.7036C56.5317 29.7112 56.4432 29.7253 56.351 29.7308C56.1605 29.7409 56.0024 29.7589 55.8435 29.7724C55.7602 29.7788 55.6822 29.7846 55.6098 29.79C55.5329 29.8038 55.4624 29.8189 55.3956 29.8276C55.2658 29.8504 55.1525 29.8557 55.0804 29.8648C55.0058 29.8721 54.9629 29.8721 54.9629 29.8721Z" fill="#666666"/>
<path d="M35.875 29.8721C35.875 29.8721 35.8793 29.8299 35.8937 29.7574C35.9102 29.6872 35.9269 29.5763 35.9629 29.4508C35.9789 29.386 35.9997 29.3182 36.0236 29.2438C36.0547 29.1682 36.0966 29.0923 36.1409 29.0063C36.185 28.9198 36.2405 28.8343 36.2987 28.7383C36.3575 28.6407 36.4275 28.5668 36.4994 28.4726C36.5724 28.3821 36.6545 28.2945 36.7402 28.2003C36.8309 28.1153 36.9292 28.0315 37.034 27.9474C37.2386 27.7691 37.489 27.6401 37.7497 27.4968C38.0194 27.384 38.3056 27.2617 38.6122 27.205C38.9157 27.127 39.2341 27.1085 39.5516 27.0939C39.8691 27.1083 40.1877 27.125 40.4915 27.2027C40.7983 27.2587 41.0847 27.3817 41.3548 27.4936C41.6157 27.6367 41.8661 27.7656 42.071 27.944C42.1754 28.0284 42.274 28.1123 42.365 28.1969C42.4507 28.2913 42.5324 28.3798 42.6057 28.4696C42.6765 28.5632 42.75 28.6402 42.8038 28.734C42.8578 28.8273 42.9101 28.9109 42.9525 28.9955C42.9948 29.0803 43.0357 29.1549 43.0666 29.2303C43.0947 29.3087 43.1196 29.3797 43.138 29.4469C43.1788 29.5769 43.1957 29.6886 43.2113 29.7587C43.2249 29.831 43.228 29.8721 43.228 29.8721C43.228 29.8721 43.1836 29.871 43.1085 29.8637C43.0356 29.8543 42.9223 29.8497 42.7975 29.8317C42.7328 29.8251 42.6667 29.8132 42.5941 29.8036C42.5166 29.8001 42.4404 29.7894 42.3574 29.783C42.1946 29.7661 42.0248 29.7409 41.8381 29.7336C41.7463 29.7278 41.6573 29.7146 41.5643 29.707C41.468 29.7057 41.3731 29.7007 41.2787 29.6938C41.094 29.67 40.8931 29.684 40.7064 29.6609C40.5102 29.6679 40.3225 29.6442 40.128 29.6501C39.9368 29.6359 39.7433 29.651 39.5516 29.6376C39.3597 29.6506 39.1663 29.6341 38.9746 29.6478C38.78 29.641 38.5921 29.6655 38.3955 29.6577C38.2088 29.6807 38.0074 29.6664 37.8226 29.6904C37.7283 29.6974 37.6332 29.7025 37.5369 29.7036C37.4439 29.7112 37.3553 29.7253 37.2631 29.7308C37.0726 29.7409 36.9145 29.7589 36.7556 29.7724C36.6723 29.7788 36.5943 29.7846 36.5219 29.79C36.445 29.8038 36.3745 29.8189 36.3077 29.8276C36.178 29.8504 36.0646 29.8557 35.9925 29.8648C35.9179 29.8721 35.875 29.8721 35.875 29.8721Z" fill="#666666"/>
<path d="M76.9084 60.6271C74.9707 57.0036 70.4301 55.6201 66.7667 57.5366C63.1034 59.4533 61.7047 63.9445 63.6422 67.5682C64.7948 69.7234 66.8685 71.0861 69.1303 71.4332L69.1285 71.4341L75.3453 83.059C76.5027 85.2233 79.2147 86.0497 81.4028 84.9048C83.5908 83.76 84.4264 81.0774 83.2688 78.9132L77.0511 67.2865C78.0329 65.2423 78.0604 62.7816 76.9084 60.6271Z" fill="#CCCCCC"/>
<path d="M81.4032 84.9055C79.2162 86.0498 76.504 85.2235 75.3461 83.0581L69.1298 71.4343C66.8679 71.0872 64.7955 69.7245 63.6428 67.5687C61.7051 63.9452 63.1038 59.4541 66.7673 57.5372C65.3231 58.2928 65.7227 61.843 67.6607 65.4665C68.8135 67.6221 70.2492 69.318 71.5293 70.1789L77.7456 81.8028C78.9034 83.968 80.5409 85.3566 81.4032 84.9055Z" fill="#B3B3B3"/>
<path d="M77.6126 62.5381C77.9666 64.1571 77.7522 65.8285 77.0521 67.2864L83.2695 78.9124C83.849 79.9959 83.9288 81.2065 83.5924 82.2917C83.253 83.3762 82.4965 84.3335 81.4031 84.9055C79.2161 86.0497 76.5039 85.2234 75.346 83.0581L69.1297 71.4342C67.5158 71.1872 65.9981 70.4219 64.8433 69.2197L77.6126 62.5381Z" fill="#5D9EBA"/>
<path d="M81.4031 84.9053C79.2161 86.0496 76.5039 85.2233 75.346 83.0579L69.1297 71.4341C67.5158 71.187 65.9981 70.4217 64.8433 69.2195L68.7112 67.1958C69.6235 68.5251 70.6161 69.565 71.5291 70.1789L77.7454 81.8028C78.9031 83.9677 80.5408 85.3566 81.4031 84.9053Z" fill="#508DA3"/>
<path d="M62.6479 35.6753C62.6479 35.6753 57.4217 34.1384 55.5854 37.3518C55.5854 37.3518 58.6224 38.1203 60.6704 40.1462L59.2579 36.9327L62.6479 35.6753Z" fill="#4D4D4D"/>
<path d="M35.5444 35.6753C35.5444 35.6753 40.7707 34.1384 42.6069 37.3518C42.6069 37.3518 39.57 38.1203 37.5219 40.1462L38.9342 36.9327L35.5444 35.6753Z" fill="#4D4D4D"/>
</g>
<defs>
<clipPath id="clip0">
<rect width="92" height="91" fill="white"/>
</clipPath>
</defs>
</svg>
