<svg width="92" height="91" viewBox="0 0 92 91" fill="none" xmlns="http://www.w3.org/2000/svg">
<g clip-path="url(#clip0)">
<path d="M9.48809 46.4029C11.7017 46.4029 13.4962 44.6279 13.4962 42.4384C13.4962 40.2488 11.7017 38.4738 9.48809 38.4738C7.27447 38.4738 5.47998 40.2488 5.47998 42.4384C5.47998 44.6279 7.27447 46.4029 9.48809 46.4029Z" fill="#F9C573"/>
<path d="M3.36118 35.9016C4.89472 35.9016 6.1379 34.672 6.1379 33.1551C6.1379 31.6382 4.89472 30.4086 3.36118 30.4086C1.82765 30.4086 0.584473 31.6382 0.584473 33.1551C0.584473 34.672 1.82765 35.9016 3.36118 35.9016Z" fill="#F76B4F"/>
<path d="M83.0355 39.3713C84.569 39.3713 85.8122 38.1417 85.8122 36.6248C85.8122 35.108 84.569 33.8783 83.0355 33.8783C81.502 33.8783 80.2588 35.108 80.2588 36.6248C80.2588 38.1417 81.502 39.3713 83.0355 39.3713Z" fill="#90BC42"/>
<path d="M81.8557 48.0162H73.5483V57.8593H81.8557V48.0162Z" fill="#C0E7F9"/>
<path d="M75.9587 48.0162H73.5483V57.8593H75.9587V48.0162Z" fill="#B2DBEA"/>
<path d="M77.695 83.5991C85.2726 83.5991 91.4154 77.5231 91.4154 70.0279C91.4154 62.5327 85.2726 56.4566 77.695 56.4566C70.1174 56.4566 63.9746 62.5327 63.9746 70.0279C63.9746 77.5231 70.1174 83.5991 77.695 83.5991Z" fill="#C0E7F9"/>
<path d="M69.8778 70.0286C69.8778 62.5334 73.3779 56.4575 77.6958 56.4575C70.1182 56.4575 63.9756 62.5334 63.9756 70.0286C63.9756 77.5238 70.1182 83.5997 77.6958 83.5997C73.3779 83.5995 69.8778 77.5237 69.8778 70.0286Z" fill="#B2DBEA"/>
<path d="M91.3169 72.3493C90.2036 78.7392 84.5729 83.5991 77.7956 83.5991C77.7189 83.5991 77.6421 83.5991 77.5654 83.597C77.5406 83.597 77.5178 83.5949 77.495 83.5949C70.0563 83.437 64.0752 77.4245 64.0752 70.0277C64.0752 69.5766 64.098 69.1316 64.1415 68.6927C67.0399 68.9531 68.1095 70.6921 69.9443 71.8097C70.8482 72.3613 71.9367 72.7612 73.5185 72.7612C78.5853 72.7612 78.5853 68.6599 83.6543 68.6599C87.7282 68.6602 88.5264 71.3095 91.3169 72.3493Z" fill="#90BC42"/>
<path d="M13.8453 57.1395V86.0313C13.8453 87.2862 13.3312 88.4245 12.4998 89.2467C11.6684 90.069 10.5198 90.5775 9.24906 90.5775C6.71151 90.5775 4.65283 88.5434 4.65283 86.0313V57.1395H13.8453Z" fill="#C0E7F9"/>
<path d="M7.34845 86.0313V57.1395H4.65332V86.0313C4.65332 88.5434 6.712 90.5775 9.24955 90.5775C9.71889 90.5775 10.1715 90.5079 10.5977 90.3788C8.71731 89.8094 7.34845 88.0795 7.34845 86.0313Z" fill="#B2DBEA"/>
<path d="M77.495 83.5951C70.0563 83.4372 64.0752 77.4247 64.0752 70.0279C64.0752 69.5768 64.098 69.1318 64.1415 68.6929C67.0399 68.9533 68.1095 70.6923 69.9443 71.8099C70.4399 78.3494 73.6161 83.4248 77.495 83.5951Z" fill="#83A538"/>
<path d="M76.5246 20.1478C76.5246 23.6154 74.3334 26.5745 71.2442 27.7475C72.0319 28.6559 72.5067 29.835 72.5067 31.125C72.5067 32.8188 71.6878 34.3219 70.421 35.2694C69.5959 33.799 19.5118 33.799 18.6867 35.2694C17.4179 34.3221 16.5989 32.8188 16.5989 31.125C16.5989 29.8352 17.0758 28.6561 17.8615 27.7475C14.7745 26.5745 12.5811 23.6154 12.5811 20.1478C12.5811 15.8127 16.0059 12.2711 20.3224 12.0211C20.31 11.814 20.3017 11.6048 20.3017 11.3935C20.3017 5.75628 24.9229 1.18531 30.6242 1.18531C33.2965 1.18531 35.7325 2.19022 37.5673 3.83888C39.0206 1.53598 41.606 0 44.5539 0C47.5019 0 50.0872 1.53598 51.5405 3.83888C53.3732 2.19022 55.8092 1.18531 58.4837 1.18531C64.1828 1.18531 68.804 5.75628 68.804 11.3935C68.804 11.6046 68.7958 11.8138 68.7834 12.0211C73.1018 12.2711 76.5246 15.8127 76.5246 20.1478Z" fill="#C2DB8D"/>
<path d="M28.6899 33.5591C30.4152 33.0198 23.917 28.6559 24.7028 27.7475C21.6157 26.5745 19.4223 23.6154 19.4223 20.1478C19.4223 15.8127 22.8471 12.2711 27.1636 12.0211C27.1512 11.814 27.1429 11.6048 27.1429 11.3935C27.1429 6.94176 30.0258 3.15727 34.0458 1.76134C32.9745 1.38916 31.8236 1.1853 30.6242 1.1853C24.9229 1.1853 20.3017 5.75627 20.3017 11.3935C20.3017 11.6046 20.31 11.8138 20.3224 12.0211C16.0059 12.2713 12.5811 15.8127 12.5811 20.1478C12.5811 23.6154 14.7745 26.5745 17.8615 27.7475C17.0758 28.6559 16.5989 29.835 16.5989 31.125C16.5989 32.8188 17.4177 34.3219 18.6867 35.2694C18.8588 34.9628 21.175 34.72 24.7391 34.5414C23.931 33.6284 27.4277 33.9535 28.6899 33.5591Z" fill="#B5C981"/>
<path d="M22.6996 42.3673C20.1288 42.2544 18.0825 40.1566 18.0825 37.5871C18.0825 34.9458 20.2469 32.8029 22.9194 32.8029C23.1598 32.8029 23.3962 32.8192 23.6284 32.854L26.9278 38.1646L22.6996 42.3673Z" fill="#E0B394"/>
<path d="M66.4067 42.3673C68.9775 42.2544 71.0257 40.1566 71.0257 37.5871C71.0257 34.9458 68.8593 32.8029 66.1869 32.8029C65.9465 32.8029 65.7081 32.8213 65.4779 32.854L61.5503 38.3778L66.4067 42.3673Z" fill="#E0B394"/>
<path d="M67.1511 72.3841V91H21.9556V72.3841C21.9556 66.1008 26.5746 60.884 32.6387 59.8771C33.3354 59.7602 34.0485 59.7008 34.7782 59.7008H54.3306C55.0603 59.7008 55.7735 59.7603 56.4701 59.8771C62.5321 60.884 67.1511 66.1008 67.1511 72.3841Z" fill="#E6E6E6"/>
<path d="M46.1108 67.7024H43.001V91H46.1108V67.7024Z" fill="#CCCCCC"/>
<path d="M56.4709 59.8771L53.782 74.5989L44.5542 69.1399L35.3285 74.5989L32.6396 59.8771C33.3363 59.7602 34.0495 59.7008 34.7792 59.7008H54.3315C55.0612 59.7008 55.7744 59.7603 56.4709 59.8771Z" fill="#CCCCCC"/>
<path d="M53.7031 40.6985V59.5538C53.7031 64.551 49.607 68.6028 44.5547 68.6028C39.5011 68.6028 35.4062 64.5512 35.4062 59.5538V38.238" fill="#E0B394"/>
<path d="M42.6783 59.7014H34.7783C27.6972 59.7014 21.9565 65.3794 21.9565 72.3838V91H29.8567V72.3839C29.8565 65.3794 35.5972 59.7014 42.6783 59.7014Z" fill="#CCCCCC"/>
<path d="M37.5566 63.047L29.0465 56.9312C24.5492 53.6993 22.1165 48.355 22.651 42.882L24.1272 27.7731C25.1438 17.3672 33.9846 9.4267 44.5539 9.4267C55.1233 9.4267 63.9639 17.367 64.9806 27.7731L66.4567 42.882C66.9915 48.355 64.5587 53.6993 60.0613 56.9312L51.5511 63.047C47.3787 66.0454 41.729 66.0454 37.5566 63.047Z" fill="#F7CBA4"/>
<path d="M27.9469 45.8595C27.8039 48.2527 28.5916 50.6068 30.1508 52.4421L39.0453 63.2532C39.5096 63.8008 40.0363 64.26 40.6064 64.6271C39.5368 64.2579 38.5084 63.7288 37.5568 63.0459L29.0462 56.9308C24.5496 53.6989 22.1177 48.3549 22.6526 42.8818L24.1266 27.7726C25.1341 17.4681 33.8125 9.58111 44.2469 9.43146C37.82 9.5852 30.5425 15.5773 30.163 21.9589L27.9469 45.8595Z" fill="#E8BA97"/>
<path d="M46.9386 39.3152V45.9579C46.9386 47.2599 45.8709 48.316 44.5545 48.316C43.8974 48.316 43.3003 48.0516 42.869 47.625C42.4378 47.1985 42.1704 46.61 42.1704 45.9579V38.8906" fill="#E0B394"/>
<path d="M63.6607 37.4676C63.6607 42.74 59.3484 46.9786 54.0183 46.9827H54.012C53.1371 46.9827 52.2892 46.8678 51.4847 46.6505C47.3797 45.5554 44.3612 41.8561 44.3612 37.4492C44.3612 40.0864 43.2789 42.4794 41.5313 44.2102C39.7815 45.945 37.3663 47.0175 34.7001 47.0175C34.2004 47.0175 33.7091 46.9805 33.2281 46.9068C31.1487 46.5931 29.289 45.6251 27.8667 44.2205C26.115 42.4918 25.0327 40.1049 25.0327 37.4676C25.0327 34.043 27.8398 31.2665 31.302 31.2665H57.391C59.1221 31.2665 60.6895 31.9596 61.8235 33.0833C62.9601 34.205 63.6607 35.7553 63.6607 37.4676Z" fill="#C0E7F9"/>
<path d="M57.2149 31.2664L51.4846 46.6503C47.3797 45.5553 44.3611 41.8559 44.3611 37.449C44.3611 40.0862 43.2788 42.4792 41.5312 44.21C39.7814 45.9449 37.3662 47.0173 34.7 47.0173C34.2003 47.0173 33.7091 46.9804 33.228 46.9066L39.0537 31.2662H57.2149V31.2664Z" fill="#E6F6FC"/>
<path d="M35.3252 41.4162C34.5238 41.4162 33.874 40.7735 33.874 39.9808V37.5208C33.874 36.7281 34.5238 36.0854 35.3252 36.0854C36.1268 36.0854 36.7763 36.7281 36.7763 37.5208V39.9808C36.7763 40.7735 36.1266 41.4162 35.3252 41.4162Z" fill="#666666"/>
<path d="M53.7837 41.4162C52.9823 41.4162 52.3325 40.7735 52.3325 39.9808V37.5208C52.3325 36.7281 52.9823 36.0854 53.7837 36.0854C54.5853 36.0854 55.2348 36.7281 55.2348 37.5208V39.9808C55.2348 40.7735 54.5851 41.4162 53.7837 41.4162Z" fill="#666666"/>
<path d="M81.3348 6.86531H79.2617V4.81479C79.2617 4.19183 78.751 3.68689 78.1214 3.68689C77.4918 3.68689 76.9811 4.19183 76.9811 4.81479V6.86549H74.9079C74.2783 6.86549 73.7676 7.37043 73.7676 7.99339C73.7676 8.61635 74.2783 9.1213 74.9079 9.1213H76.9811V11.172C76.9811 11.795 77.4918 12.2999 78.1214 12.2999C78.751 12.2999 79.2617 11.795 79.2617 11.172V9.12112H81.3349C81.9646 9.12112 82.4752 8.61617 82.4752 7.99322C82.4752 7.37026 81.9644 6.86531 81.3348 6.86531Z" fill="#F9C573"/>
<path d="M34.9068 48.0436C29.0054 48.0436 24.2041 43.2989 24.2041 37.4673C24.2041 33.4827 27.4814 30.241 31.5098 30.241H57.5976C61.626 30.241 64.9033 33.4827 64.9033 37.4673C64.9033 43.2753 60.1161 48.0013 54.2299 48.0077C54.2288 48.0077 54.2277 48.0077 54.2261 48.0077C54.2232 48.0077 54.2212 48.0077 54.2184 48.0077C54.2171 48.0077 54.2159 48.0077 54.2146 48.0077C49.9677 48.0032 46.2922 45.5423 44.571 41.9897C42.8515 45.5659 39.1658 48.0436 34.9068 48.0436ZM31.51 32.2915C28.6248 32.2915 26.2775 34.6132 26.2775 37.4671C26.2775 42.1682 30.1485 45.9927 34.907 45.9927C39.6623 45.9927 43.5313 42.1602 43.5315 37.4492C43.5315 36.8829 43.9956 36.4238 44.5681 36.4238C45.1406 36.4238 45.6047 36.8829 45.6047 37.4492C45.6047 42.139 49.4703 45.9546 54.2227 45.9566C58.9695 45.9548 62.8306 42.147 62.8306 37.4669C62.8306 34.6131 60.4834 32.2913 57.5981 32.2913H31.51V32.2915Z" fill="#5D9EBA"/>
<path d="M54.3452 19.9468C54.2033 19.9468 54.0593 19.9107 53.9278 19.8348C48.7584 16.8496 40.3485 16.8496 35.1796 19.8348C34.7841 20.063 34.2763 19.9311 34.0454 19.5399C33.8145 19.1488 33.9478 18.6465 34.3433 18.4181C39.9733 15.1668 49.1341 15.1668 54.7641 18.4181C55.1596 18.6465 55.2931 19.1488 55.0622 19.5399C54.908 19.8012 54.6306 19.9468 54.3452 19.9468Z" fill="#E0B394"/>
<path d="M38.127 23.8218C37.7721 23.8218 37.4437 23.5948 37.3344 23.2415C37.2004 22.8083 37.4465 22.3496 37.8844 22.217C42.0593 20.9519 47.0458 20.9514 51.2237 22.2149C51.6616 22.3473 51.9081 22.8058 51.7741 23.2391C51.6402 23.6723 51.177 23.9163 50.7386 23.7837C46.8652 22.6121 42.2413 22.6128 38.3701 23.7859C38.2891 23.81 38.2075 23.8218 38.127 23.8218Z" fill="#E0B394"/>
<path d="M13.8453 65.9245V86.0312C13.8453 87.2862 13.3312 88.4244 12.4998 89.2466C11.6684 90.069 10.5198 90.5775 9.24906 90.5775C6.71151 90.5775 4.65283 88.5433 4.65283 86.0312V65.9245H13.8453Z" fill="#F76B4F"/>
<path d="M60.413 79.6987H50.6006V82.7748H60.413V79.6987Z" fill="#CCCCCC"/>
<path d="M9.89916 57.4466H4.30082C3.61082 57.4466 3.05127 56.8933 3.05127 56.2106V53.0035C3.05127 52.321 3.61064 51.7676 4.30082 51.7676H14.1982C14.8882 51.7676 15.4477 52.3209 15.4477 53.0035V56.2106C15.4477 56.8931 14.8884 57.4466 14.1982 57.4466H12.3972H9.89916Z" fill="#C0E7F9"/>
<path d="M4.78844 57.4466H4.3013C3.6113 57.4466 3.05176 56.8933 3.05176 56.2106V53.0035C3.05176 52.321 3.61112 51.7676 4.3013 51.7676H6.19557V57.4462H5.42184H4.78844V57.4466V57.4466Z" fill="#B2DBEA"/>
<path d="M7.34845 86.0312V65.9245H4.65332V86.0312C4.65332 88.5433 6.712 90.5775 9.24955 90.5775C9.71889 90.5775 10.1715 90.5078 10.5977 90.3788C8.71731 89.8093 7.34845 88.0794 7.34845 86.0312Z" fill="#E5624C"/>
<path d="M11.0675 71.9064C11.6973 71.9064 12.2078 71.4014 12.2078 70.7785C12.2078 70.1556 11.6973 69.6506 11.0675 69.6506C10.4378 69.6506 9.92725 70.1556 9.92725 70.7785C9.92725 71.4014 10.4378 71.9064 11.0675 71.9064Z" fill="#E5624C"/>
<path d="M10.8595 29.3551C11.4893 29.3551 11.9998 28.8501 11.9998 28.2272C11.9998 27.6043 11.4893 27.0993 10.8595 27.0993C10.2298 27.0993 9.71924 27.6043 9.71924 28.2272C9.71924 28.8501 10.2298 29.3551 10.8595 29.3551Z" fill="#C0E7F9"/>
<path d="M82.6955 73.7519C83.3252 73.7519 83.8358 73.2469 83.8358 72.624C83.8358 72.0011 83.3252 71.4961 82.6955 71.4961C82.0657 71.4961 81.5552 72.0011 81.5552 72.624C81.5552 73.2469 82.0657 73.7519 82.6955 73.7519Z" fill="#83A538"/>
<path d="M78.1344 65.857C78.7642 65.857 79.2747 65.352 79.2747 64.7291C79.2747 64.1062 78.7642 63.6012 78.1344 63.6012C77.5047 63.6012 76.9941 64.1062 76.9941 64.7291C76.9941 65.352 77.5047 65.857 78.1344 65.857Z" fill="#B2DBEA"/>
<path d="M79.1711 28.6375C79.8008 28.6375 80.3113 28.1325 80.3113 27.5096C80.3113 26.8866 79.8008 26.3817 79.1711 26.3817C78.5413 26.3817 78.0308 26.8866 78.0308 27.5096C78.0308 28.1325 78.5413 28.6375 79.1711 28.6375Z" fill="#B2DBEA"/>
<path d="M40.299 79.1862C40.9288 79.1862 41.4393 78.6812 41.4393 78.0583C41.4393 77.4353 40.9288 76.9304 40.299 76.9304C39.6692 76.9304 39.1587 77.4353 39.1587 78.0583C39.1587 78.6812 39.6692 79.1862 40.299 79.1862Z" fill="#808080"/>
<path d="M40.299 85.7728C40.9288 85.7728 41.4393 85.2678 41.4393 84.6449C41.4393 84.022 40.9288 83.517 40.299 83.517C39.6692 83.517 39.1587 84.022 39.1587 84.6449C39.1587 85.2678 39.6692 85.7728 40.299 85.7728Z" fill="#808080"/>
<path d="M85.0802 77.5457C85.71 77.5457 86.2205 77.0407 86.2205 76.4178C86.2205 75.7948 85.71 75.2899 85.0802 75.2899C84.4505 75.2899 83.9399 75.7948 83.9399 76.4178C83.9399 77.0407 84.4505 77.5457 85.0802 77.5457Z" fill="#83A538"/>
<path d="M78.0309 79.3912C78.6607 79.3912 79.1712 78.8863 79.1712 78.2633C79.1712 77.6404 78.6607 77.1354 78.0309 77.1354C77.4012 77.1354 76.8906 77.6404 76.8906 78.2633C76.8906 78.8863 77.4012 79.3912 78.0309 79.3912Z" fill="#83A538"/>
<path d="M11.3781 85.4407C12.0079 85.4407 12.5184 84.9357 12.5184 84.3128C12.5184 83.6899 12.0079 83.1849 11.3781 83.1849C10.7483 83.1849 10.2378 83.6899 10.2378 84.3128C10.2378 84.9357 10.7483 85.4407 11.3781 85.4407Z" fill="#E5624C"/>
<path d="M9.30485 75.1873C9.93462 75.1873 10.4451 74.6823 10.4451 74.0594C10.4451 73.4365 9.93462 72.9315 9.30485 72.9315C8.67508 72.9315 8.16455 73.4365 8.16455 74.0594C8.16455 74.6823 8.67508 75.1873 9.30485 75.1873Z" fill="#E5624C"/>
<path d="M82.0975 44.4999H73.306C72.5601 44.4999 71.9551 45.0981 71.9551 45.8361V47.9236C71.9551 48.6613 72.5599 49.2598 73.306 49.2598H82.0975C82.8434 49.2598 83.4484 48.6615 83.4484 47.9236V45.8361C83.4482 45.0981 82.8434 44.4999 82.0975 44.4999Z" fill="#C0E7F9"/>
<path d="M74.8649 44.4999H73.306C72.5601 44.4999 71.9551 45.0981 71.9551 45.8361V47.9236C71.9551 48.6613 72.5599 49.2598 73.306 49.2598H74.8649V44.4999Z" fill="#B2DBEA"/>
<path d="M52.6695 50.8235C52.6695 50.8235 52.5512 51.1105 52.3026 51.5637C52.2424 51.6807 52.1719 51.8037 52.0932 51.937C52 52.0682 51.8922 52.2015 51.7761 52.3513C51.66 52.5009 51.5272 52.6527 51.3863 52.8209C51.3366 52.8845 51.2826 52.9378 51.2246 52.9931C51.2039 53.0135 51.1811 53.0341 51.1583 53.0546C51.0774 53.1283 50.9946 53.2064 50.9094 53.2842C50.7395 53.442 50.5549 53.5979 50.3621 53.762C50.1589 53.9097 49.9413 54.049 49.7174 54.2008C49.6054 54.2767 49.4894 54.3504 49.3711 54.4244C49.2529 54.494 49.1266 54.5515 48.9979 54.6151C48.7449 54.7422 48.4817 54.8653 48.2102 54.9883C47.6504 55.1769 47.0679 55.3985 46.4458 55.4908C45.8322 55.6323 45.1916 55.6548 44.553 55.6856C43.9144 55.6548 43.2738 55.6344 42.6602 55.4927C42.0383 55.4005 41.4557 55.179 40.8958 54.9903C40.6243 54.8692 40.3609 54.7463 40.1059 54.6192C39.9794 54.5555 39.8529 54.4981 39.7327 54.4285C39.6166 54.3526 39.5005 54.2808 39.3886 54.2049C39.1647 54.0531 38.9449 53.9116 38.7417 53.766C38.5489 53.602 38.3665 53.4442 38.1944 53.2883C38.1094 53.2083 38.0285 53.1324 37.9477 53.0565C37.9186 53.0299 37.8896 53.0032 37.8605 52.9766C37.8108 52.9273 37.7631 52.8802 37.7216 52.8248C37.5869 52.6629 37.4562 52.513 37.3423 52.3655C37.2304 52.2159 37.1204 52.0845 37.0293 51.9533C36.9463 51.8138 36.8697 51.6867 36.8054 51.5698C36.5463 51.1022 36.4385 50.8233 36.4385 50.8233C36.4385 50.8233 36.7454 50.9156 37.218 51.1043C37.3382 51.1494 37.4625 51.2047 37.6014 51.2602C37.7486 51.3032 37.8999 51.3586 38.0616 51.412C38.2253 51.4653 38.3892 51.5309 38.5633 51.5924C38.7354 51.6579 38.9302 51.701 39.123 51.7585C39.3158 51.814 39.5086 51.8815 39.7097 51.9411C39.919 51.9862 40.1285 52.0395 40.3442 52.0907C40.452 52.1153 40.5576 52.1462 40.6654 52.1748C40.7754 52.1993 40.8893 52.2137 41.0013 52.2363C41.2273 52.2752 41.4532 52.3204 41.6792 52.3715C42.1498 52.4146 42.6143 52.5171 43.0993 52.5356C43.5782 52.5971 44.0675 52.5807 44.5526 52.6094C45.0398 52.5806 45.5291 52.599 46.0081 52.5376C46.4933 52.5212 46.9576 52.4165 47.4282 52.3735C47.6542 52.3243 47.8801 52.2791 48.1061 52.2402C48.2181 52.2176 48.3322 52.2032 48.442 52.1787C48.5498 52.148 48.6576 52.1192 48.7633 52.0946C48.9789 52.0435 49.1882 51.988 49.3977 51.945C49.6009 51.8854 49.7938 51.8179 49.9866 51.7624C50.1772 51.705 50.3763 51.6599 50.5422 51.5963C50.7121 51.5389 50.8719 51.4752 51.0334 51.426C51.193 51.3727 51.3423 51.3194 51.4895 51.2763C51.6347 51.2149 51.7631 51.1553 51.8855 51.1082C52.3689 50.9097 52.6695 50.8235 52.6695 50.8235Z" fill="#F2F2F2"/>
<path d="M51.2239 52.9931C51.2033 53.0135 51.1804 53.0341 51.1576 53.0546C51.0768 53.1283 50.9939 53.2064 50.9088 53.2842C50.7388 53.442 50.5542 53.5979 50.3614 53.762C50.1582 53.9097 49.9406 54.049 49.7167 54.2008C49.6048 54.2767 49.4887 54.3504 49.3705 54.4244C49.2522 54.4941 49.1259 54.5515 48.9972 54.6151C48.7442 54.7422 48.481 54.8653 48.2095 54.9883C47.6498 55.1769 47.0672 55.3985 46.4451 55.4908C45.8315 55.6323 45.1909 55.6548 44.5523 55.6856C43.9137 55.6548 43.2731 55.6344 42.6595 55.4927C42.0376 55.4005 41.455 55.179 40.8951 54.9903C40.6236 54.8693 40.3602 54.7463 40.1052 54.6192C39.9787 54.5556 39.8522 54.4981 39.732 54.4285C39.6159 54.3526 39.4999 54.2808 39.3879 54.2049C39.164 54.0531 38.9443 53.9116 38.7411 53.7661C38.5482 53.602 38.3659 53.4442 38.1937 53.2883C38.1087 53.2083 38.0279 53.1324 37.947 53.0565C37.9179 53.0299 37.889 53.0032 37.8599 52.9766C37.9262 52.9991 37.9925 53.0217 38.0609 53.0443C38.2246 53.0976 38.3885 53.1612 38.5626 53.2227C38.7348 53.2904 38.9295 53.3335 39.1223 53.3909C39.3152 53.4461 39.508 53.5119 39.709 53.5734C39.9184 53.6164 40.1279 53.6719 40.3435 53.723C40.4513 53.7476 40.557 53.7764 40.6648 53.8052C40.7748 53.8297 40.8887 53.8441 41.0006 53.8667C41.2267 53.9056 41.4525 53.9529 41.6786 54.0021C42.1492 54.0472 42.6137 54.1498 43.0986 54.1661C43.5775 54.2298 44.0668 54.2113 44.552 54.242C45.0391 54.2132 45.5284 54.2317 46.0074 54.1683C46.4926 54.1519 46.9569 54.0494 47.4275 54.0064C47.6535 53.9571 47.8794 53.91 48.1055 53.8709C48.2174 53.8483 48.3315 53.834 48.4413 53.8094C48.5491 53.7806 48.6569 53.752 48.7626 53.7275C48.9782 53.6763 49.1875 53.6208 49.3971 53.5778C49.6003 53.5163 49.7931 53.4486 49.9859 53.3953C50.1765 53.3379 50.3756 53.2908 50.5415 53.2291C50.7115 53.1696 50.8712 53.1081 51.0327 53.0569C51.0974 53.0361 51.1618 53.0135 51.2239 52.9931Z" fill="#4D4D4D"/>
</g>
<defs>
<clipPath id="clip0">
<rect width="92" height="91" fill="white"/>
</clipPath>
</defs>
</svg>
