<svg width="94" height="91" viewBox="0 0 94 91" fill="none" xmlns="http://www.w3.org/2000/svg">
<path d="M89.054 63.2084C91.3241 62.4463 92.5265 60.047 91.7392 57.8492C90.952 55.6513 88.4736 54.4875 86.2033 55.2496L84.4175 60.4235L89.054 63.2084Z" fill="#F9C573"/>
<path d="M82.3794 79.9099L77.4469 81.5657L70.7759 70.6549L75.7083 68.999L82.3794 79.9099Z" fill="#999999"/>
<path d="M21.1817 40.4296C18.4843 40.3137 16.3374 38.1594 16.3374 35.5209C16.3374 32.8085 18.6085 30.608 21.4123 30.608C21.6646 30.608 21.9126 30.6249 22.1562 30.6606L21.1817 40.4296Z" fill="#E0B394"/>
<path d="M66.6059 40.4296C69.3032 40.3137 71.4524 38.1594 71.4524 35.5209C71.4524 32.8085 69.1791 30.608 66.3753 30.608C66.123 30.608 65.8728 30.627 65.6313 30.6606L66.6059 40.4296Z" fill="#E0B394"/>
<path d="M54.153 58.2304H33.6383C26.2084 58.2304 20.1851 64.0614 20.1851 71.2543V90.3714H67.6062V71.2543C67.6062 64.0612 61.5829 58.2304 54.153 58.2304Z" fill="#9691C6"/>
<path d="M41.9273 58.2304H33.6383C26.2084 58.2304 20.1851 64.0614 20.1851 71.2543V90.3714H28.4741V71.2543C28.4741 64.0612 34.4975 58.2304 41.9273 58.2304Z" fill="#8C8ABC"/>
<path d="M45.5262 58.2311H42.2632V90.3728H45.5262V58.2311Z" fill="#7F7DAD"/>
<path d="M53.4244 59.4854L46.3288 63.4513C45.8427 62.6379 44.9361 62.089 43.8953 62.089C42.8545 62.089 41.9483 62.6379 41.4617 63.4513L34.3662 59.4854V70.1372L41.4617 66.1714C41.9479 66.9849 42.8543 67.5337 43.8953 67.5337C44.9359 67.5337 45.8423 66.9851 46.3288 66.1714L53.4244 70.1372V59.4854Z" fill="#E0739B"/>
<path d="M36.554 61.6658L27.6247 55.3854C22.9062 52.0666 20.3535 46.5783 20.9144 40.958L22.4632 25.4425C23.5299 14.7564 32.8059 6.6023 43.8957 6.6023C54.9855 6.6023 64.2616 14.7564 65.3283 25.4425L66.8771 40.958C67.4381 46.5783 64.8856 52.0664 60.1667 55.3854L51.2375 61.6658C46.8595 64.7451 40.9316 64.7451 36.554 61.6658Z" fill="#F7CBA4"/>
<path d="M26.4703 44.0157C26.3201 46.4733 27.1468 48.8908 28.7826 50.7755L38.1153 61.8775C38.6025 62.4399 39.1551 62.9116 39.7533 63.2884C38.6308 62.9093 37.5518 62.3659 36.5534 61.6648L27.624 55.385C22.9058 52.0662 20.3542 46.5783 20.9155 40.9578L22.4621 25.4418C23.5192 14.8598 32.6249 6.76065 43.5731 6.60691C36.8297 6.76492 29.1939 12.9181 28.7959 19.4717L26.4703 44.0157Z" fill="#E8BA97"/>
<path d="M43.8952 58.194C42.7595 58.194 41.6242 58.0887 40.4963 57.8776C40.0245 57.7894 39.7159 57.3476 39.8069 56.8908C39.8984 56.434 40.3555 56.1351 40.8264 56.2236C42.8649 56.6048 44.9316 56.6048 46.97 56.2225C47.441 56.1351 47.8983 56.4326 47.9895 56.8894C48.0808 57.3462 47.7725 57.7882 47.3007 57.8767C46.171 58.0882 45.0329 58.194 43.8952 58.194Z" fill="#E0B394"/>
<path d="M60.6874 14.3999C63.2368 17.4681 64.9097 21.2629 65.3272 25.443C58.6969 25.443 54.5161 16.2867 54.5161 16.2867C56.0519 14.9706 58.6448 15.2507 60.6874 14.3999Z" fill="#E2AF66"/>
<path d="M67.1719 13.1616C55.8605 13.1616 52.8151 22.638 46.0717 25.1651C39.3283 27.6921 32.5849 19.4792 32.5849 19.4792C21.4909 19.4792 21.8434 31.6469 21.8434 31.6469C19.2396 28.1364 17.6668 20.1846 19.4005 14.7642C23.8838 0.737065 42.6719 4.60332 42.6719 4.60332C43.3593 3.91478 44.1423 3.24081 45.032 2.63011C47.2247 1.12239 50.0439 0 53.5765 0C53.5787 0 53.5787 0 53.5787 0C64.3442 0.00213281 67.1719 13.1616 67.1719 13.1616Z" fill="#F9C573"/>
<path d="M53.5762 0C53.3869 0.0357246 41.3469 2.3923 40.2917 16.112C40.2917 16.112 34.9688 12.5489 41.9232 5.3953C41.9254 5.39317 41.9276 5.39104 41.9318 5.38695C42.1319 5.18273 42.3406 4.97425 42.5626 4.7615C43.2718 4.08131 44.0897 3.37162 45.0316 2.63029C47.2244 1.12239 50.0437 0 53.5762 0Z" fill="#E2AF66"/>
<path d="M21.8456 31.6465C19.2419 28.1361 17.669 20.1823 19.4005 14.7639C21.1996 9.1391 25.2977 6.39097 29.5613 5.1191C25.7545 7.94508 25.8068 12.9151 32.5871 19.479C21.4931 19.4788 21.8456 31.6465 21.8456 31.6465Z" fill="#E2AF66"/>
<path d="M77.3939 25.0868C77.0709 25.0868 76.7445 24.9942 76.4597 24.8012L74.2845 23.3271C73.5463 22.827 73.3667 21.8421 73.8834 21.1275C74.4 20.4128 75.4177 20.239 76.1555 20.7393L78.3307 22.2134C79.069 22.7136 79.2485 23.6984 78.7319 24.4131C78.4145 24.8519 77.9083 25.0868 77.3939 25.0868Z" fill="#E0739B"/>
<path d="M8.00225 41.9338C7.67931 41.9338 7.35288 41.8412 7.06813 41.6481L4.89291 40.174C4.15468 39.6739 3.97513 38.689 4.49176 37.9744C5.00839 37.2597 6.02605 37.0859 6.76392 37.5862L8.93913 39.0603C9.67736 39.5605 9.85692 40.5453 9.34029 41.26C9.02304 41.6988 8.51687 41.9338 8.00225 41.9338Z" fill="#EDDD83"/>
<path d="M80.7784 37.3855C80.0554 37.3855 79.3948 36.9169 79.202 36.2082L78.5255 33.7226C78.2958 32.8793 78.8159 32.0151 79.6873 31.7928C80.5592 31.5708 81.4511 32.0741 81.6806 32.9175L82.3571 35.4031C82.5868 36.2464 82.0667 37.1106 81.1953 37.3329C81.0558 37.3685 80.9157 37.3855 80.7784 37.3855Z" fill="#9691C6"/>
<path d="M6.23655 27.2218C5.78509 27.2218 5.33584 27.0416 5.01345 26.6882C4.41677 26.0345 4.48048 25.0366 5.15574 24.4589L7.14552 22.7568C7.8206 22.1791 8.85129 22.2408 9.44834 22.8947C10.045 23.5484 9.98131 24.5465 9.30606 25.124L7.31627 26.8262C7.00599 27.0915 6.62026 27.2218 6.23655 27.2218Z" fill="#9691C6"/>
<path d="M85.6453 18.7691C85.1938 18.7691 84.7446 18.5889 84.4222 18.2355C83.8255 17.5818 83.8892 16.5837 84.5643 16.0062L86.5537 14.3041C87.2289 13.7264 88.26 13.7879 88.8567 14.4418C89.4534 15.0955 89.3897 16.0937 88.7146 16.6711L86.7252 18.3733C86.4149 18.6387 86.0292 18.7691 85.6453 18.7691Z" fill="#EDDD83"/>
<path d="M17.0599 6.49335C16.3903 6.49335 15.7626 6.09113 15.5237 5.4456L14.6291 3.02557C14.3254 2.20426 14.767 1.3003 15.6154 1.00633C16.4636 0.712359 17.3973 1.13981 17.7012 1.96112L18.5958 4.38115C18.8995 5.20246 18.4579 6.10642 17.6096 6.40039C17.428 6.46349 17.2422 6.49335 17.0599 6.49335Z" fill="#E0739B"/>
<path d="M55.326 48.0864C55.326 48.0864 55.1597 48.482 54.8092 49.107C54.7246 49.268 54.6252 49.4377 54.5141 49.6215C54.3827 49.8024 54.2309 49.9862 54.0673 50.1926C53.9037 50.3989 53.7168 50.6081 53.5182 50.8399C53.448 50.9275 53.3722 51.0009 53.2903 51.0775C53.2611 51.1058 53.229 51.134 53.1969 51.1623C53.0829 51.2639 52.9661 51.3715 52.8464 51.4788C52.6068 51.6965 52.3472 51.9114 52.0755 52.1375C51.7893 52.3412 51.4827 52.5331 51.1672 52.7425C51.0095 52.8472 50.8459 52.9489 50.6796 53.0505C50.5133 53.1465 50.335 53.2258 50.154 53.3134C49.7976 53.4886 49.4269 53.6584 49.0443 53.8279C48.256 54.088 47.4355 54.3933 46.5592 54.5206C45.695 54.7155 44.7927 54.7468 43.8932 54.7891C42.994 54.7468 42.0916 54.7184 41.2273 54.5234C40.3514 54.3962 39.5307 54.0908 38.7422 53.8308C38.3596 53.6641 37.9889 53.4945 37.6298 53.3191C37.4517 53.2315 37.2734 53.1524 37.1041 53.0562C36.9406 52.9515 36.7772 52.8527 36.6195 52.7482C36.304 52.539 35.9945 52.3439 35.7085 52.1432C35.4369 51.9169 35.1799 51.6992 34.9375 51.4845C34.8178 51.3741 34.7038 51.2696 34.5902 51.1651C34.5492 51.1283 34.5085 51.0915 34.4675 51.0547C34.3974 50.9868 34.3302 50.9218 34.272 50.8455C34.0822 50.6223 33.8982 50.416 33.7376 50.2123C33.5799 50.0059 33.4253 49.825 33.2966 49.6441C33.1798 49.4518 33.0717 49.2765 32.9812 49.1155C32.6162 48.4708 32.4644 48.0866 32.4644 48.0866C32.4644 48.0866 32.8965 48.2138 33.5622 48.4739C33.7317 48.5361 33.9069 48.6125 34.1024 48.6887C34.3097 48.7481 34.5228 48.8244 34.7506 48.8979C34.9814 48.9713 35.212 49.062 35.4575 49.1466C35.6998 49.2371 35.9743 49.2966 36.2458 49.3755C36.5174 49.4518 36.7891 49.5451 37.0722 49.6272C37.3672 49.6894 37.6621 49.7628 37.9657 49.8335C38.1176 49.8675 38.2667 49.9098 38.4185 49.9494C38.5731 49.9834 38.7339 50.0031 38.8916 50.0342C39.2098 50.0879 39.5281 50.1501 39.8465 50.2208C40.5093 50.2802 41.1634 50.4215 41.8467 50.4471C42.5213 50.5318 43.2105 50.5093 43.8936 50.5487C44.5799 50.5091 45.2691 50.5347 45.9436 50.4497C46.627 50.4272 47.2809 50.283 47.9439 50.2235C48.262 50.1556 48.5804 50.0934 48.8987 50.0397C49.0565 50.0086 49.2169 49.9887 49.3719 49.9549C49.5237 49.9126 49.6755 49.873 49.8246 49.839C50.1283 49.7683 50.4233 49.6921 50.7182 49.6327C51.0044 49.5508 51.2759 49.4574 51.5475 49.381C51.8161 49.3017 52.0966 49.2397 52.3301 49.1521C52.5697 49.073 52.7942 48.9854 53.0221 48.9175C53.247 48.8439 53.4572 48.7705 53.6645 48.7111C53.869 48.6262 54.05 48.5444 54.2222 48.4792C54.9026 48.2051 55.326 48.0864 55.326 48.0864Z" fill="#F2F2F2"/>
<path d="M53.2905 51.0771C53.2613 51.1054 53.2292 51.1336 53.1971 51.1619C53.0831 51.2636 52.9663 51.3711 52.8466 51.4785C52.607 51.6962 52.3474 51.9111 52.0757 52.1371C51.7895 52.3408 51.4829 52.5328 51.1675 52.7421C51.0097 52.8468 50.8462 52.9485 50.6798 53.0502C50.5135 53.1461 50.3352 53.2254 50.1542 53.313C49.7979 53.4883 49.4272 53.658 49.0446 53.8276C48.2562 54.0876 47.4357 54.3929 46.5594 54.5202C45.6953 54.7152 44.7929 54.7465 43.8935 54.7888C42.9942 54.7465 42.0919 54.718 41.2275 54.523C40.3516 54.3958 39.5309 54.0904 38.7424 53.8304C38.3598 53.6637 37.9891 53.4941 37.63 53.3187C37.4519 53.2311 37.2736 53.152 37.1044 53.0558C36.9408 52.9512 36.7774 52.8523 36.6197 52.7478C36.3043 52.5386 35.9947 52.3435 35.7087 52.1428C35.4371 51.9166 35.1801 51.6988 34.9378 51.4841C34.8181 51.3738 34.7041 51.2693 34.5904 51.1648C34.5495 51.128 34.5087 51.0912 34.4678 51.0544C34.5612 51.0855 34.6547 51.1166 34.7511 51.1477C34.9818 51.2213 35.2124 51.3087 35.4579 51.3937C35.7002 51.487 35.9747 51.5463 36.2462 51.6254C36.5178 51.7017 36.7895 51.7922 37.0726 51.8771C37.3676 51.9365 37.6625 52.0127 37.9662 52.0835C38.118 52.1174 38.2671 52.157 38.4189 52.1965C38.5735 52.2304 38.7343 52.2502 38.892 52.2813C39.2102 52.335 39.5285 52.4 39.8469 52.4679C40.5097 52.5301 41.1638 52.6716 41.8471 52.6942C42.5217 52.7818 43.2109 52.7564 43.894 52.7988C44.5803 52.7592 45.2695 52.7848 45.944 52.6972C46.6274 52.6746 47.2813 52.5331 47.9443 52.4738C48.2625 52.4059 48.5808 52.3408 48.8992 52.2871C49.0569 52.256 49.2173 52.2361 49.3723 52.2024C49.5241 52.1627 49.6759 52.1233 49.825 52.0893C50.1287 52.0186 50.4237 51.9423 50.7186 51.883C51.0048 51.7982 51.2763 51.7049 51.5479 51.6313C51.8165 51.5522 52.097 51.487 52.3305 51.4024C52.5699 51.3204 52.7946 51.2357 53.0225 51.1648C53.1124 51.1365 53.203 51.1054 53.2905 51.0771Z" fill="#4D4D4D"/>
<path d="M34.2115 41.5587C33.3104 41.5587 32.5801 40.8515 32.5801 39.9794V37.4533C32.5801 36.5809 33.3106 35.8739 34.2115 35.8739C35.1124 35.8739 35.8429 36.5811 35.8429 37.4533V39.9794C35.8429 40.8515 35.1124 41.5587 34.2115 41.5587Z" fill="#4D4D4D"/>
<path d="M49.8481 30.8088C49.8481 30.8088 49.8526 30.7669 49.8671 30.6949C49.8838 30.6252 49.9008 30.515 49.9374 30.3904C49.9537 30.3259 49.9748 30.2587 49.9989 30.185C50.0305 30.11 50.0729 30.0346 50.1178 29.9491C50.1625 29.8633 50.2188 29.7783 50.2779 29.6829C50.3376 29.586 50.4087 29.5124 50.4815 29.4189C50.5555 29.329 50.6389 29.2421 50.7259 29.1486C50.8179 29.0642 50.9178 28.981 51.0239 28.8975C51.2317 28.7204 51.4854 28.5923 51.75 28.4499C52.0237 28.338 52.314 28.2164 52.6252 28.1602C52.9333 28.0827 53.2562 28.0644 53.5784 28.0499C53.9006 28.0643 54.2237 28.0808 54.532 28.1579C54.8432 28.2136 55.1338 28.3357 55.4077 28.4469C55.6725 28.5891 55.9266 28.7169 56.1344 28.8943C56.2403 28.9782 56.3404 29.0615 56.4326 29.1454C56.5196 29.2391 56.6024 29.3269 56.6769 29.4163C56.7487 29.5094 56.8232 29.5858 56.878 29.6788C56.9328 29.7714 56.9859 29.8544 57.0289 29.9385C57.0716 30.0227 57.1133 30.0968 57.1445 30.1717C57.173 30.2495 57.1983 30.3201 57.217 30.3869C57.2584 30.5159 57.2756 30.627 57.2914 30.6965C57.3054 30.7683 57.3083 30.8092 57.3083 30.8092C57.3083 30.8092 57.2633 30.8081 57.1871 30.801C57.1131 30.7918 56.9984 30.7871 56.8715 30.7692C56.8058 30.7626 56.7388 30.7509 56.6652 30.7415C56.5866 30.7379 56.5091 30.7274 56.425 30.721C56.26 30.7041 56.0876 30.6791 55.8981 30.672C55.805 30.6661 55.7147 30.653 55.6203 30.6455C55.5227 30.6442 55.4263 30.6394 55.3306 30.6325C55.1432 30.6089 54.9392 30.6227 54.7501 30.5998C54.5511 30.6067 54.3605 30.5831 54.1631 30.5891C53.9691 30.5751 53.7728 30.59 53.5782 30.5767C53.3836 30.5895 53.1873 30.5732 52.9929 30.5868C52.7954 30.5801 52.6048 30.6046 52.4054 30.5968C52.216 30.6195 52.0116 30.6055 51.8242 30.6291C51.7285 30.6361 51.6321 30.6412 51.5343 30.6421C51.4399 30.6498 51.3499 30.6636 51.2565 30.6691C51.0634 30.6793 50.9027 30.6969 50.7415 30.7104C50.6569 30.7168 50.5777 30.7226 50.5045 30.7278C50.4265 30.7415 50.355 30.7566 50.2871 30.7653C50.1555 30.7879 50.0404 30.793 49.9673 30.8021C49.8917 30.8087 49.8481 30.8088 49.8481 30.8088Z" fill="#666666"/>
<path d="M30.481 30.8088C30.481 30.8088 30.4854 30.7669 30.4999 30.6949C30.5166 30.6252 30.5336 30.515 30.5702 30.3904C30.5865 30.3259 30.6076 30.2587 30.6317 30.185C30.6633 30.11 30.7057 30.0346 30.7507 29.9491C30.7953 29.8633 30.8516 29.7783 30.9108 29.6829C30.9704 29.586 31.0415 29.5124 31.1144 29.4189C31.1883 29.329 31.2717 29.2421 31.3587 29.1486C31.4507 29.0642 31.5506 28.981 31.6567 28.8975C31.8645 28.7204 32.1182 28.5923 32.3828 28.4499C32.6565 28.338 32.9468 28.2164 33.258 28.1602C33.5661 28.0827 33.889 28.0644 34.2112 28.0499C34.5334 28.0643 34.8565 28.0808 35.1648 28.1579C35.476 28.2136 35.7666 28.3357 36.0405 28.4469C36.3053 28.5891 36.5594 28.7169 36.7674 28.8943C36.8733 28.9782 36.9734 29.0615 37.0655 29.1454C37.1526 29.2391 37.2354 29.3269 37.3099 29.4163C37.3817 29.5094 37.4562 29.5858 37.5109 29.6788C37.5658 29.7714 37.6189 29.8544 37.6619 29.9385C37.7046 30.0227 37.7463 30.0968 37.7775 30.1717C37.806 30.2495 37.8313 30.3201 37.85 30.3869C37.8913 30.5159 37.9086 30.627 37.9244 30.6965C37.9383 30.7683 37.9413 30.8092 37.9413 30.8092C37.9413 30.8092 37.8963 30.8081 37.8201 30.801C37.7461 30.7918 37.6314 30.7871 37.5045 30.7692C37.4388 30.7626 37.3718 30.7509 37.2982 30.7415C37.2196 30.7379 37.1421 30.7274 37.058 30.721C36.893 30.7041 36.7206 30.6791 36.5311 30.672C36.438 30.6661 36.3477 30.653 36.2533 30.6455C36.1557 30.6442 36.0593 30.6394 35.9636 30.6325C35.7762 30.6089 35.5722 30.6227 35.3831 30.5998C35.1841 30.6067 34.9935 30.5831 34.7961 30.5891C34.6021 30.5751 34.4058 30.59 34.2112 30.5767C34.0166 30.5895 33.8203 30.5732 33.6259 30.5868C33.4284 30.5801 33.2378 30.6046 33.0384 30.5968C32.8489 30.6195 32.6446 30.6055 32.4572 30.6291C32.3615 30.6361 32.2651 30.6412 32.1673 30.6421C32.0729 30.6498 31.9829 30.6636 31.8895 30.6691C31.6963 30.6793 31.5357 30.6969 31.3745 30.7104C31.2899 30.7168 31.2107 30.7226 31.1375 30.7278C31.0595 30.7415 30.988 30.7566 30.9201 30.7653C30.7885 30.7879 30.6734 30.793 30.6003 30.8021C30.5245 30.8087 30.481 30.8088 30.481 30.8088Z" fill="#666666"/>
<path d="M53.5787 41.5587C52.6776 41.5587 51.9473 40.8515 51.9473 39.9794V37.4533C51.9473 36.5809 52.6778 35.8739 53.5787 35.8739C54.4798 35.8739 55.2101 36.5811 55.2101 37.4533V39.9794C55.2101 40.8515 54.4798 41.5587 53.5787 41.5587Z" fill="#4D4D4D"/>
<path d="M46.3964 34.6102V42.0861C46.3964 43.4235 45.2763 44.5079 43.8947 44.5079C42.5132 44.5079 41.3931 43.4235 41.3931 42.0861V34.6102" fill="#E0B394"/>
<path d="M49.0418 87.36C49.9228 87.36 50.6369 86.6686 50.6369 85.8158C50.6369 84.963 49.9228 84.2717 49.0418 84.2717C48.1609 84.2717 47.4468 84.963 47.4468 85.8158C47.4468 86.6686 48.1609 87.36 49.0418 87.36Z" fill="#4D4D4D"/>
<path d="M49.0418 75.005C49.9228 75.005 50.6369 74.3136 50.6369 73.4608C50.6369 72.608 49.9228 71.9167 49.0418 71.9167C48.1609 71.9167 47.4468 72.608 47.4468 73.4608C47.4468 74.3136 48.1609 75.005 49.0418 75.005Z" fill="#4D4D4D"/>
<path d="M49.0418 81.1814C49.9228 81.1814 50.6369 80.4901 50.6369 79.6373C50.6369 78.7845 49.9228 78.0931 49.0418 78.0931C48.1609 78.0931 47.4468 78.7845 47.4468 79.6373C47.4468 80.4901 48.1609 81.1814 49.0418 81.1814Z" fill="#4D4D4D"/>
</svg>
