<svg width="93" height="91" viewBox="0 0 93 91" fill="none" xmlns="http://www.w3.org/2000/svg">
<path d="M88.1478 46.5894H87.9157H82.0894L83.1562 37.9046C83.1909 37.6297 83.205 37.3588 83.203 37.0899C83.1807 33.7474 80.4873 30.9408 77.0185 30.7635C76.9635 30.7615 76.9087 30.7595 76.8536 30.7574L76.6745 30.7555C76.6155 30.7555 76.5545 30.7555 76.4954 30.7574C76.4404 30.7594 76.3855 30.7613 76.3305 30.7635C72.8617 30.9407 70.1683 33.7474 70.146 37.0899C70.144 37.3588 70.1582 37.6297 70.1929 37.9046L71.2596 46.5894H65.4333H65.2012C63.6113 46.5894 62.3228 47.8503 62.3228 49.406V52.862V83.2112C62.3228 84.7669 63.6113 86.0277 65.2012 86.0277H88.1478C89.7377 86.0277 91.0263 84.7669 91.0263 83.2112V52.862V49.406C91.0263 47.8503 89.7377 46.5894 88.1478 46.5894ZM76.6745 39.2458C75.3629 39.2458 74.2994 38.2054 74.2994 36.9218C74.2994 35.6383 75.3627 34.5977 76.6745 34.5977C77.9863 34.5977 79.0497 35.6382 79.0497 36.9218C79.0497 38.2054 77.9861 39.2458 76.6745 39.2458Z" fill="#F9C573"/>
<path d="M67.793 68.6601C67.793 68.6601 67.9432 68.3416 68.2492 67.8284C68.5539 67.3141 69.0127 66.6038 69.6086 65.7987C70.2046 64.9936 70.9353 64.0909 71.7653 63.1723C72.5934 62.252 73.5234 61.3186 74.4893 60.4228C75.4576 59.5295 76.4634 58.6744 77.4497 57.9183C77.9425 57.5399 78.4278 57.183 78.8999 56.8574C79.3709 56.5306 79.8261 56.2316 80.2537 55.9634C80.6831 55.6968 81.0838 55.4603 81.4469 55.2585C81.8103 55.0572 82.1331 54.8878 82.405 54.7548C82.9467 54.4863 83.2811 54.3587 83.2811 54.3587C83.2811 54.3587 83.1314 54.6777 82.8261 55.1915C82.6746 55.4496 82.4831 55.7551 82.2566 56.0985C82.0296 56.4414 81.7649 56.8192 81.4683 57.2232C81.1699 57.6254 80.8384 58.0527 80.4776 58.494C80.1178 58.9362 79.7258 59.3898 79.3111 59.8491C78.4823 60.7687 77.5521 61.7016 76.5845 62.5959C75.6146 63.4878 74.6085 64.342 73.6216 65.0979C72.6366 65.8554 71.6732 66.5169 70.8173 67.0526C69.9612 67.5883 69.2101 67.9953 68.6677 68.2632C68.1266 68.5317 67.793 68.6601 67.793 68.6601Z" fill="#E2AF66"/>
<path d="M67.793 79.2496C67.793 79.2496 67.9432 78.9311 68.2492 78.418C68.5539 77.9036 69.0127 77.1934 69.6086 76.3883C70.2048 75.5831 70.9353 74.6804 71.7653 73.7619C72.5934 72.8416 73.5234 71.9081 74.4893 71.0123C75.4576 70.1191 76.4634 69.264 77.4497 68.5079C77.9425 68.1295 78.4278 67.7726 78.8999 67.4468C79.3709 67.12 79.8261 66.821 80.2537 66.5528C80.6831 66.2862 81.0838 66.0497 81.4469 65.8479C81.8103 65.6466 82.1331 65.4772 82.405 65.3442C82.9467 65.0757 83.2811 64.9481 83.2811 64.9481C83.2811 64.9481 83.1314 65.2671 82.8261 65.7809C82.6746 66.039 82.4831 66.3445 82.2566 66.6879C82.0296 67.0307 81.7649 67.4086 81.4683 67.8126C81.1699 68.2148 80.8384 68.6421 80.4776 69.0832C80.1178 69.5254 79.7258 69.979 79.3111 70.4383C78.4823 71.3579 77.5521 72.2908 76.5845 73.1851C75.6146 74.077 74.6085 74.9312 73.6216 75.6869C72.6366 76.4444 71.6732 77.106 70.8173 77.6416C69.9612 78.1773 69.2101 78.5843 68.6677 78.8522C68.1266 79.1213 67.793 79.2496 67.793 79.2496Z" fill="#E2AF66"/>
<path d="M16.2017 26.5065V13.327C16.2017 11.8733 17.4061 10.6946 18.8919 10.6946C20.3776 10.6946 21.5822 11.8732 21.5822 13.327V26.5065" fill="#F9C573"/>
<path d="M20.2147 11.0368C19.8238 10.8201 19.373 10.6948 18.8914 10.6948C17.4058 10.6948 16.2012 11.8733 16.2012 13.3272V26.5067H18.8477V13.327C18.8479 12.3442 19.3993 11.4889 20.2147 11.0368Z" fill="#E2AF66"/>
<path d="M16.2017 56.5093V69.6888C16.2017 71.1425 17.4061 72.3212 18.8919 72.3212C20.3776 72.3212 21.5822 71.1427 21.5822 69.6888V56.5093" fill="#F9C573"/>
<path d="M20.2147 71.9791C19.8238 72.1957 19.373 72.321 18.8914 72.321C17.4058 72.321 16.2012 71.1425 16.2012 69.6886V56.5091H18.8477V69.6886C18.8479 70.6715 19.3993 71.5269 20.2147 71.9791Z" fill="#E2AF66"/>
<path d="M25.1005 23.3614H12.6826V61.2082H25.1005V23.3614Z" fill="#F9C573"/>
<path d="M17.8672 23.3614H12.6826V61.2082H17.8672V23.3614Z" fill="#E2AF66"/>
<path d="M57.0143 60.5977H37.8156C30.8624 60.5977 25.2256 66.1131 25.2256 72.917V91H69.6041V72.917C69.6045 66.1131 63.9676 60.5977 57.0143 60.5977Z" fill="#999999"/>
<path d="M45.5729 60.5977H37.8156C30.8624 60.5977 25.2256 66.1131 25.2256 72.917V91H32.9829V72.917C32.9831 66.1131 38.6197 60.5977 45.5729 60.5977Z" fill="#8E8E8E"/>
<path d="M47.4161 67.2647C47.3611 71.9729 43.4444 75.773 38.6196 75.773H35.9497V73.1607C35.9497 69.7843 37.9378 66.8621 40.8295 65.4527L47.6477 61.911H47.4161L54.0002 65.4527C56.8921 66.8621 58.88 69.7844 58.88 73.1607V75.773H56.2102C51.3857 75.773 47.4712 71.9729 47.4161 67.2647Z" fill="#E6E6E6"/>
<path d="M26.1576 43.7613C23.6333 43.6518 21.624 41.6139 21.624 39.1182C21.624 36.5526 23.7494 34.471 26.3734 34.471C26.6095 34.471 26.8416 34.487 27.0696 34.5207" fill="#E0B394"/>
<path d="M68.6674 43.7613C71.1916 43.6518 73.2029 41.6139 73.2029 39.1182C73.2029 36.5526 71.0756 34.471 68.4516 34.471C68.2155 34.471 67.9813 34.4889 67.7554 34.5207" fill="#E0B394"/>
<path d="M40.5432 63.8467L32.1869 57.9059C27.771 54.7666 25.3821 49.5752 25.907 44.259L27.3565 29.5828C28.3548 19.4747 37.0358 11.7617 47.414 11.7617C57.7922 11.7617 66.4731 19.4747 67.4714 29.5828L68.9209 44.259C69.4458 49.5752 67.0569 54.7664 62.6411 57.9059L54.2847 63.8467C50.1878 66.7592 44.6401 66.7592 40.5432 63.8467Z" fill="#F7CBA4"/>
<path d="M31.1078 47.1514C30.9674 49.476 31.741 51.7627 33.2717 53.5456L42.0055 64.047C42.4614 64.5788 42.9785 65.0251 43.5384 65.3816C42.4879 65.0231 41.4782 64.5091 40.5438 63.8458L32.1873 57.9058C27.7718 54.7664 25.3839 49.5755 25.9091 44.259L27.3564 29.5824C28.3458 19.573 36.8672 11.9119 47.113 11.7665C40.8023 11.916 33.6564 17.7364 33.2838 23.9353L31.1078 47.1514Z" fill="#E8BA97"/>
<path d="M67.1535 18.0908V27.5147H27.6729V18.1127C26.0138 16.6944 24.9653 14.6088 24.9653 12.2843C24.9653 8.01154 28.5055 4.54964 32.87 4.54964C34.7795 4.54964 36.5282 5.21098 37.8941 6.31258C39.3985 2.61536 43.0852 0 47.401 0C51.7146 0 55.4033 2.61536 56.9057 6.3124C58.2716 5.21081 60.0224 4.54946 61.9318 4.54946C66.2965 4.54946 69.8345 8.01136 69.8345 12.2841C69.8345 14.5969 68.7984 16.6725 67.1535 18.0908Z" fill="#E6E6E6"/>
<path d="M32.87 4.54965C33.8063 4.54965 34.7042 4.70908 35.5368 5.00181C33.4298 6.07141 31.9234 8.92795 31.9234 12.2843C31.9234 14.6089 32.6462 16.6944 33.7921 18.1127V27.5147H27.6729V18.1127C26.0138 16.6944 24.9653 14.6089 24.9653 12.2843C24.9653 8.01155 28.5053 4.54965 32.87 4.54965Z" fill="#CCCCCC"/>
<path d="M54.7482 48.0579C52.1665 47.0176 50.258 47.361 48.9333 48.0655C48.2989 48.403 47.7857 48.8877 47.4192 49.4579C47.0786 48.9248 46.6085 48.4675 46.0271 48.1384C44.6982 47.386 42.7488 46.9826 40.0795 48.058C34.2559 50.4043 32.7145 56.1026 27.9185 56.1026C32.9366 59.8226 44.0292 62.8798 47.4137 54.2531C50.798 62.8798 61.8904 59.8226 66.909 56.1026C62.1135 56.1025 60.5717 50.4043 54.7482 48.0579Z" fill="#AF7C38"/>
<path d="M42.6314 87.5557C41.788 87.5557 41.1045 86.8869 41.1045 86.0617V83.8706C41.1045 83.0455 41.7878 82.3765 42.6314 82.3765C43.4749 82.3765 44.1582 83.0453 44.1582 83.8706V86.0617C44.1582 86.8869 43.4749 87.5557 42.6314 87.5557Z" fill="#E6E6E6"/>
<path d="M52.1992 87.5557C51.3559 87.5557 50.6724 86.8869 50.6724 86.0617V83.8706C50.6724 83.0455 51.3557 82.3765 52.1992 82.3765C53.0426 82.3765 53.7261 83.0453 53.7261 83.8706V86.0617C53.7261 86.8869 53.0426 87.5557 52.1992 87.5557Z" fill="#E6E6E6"/>
<path d="M9.53029 67.3939H1.97314V82.1832C1.97314 84.2252 3.66476 85.8804 5.75163 85.8804C7.83849 85.8804 9.53011 84.2252 9.53011 82.1832V67.3939H9.53029Z" fill="#F76B4F"/>
<path d="M15.1085 51.0454V67.6919H1.97412V31.6L3.10193 32.1459C10.4547 35.6956 15.1085 43.0239 15.1085 51.0454Z" fill="#E6E6E6"/>
<path d="M9.37197 51.0454V67.692H1.97412V35.1478C6.6074 39.0937 9.37197 44.8624 9.37197 51.0454Z" fill="#CCCCCC"/>
<path d="M38.3521 44.3299C37.5089 44.3299 36.8252 43.6611 36.8252 42.8359V40.4464C36.8252 39.6214 37.5087 38.9524 38.3521 38.9524C39.1954 38.9524 39.8789 39.6212 39.8789 40.4464V42.8359C39.8787 43.6611 39.1952 44.3299 38.3521 44.3299Z" fill="#4D4D4D"/>
<path d="M52.9858 34.6698C52.9858 34.6698 52.9898 34.6302 53.0036 34.5621C53.0193 34.4962 53.0352 34.392 53.0694 34.274C53.0847 34.2131 53.1044 34.1496 53.127 34.0796C53.1566 34.0087 53.1962 33.9374 53.2383 33.8565C53.2801 33.7753 53.3328 33.695 53.3882 33.6047C53.4439 33.513 53.5106 33.4435 53.5787 33.3551C53.6479 33.27 53.7258 33.1879 53.8074 33.0994C53.8935 33.0196 53.9869 32.9408 54.0862 32.8618C54.2806 32.6942 54.5182 32.5731 54.7657 32.4384C55.0218 32.3325 55.2936 32.2175 55.5847 32.1643C55.873 32.0911 56.1753 32.0737 56.4768 32.06C56.7783 32.0735 57.0807 32.0893 57.3692 32.1622C57.6605 32.2148 57.9324 32.3303 58.1887 32.4355C58.4365 32.5701 58.6743 32.691 58.8688 32.8586C58.968 32.9378 59.0615 33.0167 59.148 33.0962C59.2294 33.1849 59.3069 33.2679 59.3767 33.3523C59.4439 33.4403 59.5136 33.5126 59.5648 33.6008C59.6161 33.6884 59.6658 33.767 59.7062 33.8464C59.7463 33.926 59.7852 33.9962 59.8144 34.067C59.8411 34.1407 59.8647 34.2074 59.8822 34.2705C59.9209 34.3926 59.9369 34.4976 59.9517 34.5632C59.9648 34.6311 59.9675 34.6698 59.9675 34.6698C59.9675 34.6698 59.9254 34.6688 59.8542 34.662C59.785 34.6533 59.6775 34.6489 59.5589 34.632C59.4975 34.6258 59.4346 34.6146 59.3656 34.6057C59.292 34.6023 59.2196 34.5923 59.1409 34.5863C58.9863 34.5703 58.8252 34.5467 58.6479 34.5399C58.5607 34.5344 58.4763 34.522 58.388 34.5149C58.2966 34.5136 58.2064 34.509 58.1168 34.5026C57.9414 34.4802 57.7506 34.4934 57.5735 34.4717C57.3873 34.4782 57.209 34.4558 57.0242 34.4615C56.8426 34.4482 56.659 34.4622 56.4768 34.4498C56.2946 34.4619 56.111 34.4464 55.929 34.4594C55.744 34.453 55.5659 34.4761 55.3791 34.4688C55.2019 34.4903 55.0106 34.477 54.8351 34.4996C54.7456 34.5061 54.6553 34.5109 54.5637 34.5118C54.4755 34.5189 54.3914 34.5321 54.3038 34.5373C54.1231 34.5468 53.9729 34.5636 53.8219 34.5763C53.7427 34.5824 53.6686 34.5879 53.6 34.5929C53.5269 34.6059 53.4601 34.6203 53.3965 34.6282C53.2734 34.6496 53.1657 34.6546 53.0974 34.6631C53.0267 34.6698 52.9858 34.6698 52.9858 34.6698Z" fill="#666666"/>
<path d="M34.8613 34.6698C34.8613 34.6698 34.8653 34.6302 34.8791 34.5621C34.8947 34.4962 34.9107 34.392 34.9449 34.274C34.9601 34.2131 34.9799 34.1496 35.0025 34.0796C35.0321 34.0087 35.0717 33.9374 35.1138 33.8565C35.1556 33.7753 35.2083 33.695 35.2637 33.6047C35.3194 33.513 35.3861 33.4435 35.4542 33.3551C35.5234 33.27 35.6013 33.1879 35.6829 33.0994C35.769 33.0196 35.8623 32.9408 35.9617 32.8618C36.1561 32.6942 36.3936 32.5731 36.6412 32.4384C36.8973 32.3325 37.1691 32.2175 37.4602 32.1643C37.7485 32.0911 38.0507 32.0737 38.3523 32.06C38.6538 32.0735 38.9562 32.0893 39.2447 32.1622C39.536 32.2148 39.8079 32.3303 40.0642 32.4355C40.312 32.5701 40.5498 32.691 40.7443 32.8586C40.8435 32.9378 40.937 33.0167 41.0235 33.0962C41.1049 33.1849 41.1824 33.2679 41.2522 33.3523C41.3194 33.4403 41.3891 33.5126 41.4403 33.6008C41.4916 33.6884 41.5413 33.767 41.5817 33.8464C41.6218 33.926 41.6607 33.9962 41.6899 34.067C41.7166 34.1407 41.7402 34.2074 41.7577 34.2705C41.7964 34.3926 41.8123 34.4976 41.8272 34.5632C41.8403 34.6311 41.843 34.6698 41.843 34.6698C41.843 34.6698 41.8009 34.6688 41.7297 34.662C41.6605 34.6533 41.553 34.6489 41.4343 34.632C41.373 34.6258 41.3101 34.6146 41.2411 34.6057C41.1675 34.6023 41.095 34.5923 41.0164 34.5863C40.8618 34.5703 40.7007 34.5467 40.5234 34.5399C40.4362 34.5344 40.3518 34.522 40.2635 34.5149C40.1721 34.5136 40.0819 34.509 39.9923 34.5026C39.8168 34.4802 39.6261 34.4934 39.449 34.4717C39.2628 34.4782 39.0845 34.4558 38.8997 34.4615C38.7181 34.4482 38.5345 34.4622 38.3523 34.4498C38.1701 34.4619 37.9865 34.4464 37.8044 34.4594C37.6195 34.453 37.4413 34.4761 37.2546 34.4688C37.0773 34.4903 36.8861 34.477 36.7106 34.4996C36.6211 34.5061 36.5308 34.5109 36.4392 34.5118C36.351 34.5189 36.2669 34.5321 36.1793 34.5373C35.9986 34.5468 35.8484 34.5636 35.6974 34.5763C35.6182 34.5824 35.5441 34.5879 35.4755 34.5929C35.4024 34.6059 35.3356 34.6203 35.272 34.6282C35.1489 34.6496 35.0412 34.6546 34.9729 34.6631C34.9022 34.6698 34.8613 34.6698 34.8613 34.6698Z" fill="#666666"/>
<path d="M56.4766 44.3299C55.6334 44.3299 54.9497 43.6611 54.9497 42.8359V40.4464C54.9497 39.6214 55.6332 38.9524 56.4766 38.9524C57.3198 38.9524 58.0035 39.6212 58.0035 40.4464V42.8359C58.0035 43.6611 57.3199 44.3299 56.4766 44.3299Z" fill="#4D4D4D"/>
<path d="M49.7551 38.2553V45.3266C49.7551 46.5917 48.7068 47.6174 47.4139 47.6174C46.121 47.6174 45.0728 46.5917 45.0728 45.3266V38.2553" fill="#E8BA97"/>
</svg>
