<svg width="132" height="132" viewBox="0 0 132 132" fill="none" xmlns="http://www.w3.org/2000/svg">
<path d="M48.8433 64.9606C60.2261 69.724 71.7718 69.725 83.1569 64.9604C84.9384 64.2145 86.0896 62.4877 86.0896 60.561V41.9648L95.0605 37.0284C95.8809 36.5775 96.3903 35.7159 96.3906 34.78C96.3908 33.8439 95.8814 32.982 95.0613 32.5303L67.2384 17.22C66.4631 16.793 65.5371 16.7925 64.7623 17.2195L52.1132 24.1799C51.1775 24.6948 50.8367 25.8707 51.3513 26.8066C51.8664 27.7422 53.0418 28.0833 53.9779 27.5684L66.0001 20.9529L91.1262 34.7792C89.4128 35.7221 78.4714 41.7431 77.0294 42.5366L67.3276 33.3736C66.5513 32.6404 65.3275 32.6747 64.5942 33.4517C63.8608 34.228 63.8958 35.4519 64.6724 36.1851L73.4708 44.495L65.9893 48.612C64.1204 47.637 58.1076 44.1895 40.8814 34.7751L47.0667 31.3717C48.0023 30.8568 48.3431 29.6809 47.8285 28.7451C47.3137 27.81 46.138 27.4684 45.2019 27.9832L36.9377 32.5311C36.1178 32.9825 35.6089 33.8444 35.6091 34.7803C35.6094 35.7159 36.1188 36.5775 36.9444 37.0312C40.3333 38.8808 43.3023 40.5071 45.9101 41.9395V60.5607C45.9104 62.4877 47.0615 64.2145 48.8433 64.9606ZM64.4844 52.1843C64.9041 52.3942 65.4584 52.6719 66.0922 52.6719C66.4608 52.6719 66.8563 52.578 67.2678 52.3223L74.7929 48.1812V58.4892C74.7929 59.5573 75.6584 60.4228 76.7265 60.4228C77.7946 60.4228 78.6601 59.5573 78.6601 58.4892V46.0532L82.2221 44.0931V60.5607C82.2221 60.9243 82.0027 61.2509 81.6634 61.393C71.2704 65.7423 60.7301 65.7423 50.3363 61.3932C49.9968 61.2509 49.7774 60.9245 49.7774 60.5607V44.067C59.7293 49.5526 63.1471 51.5163 64.4844 52.1843Z" fill="#FFC4A5"/>
<path d="M107.186 18.8352C107.186 17.7671 106.321 16.9016 105.252 16.9016H96.302C95.2339 16.9016 94.3684 17.7671 94.3684 18.8352C94.3684 19.9033 95.2339 20.7688 96.302 20.7688H105.252C106.321 20.7688 107.186 19.903 107.186 18.8352Z" fill="black"/>
<path d="M114.527 32.8547C115.595 32.8547 116.461 31.9892 116.461 30.921V14.3745C116.461 11.0933 113.791 8.42411 110.51 8.42411H73.6147V7.61508C73.6147 3.41605 70.1987 0 65.9996 0C61.8006 0 58.3846 3.41605 58.3846 7.61508V8.42411H21.4892C18.2082 8.42411 15.5391 11.0935 15.5391 14.3745V71.0711C15.5391 74.3523 18.2085 77.0215 21.4892 77.0215H36.9096V81.7145C36.9096 84.2968 39.01 86.3972 41.5923 86.3972H42.1159C37.6854 94.1466 33.9489 101.057 30.5751 107.623C30.087 108.573 30.4617 109.738 31.4112 110.226C32.3612 110.714 33.5266 110.34 34.0149 109.39C38.0528 101.531 42.2825 93.84 46.5738 86.3972H56.6118C56.105 87.2358 55.6002 88.0658 55.1142 88.8627C48.1315 100.318 40.7529 111.581 33.0295 122.294C31.67 124.168 30.4418 125.84 29.2749 127.401C28.5399 128.386 26.9693 128.41 26.2474 127.281C26.0845 127.026 25.7467 126.346 26.1255 125.525C26.9311 123.781 27.8152 121.906 28.8261 119.796C29.3894 118.629 29.9612 117.466 30.5341 116.304C31.0062 115.346 30.6125 114.187 29.6544 113.715C28.6961 113.243 27.5373 113.637 27.0652 114.595C26.488 115.766 25.9112 116.938 25.3409 118.12C24.32 120.251 23.4282 122.143 22.6148 123.904C21.7962 125.677 21.9365 127.718 22.9899 129.365C25.1574 132.754 30.0118 132.877 32.3734 129.716C33.5513 128.139 34.7901 126.453 36.1637 124.559C44.064 113.6 51.4965 102.227 58.4165 90.8752C58.4196 90.87 58.423 90.8646 58.4261 90.8592L59.9446 119.927C60.1047 122.987 62.631 125.385 65.6959 125.385C68.7608 125.385 71.2869 122.987 71.447 119.927L72.9658 90.8594C72.9689 90.8646 72.9723 90.87 72.9753 90.8749C79.892 102.222 87.3369 113.612 95.2312 124.563C96.6018 126.453 97.8406 128.139 99.0185 129.716C101.379 132.874 106.233 132.755 108.402 129.365C109.456 127.718 109.596 125.676 108.777 123.904C107.971 122.157 107.079 120.266 106.049 118.115C101.442 108.568 96.1271 98.3796 89.2757 86.3967H90.4075C92.9898 86.3967 95.0905 84.2962 95.0905 81.714V77.021H110.511C113.792 77.021 116.461 74.3515 116.461 71.0706V38.6519C116.461 37.5838 115.596 36.7183 114.527 36.7183C113.459 36.7183 112.594 37.5838 112.594 38.6519V71.0711C112.594 72.2197 111.659 73.1542 110.511 73.1542H21.4892C20.3406 73.1542 19.4063 72.2197 19.4063 71.0711V14.3745C19.4063 13.2259 20.3406 12.2913 21.4892 12.2913H110.51C111.659 12.2913 112.594 13.2259 112.594 14.3745V30.921C112.594 31.9889 113.459 32.8547 114.527 32.8547ZM67.5844 119.725C67.5321 120.731 66.7022 121.518 65.6957 121.518C64.6889 121.518 63.859 120.731 63.8067 119.725L62.0654 86.3974H69.326L67.5844 119.725ZM102.563 119.792C103.583 121.921 104.467 123.796 105.266 125.526C105.645 126.346 105.307 127.027 105.144 127.282C104.42 128.412 102.85 128.385 102.116 127.402C100.95 125.84 99.7213 124.169 98.3647 122.298C90.6504 111.597 83.2568 100.314 76.2769 88.8629C75.7925 88.0681 75.2882 87.2392 74.7793 86.3974H84.8173C91.2387 97.5335 97.1519 108.579 102.563 119.792ZM91.223 77.0215V81.7145C91.223 82.1641 90.8571 82.5299 90.4072 82.5299H41.592C41.1424 82.5299 40.7766 82.1641 40.7766 81.7145V77.0215H91.223ZM62.2518 8.42411V7.61508C62.2518 5.54844 63.933 3.86723 65.9996 3.86723C68.0663 3.86723 69.7475 5.54844 69.7475 7.61508V8.42411H62.2518Z" fill="black"/>
</svg>
