<svg width="144" height="144" viewBox="0 0 144 144" fill="none" xmlns="http://www.w3.org/2000/svg">
<g clip-path="url(#clip0)">
<path d="M75.6258 79.1834H17.8795C16.7146 79.1834 15.7701 80.1276 15.7701 81.2928C15.7701 82.458 16.7146 83.4022 17.8795 83.4022H75.6255C76.7907 83.4022 77.7349 82.4577 77.7349 81.2928C77.7351 80.1276 76.7907 79.1834 75.6258 79.1834Z" fill="black"/>
<path d="M75.6258 92.495H17.8795C16.7146 92.495 15.7701 93.4391 15.7701 94.6043C15.7701 95.7696 16.7146 96.7137 17.8795 96.7137H75.6255C76.7907 96.7137 77.7349 95.7696 77.7349 94.6043C77.7351 93.4391 76.7907 92.495 75.6258 92.495Z" fill="black"/>
<path d="M46.7526 105.807H17.8795C16.7146 105.807 15.7701 106.751 15.7701 107.916C15.7701 109.081 16.7146 110.025 17.8795 110.025H46.7526C47.9176 110.025 48.862 109.081 48.862 107.916C48.862 106.751 47.9176 105.807 46.7526 105.807Z" fill="black"/>
<path d="M131.121 52.56H73.375C72.2101 52.56 71.2656 53.5042 71.2656 54.6694C71.2656 55.8346 72.2101 56.7787 73.375 56.7787H131.121C132.286 56.7787 133.231 55.8346 133.231 54.6694C133.231 53.5042 132.286 52.56 131.121 52.56Z" fill="black"/>
<path d="M131.121 65.8716H102.248C101.083 65.8716 100.139 66.8157 100.139 67.9809C100.139 69.1462 101.083 70.0903 102.248 70.0903H131.121C132.286 70.0903 133.231 69.1462 133.231 67.9809C133.231 66.8157 132.286 65.8716 131.121 65.8716Z" fill="black"/>
<path d="M13.064 16.1069H55.2523C56.4172 16.1069 57.3617 15.1627 57.3617 13.9975C57.3617 12.8323 56.4172 11.8882 55.2523 11.8882H13.064C11.899 11.8882 10.9546 12.8323 10.9546 13.9975C10.9546 15.1627 11.899 16.1069 13.064 16.1069Z" fill="#FFC4A5"/>
<path d="M13.064 26.6532H34.158C35.3229 26.6532 36.2674 25.7091 36.2674 24.5438C36.2674 23.3786 35.3229 22.4345 34.158 22.4345H13.064C11.899 22.4345 10.9546 23.3786 10.9546 24.5438C10.9546 25.7091 11.899 26.6532 13.064 26.6532Z" fill="#FFC4A5"/>
<path d="M79.8865 63.4568H13.6186C6.11178 63.4568 0.00415039 69.5641 0.00415039 77.0712V111.299C0.00415039 118.806 6.11149 124.913 13.6186 124.913H14.0942L11.3681 140.05C11.1104 141.481 11.797 142.906 13.0764 143.596C14.3715 144.295 15.9372 144.065 16.9782 143.077L35.6439 125.358C35.9462 125.071 36.3419 124.913 36.7587 124.913H79.8862C87.3933 124.913 93.5006 118.806 93.5006 111.299V77.0712C93.5012 69.5641 87.3936 63.4568 79.8865 63.4568ZM89.2822 111.299C89.2822 116.479 85.0671 120.695 79.8865 120.695H36.759C35.2566 120.695 33.8292 121.264 32.7394 122.298L15.9879 138.2L18.3549 125.058C18.7647 122.783 17.015 120.694 14.7071 120.694H13.6186C8.43799 120.694 4.22318 116.479 4.22318 111.299V77.0712C4.22318 71.8906 8.43799 67.6755 13.6186 67.6755H79.8865C85.0671 67.6755 89.2822 71.8906 89.2822 77.0712V111.299Z" fill="black"/>
<path d="M8.27885 37.5216H24.012C24.0443 37.5216 24.0744 37.539 24.0904 37.5666L30.8103 49.1681C31.5101 50.3767 32.7619 51.0981 34.1584 51.0981C35.555 51.0981 36.8066 50.3767 37.5066 49.1681L44.2263 37.5668C44.2426 37.5387 44.2727 37.5216 44.305 37.5216H60.0379C64.5407 37.5216 68.2037 33.8583 68.2037 29.3555V8.16581C68.2034 3.66328 64.5404 0 60.0376 0H8.27885C3.77632 0 0.113037 3.66328 0.113037 8.16581V9.05709C0.113037 10.2223 1.05747 11.1665 2.22241 11.1665C3.38735 11.1665 4.33179 10.2223 4.33179 9.05709V8.16581C4.33207 5.98922 6.10254 4.21875 8.27885 4.21875H60.0376C62.2139 4.21875 63.9846 5.98922 63.9846 8.16553V29.3552C63.9846 31.5315 62.2139 33.3022 60.0376 33.3022H44.3047C42.7725 33.3022 41.3434 34.126 40.5754 35.4518L34.1581 46.5308L27.7411 35.4518C26.973 34.126 25.5442 33.3022 24.0117 33.3022H8.27857C6.10226 33.3022 4.33179 31.5315 4.33179 29.3552V18.9177C4.33179 17.7525 3.38735 16.8083 2.22241 16.8083C1.05747 16.8083 0.113037 17.7525 0.113037 18.9177V29.3555C0.113037 33.8583 3.77632 37.5216 8.27885 37.5216Z" fill="#FFC4A5"/>
<path d="M131.67 39.5871H72.826C66.0296 39.5871 60.5005 45.1164 60.5005 51.9126V55.7055C60.5005 56.8707 61.4449 57.8149 62.6099 57.8149C63.7748 57.8149 64.7192 56.8707 64.7192 55.7055V51.9126C64.7192 47.4424 68.3558 43.8058 72.8257 43.8058H131.67C136.14 43.8058 139.777 47.4424 139.777 51.9126V81.9076C139.777 86.3778 136.14 90.0144 131.67 90.0144H130.703C128.503 90.0144 126.842 92.0053 127.232 94.167L129.205 105.127L114.854 91.5039C113.843 90.5434 112.517 90.0144 111.122 90.0144H101.252C100.087 90.0144 99.1431 90.9585 99.1431 92.1237C99.1431 93.289 100.087 94.2331 101.252 94.2331H111.122C111.431 94.2331 111.725 94.3504 111.949 94.5633L128.524 110.297C129.532 111.254 131.035 111.458 132.264 110.795C133.49 110.133 134.147 108.767 133.9 107.396L131.53 94.2334H131.67C138.466 94.2334 143.995 88.704 143.995 81.9079V51.9126C143.995 45.1162 138.466 39.5871 131.67 39.5871Z" fill="black"/>
</g>
<defs>
<clipPath id="clip0">
<rect width="144" height="144" fill="white"/>
</clipPath>
</defs>
</svg>
