<svg width="138" height="138" viewBox="0 0 138 138" fill="none" xmlns="http://www.w3.org/2000/svg">
<path d="M71.1562 32.3438H75.4688V36.6562H71.1562V32.3438Z" fill="black"/>
<path d="M62.5312 32.3438H66.8438V36.6562H62.5312V32.3438Z" fill="black"/>
<path d="M10.7812 30.1875H18.5136L26.5068 38.1807C26.9111 38.5851 27.4594 38.8124 28.0312 38.8125C28.3147 38.8134 28.5955 38.7577 28.8571 38.6486C29.251 38.4853 29.5877 38.2088 29.8245 37.8542C30.0613 37.4996 30.1876 37.0827 30.1875 36.6562V30.1875H36.6562C38.3719 30.1875 40.0172 29.506 41.2303 28.2928C42.4435 27.0797 43.125 25.4344 43.125 23.7188V10.7812C43.125 9.06563 42.4435 7.42028 41.2303 6.20715C40.0172 4.99403 38.3719 4.3125 36.6562 4.3125H10.7812C9.06563 4.3125 7.42028 4.99403 6.20715 6.20715C4.99403 7.42028 4.3125 9.06563 4.3125 10.7812V23.7188C4.3125 25.4344 4.99403 27.0797 6.20715 28.2928C7.42028 29.506 9.06563 30.1875 10.7812 30.1875ZM8.625 10.7812C8.625 10.2094 8.85218 9.66093 9.25655 9.25655C9.66093 8.85218 10.2094 8.625 10.7812 8.625H36.6562C37.2281 8.625 37.7766 8.85218 38.181 9.25655C38.5853 9.66093 38.8125 10.2094 38.8125 10.7812V23.7188C38.8125 24.2906 38.5853 24.8391 38.181 25.2434C37.7766 25.6478 37.2281 25.875 36.6562 25.875H28.0312C27.4594 25.875 26.9109 26.1022 26.5066 26.5066C26.1022 26.9109 25.875 27.4594 25.875 28.0312V31.4511L20.9307 26.5068C20.5264 26.1024 19.9781 25.8751 19.4062 25.875H10.7812C10.2094 25.875 9.66093 25.6478 9.25655 25.2434C8.85218 24.8391 8.625 24.2906 8.625 23.7188V10.7812Z" fill="#FFC4A5"/>
<path d="M12.9375 15.0938H17.25V19.4062H12.9375V15.0938Z" fill="#FFC4A5"/>
<path d="M21.5625 15.0938H34.5V19.4062H21.5625V15.0938Z" fill="#FFC4A5"/>
<path d="M127.219 32.3438H101.344C99.6297 32.3489 97.9873 33.032 96.7753 34.2441C95.5633 35.4561 94.8801 37.0985 94.875 38.8125V43.125H83.4684C83.6649 42.4166 83.8161 41.6964 83.9212 40.9688H86.25C87.3927 40.9653 88.4876 40.5099 89.2956 39.7019C90.1036 38.8939 90.5591 37.7989 90.5625 36.6562V34.5C90.5591 33.3573 90.1036 32.2624 89.2956 31.4544C88.4876 30.6464 87.3927 30.1909 86.25 30.1875H84.0938V27.4275C86.0857 26.0447 87.7141 24.2012 88.8403 22.0537C89.9666 19.9063 90.5574 17.5186 90.5625 15.0938V6.46875C90.5625 5.89688 90.3353 5.34843 89.931 4.94405C89.5266 4.53968 88.9781 4.3125 88.4062 4.3125H62.5312C58.5295 4.31707 54.693 5.90876 51.8634 8.7384C49.0338 11.568 47.4421 15.4045 47.4375 19.4062V23.7188C47.4426 25.4328 48.1258 27.0752 49.3378 28.2872C50.5498 29.4992 52.1922 30.1824 53.9062 30.1875H51.75C50.6073 30.1909 49.5124 30.6464 48.7044 31.4544C47.8964 32.2624 47.4409 33.3573 47.4375 34.5V36.6562C47.4409 37.7989 47.8964 38.8939 48.7044 39.7019C49.5124 40.5099 50.6073 40.9653 51.75 40.9688H54.0788C54.1839 41.6964 54.3351 42.4166 54.5316 43.125H10.7812C9.06721 43.1301 7.42483 43.8133 6.21281 45.0253C5.00079 46.2373 4.31762 47.8797 4.3125 49.5938V105.656C4.31762 107.37 5.00079 109.013 6.21281 110.225C7.42483 111.437 9.06721 112.12 10.7812 112.125H53.5181L52.0734 120.75H49.5938C49.2594 120.752 48.9301 120.831 48.631 120.981C48.332 121.13 48.0712 121.346 47.8688 121.613L41.4 130.238C41.1597 130.558 41.0134 130.939 40.9775 131.338C40.9415 131.736 41.0173 132.137 41.1964 132.496C41.3755 132.854 41.6508 133.155 41.9914 133.365C42.332 133.576 42.7246 133.688 43.125 133.688H94.875C95.2754 133.688 95.668 133.576 96.0086 133.365C96.3492 133.155 96.6245 132.854 96.8036 132.496C96.9827 132.137 97.0585 131.736 97.0225 131.338C96.9866 130.939 96.8403 130.558 96.6 130.238L90.1312 121.613C89.9288 121.346 89.668 121.13 89.369 120.981C89.0699 120.831 88.7406 120.752 88.4062 120.75H85.9266L84.4819 112.125H127.219C128.933 112.12 130.575 111.437 131.787 110.225C132.999 109.013 133.682 107.37 133.688 105.656V38.8125C133.682 37.0985 132.999 35.4561 131.787 34.2441C130.575 33.032 128.933 32.3489 127.219 32.3438ZM53.9062 36.6562H51.75V34.5H53.9062V36.6562ZM86.25 34.5V36.6562H84.0938V34.5H86.25ZM53.9062 25.875C53.3344 25.875 52.7859 25.6478 52.3815 25.2434C51.9772 24.8391 51.75 24.2906 51.75 23.7188V19.4062C51.75 16.5469 52.8859 13.8046 54.9078 11.7828C56.9296 9.76088 59.6719 8.625 62.5312 8.625H86.25V15.0938C86.2512 16.754 85.866 18.3918 85.125 19.8775C84.384 21.3632 83.3075 22.6562 81.9806 23.6541L75.7706 22.1016C75.3122 22.0119 74.8373 22.0676 74.4121 22.2608C73.9868 22.4541 73.6326 22.7753 73.3988 23.1797C72.7649 23.4679 72.1992 23.8867 71.7384 24.4087C70.7062 25.4351 69.3932 26.1328 67.965 26.4141C68.3338 25.7855 68.6373 25.1207 68.8706 24.4303C69.1116 23.8124 69.2263 23.1525 69.2078 22.4895C69.1892 21.8266 69.0379 21.1741 68.7628 20.5706C68.5807 20.2191 68.3053 19.9244 67.9667 19.719C67.6282 19.5136 67.2397 19.4054 66.8438 19.4062H64.6875C64.35 19.4083 64.0176 19.4895 63.7172 19.6434L55.0922 23.9559C54.7347 24.1327 54.434 24.4063 54.2244 24.7456C54.0147 25.0849 53.9045 25.4762 53.9062 25.875ZM62.9409 76.7194C63.1535 77.0237 63.4417 77.2673 63.7771 77.4262C64.1126 77.5851 64.4837 77.6538 64.8538 77.6255C65.2239 77.5972 65.5802 77.4729 65.8876 77.2648C66.1949 77.0567 66.4428 76.7721 66.6066 76.4391L69 71.6738L71.3934 76.4391C71.5573 76.7708 71.8043 77.0544 72.1104 77.2623C72.4165 77.4701 72.7712 77.5951 73.14 77.625H73.3125C73.6551 77.6265 73.993 77.5448 74.2972 77.3871C74.6014 77.2294 74.8628 77.0003 75.0591 76.7194L85.0641 62.7253C88.4688 63.4523 91.5186 65.3315 93.6987 68.0459C95.8788 70.7603 97.0559 74.1436 97.0312 77.625V86.25H40.9688V77.625C40.9441 74.1436 42.1212 70.7603 44.3013 68.0459C46.4814 65.3315 49.5312 63.4523 52.9359 62.7253L62.9409 76.7194ZM57.3563 61.4963L59.7928 60.6769L66.3694 67.275L64.3641 71.3072L57.3563 61.4963ZM73.6359 71.3072L71.6306 67.275L78.2072 60.6769L80.6438 61.4963L73.6359 71.3072ZM69 63.8034L64.8384 59.6419L65.8519 53.5612C67.9254 54.0213 70.0746 54.0213 72.1481 53.5612L73.1616 59.6419L69 63.8034ZM69 49.5938C66.1406 49.5938 63.3984 48.4579 61.3765 46.436C59.3546 44.4141 58.2188 41.6719 58.2188 38.8125V27.2119L64.2778 24.1716C64.0191 24.6028 63.7603 24.9694 63.5231 25.2928C63.042 25.7746 62.7152 26.3888 62.5847 27.057C62.4541 27.7252 62.5256 28.4172 62.79 29.0447C63.098 29.5588 63.5296 29.9878 64.0454 30.2928C64.5613 30.5978 65.1452 30.7691 65.7441 30.7913C67.4331 30.9253 69.131 30.6835 70.7155 30.0833C72.3 29.483 73.7318 28.5392 74.9081 27.3197C74.9946 27.1957 75.1262 27.1106 75.2747 27.0825C75.5828 26.9747 75.8735 26.8221 76.1372 26.6297L79.7812 27.5569V38.8125C79.7812 40.2283 79.5024 41.6303 78.9606 42.9383C78.4188 44.2463 77.6246 45.4349 76.6235 46.436C75.6224 47.4371 74.4338 48.2313 73.1258 48.7731C71.8178 49.3149 70.4158 49.5938 69 49.5938ZM87.3281 125.062L90.5625 129.375H47.4375L50.6719 125.062H87.3281ZM56.4506 120.75L57.8953 112.125H80.1047L81.5494 120.75H56.4506ZM129.375 105.656C129.375 106.228 129.148 106.777 128.743 107.181C128.339 107.585 127.791 107.812 127.219 107.812H10.7812C10.2094 107.812 9.66093 107.585 9.25655 107.181C8.85218 106.777 8.625 106.228 8.625 105.656V99.1875H129.375V105.656ZM129.375 94.875H8.625V49.5938C8.625 49.0219 8.85218 48.4734 9.25655 48.069C9.66093 47.6647 10.2094 47.4375 10.7812 47.4375H56.6231C57.9575 49.335 59.7048 50.9053 61.7334 52.0303L61.0434 56.1919C60.6056 56.0337 60.1276 56.0261 59.685 56.1703L53.3672 58.2834C48.7115 58.9363 44.4511 61.257 41.3776 64.8144C38.3041 68.3717 36.6264 72.9239 36.6562 77.625V88.4062C36.6562 88.9781 36.8834 89.5266 37.2878 89.931C37.6922 90.3353 38.2406 90.5625 38.8125 90.5625H99.1875C99.7594 90.5625 100.308 90.3353 100.712 89.931C101.117 89.5266 101.344 88.9781 101.344 88.4062V77.625C101.374 72.9239 99.6959 68.3717 96.6224 64.8144C93.5489 61.257 89.2885 58.9363 84.6328 58.2834L78.315 56.1703C77.8724 56.0261 77.3944 56.0337 76.9566 56.1919L76.2666 52.0303C78.2952 50.9053 80.0425 49.335 81.3769 47.4375H94.875V51.75C94.8801 53.464 95.5633 55.1064 96.7753 56.3184C97.9873 57.5305 99.6297 58.2136 101.344 58.2188H107.812V64.6875C107.811 65.1141 107.937 65.5312 108.176 65.885C108.414 66.2387 108.753 66.5126 109.149 66.6712C109.405 66.7921 109.686 66.8512 109.969 66.8438C110.542 66.8454 111.092 66.6207 111.5 66.2184L119.478 58.2188H127.219C127.954 58.2129 128.684 58.0817 129.375 57.8306V94.875ZM129.375 51.75C129.375 52.3219 129.148 52.8703 128.743 53.2747C128.339 53.6791 127.791 53.9062 127.219 53.9062H118.594C118.022 53.9105 117.474 54.1344 117.063 54.5316L112.125 59.4909V56.0625C112.125 55.4906 111.898 54.9422 111.493 54.5378C111.089 54.1334 110.541 53.9062 109.969 53.9062H101.344C100.772 53.9062 100.223 53.6791 99.819 53.2747C99.4147 52.8703 99.1875 52.3219 99.1875 51.75V38.8125C99.1875 38.2406 99.4147 37.6922 99.819 37.2878C100.223 36.8834 100.772 36.6562 101.344 36.6562H127.219C127.791 36.6562 128.339 36.8834 128.743 37.2878C129.148 37.6922 129.375 38.2406 129.375 38.8125V51.75Z" fill="black"/>
<path d="M120.75 43.125H125.062V47.4375H120.75V43.125Z" fill="black"/>
<path d="M103.5 43.125H116.438V47.4375H103.5V43.125Z" fill="black"/>
</svg>
